<svg width="227" height="157" viewBox="0 0 227 157" fill="none" xmlns="http://www.w3.org/2000/svg">
<path d="M1.73239 12.0001V1.56813H5.30039C6.02572 1.56813 6.67639 1.64813 7.25239 1.80813C7.82839 1.95746 8.28706 2.2188 8.62839 2.59213C8.96972 2.96546 9.14039 3.48813 9.14039 4.16013C9.14039 4.6188 9.01772 5.07213 8.77239 5.52013C8.53772 5.95746 8.20706 6.25613 7.78039 6.41613V6.48013C8.31372 6.6188 8.75639 6.8908 9.10839 7.29613C9.47106 7.6908 9.65239 8.2348 9.65239 8.92813C9.65239 9.6428 9.47106 10.2241 9.10839 10.6721C8.74572 11.1201 8.26039 11.4561 7.65239 11.6801C7.04439 11.8935 6.36172 12.0001 5.60439 12.0001H1.73239ZM4.08439 5.74413H5.18839C5.76439 5.74413 6.18039 5.63213 6.43639 5.40813C6.70306 5.18413 6.83639 4.88546 6.83639 4.51213C6.83639 4.1068 6.70306 3.8188 6.43639 3.64813C6.16972 3.47746 5.75906 3.39213 5.20439 3.39213H4.08439V5.74413ZM4.08439 10.1761H5.41239C6.70306 10.1761 7.34839 9.7068 7.34839 8.76813C7.34839 8.30946 7.18839 7.98413 6.86839 7.79213C6.54839 7.58946 6.06306 7.48813 5.41239 7.48813H4.08439V10.1761Z" fill="#141414"/>
<path d="M11.2279 12.0001V4.06413H13.1479L13.3079 5.45613H13.3719C13.6599 4.9228 14.0066 4.52813 14.4119 4.27213C14.8172 4.00546 15.2226 3.87213 15.6279 3.87213C15.8519 3.87213 16.0386 3.88813 16.1879 3.92013C16.3372 3.94146 16.4652 3.9788 16.5719 4.03213L16.1879 6.06413C16.0492 6.02146 15.9106 5.98946 15.7719 5.96813C15.6439 5.9468 15.4946 5.93613 15.3239 5.93613C15.0252 5.93613 14.7106 6.04813 14.3799 6.27213C14.0599 6.48546 13.7932 6.8588 13.5799 7.39213V12.0001H11.2279Z" fill="#141414"/>
<path d="M17.6029 12.0001V4.06413H19.9549V12.0001H17.6029ZM18.7709 2.89613C18.3762 2.89613 18.0562 2.78413 17.8109 2.56013C17.5656 2.33613 17.4429 2.03746 17.4429 1.66413C17.4429 1.2908 17.5656 0.992129 17.8109 0.768129C18.0562 0.544129 18.3762 0.432129 18.7709 0.432129C19.1656 0.432129 19.4856 0.544129 19.7309 0.768129C19.9762 0.992129 20.0989 1.2908 20.0989 1.66413C20.0989 2.03746 19.9762 2.33613 19.7309 2.56013C19.4856 2.78413 19.1656 2.89613 18.7709 2.89613Z" fill="#141414"/>
<path d="M25.0808 12.1921C24.0994 12.1921 23.3954 11.9095 22.9688 11.3441C22.5528 10.7788 22.3448 10.0375 22.3448 9.12013V5.90413H21.2568V4.16013L22.4728 4.06413L22.7448 1.95213H24.6968V4.06413H26.6008V5.90413H24.6968V9.08813C24.6968 9.53613 24.7874 9.86146 24.9688 10.0641C25.1608 10.2561 25.4114 10.3521 25.7208 10.3521C25.8488 10.3521 25.9768 10.3361 26.1048 10.3041C26.2434 10.2721 26.3661 10.2348 26.4728 10.1921L26.8408 11.9041C26.6381 11.9681 26.3874 12.0321 26.0888 12.0961C25.8008 12.1601 25.4648 12.1921 25.0808 12.1921Z" fill="#141414"/>
<path d="M28.1498 12.0001V4.06413H30.5018V12.0001H28.1498ZM29.3178 2.89613C28.9231 2.89613 28.6031 2.78413 28.3578 2.56013C28.1124 2.33613 27.9898 2.03746 27.9898 1.66413C27.9898 1.2908 28.1124 0.992129 28.3578 0.768129C28.6031 0.544129 28.9231 0.432129 29.3178 0.432129C29.7124 0.432129 30.0324 0.544129 30.2778 0.768129C30.5231 0.992129 30.6458 1.2908 30.6458 1.66413C30.6458 2.03746 30.5231 2.33613 30.2778 2.56013C30.0324 2.78413 29.7124 2.89613 29.3178 2.89613Z" fill="#141414"/>
<path d="M34.9076 12.1921C34.385 12.1921 33.8463 12.0908 33.2916 11.8881C32.7476 11.6855 32.273 11.4188 31.8676 11.0881L32.9236 9.61613C33.2863 9.8828 33.633 10.0908 33.9636 10.2401C34.305 10.3788 34.641 10.4481 34.9716 10.4481C35.3236 10.4481 35.5796 10.3895 35.7396 10.2721C35.8996 10.1441 35.9796 9.9788 35.9796 9.77613C35.9796 9.5948 35.8996 9.44546 35.7396 9.32813C35.5903 9.2108 35.393 9.10413 35.1476 9.00813C34.9023 8.90146 34.641 8.7948 34.3636 8.68813C34.0436 8.56013 33.7236 8.40013 33.4036 8.20813C33.0943 8.01613 32.833 7.7708 32.6196 7.47213C32.4063 7.1628 32.2996 6.78946 32.2996 6.35213C32.2996 5.61613 32.577 5.0188 33.1316 4.56013C33.697 4.10146 34.433 3.87213 35.3396 3.87213C35.9476 3.87213 36.481 3.9788 36.9396 4.19213C37.409 4.3948 37.809 4.62413 38.1396 4.88013L37.0836 6.28813C36.8063 6.0748 36.529 5.90946 36.2516 5.79213C35.9743 5.6748 35.697 5.61613 35.4196 5.61613C34.8116 5.61613 34.5076 5.82413 34.5076 6.24013C34.5076 6.49613 34.657 6.69346 34.9556 6.83213C35.265 6.96013 35.6223 7.0988 36.0276 7.24813C36.369 7.36546 36.6996 7.52013 37.0196 7.71213C37.3503 7.89346 37.6223 8.1388 37.8356 8.44813C38.0596 8.7468 38.1716 9.14146 38.1716 9.63213C38.1716 10.3468 37.8943 10.9548 37.3396 11.4561C36.785 11.9468 35.9743 12.1921 34.9076 12.1921Z" fill="#141414"/>
<path d="M39.6654 12.0001V0.784129H42.0174V3.53613L41.9054 4.96013C42.2041 4.69346 42.5507 4.44813 42.9454 4.22413C43.3507 3.98946 43.8201 3.87213 44.3534 3.87213C45.2174 3.87213 45.8414 4.16013 46.2254 4.73613C46.6201 5.30146 46.8174 6.08013 46.8174 7.07213V12.0001H44.4654V7.37613C44.4654 6.80013 44.3854 6.40546 44.2254 6.19213C44.0761 5.9788 43.8307 5.87213 43.4894 5.87213C43.1907 5.87213 42.9347 5.94146 42.7214 6.08013C42.5081 6.20813 42.2734 6.3948 42.0174 6.64013V12.0001H39.6654Z" fill="#141414"/>
<path d="M54.6491 6.72013L54.3931 7.68013H56.6171L56.3771 6.72013C56.2385 6.19746 56.0945 5.6428 55.9451 5.05613C55.8065 4.46946 55.6678 3.90413 55.5291 3.36013H55.4651C55.3371 3.9148 55.2038 4.48546 55.0651 5.07213C54.9371 5.64813 54.7985 6.19746 54.6491 6.72013ZM50.8731 12.0001L54.1371 1.56813H56.9691L60.2331 12.0001H57.7371L57.0971 9.52013H53.9131L53.2731 12.0001H50.8731Z" fill="#141414"/>
<path d="M61.181 12.0001V4.06413H63.101L63.261 5.08813H63.325C63.6557 4.75746 64.0077 4.4748 64.381 4.24013C64.7543 3.9948 65.2023 3.87213 65.725 3.87213C66.2903 3.87213 66.7437 3.98946 67.085 4.22413C67.437 4.44813 67.7143 4.77346 67.917 5.20013C68.269 4.83746 68.6423 4.52813 69.037 4.27213C69.4317 4.00546 69.8904 3.87213 70.413 3.87213C71.2663 3.87213 71.8903 4.16013 72.285 4.73613C72.6903 5.30146 72.893 6.08013 72.893 7.07213V12.0001H70.541V7.37613C70.541 6.80013 70.461 6.40546 70.301 6.19213C70.1517 5.9788 69.9063 5.87213 69.565 5.87213C69.1703 5.87213 68.717 6.12813 68.205 6.64013V12.0001H65.853V7.37613C65.853 6.80013 65.773 6.40546 65.613 6.19213C65.4637 5.9788 65.2183 5.87213 64.877 5.87213C64.4823 5.87213 64.0343 6.12813 63.533 6.64013V12.0001H61.181Z" fill="#141414"/>
<path d="M78.4518 12.1921C77.6944 12.1921 77.0118 12.0268 76.4038 11.6961C75.7958 11.3655 75.3158 10.8908 74.9638 10.2721C74.6118 9.65346 74.4358 8.9068 74.4358 8.03213C74.4358 7.16813 74.6118 6.4268 74.9638 5.80813C75.3264 5.18946 75.7958 4.7148 76.3718 4.38413C76.9478 4.0428 77.5504 3.87213 78.1798 3.87213C78.9371 3.87213 79.5611 4.0428 80.0518 4.38413C80.5531 4.7148 80.9264 5.16813 81.1718 5.74413C81.4278 6.30946 81.5558 6.9548 81.5558 7.68013C81.5558 7.8828 81.5451 8.08546 81.5238 8.28813C81.5024 8.48013 81.4811 8.62413 81.4598 8.72013H76.7078C76.8144 9.29613 77.0544 9.7228 77.4278 10.0001C77.8011 10.2668 78.2491 10.4001 78.7718 10.4001C79.3371 10.4001 79.9078 10.2241 80.4838 9.87213L81.2678 11.2961C80.8624 11.5735 80.4091 11.7921 79.9078 11.9521C79.4064 12.1121 78.9211 12.1921 78.4518 12.1921ZM76.6918 7.16813H79.5558C79.5558 6.7308 79.4491 6.37346 79.2358 6.09613C79.0331 5.80813 78.6971 5.66413 78.2278 5.66413C77.8651 5.66413 77.5398 5.79213 77.2518 6.04813C76.9638 6.29346 76.7771 6.6668 76.6918 7.16813Z" fill="#141414"/>
<path d="M83.181 12.0001V4.06413H85.101L85.261 5.45613H85.325C85.613 4.9228 85.9597 4.52813 86.365 4.27213C86.7703 4.00546 87.1757 3.87213 87.581 3.87213C87.805 3.87213 87.9917 3.88813 88.141 3.92013C88.2903 3.94146 88.4184 3.9788 88.525 4.03213L88.141 6.06413C88.0023 6.02146 87.8637 5.98946 87.725 5.96813C87.597 5.9468 87.4477 5.93613 87.277 5.93613C86.9783 5.93613 86.6637 6.04813 86.333 6.27213C86.013 6.48546 85.7463 6.8588 85.533 7.39213V12.0001H83.181Z" fill="#141414"/>
<path d="M89.556 12.0001V4.06413H91.908V12.0001H89.556ZM90.724 2.89613C90.3293 2.89613 90.0093 2.78413 89.764 2.56013C89.5187 2.33613 89.396 2.03746 89.396 1.66413C89.396 1.2908 89.5187 0.992129 89.764 0.768129C90.0093 0.544129 90.3293 0.432129 90.724 0.432129C91.1187 0.432129 91.4387 0.544129 91.684 0.768129C91.9293 0.992129 92.052 1.2908 92.052 1.66413C92.052 2.03746 91.9293 2.33613 91.684 2.56013C91.4387 2.78413 91.1187 2.89613 90.724 2.89613Z" fill="#141414"/>
<path d="M97.4339 12.1921C96.6979 12.1921 96.0312 12.0321 95.4339 11.7121C94.8472 11.3815 94.3779 10.9068 94.0259 10.2881C93.6846 9.6588 93.5139 8.9068 93.5139 8.03213C93.5139 7.1468 93.7059 6.3948 94.0899 5.77613C94.4739 5.15746 94.9806 4.68813 95.6099 4.36813C96.2392 4.03746 96.9166 3.87213 97.6419 3.87213C98.1326 3.87213 98.5646 3.95213 98.9379 4.11213C99.3219 4.27213 99.6632 4.4748 99.9619 4.72013L98.8579 6.24013C98.4846 5.9308 98.1272 5.77613 97.7859 5.77613C97.2206 5.77613 96.7672 5.9788 96.4259 6.38413C96.0952 6.78946 95.9299 7.3388 95.9299 8.03213C95.9299 8.7148 96.0952 9.26413 96.4259 9.68013C96.7672 10.0855 97.1939 10.2881 97.7059 10.2881C97.9619 10.2881 98.2126 10.2348 98.4579 10.1281C98.7032 10.0108 98.9272 9.87213 99.1299 9.71213L100.058 11.2481C99.6632 11.5895 99.2365 11.8348 98.7779 11.9841C98.3192 12.1228 97.8712 12.1921 97.4339 12.1921Z" fill="#141414"/>
<path d="M103.29 12.1921C102.565 12.1921 101.989 11.9628 101.562 11.5041C101.136 11.0348 100.922 10.4641 100.922 9.79213C100.922 8.96013 101.274 8.30946 101.978 7.84013C102.682 7.3708 103.818 7.05613 105.386 6.89613C105.365 6.54413 105.258 6.2668 105.066 6.06413C104.885 5.8508 104.576 5.74413 104.138 5.74413C103.808 5.74413 103.472 5.80813 103.13 5.93613C102.789 6.06413 102.426 6.24013 102.042 6.46413L101.194 4.91213C101.696 4.6028 102.229 4.35213 102.794 4.16013C103.37 3.96813 103.968 3.87213 104.586 3.87213C105.6 3.87213 106.378 4.16546 106.922 4.75213C107.466 5.3388 107.738 6.24013 107.738 7.45613V12.0001H105.818L105.658 11.1841H105.594C105.264 11.4828 104.906 11.7281 104.522 11.9201C104.149 12.1015 103.738 12.1921 103.29 12.1921ZM104.09 10.3681C104.357 10.3681 104.586 10.3095 104.778 10.1921C104.981 10.0641 105.184 9.8988 105.386 9.69613V8.30413C104.554 8.4108 103.978 8.58146 103.658 8.81613C103.338 9.04013 103.178 9.3068 103.178 9.61613C103.178 9.87213 103.258 10.0641 103.418 10.1921C103.589 10.3095 103.813 10.3681 104.09 10.3681Z" fill="#141414"/>
<path d="M109.728 12.0001V4.06413H111.648L111.808 5.07213H111.872C112.213 4.75213 112.587 4.4748 112.992 4.24013C113.408 3.9948 113.883 3.87213 114.416 3.87213C115.28 3.87213 115.904 4.16013 116.288 4.73613C116.683 5.30146 116.88 6.08013 116.88 7.07213V12.0001H114.528V7.37613C114.528 6.80013 114.448 6.40546 114.288 6.19213C114.139 5.9788 113.893 5.87213 113.552 5.87213C113.253 5.87213 112.997 5.94146 112.784 6.08013C112.571 6.20813 112.336 6.3948 112.08 6.64013V12.0001H109.728Z" fill="#141414"/>
<path d="M124.311 12.0001V3.55213H121.447V1.56813H129.543V3.55213H126.679V12.0001H124.311Z" fill="#141414"/>
<path d="M133.167 12.1921C132.495 12.1921 131.86 12.0321 131.263 11.7121C130.676 11.3815 130.202 10.9068 129.839 10.2881C129.476 9.6588 129.295 8.9068 129.295 8.03213C129.295 7.1468 129.476 6.3948 129.839 5.77613C130.202 5.15746 130.676 4.68813 131.263 4.36813C131.86 4.03746 132.495 3.87213 133.167 3.87213C133.839 3.87213 134.468 4.03746 135.055 4.36813C135.642 4.68813 136.116 5.15746 136.479 5.77613C136.842 6.3948 137.023 7.1468 137.023 8.03213C137.023 8.9068 136.842 9.6588 136.479 10.2881C136.116 10.9068 135.642 11.3815 135.055 11.7121C134.468 12.0321 133.839 12.1921 133.167 12.1921ZM133.167 10.2881C133.647 10.2881 134.01 10.0855 134.255 9.68013C134.5 9.26413 134.623 8.7148 134.623 8.03213C134.623 7.3388 134.5 6.78946 134.255 6.38413C134.01 5.9788 133.647 5.77613 133.167 5.77613C132.676 5.77613 132.308 5.9788 132.063 6.38413C131.828 6.78946 131.711 7.3388 131.711 8.03213C131.711 8.7148 131.828 9.26413 132.063 9.68013C132.308 10.0855 132.676 10.2881 133.167 10.2881Z" fill="#141414"/>
<path d="M142.794 12.1921C142.442 12.1921 142.085 12.1068 141.722 11.9361C141.37 11.7548 141.039 11.4935 140.73 11.1521H140.666L140.474 12.0001H138.634V0.784129H140.986V3.53613L140.922 4.75213C141.231 4.4748 141.567 4.26146 141.93 4.11213C142.293 3.95213 142.655 3.87213 143.018 3.87213C143.658 3.87213 144.213 4.03746 144.682 4.36813C145.151 4.6988 145.509 5.16813 145.754 5.77613C146.01 6.37346 146.138 7.07746 146.138 7.88813C146.138 8.7948 145.978 9.57346 145.658 10.2241C145.338 10.8641 144.922 11.3548 144.41 11.6961C143.909 12.0268 143.37 12.1921 142.794 12.1921ZM142.25 10.2721C142.655 10.2721 143.002 10.0855 143.29 9.71213C143.578 9.3388 143.722 8.7468 143.722 7.93613C143.722 6.5068 143.263 5.79213 142.346 5.79213C141.877 5.79213 141.423 6.03213 140.986 6.51213V9.76013C141.199 9.95213 141.413 10.0855 141.626 10.1601C141.839 10.2348 142.047 10.2721 142.25 10.2721Z" fill="#141414"/>
<path d="M149.634 12.1921C148.909 12.1921 148.333 11.9628 147.906 11.5041C147.479 11.0348 147.266 10.4641 147.266 9.79213C147.266 8.96013 147.618 8.30946 148.322 7.84013C149.026 7.3708 150.162 7.05613 151.73 6.89613C151.709 6.54413 151.602 6.2668 151.41 6.06413C151.229 5.8508 150.919 5.74413 150.482 5.74413C150.151 5.74413 149.815 5.80813 149.474 5.93613C149.133 6.06413 148.77 6.24013 148.386 6.46413L147.538 4.91213C148.039 4.6028 148.573 4.35213 149.138 4.16013C149.714 3.96813 150.311 3.87213 150.93 3.87213C151.943 3.87213 152.722 4.16546 153.266 4.75213C153.81 5.3388 154.082 6.24013 154.082 7.45613V12.0001H152.162L152.002 11.1841H151.938C151.607 11.4828 151.25 11.7281 150.866 11.9201C150.493 12.1015 150.082 12.1921 149.634 12.1921ZM150.434 10.3681C150.701 10.3681 150.93 10.3095 151.122 10.1921C151.325 10.0641 151.527 9.8988 151.73 9.69613V8.30413C150.898 8.4108 150.322 8.58146 150.002 8.81613C149.682 9.04013 149.522 9.3068 149.522 9.61613C149.522 9.87213 149.602 10.0641 149.762 10.1921C149.933 10.3095 150.157 10.3681 150.434 10.3681Z" fill="#141414"/>
<path d="M159.528 12.1921C158.792 12.1921 158.125 12.0321 157.528 11.7121C156.941 11.3815 156.472 10.9068 156.12 10.2881C155.778 9.6588 155.608 8.9068 155.608 8.03213C155.608 7.1468 155.8 6.3948 156.184 5.77613C156.568 5.15746 157.074 4.68813 157.704 4.36813C158.333 4.03746 159.01 3.87213 159.736 3.87213C160.226 3.87213 160.658 3.95213 161.032 4.11213C161.416 4.27213 161.757 4.4748 162.056 4.72013L160.952 6.24013C160.578 5.9308 160.221 5.77613 159.88 5.77613C159.314 5.77613 158.861 5.9788 158.52 6.38413C158.189 6.78946 158.024 7.3388 158.024 8.03213C158.024 8.7148 158.189 9.26413 158.52 9.68013C158.861 10.0855 159.288 10.2881 159.8 10.2881C160.056 10.2881 160.306 10.2348 160.552 10.1281C160.797 10.0108 161.021 9.87213 161.224 9.71213L162.152 11.2481C161.757 11.5895 161.33 11.8348 160.872 11.9841C160.413 12.1228 159.965 12.1921 159.528 12.1921Z" fill="#141414"/>
<path d="M166.543 12.1921C165.807 12.1921 165.141 12.0321 164.543 11.7121C163.957 11.3815 163.487 10.9068 163.135 10.2881C162.794 9.6588 162.623 8.9068 162.623 8.03213C162.623 7.1468 162.815 6.3948 163.199 5.77613C163.583 5.15746 164.09 4.68813 164.719 4.36813C165.349 4.03746 166.026 3.87213 166.751 3.87213C167.242 3.87213 167.674 3.95213 168.047 4.11213C168.431 4.27213 168.773 4.4748 169.071 4.72013L167.967 6.24013C167.594 5.9308 167.237 5.77613 166.895 5.77613C166.33 5.77613 165.877 5.9788 165.535 6.38413C165.205 6.78946 165.039 7.3388 165.039 8.03213C165.039 8.7148 165.205 9.26413 165.535 9.68013C165.877 10.0855 166.303 10.2881 166.815 10.2881C167.071 10.2881 167.322 10.2348 167.567 10.1281C167.813 10.0108 168.037 9.87213 168.239 9.71213L169.167 11.2481C168.773 11.5895 168.346 11.8348 167.887 11.9841C167.429 12.1228 166.981 12.1921 166.543 12.1921Z" fill="#141414"/>
<path d="M173.511 12.1921C172.839 12.1921 172.204 12.0321 171.607 11.7121C171.02 11.3815 170.546 10.9068 170.183 10.2881C169.82 9.6588 169.639 8.9068 169.639 8.03213C169.639 7.1468 169.82 6.3948 170.183 5.77613C170.546 5.15746 171.02 4.68813 171.607 4.36813C172.204 4.03746 172.839 3.87213 173.511 3.87213C174.183 3.87213 174.812 4.03746 175.399 4.36813C175.986 4.68813 176.46 5.15746 176.823 5.77613C177.186 6.3948 177.367 7.1468 177.367 8.03213C177.367 8.9068 177.186 9.6588 176.823 10.2881C176.46 10.9068 175.986 11.3815 175.399 11.7121C174.812 12.0321 174.183 12.1921 173.511 12.1921ZM173.511 10.2881C173.991 10.2881 174.354 10.0855 174.599 9.68013C174.844 9.26413 174.967 8.7148 174.967 8.03213C174.967 7.3388 174.844 6.78946 174.599 6.38413C174.354 5.9788 173.991 5.77613 173.511 5.77613C173.02 5.77613 172.652 5.9788 172.407 6.38413C172.172 6.78946 172.055 7.3388 172.055 8.03213C172.055 8.7148 172.172 9.26413 172.407 9.68013C172.652 10.0855 173.02 10.2881 173.511 10.2881Z" fill="#141414"/>
<path d="M182.373 12.0001V1.56813H185.957C186.725 1.56813 187.418 1.6748 188.037 1.88813C188.666 2.0908 189.168 2.43746 189.541 2.92813C189.914 3.4188 190.101 4.08546 190.101 4.92813C190.101 5.7388 189.914 6.40546 189.541 6.92813C189.168 7.4508 188.672 7.84013 188.053 8.09613C187.434 8.34146 186.757 8.46413 186.021 8.46413H184.725V12.0001H182.373ZM184.725 6.59213H185.877C187.157 6.59213 187.797 6.03746 187.797 4.92813C187.797 4.38413 187.626 4.00013 187.285 3.77613C186.944 3.55213 186.453 3.44013 185.813 3.44013H184.725V6.59213Z" fill="#141414"/>
<path d="M194.777 12.1921C194.105 12.1921 193.47 12.0321 192.873 11.7121C192.286 11.3815 191.811 10.9068 191.449 10.2881C191.086 9.6588 190.905 8.9068 190.905 8.03213C190.905 7.1468 191.086 6.3948 191.449 5.77613C191.811 5.15746 192.286 4.68813 192.873 4.36813C193.47 4.03746 194.105 3.87213 194.777 3.87213C195.449 3.87213 196.078 4.03746 196.665 4.36813C197.251 4.68813 197.726 5.15746 198.089 5.77613C198.451 6.3948 198.633 7.1468 198.633 8.03213C198.633 8.9068 198.451 9.6588 198.089 10.2881C197.726 10.9068 197.251 11.3815 196.665 11.7121C196.078 12.0321 195.449 12.1921 194.777 12.1921ZM194.777 10.2881C195.257 10.2881 195.619 10.0855 195.865 9.68013C196.11 9.26413 196.233 8.7148 196.233 8.03213C196.233 7.3388 196.11 6.78946 195.865 6.38413C195.619 5.9788 195.257 5.77613 194.777 5.77613C194.286 5.77613 193.918 5.9788 193.673 6.38413C193.438 6.78946 193.321 7.3388 193.321 8.03213C193.321 8.7148 193.438 9.26413 193.673 9.68013C193.918 10.0855 194.286 10.2881 194.777 10.2881Z" fill="#141414"/>
<path d="M202.404 12.1921C201.593 12.1921 201.028 11.9521 200.708 11.4721C200.398 10.9815 200.244 10.3361 200.244 9.53613V0.784129H202.596V9.63213C202.596 9.87746 202.638 10.0481 202.724 10.1441C202.82 10.2401 202.916 10.2881 203.012 10.2881C203.065 10.2881 203.108 10.2881 203.14 10.2881C203.182 10.2775 203.236 10.2668 203.3 10.2561L203.588 12.0001C203.46 12.0535 203.294 12.0961 203.092 12.1281C202.9 12.1708 202.67 12.1921 202.404 12.1921Z" fill="#141414"/>
<path d="M207.158 12.1921C206.635 12.1921 206.096 12.0908 205.542 11.8881C204.998 11.6855 204.523 11.4188 204.118 11.0881L205.174 9.61613C205.536 9.8828 205.883 10.0908 206.214 10.2401C206.555 10.3788 206.891 10.4481 207.222 10.4481C207.574 10.4481 207.83 10.3895 207.99 10.2721C208.15 10.1441 208.23 9.9788 208.23 9.77613C208.23 9.5948 208.15 9.44546 207.99 9.32813C207.84 9.2108 207.643 9.10413 207.398 9.00813C207.152 8.90146 206.891 8.7948 206.614 8.68813C206.294 8.56013 205.974 8.40013 205.654 8.20813C205.344 8.01613 205.083 7.7708 204.87 7.47213C204.656 7.1628 204.55 6.78946 204.55 6.35213C204.55 5.61613 204.827 5.0188 205.382 4.56013C205.947 4.10146 206.683 3.87213 207.59 3.87213C208.198 3.87213 208.731 3.9788 209.19 4.19213C209.659 4.3948 210.059 4.62413 210.39 4.88013L209.334 6.28813C209.056 6.0748 208.779 5.90946 208.502 5.79213C208.224 5.6748 207.947 5.61613 207.67 5.61613C207.062 5.61613 206.758 5.82413 206.758 6.24013C206.758 6.49613 206.907 6.69346 207.206 6.83213C207.515 6.96013 207.872 7.0988 208.278 7.24813C208.619 7.36546 208.95 7.52013 209.27 7.71213C209.6 7.89346 209.872 8.1388 210.086 8.44813C210.31 8.7468 210.422 9.14146 210.422 9.63213C210.422 10.3468 210.144 10.9548 209.59 11.4561C209.035 11.9468 208.224 12.1921 207.158 12.1921Z" fill="#141414"/>
<path d="M211.915 12.0001V0.784129H214.203V7.21613H214.267L216.779 4.06413H219.339L216.555 7.32813L219.547 12.0001H217.003L215.211 8.91213L214.203 10.0481V12.0001H211.915Z" fill="#141414"/>
<path d="M222.525 12.1921C221.799 12.1921 221.223 11.9628 220.797 11.5041C220.37 11.0348 220.157 10.4641 220.157 9.79213C220.157 8.96013 220.509 8.30946 221.213 7.84013C221.917 7.3708 223.053 7.05613 224.621 6.89613C224.599 6.54413 224.493 6.2668 224.301 6.06413C224.119 5.8508 223.81 5.74413 223.373 5.74413C223.042 5.74413 222.706 5.80813 222.365 5.93613C222.023 6.06413 221.661 6.24013 221.277 6.46413L220.429 4.91213C220.93 4.6028 221.463 4.35213 222.029 4.16013C222.605 3.96813 223.202 3.87213 223.821 3.87213C224.834 3.87213 225.613 4.16546 226.157 4.75213C226.701 5.3388 226.973 6.24013 226.973 7.45613V12.0001H225.053L224.893 11.1841H224.829C224.498 11.4828 224.141 11.7281 223.757 11.9201C223.383 12.1015 222.973 12.1921 222.525 12.1921ZM223.325 10.3681C223.591 10.3681 223.821 10.3095 224.013 10.1921C224.215 10.0641 224.418 9.8988 224.621 9.69613V8.30413C223.789 8.4108 223.213 8.58146 222.893 8.81613C222.573 9.04013 222.413 9.3068 222.413 9.61613C222.413 9.87213 222.493 10.0641 222.653 10.1921C222.823 10.3095 223.047 10.3681 223.325 10.3681Z" fill="#141414"/>
<path d="M3.76439 36.0001V27.5521H0.900391V25.5681H8.99639V27.5521H6.13239V36.0001H3.76439Z" fill="#141414"/>
<path d="M9.75914 36.0001V28.0641H11.6791L11.8391 29.4561H11.9031C12.1911 28.9228 12.5378 28.5281 12.9431 28.2721C13.3485 28.0055 13.7538 27.8721 14.1591 27.8721C14.3831 27.8721 14.5698 27.8881 14.7191 27.9201C14.8685 27.9415 14.9965 27.9788 15.1031 28.0321L14.7191 30.0641C14.5805 30.0215 14.4418 29.9895 14.3031 29.9681C14.1751 29.9468 14.0258 29.9361 13.8551 29.9361C13.5565 29.9361 13.2418 30.0481 12.9111 30.2721C12.5911 30.4855 12.3245 30.8588 12.1111 31.3921V36.0001H9.75914Z" fill="#141414"/>
<path d="M17.681 36.1921C16.9557 36.1921 16.3797 35.9628 15.953 35.5041C15.5264 35.0348 15.313 34.4641 15.313 33.7921C15.313 32.9601 15.665 32.3095 16.369 31.8401C17.073 31.3708 18.209 31.0561 19.777 30.8961C19.7557 30.5441 19.649 30.2668 19.457 30.0641C19.2757 29.8508 18.9664 29.7441 18.529 29.7441C18.1983 29.7441 17.8624 29.8081 17.521 29.9361C17.1797 30.0641 16.817 30.2401 16.433 30.4641L15.585 28.9121C16.0863 28.6028 16.6197 28.3521 17.185 28.1601C17.761 27.9681 18.3583 27.8721 18.977 27.8721C19.9903 27.8721 20.769 28.1655 21.313 28.7521C21.857 29.3388 22.129 30.2401 22.129 31.4561V36.0001H20.209L20.049 35.1841H19.985C19.6543 35.4828 19.297 35.7281 18.913 35.9201C18.5397 36.1015 18.129 36.1921 17.681 36.1921ZM18.481 34.3681C18.7477 34.3681 18.977 34.3095 19.169 34.1921C19.3717 34.0641 19.5743 33.8988 19.777 33.6961V32.3041C18.945 32.4108 18.369 32.5815 18.049 32.8161C17.729 33.0401 17.569 33.3068 17.569 33.6161C17.569 33.8721 17.649 34.0641 17.809 34.1921C17.9797 34.3095 18.2037 34.3681 18.481 34.3681Z" fill="#141414"/>
<path d="M26.9505 36.1921C25.9692 36.1921 25.1798 35.8241 24.5825 35.0881C23.9958 34.3415 23.7025 33.3228 23.7025 32.0321C23.7025 31.1681 23.8572 30.4268 24.1665 29.8081C24.4865 29.1788 24.8972 28.6988 25.3985 28.3681C25.9105 28.0375 26.4438 27.8721 26.9985 27.8721C27.4359 27.8721 27.8039 27.9468 28.1025 28.0961C28.4012 28.2455 28.6838 28.4481 28.9505 28.7041L28.8545 27.4881V24.7841H31.2065V36.0001H29.2865L29.1265 35.2161H29.0625C28.7852 35.4935 28.4598 35.7281 28.0865 35.9201C27.7132 36.1015 27.3345 36.1921 26.9505 36.1921ZM27.5585 34.2721C27.8145 34.2721 28.0438 34.2188 28.2465 34.1121C28.4598 34.0055 28.6625 33.8188 28.8545 33.5521V30.3041C28.6518 30.1121 28.4332 29.9788 28.1985 29.9041C27.9745 29.8295 27.7558 29.7921 27.5425 29.7921C27.1692 29.7921 26.8385 29.9735 26.5505 30.3361C26.2625 30.6881 26.1185 31.2428 26.1185 32.0001C26.1185 32.7788 26.2412 33.3548 26.4865 33.7281C26.7425 34.0908 27.0998 34.2721 27.5585 34.2721Z" fill="#141414"/>
<path d="M33.2904 36.0001V28.0641H35.6424V36.0001H33.2904ZM34.4584 26.8961C34.0637 26.8961 33.7437 26.7841 33.4984 26.5601C33.2531 26.3361 33.1304 26.0375 33.1304 25.6641C33.1304 25.2908 33.2531 24.9921 33.4984 24.7681C33.7437 24.5441 34.0637 24.4321 34.4584 24.4321C34.8531 24.4321 35.1731 24.5441 35.4184 24.7681C35.6637 24.9921 35.7864 25.2908 35.7864 25.6641C35.7864 26.0375 35.6637 26.3361 35.4184 26.5601C35.1731 26.7841 34.8531 26.8961 34.4584 26.8961Z" fill="#141414"/>
<path d="M37.7123 36.0001V28.0641H39.6323L39.7923 29.0721H39.8563C40.1976 28.7521 40.5709 28.4748 40.9763 28.2401C41.3923 27.9948 41.8669 27.8721 42.4003 27.8721C43.2643 27.8721 43.8883 28.1601 44.2723 28.7361C44.6669 29.3015 44.8643 30.0801 44.8643 31.0721V36.0001H42.5123V31.3761C42.5123 30.8001 42.4323 30.4055 42.2723 30.1921C42.1229 29.9788 41.8776 29.8721 41.5363 29.8721C41.2376 29.8721 40.9816 29.9415 40.7683 30.0801C40.5549 30.2081 40.3203 30.3948 40.0643 30.6401V36.0001H37.7123Z" fill="#141414"/>
<path d="M49.7005 39.3761C49.0818 39.3761 48.5219 39.3068 48.0205 39.1681C47.5192 39.0295 47.1192 38.8108 46.8205 38.5121C46.5218 38.2135 46.3725 37.8295 46.3725 37.3601C46.3725 36.7201 46.7512 36.1868 47.5085 35.7601V35.6961C47.3058 35.5575 47.1298 35.3815 46.9805 35.1681C46.8418 34.9548 46.7725 34.6828 46.7725 34.3521C46.7725 34.0641 46.8578 33.7868 47.0285 33.5201C47.1992 33.2535 47.4125 33.0348 47.6685 32.8641V32.8001C47.3912 32.6081 47.1405 32.3308 46.9165 31.9681C46.7032 31.6055 46.5965 31.1948 46.5965 30.7361C46.5965 30.0961 46.7512 29.5681 47.0605 29.1521C47.3698 28.7255 47.7752 28.4055 48.2765 28.1921C48.7778 27.9788 49.3112 27.8721 49.8765 27.8721C50.3458 27.8721 50.7565 27.9361 51.1085 28.0641H54.0045V29.7761H52.7405C52.8152 29.8935 52.8738 30.0428 52.9165 30.2241C52.9698 30.4055 52.9965 30.6028 52.9965 30.8161C52.9965 31.4241 52.8578 31.9255 52.5805 32.3201C52.3032 32.7148 51.9298 33.0081 51.4605 33.2001C50.9912 33.3921 50.4632 33.4881 49.8765 33.4881C49.5672 33.4881 49.2472 33.4348 48.9165 33.3281C48.7245 33.4881 48.6285 33.6855 48.6285 33.9201C48.6285 34.1228 48.7192 34.2721 48.9005 34.3681C49.0818 34.4641 49.3912 34.5121 49.8285 34.5121H51.1085C52.0898 34.5121 52.8365 34.6721 53.3485 34.9921C53.8712 35.3015 54.1325 35.8135 54.1325 36.5281C54.1325 37.0721 53.9512 37.5575 53.5885 37.9841C53.2258 38.4215 52.7138 38.7628 52.0525 39.0081C51.3912 39.2535 50.6072 39.3761 49.7005 39.3761ZM49.8765 32.0641C50.1858 32.0641 50.4418 31.9521 50.6445 31.7281C50.8578 31.5041 50.9645 31.1735 50.9645 30.7361C50.9645 30.3201 50.8578 30.0055 50.6445 29.7921C50.4418 29.5681 50.1858 29.4561 49.8765 29.4561C49.5672 29.4561 49.3058 29.5628 49.0925 29.7761C48.8898 29.9895 48.7885 30.3095 48.7885 30.7361C48.7885 31.1735 48.8898 31.5041 49.0925 31.7281C49.3058 31.9521 49.5672 32.0641 49.8765 32.0641ZM50.0685 37.9041C50.6018 37.9041 51.0392 37.8081 51.3805 37.6161C51.7218 37.4241 51.8925 37.1948 51.8925 36.9281C51.8925 36.6828 51.7858 36.5175 51.5725 36.4321C51.3698 36.3468 51.0712 36.3041 50.6765 36.3041H49.8605C49.5938 36.3041 49.3698 36.2935 49.1885 36.2721C49.0178 36.2615 48.8685 36.2401 48.7405 36.2081C48.4525 36.4641 48.3085 36.7255 48.3085 36.9921C48.3085 37.2908 48.4685 37.5148 48.7885 37.6641C49.1192 37.8241 49.5458 37.9041 50.0685 37.9041Z" fill="#141414"/>
<path d="M61.9945 36.1921C61.3118 36.1921 60.6292 36.0641 59.9465 35.8081C59.2745 35.5521 58.6718 35.1788 58.1385 34.6881L59.4825 33.0721C59.8558 33.3921 60.2718 33.6535 60.7305 33.8561C61.1892 34.0588 61.6318 34.1601 62.0585 34.1601C62.5492 34.1601 62.9118 34.0695 63.1465 33.8881C63.3918 33.7068 63.5145 33.4615 63.5145 33.1521C63.5145 32.8215 63.3758 32.5815 63.0985 32.4321C62.8318 32.2721 62.4692 32.0961 62.0105 31.9041L60.6505 31.3281C60.2985 31.1788 59.9625 30.9815 59.6425 30.7361C59.3225 30.4801 59.0612 30.1655 58.8585 29.7921C58.6558 29.4188 58.5545 28.9815 58.5545 28.4801C58.5545 27.9041 58.7092 27.3815 59.0185 26.9121C59.3385 26.4428 59.7758 26.0695 60.3305 25.7921C60.8958 25.5148 61.5412 25.3761 62.2665 25.3761C62.8638 25.3761 63.4612 25.4935 64.0585 25.7281C64.6558 25.9628 65.1785 26.3041 65.6265 26.7521L64.4265 28.2401C64.0852 27.9735 63.7439 27.7708 63.4025 27.6321C63.0612 27.4828 62.6825 27.4081 62.2665 27.4081C61.8612 27.4081 61.5359 27.4935 61.2905 27.6641C61.0559 27.8241 60.9385 28.0535 60.9385 28.3521C60.9385 28.6721 61.0878 28.9121 61.3865 29.0721C61.6958 29.2321 62.0745 29.4028 62.5225 29.5841L63.8665 30.1281C64.4958 30.3841 64.9972 30.7361 65.3705 31.1841C65.7439 31.6321 65.9305 32.2241 65.9305 32.9601C65.9305 33.5361 65.7758 34.0695 65.4665 34.5601C65.1572 35.0508 64.7092 35.4455 64.1225 35.7441C63.5358 36.0428 62.8265 36.1921 61.9945 36.1921Z" fill="#141414"/>
<path d="M67.5091 38.9441V28.0641H69.4291L69.5891 28.8481H69.6531C69.9625 28.5708 70.3091 28.3415 70.6931 28.1601C71.0878 27.9681 71.4931 27.8721 71.9091 27.8721C72.8691 27.8721 73.6265 28.2401 74.1811 28.9761C74.7358 29.7015 75.0131 30.6775 75.0131 31.9041C75.0131 32.8108 74.8531 33.5841 74.5331 34.2241C74.2131 34.8641 73.7971 35.3548 73.2851 35.6961C72.7838 36.0268 72.2451 36.1921 71.6691 36.1921C71.3278 36.1921 70.9971 36.1228 70.6771 35.9841C70.3571 35.8348 70.0585 35.6268 69.7811 35.3601L69.8611 36.6241V38.9441H67.5091ZM71.1251 34.2721C71.5305 34.2721 71.8771 34.0855 72.1651 33.7121C72.4531 33.3388 72.5971 32.7468 72.5971 31.9361C72.5971 30.5068 72.1385 29.7921 71.2211 29.7921C70.7625 29.7921 70.3091 30.0321 69.8611 30.5121V33.7601C70.0745 33.9521 70.2878 34.0855 70.5011 34.1601C70.7145 34.2348 70.9225 34.2721 71.1251 34.2721Z" fill="#141414"/>
<path d="M77.8848 36.1921C77.4794 36.1921 77.1381 36.0535 76.8608 35.7761C76.5941 35.4881 76.4608 35.1361 76.4608 34.7201C76.4608 34.2935 76.5941 33.9415 76.8608 33.6641C77.1381 33.3761 77.4794 33.2321 77.8848 33.2321C78.2901 33.2321 78.6261 33.3761 78.8928 33.6641C79.1701 33.9415 79.3088 34.2935 79.3088 34.7201C79.3088 35.1361 79.1701 35.4881 78.8928 35.7761C78.6261 36.0535 78.2901 36.1921 77.8848 36.1921Z" fill="#141414"/>
<path d="M84.0928 36.0001V34.7361L87.4208 29.9041H84.4608V28.0641H90.3488V29.3121L87.0208 34.1601H90.4608V36.0001H84.0928Z" fill="#141414"/>
<path d="M98.4953 36.1921C97.8233 36.1921 97.1886 36.0321 96.5913 35.7121C96.0046 35.3815 95.5299 34.9068 95.1673 34.2881C94.8046 33.6588 94.6233 32.9068 94.6233 32.0321C94.6233 31.1468 94.8046 30.3948 95.1673 29.7761C95.5299 29.1575 96.0046 28.6881 96.5913 28.3681C97.1886 28.0375 97.8233 27.8721 98.4953 27.8721C99.1673 27.8721 99.7966 28.0375 100.383 28.3681C100.97 28.6881 101.445 29.1575 101.807 29.7761C102.17 30.3948 102.351 31.1468 102.351 32.0321C102.351 32.9068 102.17 33.6588 101.807 34.2881C101.445 34.9068 100.97 35.3815 100.383 35.7121C99.7966 36.0321 99.1673 36.1921 98.4953 36.1921ZM98.4953 34.2881C98.9753 34.2881 99.3379 34.0855 99.5833 33.6801C99.8286 33.2641 99.9513 32.7148 99.9513 32.0321C99.9513 31.3388 99.8286 30.7895 99.5833 30.3841C99.3379 29.9788 98.9753 29.7761 98.4953 29.7761C98.0046 29.7761 97.6366 29.9788 97.3913 30.3841C97.1566 30.7895 97.0393 31.3388 97.0393 32.0321C97.0393 32.7148 97.1566 33.2641 97.3913 33.6801C97.6366 34.0855 98.0046 34.2881 98.4953 34.2881Z" fill="#141414"/>
<path d="M105.166 36.1921C104.761 36.1921 104.419 36.0535 104.142 35.7761C103.875 35.4881 103.742 35.1361 103.742 34.7201C103.742 34.2935 103.875 33.9415 104.142 33.6641C104.419 33.3761 104.761 33.2321 105.166 33.2321C105.571 33.2321 105.907 33.3761 106.174 33.6641C106.451 33.9415 106.59 34.2935 106.59 34.7201C106.59 35.1361 106.451 35.4881 106.174 35.7761C105.907 36.0535 105.571 36.1921 105.166 36.1921Z" fill="#141414"/>
<path d="M111.855 36.1921C111.183 36.1921 110.548 36.0321 109.951 35.7121C109.364 35.3815 108.889 34.9068 108.527 34.2881C108.164 33.6588 107.983 32.9068 107.983 32.0321C107.983 31.1468 108.164 30.3948 108.527 29.7761C108.889 29.1575 109.364 28.6881 109.951 28.3681C110.548 28.0375 111.183 27.8721 111.855 27.8721C112.527 27.8721 113.156 28.0375 113.743 28.3681C114.329 28.6881 114.804 29.1575 115.167 29.7761C115.529 30.3948 115.711 31.1468 115.711 32.0321C115.711 32.9068 115.529 33.6588 115.167 34.2881C114.804 34.9068 114.329 35.3815 113.743 35.7121C113.156 36.0321 112.527 36.1921 111.855 36.1921ZM111.855 34.2881C112.335 34.2881 112.697 34.0855 112.943 33.6801C113.188 33.2641 113.311 32.7148 113.311 32.0321C113.311 31.3388 113.188 30.7895 112.943 30.3841C112.697 29.9788 112.335 29.7761 111.855 29.7761C111.364 29.7761 110.996 29.9788 110.751 30.3841C110.516 30.7895 110.399 31.3388 110.399 32.0321C110.399 32.7148 110.516 33.2641 110.751 33.6801C110.996 34.0855 111.364 34.2881 111.855 34.2881Z" fill="#141414"/>
<path d="M118.525 36.1921C118.12 36.1921 117.779 36.0535 117.501 35.7761C117.235 35.4881 117.101 35.1361 117.101 34.7201C117.101 34.2935 117.235 33.9415 117.501 33.6641C117.779 33.3761 118.12 33.2321 118.525 33.2321C118.931 33.2321 119.267 33.3761 119.533 33.6641C119.811 33.9415 119.949 34.2935 119.949 34.7201C119.949 35.1361 119.811 35.4881 119.533 35.7761C119.267 36.0535 118.931 36.1921 118.525 36.1921Z" fill="#141414"/>
<path d="M4.11639 60.0001V50.6241H0.948391V49.5041H8.62839V50.6241H5.46039V60.0001H4.11639Z" fill="#141414"/>
<path d="M10.3905 60.0001V48.6081H11.7025V51.7121L11.6545 53.3121C12.0278 52.9601 12.4172 52.6615 12.8225 52.4161C13.2385 52.1601 13.7132 52.0321 14.2465 52.0321C15.0678 52.0321 15.6652 52.2935 16.0385 52.8161C16.4225 53.3281 16.6145 54.0801 16.6145 55.0721V60.0001H15.3025V55.2481C15.3025 54.5228 15.1852 53.9948 14.9505 53.6641C14.7158 53.3335 14.3425 53.1681 13.8305 53.1681C13.4359 53.1681 13.0785 53.2695 12.7585 53.4721C12.4492 53.6748 12.0972 53.9735 11.7025 54.3681V60.0001H10.3905Z" fill="#141414"/>
<path d="M22.2456 60.1921C21.5523 60.1921 20.923 60.0321 20.3576 59.7121C19.7923 59.3815 19.3443 58.9121 19.0136 58.3041C18.683 57.6961 18.5176 56.9708 18.5176 56.1281C18.5176 55.2748 18.683 54.5441 19.0136 53.9361C19.355 53.3281 19.7923 52.8588 20.3256 52.5281C20.859 52.1975 21.419 52.0321 22.0056 52.0321C22.9976 52.0321 23.7603 52.3628 24.2936 53.0241C24.8376 53.6855 25.1096 54.5708 25.1096 55.6801C25.1096 55.8188 25.1043 55.9575 25.0936 56.0961C25.0936 56.2241 25.083 56.3361 25.0616 56.4321H19.8136C19.867 57.2535 20.123 57.9095 20.5816 58.4001C21.051 58.8908 21.659 59.1361 22.4056 59.1361C22.779 59.1361 23.1203 59.0828 23.4296 58.9761C23.7496 58.8588 24.0536 58.7095 24.3416 58.5281L24.8056 59.3921C24.475 59.6055 24.0963 59.7921 23.6696 59.9521C23.2536 60.1121 22.779 60.1921 22.2456 60.1921ZM19.7976 55.4881H23.9576C23.9576 54.6988 23.787 54.1015 23.4456 53.6961C23.115 53.2801 22.6456 53.0721 22.0376 53.0721C21.4936 53.0721 21.003 53.2855 20.5656 53.7121C20.139 54.1281 19.883 54.7201 19.7976 55.4881Z" fill="#141414"/>
<path d="M30.3623 60.0001V49.5041H33.3543C34.1436 49.5041 34.8316 49.6001 35.4183 49.7921C36.0049 49.9841 36.4636 50.3095 36.7943 50.7681C37.1249 51.2161 37.2903 51.8241 37.2903 52.5921C37.2903 53.6908 36.9329 54.5068 36.2183 55.0401C35.5036 55.5735 34.5703 55.8401 33.4183 55.8401H31.6903V60.0001H30.3623ZM31.6903 54.7521H33.2583C34.1756 54.7521 34.8529 54.5815 35.2903 54.2401C35.7383 53.8881 35.9623 53.3388 35.9623 52.5921C35.9623 51.8348 35.7276 51.3121 35.2583 51.0241C34.7996 50.7255 34.1116 50.5761 33.1943 50.5761H31.6903V54.7521Z" fill="#141414"/>
<path d="M40.4013 60.1921C39.7506 60.1921 39.2066 60.0001 38.7693 59.6161C38.3426 59.2215 38.1293 58.6775 38.1293 57.9841C38.1293 57.1308 38.5079 56.4801 39.2653 56.0321C40.0333 55.5735 41.2439 55.2535 42.8973 55.0721C42.8973 54.7415 42.8493 54.4268 42.7533 54.1281C42.6679 53.8295 42.5079 53.5895 42.2733 53.4081C42.0493 53.2161 41.7239 53.1201 41.2973 53.1201C40.8493 53.1201 40.4279 53.2055 40.0333 53.3761C39.6386 53.5468 39.2866 53.7388 38.9773 53.9521L38.4653 53.0401C38.8279 52.8055 39.2706 52.5815 39.7933 52.3681C40.3266 52.1441 40.9026 52.0321 41.5213 52.0321C42.4706 52.0321 43.1586 52.3255 43.5853 52.9121C44.0119 53.4881 44.2253 54.2615 44.2253 55.2321V60.0001H43.1373L43.0253 59.0721H42.9773C42.6146 59.3708 42.2146 59.6321 41.7773 59.8561C41.3506 60.0801 40.8919 60.1921 40.4013 60.1921ZM40.7853 59.1361C41.1586 59.1361 41.5106 59.0455 41.8413 58.8641C42.1719 58.6828 42.5239 58.4268 42.8973 58.0961V55.9361C41.6066 56.0961 40.6999 56.3361 40.1773 56.6561C39.6653 56.9761 39.4093 57.3868 39.4093 57.8881C39.4093 58.3255 39.5426 58.6455 39.8093 58.8481C40.0759 59.0401 40.4013 59.1361 40.7853 59.1361Z" fill="#141414"/>
<path d="M46.6718 60.0001V52.2241H47.7598L47.8718 53.6321H47.9198C48.1864 53.1415 48.5118 52.7521 48.8958 52.4641C49.2798 52.1761 49.6904 52.0321 50.1278 52.0321C50.4371 52.0321 50.7144 52.0855 50.9598 52.1921L50.7038 53.3441C50.5758 53.3015 50.4584 53.2695 50.3518 53.2481C50.2451 53.2268 50.1118 53.2161 49.9518 53.2161C49.6211 53.2161 49.2744 53.3495 48.9118 53.6161C48.5598 53.8828 48.2504 54.3468 47.9838 55.0081V60.0001H46.6718Z" fill="#141414"/>
<path d="M52.2186 60.0001V48.6081H53.5146V56.3201H53.5626L56.8746 52.2241H58.3306L55.7226 55.3441L58.6826 60.0001H57.2426L54.9706 56.2561L53.5146 57.9521V60.0001H52.2186Z" fill="#141414"/>
<path d="M64.6236 60.0001L62.3996 49.5041H63.7756L64.8796 55.2161C64.9756 55.7815 65.077 56.3468 65.1836 56.9121C65.2903 57.4775 65.3916 58.0428 65.4876 58.6081H65.5516C65.669 58.0428 65.7916 57.4775 65.9196 56.9121C66.0476 56.3361 66.1703 55.7708 66.2876 55.2161L67.7436 49.5041H68.9596L70.4156 55.2161C70.5436 55.7708 70.6716 56.3361 70.7996 56.9121C70.9276 57.4775 71.0556 58.0428 71.1836 58.6081H71.2476C71.3436 58.0428 71.4396 57.4775 71.5356 56.9121C71.6316 56.3361 71.733 55.7708 71.8396 55.2161L72.9436 49.5041H74.2236L72.0476 60.0001H70.4476L68.8636 53.6801C68.7676 53.2748 68.677 52.8801 68.5916 52.4961C68.517 52.1015 68.437 51.7015 68.3516 51.2961H68.2876C68.213 51.7015 68.1276 52.1015 68.0316 52.4961C67.9356 52.8801 67.845 53.2748 67.7596 53.6801L66.2076 60.0001H64.6236Z" fill="#141414"/>
<path d="M77.4638 60.1921C76.8131 60.1921 76.2691 60.0001 75.8318 59.6161C75.4051 59.2215 75.1918 58.6775 75.1918 57.9841C75.1918 57.1308 75.5704 56.4801 76.3278 56.0321C77.0958 55.5735 78.3064 55.2535 79.9598 55.0721C79.9598 54.7415 79.9118 54.4268 79.8158 54.1281C79.7304 53.8295 79.5704 53.5895 79.3358 53.4081C79.1118 53.2161 78.7864 53.1201 78.3598 53.1201C77.9118 53.1201 77.4904 53.2055 77.0958 53.3761C76.7011 53.5468 76.3491 53.7388 76.0398 53.9521L75.5278 53.0401C75.8904 52.8055 76.3331 52.5815 76.8558 52.3681C77.3891 52.1441 77.9651 52.0321 78.5838 52.0321C79.5331 52.0321 80.2211 52.3255 80.6478 52.9121C81.0744 53.4881 81.2878 54.2615 81.2878 55.2321V60.0001H80.1998L80.0878 59.0721H80.0398C79.6771 59.3708 79.2771 59.6321 78.8398 59.8561C78.4131 60.0801 77.9544 60.1921 77.4638 60.1921ZM77.8478 59.1361C78.2211 59.1361 78.5731 59.0455 78.9038 58.8641C79.2344 58.6828 79.5864 58.4268 79.9598 58.0961V55.9361C78.6691 56.0961 77.7624 56.3361 77.2398 56.6561C76.7278 56.9761 76.4718 57.3868 76.4718 57.8881C76.4718 58.3255 76.6051 58.6455 76.8718 58.8481C77.1384 59.0401 77.4638 59.1361 77.8478 59.1361Z" fill="#141414"/>
<path d="M83.7343 60.0001V52.2241H84.8223L84.9343 53.6321H84.9823C85.2489 53.1415 85.5743 52.7521 85.9583 52.4641C86.3423 52.1761 86.7529 52.0321 87.1903 52.0321C87.4996 52.0321 87.7769 52.0855 88.0223 52.1921L87.7663 53.3441C87.6383 53.3015 87.5209 53.2695 87.4143 53.2481C87.3076 53.2268 87.1743 53.2161 87.0143 53.2161C86.6836 53.2161 86.3369 53.3495 85.9743 53.6161C85.6223 53.8828 85.3129 54.3468 85.0463 55.0081V60.0001H83.7343Z" fill="#141414"/>
<path d="M91.2506 60.1921C90.696 60.1921 90.168 60.0908 89.6666 59.8881C89.1653 59.6748 88.728 59.4188 88.3546 59.1201L89.0106 58.2401C89.352 58.5068 89.704 58.7308 90.0666 58.9121C90.4293 59.0828 90.84 59.1681 91.2986 59.1681C91.8106 59.1681 92.1946 59.0508 92.4506 58.8161C92.7066 58.5708 92.8346 58.2828 92.8346 57.9521C92.8346 57.6855 92.744 57.4615 92.5626 57.2801C92.392 57.0988 92.168 56.9495 91.8906 56.8321C91.624 56.7041 91.3466 56.5868 91.0586 56.4801C90.696 56.3415 90.3386 56.1868 89.9866 56.0161C89.6346 55.8348 89.3466 55.6055 89.1226 55.3281C88.8986 55.0401 88.7866 54.6775 88.7866 54.2401C88.7866 53.6108 89.0213 53.0881 89.4906 52.6721C89.9706 52.2455 90.632 52.0321 91.4746 52.0321C91.9546 52.0321 92.4026 52.1175 92.8186 52.2881C93.2346 52.4588 93.592 52.6668 93.8906 52.9121L93.2506 53.7441C92.984 53.5415 92.7066 53.3761 92.4186 53.2481C92.1306 53.1201 91.816 53.0561 91.4746 53.0561C90.984 53.0561 90.6213 53.1681 90.3866 53.3921C90.1626 53.6161 90.0506 53.8775 90.0506 54.1761C90.0506 54.4215 90.1306 54.6241 90.2906 54.7841C90.4506 54.9335 90.6586 55.0668 90.9146 55.1841C91.1706 55.2908 91.4426 55.4028 91.7306 55.5201C92.104 55.6588 92.472 55.8188 92.8346 56.0001C93.1973 56.1708 93.496 56.4055 93.7306 56.7041C93.976 56.9921 94.0986 57.3815 94.0986 57.8721C94.0986 58.2881 93.9866 58.6721 93.7626 59.0241C93.5493 59.3761 93.2293 59.6588 92.8026 59.8721C92.3866 60.0855 91.8693 60.1921 91.2506 60.1921Z" fill="#141414"/>
<path d="M97.7138 60.1921C97.0631 60.1921 96.5191 60.0001 96.0818 59.6161C95.6551 59.2215 95.4418 58.6775 95.4418 57.9841C95.4418 57.1308 95.8204 56.4801 96.5778 56.0321C97.3458 55.5735 98.5564 55.2535 100.21 55.0721C100.21 54.7415 100.162 54.4268 100.066 54.1281C99.9804 53.8295 99.8204 53.5895 99.5858 53.4081C99.3618 53.2161 99.0364 53.1201 98.6098 53.1201C98.1618 53.1201 97.7404 53.2055 97.3458 53.3761C96.9511 53.5468 96.5991 53.7388 96.2898 53.9521L95.7778 53.0401C96.1404 52.8055 96.5831 52.5815 97.1058 52.3681C97.6391 52.1441 98.2151 52.0321 98.8338 52.0321C99.7831 52.0321 100.471 52.3255 100.898 52.9121C101.324 53.4881 101.538 54.2615 101.538 55.2321V60.0001H100.45L100.338 59.0721H100.29C99.9271 59.3708 99.5271 59.6321 99.0898 59.8561C98.6631 60.0801 98.2044 60.1921 97.7138 60.1921ZM98.0978 59.1361C98.4711 59.1361 98.8231 59.0455 99.1538 58.8641C99.4844 58.6828 99.8364 58.4268 100.21 58.0961V55.9361C98.9191 56.0961 98.0124 56.3361 97.4898 56.6561C96.9778 56.9761 96.7218 57.3868 96.7218 57.8881C96.7218 58.3255 96.8551 58.6455 97.1218 58.8481C97.3884 59.0401 97.7138 59.1361 98.0978 59.1361Z" fill="#141414"/>
<path d="M105.216 60.0001L103.056 52.2241H104.4L105.552 56.7201C105.638 57.0828 105.718 57.4455 105.792 57.8081C105.867 58.1601 105.942 58.5175 106.016 58.8801H106.08C106.166 58.5175 106.251 58.1601 106.336 57.8081C106.422 57.4455 106.512 57.0828 106.608 56.7201L107.808 52.2241H109.088L110.304 56.7201C110.4 57.0828 110.491 57.4455 110.576 57.8081C110.672 58.1601 110.763 58.5175 110.848 58.8801H110.912C110.998 58.5175 111.078 58.1601 111.152 57.8081C111.238 57.4455 111.318 57.0828 111.392 56.7201L112.528 52.2241H113.776L111.696 60.0001H110.096L108.976 55.8241C108.88 55.4508 108.79 55.0828 108.704 54.7201C108.63 54.3575 108.544 53.9788 108.448 53.5841H108.384C108.299 53.9788 108.214 54.3628 108.128 54.7361C108.043 55.0988 107.947 55.4668 107.84 55.8401L106.752 60.0001H105.216Z" fill="#141414"/>
<path d="M4.08439 84.1921C3.26306 84.1921 2.66039 83.9361 2.27639 83.4241C1.89239 82.9015 1.70039 82.1441 1.70039 81.1521V76.2241H3.02839V80.9761C3.02839 81.7015 3.14039 82.2295 3.36439 82.5601C3.59906 82.8908 3.97239 83.0561 4.48439 83.0561C4.88972 83.0561 5.24706 82.9548 5.55639 82.7521C5.87639 82.5388 6.21772 82.2028 6.58039 81.7441V76.2241H7.89239V84.0001H6.80439L6.69239 82.7841H6.64439C6.28172 83.2108 5.89772 83.5521 5.49239 83.8081C5.08706 84.0641 4.61772 84.1921 4.08439 84.1921Z" fill="#141414"/>
<path d="M11.9075 84.1921C11.4169 84.1921 11.0595 84.0428 10.8355 83.7441C10.6222 83.4348 10.5155 82.9975 10.5155 82.4321V72.6081H11.8275V82.5281C11.8275 82.7308 11.8648 82.8801 11.9395 82.9761C12.0142 83.0615 12.0995 83.1041 12.1955 83.1041C12.2382 83.1041 12.2755 83.1041 12.3075 83.1041C12.3502 83.0935 12.4088 83.0828 12.4835 83.0721L12.6595 84.0641C12.5742 84.1068 12.4728 84.1388 12.3555 84.1601C12.2382 84.1815 12.0889 84.1921 11.9075 84.1921Z" fill="#141414"/>
<path d="M15.2816 84.1921C15.015 84.1921 14.7856 84.1015 14.5936 83.9201C14.4123 83.7281 14.3216 83.4881 14.3216 83.2001C14.3216 82.8908 14.4123 82.6455 14.5936 82.4641C14.7856 82.2721 15.015 82.1761 15.2816 82.1761C15.5376 82.1761 15.7563 82.2721 15.9376 82.4641C16.1296 82.6455 16.2256 82.8908 16.2256 83.2001C16.2256 83.4881 16.1296 83.7281 15.9376 83.9201C15.7563 84.1015 15.5376 84.1921 15.2816 84.1921Z" fill="#141414"/>
<path d="M21.9091 84.0001V73.5041H23.2371V78.7681H23.2851L27.6531 73.5041H29.1571L25.8771 77.5041L29.6691 84.0001H28.1811L25.0451 78.5441L23.2371 80.6721V84.0001H21.9091Z" fill="#141414"/>
<path d="M31.0468 84.0001V76.2241H32.1348L32.2468 77.6321H32.2948C32.5614 77.1415 32.8868 76.7521 33.2708 76.4641C33.6548 76.1761 34.0654 76.0321 34.5028 76.0321C34.8121 76.0321 35.0894 76.0855 35.3348 76.1921L35.0788 77.3441C34.9508 77.3015 34.8334 77.2695 34.7268 77.2481C34.6201 77.2268 34.4868 77.2161 34.3268 77.2161C33.9961 77.2161 33.6494 77.3495 33.2868 77.6161C32.9348 77.8828 32.6254 78.3468 32.3588 79.0081V84.0001H31.0468Z" fill="#141414"/>
<path d="M37.995 84.1921C37.3443 84.1921 36.8003 84.0001 36.363 83.6161C35.9363 83.2215 35.723 82.6775 35.723 81.9841C35.723 81.1308 36.1017 80.4801 36.859 80.0321C37.627 79.5735 38.8377 79.2535 40.491 79.0721C40.491 78.7415 40.443 78.4268 40.347 78.1281C40.2617 77.8295 40.1017 77.5895 39.867 77.4081C39.643 77.2161 39.3177 77.1201 38.891 77.1201C38.443 77.1201 38.0217 77.2055 37.627 77.3761C37.2323 77.5468 36.8803 77.7388 36.571 77.9521L36.059 77.0401C36.4217 76.8055 36.8643 76.5815 37.387 76.3681C37.9203 76.1441 38.4963 76.0321 39.115 76.0321C40.0643 76.0321 40.7523 76.3255 41.179 76.9121C41.6057 77.4881 41.819 78.2615 41.819 79.2321V84.0001H40.731L40.619 83.0721H40.571C40.2083 83.3708 39.8083 83.6321 39.371 83.8561C38.9443 84.0801 38.4857 84.1921 37.995 84.1921ZM38.379 83.1361C38.7523 83.1361 39.1043 83.0455 39.435 82.8641C39.7657 82.6828 40.1177 82.4268 40.491 82.0961V79.9361C39.2003 80.0961 38.2937 80.3361 37.771 80.6561C37.259 80.9761 37.003 81.3868 37.003 81.8881C37.003 82.3255 37.1363 82.6455 37.403 82.8481C37.6697 83.0401 37.995 83.1361 38.379 83.1361Z" fill="#141414"/>
<path d="M44.2655 84.0001V72.6081H45.5615V80.3201H45.6095L48.9215 76.2241H50.3775L47.7695 79.3441L50.7295 84.0001H49.2895L47.0175 80.2561L45.5615 81.9521V84.0001H44.2655Z" fill="#141414"/>
<path d="M54.9301 84.1921C54.3008 84.1921 53.7088 84.0321 53.1541 83.7121C52.6101 83.3921 52.1675 82.9281 51.8261 82.3201C51.4955 81.7121 51.3301 80.9815 51.3301 80.1281C51.3301 79.2535 51.4955 78.5121 51.8261 77.9041C52.1675 77.2961 52.6101 76.8321 53.1541 76.5121C53.7088 76.1921 54.3008 76.0321 54.9301 76.0321C55.5701 76.0321 56.1621 76.1921 56.7061 76.5121C57.2501 76.8321 57.6875 77.2961 58.0181 77.9041C58.3595 78.5121 58.5301 79.2535 58.5301 80.1281C58.5301 80.9815 58.3595 81.7121 58.0181 82.3201C57.6875 82.9281 57.2501 83.3921 56.7061 83.7121C56.1621 84.0321 55.5701 84.1921 54.9301 84.1921ZM54.9301 83.1041C55.6021 83.1041 56.1408 82.8321 56.5461 82.2881C56.9621 81.7335 57.1701 81.0135 57.1701 80.1281C57.1701 79.2321 56.9621 78.5068 56.5461 77.9521C56.1408 77.3975 55.6021 77.1201 54.9301 77.1201C54.2688 77.1201 53.7301 77.3975 53.3141 77.9521C52.8981 78.5068 52.6901 79.2321 52.6901 80.1281C52.6901 81.0135 52.8981 81.7335 53.3141 82.2881C53.7301 82.8321 54.2688 83.1041 54.9301 83.1041Z" fill="#141414"/>
<path d="M61.7475 84.0001L59.5875 76.2241H60.9315L62.0835 80.7201C62.1688 81.0828 62.2488 81.4455 62.3235 81.8081C62.3982 82.1601 62.4729 82.5175 62.5475 82.8801H62.6115C62.6968 82.5175 62.7822 82.1601 62.8675 81.8081C62.9529 81.4455 63.0435 81.0828 63.1395 80.7201L64.3395 76.2241H65.6195L66.8355 80.7201C66.9315 81.0828 67.0222 81.4455 67.1075 81.8081C67.2035 82.1601 67.2942 82.5175 67.3795 82.8801H67.4435C67.5288 82.5175 67.6088 82.1601 67.6835 81.8081C67.7689 81.4455 67.8488 81.0828 67.9235 80.7201L69.0595 76.2241H70.3075L68.2275 84.0001H66.6275L65.5075 79.8241C65.4115 79.4508 65.3208 79.0828 65.2355 78.7201C65.1608 78.3575 65.0755 77.9788 64.9795 77.5841H64.9155C64.8302 77.9788 64.7449 78.3628 64.6595 78.7361C64.5742 79.0988 64.4782 79.4668 64.3715 79.8401L63.2835 84.0001H61.7475Z" fill="#141414"/>
<path d="M71.9999 84.0001V76.2241H73.3119V84.0001H71.9999ZM72.6719 74.6241C72.4159 74.6241 72.2026 74.5495 72.0319 74.4001C71.8719 74.2401 71.7919 74.0268 71.7919 73.7601C71.7919 73.5041 71.8719 73.2961 72.0319 73.1361C72.2026 72.9761 72.4159 72.8961 72.6719 72.8961C72.9279 72.8961 73.1359 72.9761 73.2959 73.1361C73.4666 73.2961 73.5519 73.5041 73.5519 73.7601C73.5519 74.0268 73.4666 74.2401 73.2959 74.4001C73.1359 74.5495 72.9279 74.6241 72.6719 74.6241Z" fill="#141414"/>
<path d="M77.7294 84.1921C77.0787 84.1921 76.5347 84.0001 76.0974 83.6161C75.6707 83.2215 75.4574 82.6775 75.4574 81.9841C75.4574 81.1308 75.8361 80.4801 76.5934 80.0321C77.3614 79.5735 78.5721 79.2535 80.2254 79.0721C80.2254 78.7415 80.1774 78.4268 80.0814 78.1281C79.9961 77.8295 79.8361 77.5895 79.6014 77.4081C79.3774 77.2161 79.0521 77.1201 78.6254 77.1201C78.1774 77.1201 77.7561 77.2055 77.3614 77.3761C76.9667 77.5468 76.6147 77.7388 76.3054 77.9521L75.7934 77.0401C76.1561 76.8055 76.5987 76.5815 77.1214 76.3681C77.6547 76.1441 78.2307 76.0321 78.8494 76.0321C79.7987 76.0321 80.4867 76.3255 80.9134 76.9121C81.3401 77.4881 81.5534 78.2615 81.5534 79.2321V84.0001H80.4654L80.3534 83.0721H80.3054C79.9427 83.3708 79.5427 83.6321 79.1054 83.8561C78.6787 84.0801 78.2201 84.1921 77.7294 84.1921ZM78.1134 83.1361C78.4867 83.1361 78.8387 83.0455 79.1694 82.8641C79.5001 82.6828 79.8521 82.4268 80.2254 82.0961V79.9361C78.9347 80.0961 78.0281 80.3361 77.5054 80.6561C76.9934 80.9761 76.7374 81.3868 76.7374 81.8881C76.7374 82.3255 76.8707 82.6455 77.1374 82.8481C77.4041 83.0401 77.7294 83.1361 78.1134 83.1361Z" fill="#141414"/>
<path d="M83.9999 84.0001V72.6081H85.2959V80.3201H85.3439L88.6559 76.2241H90.1119L87.5039 79.3441L90.4639 84.0001H89.0239L86.7519 80.2561L85.2959 81.9521V84.0001H83.9999Z" fill="#141414"/>
<path d="M94.6645 84.1921C94.0352 84.1921 93.4432 84.0321 92.8885 83.7121C92.3445 83.3921 91.9018 82.9281 91.5605 82.3201C91.2299 81.7121 91.0645 80.9815 91.0645 80.1281C91.0645 79.2535 91.2299 78.5121 91.5605 77.9041C91.9018 77.2961 92.3445 76.8321 92.8885 76.5121C93.4432 76.1921 94.0352 76.0321 94.6645 76.0321C95.3045 76.0321 95.8965 76.1921 96.4405 76.5121C96.9845 76.8321 97.4219 77.2961 97.7525 77.9041C98.0938 78.5121 98.2645 79.2535 98.2645 80.1281C98.2645 80.9815 98.0938 81.7121 97.7525 82.3201C97.4219 82.9281 96.9845 83.3921 96.4405 83.7121C95.8965 84.0321 95.3045 84.1921 94.6645 84.1921ZM94.6645 83.1041C95.3365 83.1041 95.8752 82.8321 96.2805 82.2881C96.6965 81.7335 96.9045 81.0135 96.9045 80.1281C96.9045 79.2321 96.6965 78.5068 96.2805 77.9521C95.8752 77.3975 95.3365 77.1201 94.6645 77.1201C94.0032 77.1201 93.4645 77.3975 93.0485 77.9521C92.6325 78.5068 92.4245 79.2321 92.4245 80.1281C92.4245 81.0135 92.6325 81.7335 93.0485 82.2881C93.4645 82.8321 94.0032 83.1041 94.6645 83.1041ZM94.4405 74.8321L93.7685 74.1761L96.0245 71.5041L96.9525 72.3841L94.4405 74.8321Z" fill="#141414"/>
<path d="M101.482 84.0001L99.3219 76.2241H100.666L101.818 80.7201C101.903 81.0828 101.983 81.4455 102.058 81.8081C102.133 82.1601 102.207 82.5175 102.282 82.8801H102.346C102.431 82.5175 102.517 82.1601 102.602 81.8081C102.687 81.4455 102.778 81.0828 102.874 80.7201L104.074 76.2241H105.354L106.57 80.7201C106.666 81.0828 106.757 81.4455 106.842 81.8081C106.938 82.1601 107.029 82.5175 107.114 82.8801H107.178C107.263 82.5175 107.343 82.1601 107.418 81.8081C107.503 81.4455 107.583 81.0828 107.658 80.7201L108.794 76.2241H110.042L107.962 84.0001H106.362L105.242 79.8241C105.146 79.4508 105.055 79.0828 104.97 78.7201C104.895 78.3575 104.81 77.9788 104.714 77.5841H104.65C104.565 77.9788 104.479 78.3628 104.394 78.7361C104.309 79.0988 104.213 79.4668 104.106 79.8401L103.018 84.0001H101.482Z" fill="#141414"/>
<path d="M115.289 80.1281H118.489V77.1681C118.489 76.8908 118.5 76.5601 118.521 76.1761C118.543 75.7921 118.559 75.4668 118.569 75.2001H118.505C118.377 75.4455 118.244 75.6855 118.105 75.9201C117.967 76.1548 117.823 76.3948 117.673 76.6401L115.289 80.1281ZM118.489 84.0001V81.1841H113.897V80.3201L118.265 73.7921H119.737V80.1281H121.129V81.1841H119.737V84.0001H118.489Z" fill="#141414"/>
<path d="M125.579 84.1921C124.939 84.1921 124.368 84.0748 123.867 83.8401C123.365 83.5948 122.965 83.2588 122.667 82.8321C122.379 82.4055 122.235 81.9255 122.235 81.3921C122.235 80.9441 122.325 80.5495 122.507 80.2081C122.699 79.8561 122.939 79.5521 123.227 79.2961C123.525 79.0295 123.835 78.8108 124.155 78.6401V78.5761C123.781 78.3095 123.451 77.9841 123.163 77.6001C122.875 77.2161 122.731 76.7575 122.731 76.2241C122.731 75.7015 122.859 75.2428 123.115 74.8481C123.371 74.4535 123.717 74.1495 124.155 73.9361C124.592 73.7121 125.083 73.6001 125.627 73.6001C126.512 73.6001 127.211 73.8561 127.723 74.3681C128.245 74.8801 128.507 75.5308 128.507 76.3201C128.507 76.6721 128.432 77.0081 128.283 77.3281C128.133 77.6375 127.952 77.9201 127.739 78.1761C127.525 78.4215 127.312 78.6241 127.099 78.7841V78.8481C127.408 79.0188 127.696 79.2215 127.963 79.4561C128.229 79.6908 128.448 79.9735 128.619 80.3041C128.789 80.6241 128.875 81.0135 128.875 81.4721C128.875 81.9735 128.736 82.4321 128.459 82.8481C128.192 83.2641 127.808 83.5948 127.307 83.8401C126.816 84.0748 126.24 84.1921 125.579 84.1921ZM126.299 78.4321C126.64 78.1228 126.901 77.7975 127.083 77.4561C127.275 77.1148 127.371 76.7575 127.371 76.3841C127.371 75.8828 127.216 75.4561 126.907 75.1041C126.597 74.7521 126.16 74.5761 125.595 74.5761C125.125 74.5761 124.731 74.7255 124.411 75.0241C124.101 75.3228 123.947 75.7228 123.947 76.2241C123.947 76.6295 124.053 76.9655 124.267 77.2321C124.491 77.4988 124.784 77.7281 125.147 77.9201C125.509 78.1015 125.893 78.2721 126.299 78.4321ZM125.611 83.2161C126.208 83.2161 126.688 83.0508 127.051 82.7201C127.424 82.3788 127.611 81.9468 127.611 81.4241C127.611 80.9868 127.483 80.6295 127.227 80.3521C126.971 80.0748 126.629 79.8348 126.203 79.6321C125.787 79.4295 125.333 79.2321 124.843 79.0401C124.437 79.3068 124.096 79.6268 123.819 80.0001C123.552 80.3735 123.419 80.7948 123.419 81.2641C123.419 81.8295 123.627 82.2988 124.043 82.6721C124.469 83.0348 124.992 83.2161 125.611 83.2161Z" fill="#141414"/>
<path d="M130.604 86.7201L130.284 85.9521C130.742 85.7495 131.1 85.4775 131.356 85.1361C131.612 84.8055 131.734 84.4268 131.724 84.0001C131.702 84.0108 131.676 84.0161 131.644 84.0161C131.612 84.0161 131.585 84.0161 131.564 84.0161C131.308 84.0161 131.084 83.9415 130.892 83.7921C130.71 83.6321 130.62 83.4028 130.62 83.1041C130.62 82.8161 130.716 82.5921 130.908 82.4321C131.1 82.2615 131.329 82.1761 131.596 82.1761C131.937 82.1761 132.204 82.3148 132.396 82.5921C132.598 82.8695 132.7 83.2481 132.7 83.7281C132.7 84.4108 132.513 85.0081 132.14 85.5201C131.766 86.0428 131.254 86.4428 130.604 86.7201Z" fill="#141414"/>
<path d="M4.48439 108.192C3.46039 108.192 2.65506 107.733 2.06839 106.816C1.49239 105.888 1.20439 104.571 1.20439 102.864C1.20439 101.147 1.49239 99.8401 2.06839 98.9441C2.65506 98.0481 3.46039 97.6001 4.48439 97.6001C5.49772 97.6001 6.29239 98.0481 6.86839 98.9441C7.45506 99.8401 7.74839 101.147 7.74839 102.864C7.74839 104.571 7.45506 105.888 6.86839 106.816C6.29239 107.733 5.49772 108.192 4.48439 108.192ZM4.48439 107.136C5.08172 107.136 5.56172 106.8 5.92439 106.128C6.28706 105.445 6.46839 104.357 6.46839 102.864C6.46839 101.371 6.28706 100.299 5.92439 99.6481C5.56172 98.9868 5.08172 98.6561 4.48439 98.6561C3.88706 98.6561 3.40172 98.9868 3.02839 99.6481C2.66572 100.299 2.48439 101.371 2.48439 102.864C2.48439 104.357 2.66572 105.445 3.02839 106.128C3.40172 106.8 3.88706 107.136 4.48439 107.136Z" fill="#141414"/>
<path d="M9.09352 108V107.216C10.1175 106.192 10.9868 105.296 11.7015 104.528C12.4162 103.749 12.9602 103.051 13.3335 102.432C13.7068 101.803 13.8935 101.216 13.8935 100.672C13.8935 100.085 13.7335 99.6055 13.4135 99.2321C13.0935 98.8588 12.6082 98.6721 11.9575 98.6721C11.5308 98.6721 11.1362 98.7948 10.7735 99.0401C10.4108 99.2748 10.0802 99.5628 9.78152 99.9041L9.02952 99.1521C9.45618 98.6828 9.90952 98.3095 10.3895 98.0321C10.8802 97.7441 11.4562 97.6001 12.1175 97.6001C13.0668 97.6001 13.8135 97.8775 14.3575 98.4321C14.9015 98.9761 15.1735 99.7015 15.1735 100.608C15.1735 101.248 14.9922 101.899 14.6295 102.56C14.2775 103.211 13.7868 103.899 13.1575 104.624C12.5388 105.339 11.8242 106.117 11.0135 106.96C11.2908 106.939 11.5788 106.917 11.8775 106.896C12.1762 106.875 12.4588 106.864 12.7255 106.864H15.6855V108H9.09352Z" fill="#141414"/>
<path d="M17.0626 104.496V103.488H20.7426V104.496H17.0626Z" fill="#141414"/>
<path d="M22.0154 108V107.216C23.0394 106.192 23.9087 105.296 24.6234 104.528C25.3381 103.749 25.8821 103.051 26.2554 102.432C26.6287 101.803 26.8154 101.216 26.8154 100.672C26.8154 100.085 26.6554 99.6055 26.3354 99.2321C26.0154 98.8588 25.5301 98.6721 24.8794 98.6721C24.4527 98.6721 24.0581 98.7948 23.6954 99.0401C23.3327 99.2748 23.0021 99.5628 22.7034 99.9041L21.9514 99.1521C22.3781 98.6828 22.8314 98.3095 23.3114 98.0321C23.8021 97.7441 24.3781 97.6001 25.0394 97.6001C25.9887 97.6001 26.7354 97.8775 27.2794 98.4321C27.8234 98.9761 28.0954 99.7015 28.0954 100.608C28.0954 101.248 27.9141 101.899 27.5514 102.56C27.1994 103.211 26.7087 103.899 26.0794 104.624C25.4607 105.339 24.7461 106.117 23.9354 106.96C24.2127 106.939 24.5007 106.917 24.7994 106.896C25.0981 106.875 25.3807 106.864 25.6474 106.864H28.6074V108H22.0154Z" fill="#141414"/>
<path d="M33.0725 108.192C32.2618 108.192 31.5898 108.048 31.0565 107.76C30.5232 107.472 30.0805 107.152 29.7285 106.8L30.3685 105.936C30.6779 106.235 31.0352 106.507 31.4405 106.752C31.8458 106.987 32.3472 107.104 32.9445 107.104C33.5738 107.104 34.1018 106.896 34.5285 106.48C34.9658 106.053 35.1845 105.483 35.1845 104.768C35.1845 104.064 34.9872 103.515 34.5925 103.12C34.1978 102.725 33.6698 102.528 33.0085 102.528C32.6565 102.528 32.3525 102.581 32.0965 102.688C31.8512 102.795 31.5739 102.949 31.2645 103.152L30.5605 102.704L30.8965 97.7921H36.0005V98.9281H32.0485L31.7765 101.952C32.0218 101.824 32.2672 101.723 32.5125 101.648C32.7579 101.573 33.0352 101.536 33.3445 101.536C33.9312 101.536 34.4592 101.653 34.9285 101.888C35.4085 102.112 35.7925 102.459 36.0805 102.928C36.3685 103.397 36.5125 104 36.5125 104.736C36.5125 105.472 36.3472 106.101 36.0165 106.624C35.6965 107.136 35.2752 107.525 34.7525 107.792C34.2298 108.059 33.6698 108.192 33.0725 108.192Z" fill="#141414"/>
<path d="M41.0256 108.192C40.215 108.192 39.543 108.048 39.0096 107.76C38.4763 107.472 38.0336 107.152 37.6816 106.8L38.3216 105.936C38.631 106.235 38.9883 106.507 39.3936 106.752C39.799 106.987 40.3003 107.104 40.8976 107.104C41.527 107.104 42.055 106.896 42.4816 106.48C42.919 106.053 43.1376 105.483 43.1376 104.768C43.1376 104.064 42.9403 103.515 42.5456 103.12C42.151 102.725 41.623 102.528 40.9616 102.528C40.6096 102.528 40.3056 102.581 40.0496 102.688C39.8043 102.795 39.527 102.949 39.2176 103.152L38.5136 102.704L38.8496 97.7921H43.9536V98.9281H40.0016L39.7296 101.952C39.975 101.824 40.2203 101.723 40.4656 101.648C40.711 101.573 40.9883 101.536 41.2976 101.536C41.8843 101.536 42.4123 101.653 42.8816 101.888C43.3616 102.112 43.7456 102.459 44.0336 102.928C44.3216 103.397 44.4656 104 44.4656 104.736C44.4656 105.472 44.3003 106.101 43.9696 106.624C43.6496 107.136 43.2283 107.525 42.7056 107.792C42.183 108.059 41.623 108.192 41.0256 108.192Z" fill="#141414"/>
<path d="M51.0299 108L48.8059 97.5041H50.1819L51.2859 103.216C51.3819 103.781 51.4832 104.347 51.5899 104.912C51.6966 105.477 51.7979 106.043 51.8939 106.608H51.9579C52.0752 106.043 52.1979 105.477 52.3259 104.912C52.4539 104.336 52.5766 103.771 52.6939 103.216L54.1499 97.5041H55.3659L56.8219 103.216C56.9499 103.771 57.0779 104.336 57.2059 104.912C57.3339 105.477 57.4619 106.043 57.5899 106.608H57.6539C57.7499 106.043 57.8459 105.477 57.9419 104.912C58.0379 104.336 58.1392 103.771 58.2459 103.216L59.3499 97.5041H60.6299L58.4539 108H56.8539L55.2699 101.68C55.1739 101.275 55.0832 100.88 54.9979 100.496C54.9232 100.101 54.8432 99.7015 54.7579 99.2961H54.6939C54.6192 99.7015 54.5339 100.101 54.4379 100.496C54.3419 100.88 54.2512 101.275 54.1659 101.68L52.6139 108H51.0299Z" fill="#141414"/>
<path d="M63.87 108.192C63.2193 108.192 62.6753 108 62.238 107.616C61.8113 107.221 61.598 106.677 61.598 105.984C61.598 105.131 61.9767 104.48 62.734 104.032C63.502 103.573 64.7127 103.253 66.366 103.072C66.366 102.741 66.318 102.427 66.222 102.128C66.1367 101.829 65.9767 101.589 65.742 101.408C65.518 101.216 65.1927 101.12 64.766 101.12C64.318 101.12 63.8967 101.205 63.502 101.376C63.1073 101.547 62.7553 101.739 62.446 101.952L61.934 101.04C62.2967 100.805 62.7393 100.581 63.262 100.368C63.7953 100.144 64.3713 100.032 64.99 100.032C65.9393 100.032 66.6273 100.325 67.054 100.912C67.4807 101.488 67.694 102.261 67.694 103.232V108H66.606L66.494 107.072H66.446C66.0834 107.371 65.6833 107.632 65.246 107.856C64.8194 108.08 64.3607 108.192 63.87 108.192ZM64.254 107.136C64.6273 107.136 64.9793 107.045 65.31 106.864C65.6407 106.683 65.9927 106.427 66.366 106.096V103.936C65.0753 104.096 64.1687 104.336 63.646 104.656C63.134 104.976 62.878 105.387 62.878 105.888C62.878 106.325 63.0113 106.645 63.278 106.848C63.5447 107.04 63.87 107.136 64.254 107.136Z" fill="#141414"/>
<path d="M70.1405 108V100.224H71.2285L71.3405 101.632H71.3885C71.6552 101.141 71.9805 100.752 72.3645 100.464C72.7485 100.176 73.1592 100.032 73.5965 100.032C73.9058 100.032 74.1832 100.085 74.4285 100.192L74.1725 101.344C74.0445 101.301 73.9272 101.269 73.8205 101.248C73.7138 101.227 73.5805 101.216 73.4205 101.216C73.0899 101.216 72.7432 101.349 72.3805 101.616C72.0285 101.883 71.7192 102.347 71.4525 103.008V108H70.1405Z" fill="#141414"/>
<path d="M77.6569 108.192C77.1022 108.192 76.5742 108.091 76.0729 107.888C75.5716 107.675 75.1342 107.419 74.7609 107.12L75.4169 106.24C75.7582 106.507 76.1102 106.731 76.4729 106.912C76.8356 107.083 77.2462 107.168 77.7049 107.168C78.2169 107.168 78.6009 107.051 78.8569 106.816C79.1129 106.571 79.2409 106.283 79.2409 105.952C79.2409 105.685 79.1502 105.461 78.9689 105.28C78.7982 105.099 78.5742 104.949 78.2969 104.832C78.0302 104.704 77.7529 104.587 77.4649 104.48C77.1022 104.341 76.7449 104.187 76.3929 104.016C76.0409 103.835 75.7529 103.605 75.5289 103.328C75.3049 103.04 75.1929 102.677 75.1929 102.24C75.1929 101.611 75.4276 101.088 75.8969 100.672C76.3769 100.245 77.0382 100.032 77.8809 100.032C78.3609 100.032 78.8089 100.117 79.2249 100.288C79.6409 100.459 79.9982 100.667 80.2969 100.912L79.6569 101.744C79.3902 101.541 79.1129 101.376 78.8249 101.248C78.5369 101.12 78.2222 101.056 77.8809 101.056C77.3902 101.056 77.0276 101.168 76.7929 101.392C76.5689 101.616 76.4569 101.877 76.4569 102.176C76.4569 102.421 76.5369 102.624 76.6969 102.784C76.8569 102.933 77.0649 103.067 77.3209 103.184C77.5769 103.291 77.8489 103.403 78.1369 103.52C78.5102 103.659 78.8782 103.819 79.2409 104C79.6036 104.171 79.9022 104.405 80.1369 104.704C80.3822 104.992 80.5049 105.381 80.5049 105.872C80.5049 106.288 80.3929 106.672 80.1689 107.024C79.9556 107.376 79.6356 107.659 79.2089 107.872C78.7929 108.085 78.2756 108.192 77.6569 108.192Z" fill="#141414"/>
<path d="M81.512 108V107.296L85.608 101.296H81.96V100.224H87.272V100.928L83.176 106.928H87.4V108H81.512Z" fill="#141414"/>
<path d="M90.5419 108.192C89.8912 108.192 89.3472 108 88.9099 107.616C88.4832 107.221 88.2699 106.677 88.2699 105.984C88.2699 105.131 88.6486 104.48 89.4059 104.032C90.1739 103.573 91.3846 103.253 93.0379 103.072C93.0379 102.741 92.9899 102.427 92.8939 102.128C92.8086 101.829 92.6486 101.589 92.4139 101.408C92.1899 101.216 91.8646 101.12 91.4379 101.12C90.9899 101.12 90.5686 101.205 90.1739 101.376C89.7792 101.547 89.4272 101.739 89.1179 101.952L88.6059 101.04C88.9686 100.805 89.4112 100.581 89.9339 100.368C90.4672 100.144 91.0432 100.032 91.6619 100.032C92.6112 100.032 93.2992 100.325 93.7259 100.912C94.1526 101.488 94.3659 102.261 94.3659 103.232V108H93.2779L93.1659 107.072H93.1179C92.7552 107.371 92.3552 107.632 91.9179 107.856C91.4912 108.08 91.0326 108.192 90.5419 108.192ZM90.9259 107.136C91.2992 107.136 91.6512 107.045 91.9819 106.864C92.3126 106.683 92.6646 106.427 93.0379 106.096V103.936C91.7472 104.096 90.8406 104.336 90.3179 104.656C89.8059 104.976 89.5499 105.387 89.5499 105.888C89.5499 106.325 89.6832 106.645 89.9499 106.848C90.2166 107.04 90.5419 107.136 90.9259 107.136Z" fill="#141414"/>
<path d="M98.0444 108L95.8844 100.224H97.2284L98.3804 104.72C98.4657 105.083 98.5457 105.445 98.6204 105.808C98.6951 106.16 98.7697 106.517 98.8444 106.88H98.9084C98.9937 106.517 99.0791 106.16 99.1644 105.808C99.2497 105.445 99.3404 105.083 99.4364 104.72L100.636 100.224H101.916L103.132 104.72C103.228 105.083 103.319 105.445 103.404 105.808C103.5 106.16 103.591 106.517 103.676 106.88H103.74C103.826 106.517 103.906 106.16 103.98 105.808C104.066 105.445 104.146 105.083 104.22 104.72L105.356 100.224H106.604L104.524 108H102.924L101.804 103.824C101.708 103.451 101.618 103.083 101.532 102.72C101.458 102.357 101.372 101.979 101.276 101.584H101.212C101.127 101.979 101.042 102.363 100.956 102.736C100.871 103.099 100.775 103.467 100.668 103.84L99.5804 108H98.0444Z" fill="#141414"/>
<path d="M109.933 108.192C109.282 108.192 108.738 108 108.301 107.616C107.874 107.221 107.661 106.677 107.661 105.984C107.661 105.131 108.039 104.48 108.797 104.032C109.565 103.573 110.775 103.253 112.429 103.072C112.429 102.741 112.381 102.427 112.285 102.128C112.199 101.829 112.039 101.589 111.805 101.408C111.581 101.216 111.255 101.12 110.829 101.12C110.381 101.12 109.959 101.205 109.565 101.376C109.17 101.547 108.818 101.739 108.509 101.952L107.997 101.04C108.359 100.805 108.802 100.581 109.325 100.368C109.858 100.144 110.434 100.032 111.053 100.032C112.002 100.032 112.69 100.325 113.117 100.912C113.543 101.488 113.757 102.261 113.757 103.232V108H112.669L112.557 107.072H112.509C112.146 107.371 111.746 107.632 111.309 107.856C110.882 108.08 110.423 108.192 109.933 108.192ZM110.317 107.136C110.69 107.136 111.042 107.045 111.373 106.864C111.703 106.683 112.055 106.427 112.429 106.096V103.936C111.138 104.096 110.231 104.336 109.709 104.656C109.197 104.976 108.941 105.387 108.941 105.888C108.941 106.325 109.074 106.645 109.341 106.848C109.607 107.04 109.933 107.136 110.317 107.136Z" fill="#141414"/>
<path d="M1.94039 132V121.504H3.31639L7.10839 128.096L8.24439 130.272H8.30839C8.27639 129.739 8.23906 129.189 8.19639 128.624C8.16439 128.048 8.14839 127.483 8.14839 126.928V121.504H9.41239V132H8.03639L4.22839 125.392L3.09239 123.232H3.02839C3.07106 123.755 3.10839 124.293 3.14039 124.848C3.18306 125.403 3.20439 125.957 3.20439 126.512V132H1.94039Z" fill="#141414"/>
<path d="M12.2998 132V121.504H13.6278V132H12.2998Z" fill="#141414"/>
<path d="M16.5029 132V121.504H19.4949C20.2842 121.504 20.9722 121.6 21.5589 121.792C22.1456 121.984 22.6042 122.309 22.9349 122.768C23.2656 123.216 23.4309 123.824 23.4309 124.592C23.4309 125.691 23.0736 126.507 22.3589 127.04C21.6442 127.573 20.7109 127.84 19.5589 127.84H17.8309V132H16.5029ZM17.8309 126.752H19.3989C20.3162 126.752 20.9936 126.581 21.4309 126.24C21.8789 125.888 22.1029 125.339 22.1029 124.592C22.1029 123.835 21.8682 123.312 21.3989 123.024C20.9402 122.725 20.2522 122.576 19.3349 122.576H17.8309V126.752Z" fill="#141414"/>
<path d="M26.1254 126.416C25.8587 126.416 25.6294 126.325 25.4374 126.144C25.2561 125.952 25.1654 125.712 25.1654 125.424C25.1654 125.115 25.2561 124.869 25.4374 124.688C25.6294 124.496 25.8587 124.4 26.1254 124.4C26.3814 124.4 26.6001 124.496 26.7814 124.688C26.9734 124.869 27.0694 125.115 27.0694 125.424C27.0694 125.712 26.9734 125.952 26.7814 126.144C26.6001 126.325 26.3814 126.416 26.1254 126.416ZM26.1254 132.192C25.8587 132.192 25.6294 132.101 25.4374 131.92C25.2561 131.728 25.1654 131.488 25.1654 131.2C25.1654 130.891 25.2561 130.645 25.4374 130.464C25.6294 130.272 25.8587 130.176 26.1254 130.176C26.3814 130.176 26.6001 130.272 26.7814 130.464C26.9734 130.645 27.0694 130.891 27.0694 131.2C27.0694 131.488 26.9734 131.728 26.7814 131.92C26.6001 132.101 26.3814 132.192 26.1254 132.192Z" fill="#141414"/>
<path d="M35.0569 132.192C34.2462 132.192 33.5742 132.048 33.0409 131.76C32.5076 131.472 32.0649 131.152 31.7129 130.8L32.3529 129.936C32.6622 130.235 33.0196 130.507 33.4249 130.752C33.8302 130.987 34.3316 131.104 34.9289 131.104C35.5582 131.104 36.0862 130.896 36.5129 130.48C36.9502 130.053 37.1689 129.483 37.1689 128.768C37.1689 128.064 36.9716 127.515 36.5769 127.12C36.1822 126.725 35.6542 126.528 34.9929 126.528C34.6409 126.528 34.3369 126.581 34.0809 126.688C33.8356 126.795 33.5582 126.949 33.2489 127.152L32.5449 126.704L32.8809 121.792H37.9849V122.928H34.0329L33.7609 125.952C34.0062 125.824 34.2516 125.723 34.4969 125.648C34.7422 125.573 35.0196 125.536 35.3289 125.536C35.9156 125.536 36.4436 125.653 36.9129 125.888C37.3929 126.112 37.7769 126.459 38.0649 126.928C38.3529 127.397 38.4969 128 38.4969 128.736C38.4969 129.472 38.3316 130.101 38.0009 130.624C37.6809 131.136 37.2596 131.525 36.7369 131.792C36.2142 132.059 35.6542 132.192 35.0569 132.192Z" fill="#141414"/>
<path d="M39.906 132V131.216C40.93 130.192 41.7993 129.296 42.514 128.528C43.2287 127.749 43.7727 127.051 44.146 126.432C44.5193 125.803 44.706 125.216 44.706 124.672C44.706 124.085 44.546 123.605 44.226 123.232C43.906 122.859 43.4207 122.672 42.77 122.672C42.3433 122.672 41.9487 122.795 41.586 123.04C41.2233 123.275 40.8927 123.563 40.594 123.904L39.842 123.152C40.2687 122.683 40.722 122.309 41.202 122.032C41.6927 121.744 42.2687 121.6 42.93 121.6C43.8793 121.6 44.626 121.877 45.17 122.432C45.714 122.976 45.986 123.701 45.986 124.608C45.986 125.248 45.8047 125.899 45.442 126.56C45.09 127.211 44.5993 127.899 43.97 128.624C43.3513 129.339 42.6367 130.117 41.826 130.96C42.1033 130.939 42.3913 130.917 42.69 130.896C42.9887 130.875 43.2713 130.864 43.538 130.864H46.498V132H39.906Z" fill="#141414"/>
<path d="M47.8591 132V131.216C48.8831 130.192 49.7525 129.296 50.4671 128.528C51.1818 127.749 51.7258 127.051 52.0991 126.432C52.4725 125.803 52.6591 125.216 52.6591 124.672C52.6591 124.085 52.4991 123.605 52.1791 123.232C51.8591 122.859 51.3738 122.672 50.7231 122.672C50.2965 122.672 49.9018 122.795 49.5391 123.04C49.1765 123.275 48.8458 123.563 48.5471 123.904L47.7951 123.152C48.2218 122.683 48.6751 122.309 49.1551 122.032C49.6458 121.744 50.2218 121.6 50.8831 121.6C51.8325 121.6 52.5791 121.877 53.1231 122.432C53.6671 122.976 53.9391 123.701 53.9391 124.608C53.9391 125.248 53.7578 125.899 53.3951 126.56C53.0431 127.211 52.5525 127.899 51.9231 128.624C51.3045 129.339 50.5898 130.117 49.7791 130.96C50.0565 130.939 50.3445 130.917 50.6431 130.896C50.9418 130.875 51.2245 130.864 51.4911 130.864H54.4511V132H47.8591Z" fill="#141414"/>
<path d="M55.8283 128.496V127.488H59.5083V128.496H55.8283Z" fill="#141414"/>
<path d="M60.781 132V131.216C61.805 130.192 62.6743 129.296 63.389 128.528C64.1037 127.749 64.6477 127.051 65.021 126.432C65.3943 125.803 65.581 125.216 65.581 124.672C65.581 124.085 65.421 123.605 65.101 123.232C64.781 122.859 64.2957 122.672 63.645 122.672C63.2183 122.672 62.8237 122.795 62.461 123.04C62.0983 123.275 61.7677 123.563 61.469 123.904L60.717 123.152C61.1437 122.683 61.597 122.309 62.077 122.032C62.5677 121.744 63.1437 121.6 63.805 121.6C64.7543 121.6 65.501 121.877 66.045 122.432C66.589 122.976 66.861 123.701 66.861 124.608C66.861 125.248 66.6797 125.899 66.317 126.56C65.965 127.211 65.4743 127.899 64.845 128.624C64.2263 129.339 63.5117 130.117 62.701 130.96C62.9783 130.939 63.2663 130.917 63.565 130.896C63.8637 130.875 64.1463 130.864 64.413 130.864H67.373V132H60.781Z" fill="#141414"/>
<path d="M69.9661 124.88C69.9661 125.541 70.1208 126.069 70.4301 126.464C70.7501 126.848 71.2248 127.04 71.8541 127.04C72.1955 127.04 72.5528 126.933 72.9261 126.72C73.3101 126.507 73.6675 126.16 73.9981 125.68C73.9128 124.688 73.6781 123.936 73.2941 123.424C72.9101 122.901 72.3928 122.64 71.7421 122.64C71.2515 122.64 70.8301 122.848 70.4781 123.264C70.1368 123.669 69.9661 124.208 69.9661 124.88ZM71.3741 132.192C70.8301 132.192 70.3501 132.091 69.9341 131.888C69.5288 131.675 69.1875 131.419 68.9101 131.12L69.6461 130.288C69.8595 130.533 70.1101 130.731 70.3981 130.88C70.6968 131.029 71.0061 131.104 71.3261 131.104C71.8061 131.104 72.2488 130.965 72.6541 130.688C73.0595 130.411 73.3848 129.952 73.6301 129.312C73.8861 128.672 74.0195 127.808 74.0301 126.72C73.7101 127.125 73.3368 127.445 72.9101 127.68C72.4835 127.915 72.0568 128.032 71.6301 128.032C70.7555 128.032 70.0515 127.771 69.5181 127.248C68.9955 126.715 68.7341 125.925 68.7341 124.88C68.7341 124.229 68.8728 123.659 69.1501 123.168C69.4275 122.677 69.7901 122.293 70.2381 122.016C70.6968 121.739 71.1981 121.6 71.7421 121.6C72.4141 121.6 73.0168 121.781 73.5501 122.144C74.0835 122.507 74.4995 123.051 74.7981 123.776C75.1075 124.501 75.2621 125.413 75.2621 126.512C75.2621 127.877 75.0755 128.976 74.7021 129.808C74.3395 130.64 73.8648 131.248 73.2781 131.632C72.6915 132.005 72.0568 132.192 71.3741 132.192Z" fill="#141414"/>
<path d="M77.3113 132V130.912H79.6473V123.392H77.7913V122.544C78.2606 122.459 78.6659 122.357 79.0073 122.24C79.3593 122.112 79.6739 121.963 79.9513 121.792H80.9593V130.912H83.0713V132H77.3113Z" fill="#141414"/>
<path d="M84.6564 128.496V127.488H88.3364V128.496H84.6564Z" fill="#141414"/>
<path d="M91.8011 132C91.8651 130.72 91.9985 129.573 92.2011 128.56C92.4145 127.536 92.7238 126.576 93.1291 125.68C93.5451 124.773 94.0891 123.856 94.7611 122.928H89.6731V121.792H96.2491V122.608C95.6411 123.376 95.1451 124.117 94.7611 124.832C94.3771 125.536 94.0785 126.251 93.8651 126.976C93.6518 127.691 93.4918 128.459 93.3851 129.28C93.2785 130.101 93.2038 131.008 93.1611 132H91.8011Z" fill="#141414"/>
<path d="M97.5623 132V131.216C98.5863 130.192 99.4556 129.296 100.17 128.528C100.885 127.749 101.429 127.051 101.802 126.432C102.176 125.803 102.362 125.216 102.362 124.672C102.362 124.085 102.202 123.605 101.882 123.232C101.562 122.859 101.077 122.672 100.426 122.672C99.9996 122.672 99.6049 122.795 99.2423 123.04C98.8796 123.275 98.5489 123.563 98.2503 123.904L97.4983 123.152C97.9249 122.683 98.3783 122.309 98.8583 122.032C99.3489 121.744 99.9249 121.6 100.586 121.6C101.536 121.6 102.282 121.877 102.826 122.432C103.37 122.976 103.642 123.701 103.642 124.608C103.642 125.248 103.461 125.899 103.098 126.56C102.746 127.211 102.256 127.899 101.626 128.624C101.008 129.339 100.293 130.117 99.4823 130.96C99.7596 130.939 100.048 130.917 100.346 130.896C100.645 130.875 100.928 130.864 101.194 130.864H104.154V132H97.5623Z" fill="#141414"/>
<path d="M105.531 128.496V127.488H109.211V128.496H105.531Z" fill="#141414"/>
<path d="M111.108 132V130.912H113.444V123.392H111.588V122.544C112.057 122.459 112.463 122.357 112.804 122.24C113.156 122.112 113.471 121.963 113.748 121.792H114.756V130.912H116.868V132H111.108Z" fill="#141414"/>
<path d="M121.781 132.192C120.757 132.192 119.952 131.733 119.365 130.816C118.789 129.888 118.501 128.571 118.501 126.864C118.501 125.147 118.789 123.84 119.365 122.944C119.952 122.048 120.757 121.6 121.781 121.6C122.795 121.6 123.589 122.048 124.165 122.944C124.752 123.84 125.045 125.147 125.045 126.864C125.045 128.571 124.752 129.888 124.165 130.816C123.589 131.733 122.795 132.192 121.781 132.192ZM121.781 131.136C122.379 131.136 122.859 130.8 123.221 130.128C123.584 129.445 123.765 128.357 123.765 126.864C123.765 125.371 123.584 124.299 123.221 123.648C122.859 122.987 122.379 122.656 121.781 122.656C121.184 122.656 120.699 122.987 120.325 123.648C119.963 124.299 119.781 125.371 119.781 126.864C119.781 128.357 119.963 129.445 120.325 130.128C120.699 130.8 121.184 131.136 121.781 131.136Z" fill="#141414"/>
<path d="M1.94039 156V145.504H5.22039C5.93506 145.504 6.56972 145.6 7.12439 145.792C7.67906 145.973 8.11106 146.283 8.42039 146.72C8.74039 147.147 8.90039 147.723 8.90039 148.448C8.90039 149.259 8.68706 149.915 8.26039 150.416C7.83372 150.907 7.25772 151.243 6.53239 151.424L9.20439 156H7.70039L5.17239 151.568H3.26839V156H1.94039ZM3.26839 150.48H5.02839C5.84972 150.48 6.47906 150.315 6.91639 149.984C7.35372 149.643 7.57239 149.131 7.57239 148.448C7.57239 147.755 7.35372 147.269 6.91639 146.992C6.47906 146.715 5.84972 146.576 5.02839 146.576H3.26839V150.48Z" fill="#141414"/>
<path d="M11.0498 156V145.504H17.0978V146.624H12.3778V149.92H16.3618V151.056H12.3778V154.864H17.2578V156H11.0498Z" fill="#141414"/>
<path d="M23.6153 156.192C22.6979 156.192 21.8819 155.979 21.1673 155.552C20.4526 155.115 19.8926 154.491 19.4873 153.68C19.0819 152.869 18.8793 151.893 18.8793 150.752C18.8793 149.621 19.0873 148.651 19.5033 147.84C19.9193 147.029 20.4899 146.405 21.2153 145.968C21.9406 145.531 22.7673 145.312 23.6953 145.312C24.4206 145.312 25.0286 145.451 25.5193 145.728C26.0206 145.995 26.4206 146.288 26.7193 146.608L25.9833 147.472C25.7166 147.195 25.4073 146.96 25.0553 146.768C24.7033 146.576 24.2606 146.48 23.7273 146.48C23.0233 146.48 22.4099 146.656 21.8873 147.008C21.3646 147.349 20.9593 147.835 20.6713 148.464C20.3939 149.093 20.2553 149.845 20.2553 150.72C20.2553 152.043 20.5539 153.093 21.1513 153.872C21.7593 154.64 22.6233 155.024 23.7433 155.024C24.1166 155.024 24.4739 154.971 24.8153 154.864C25.1566 154.747 25.4286 154.592 25.6313 154.4V151.664H23.4073V150.56H26.8473V154.976C26.5166 155.328 26.0686 155.621 25.5033 155.856C24.9486 156.08 24.3193 156.192 23.6153 156.192Z" fill="#141414"/>
<path d="M33.2343 156.192C32.3596 156.192 31.5809 155.968 30.8983 155.52C30.2263 155.072 29.6983 154.437 29.3143 153.616C28.9409 152.795 28.7543 151.824 28.7543 150.704C28.7543 149.584 28.9409 148.624 29.3143 147.824C29.6983 147.013 30.2263 146.395 30.8983 145.968C31.5809 145.531 32.3596 145.312 33.2343 145.312C34.1196 145.312 34.8983 145.531 35.5703 145.968C36.2423 146.395 36.7703 147.013 37.1543 147.824C37.5383 148.624 37.7303 149.584 37.7303 150.704C37.7303 151.824 37.5383 152.795 37.1543 153.616C36.7703 154.437 36.2423 155.072 35.5703 155.52C34.8983 155.968 34.1196 156.192 33.2343 156.192ZM33.2343 155.024C33.8636 155.024 34.4076 154.848 34.8663 154.496C35.3356 154.133 35.6983 153.632 35.9543 152.992C36.2103 152.341 36.3383 151.579 36.3383 150.704C36.3383 149.403 36.0556 148.373 35.4903 147.616C34.9249 146.859 34.1729 146.48 33.2343 146.48C32.2956 146.48 31.5436 146.859 30.9783 147.616C30.4129 148.373 30.1303 149.403 30.1303 150.704C30.1303 151.579 30.2583 152.341 30.5143 152.992C30.7703 153.632 31.1329 154.133 31.6023 154.496C32.0716 154.848 32.6156 155.024 33.2343 155.024Z" fill="#141414"/>
<path d="M39.9873 156V145.504H41.3633L45.1553 152.096L46.2913 154.272H46.3553C46.3233 153.739 46.2859 153.189 46.2433 152.624C46.2113 152.048 46.1953 151.483 46.1953 150.928V145.504H47.4593V156H46.0833L42.2753 149.392L41.1393 147.232H41.0753C41.1179 147.755 41.1553 148.293 41.1873 148.848C41.2299 149.403 41.2513 149.957 41.2513 150.512V156H39.9873Z" fill="#141414"/>
<path d="M50.9066 150.416C50.64 150.416 50.4106 150.325 50.2186 150.144C50.0373 149.952 49.9466 149.712 49.9466 149.424C49.9466 149.115 50.0373 148.869 50.2186 148.688C50.4106 148.496 50.64 148.4 50.9066 148.4C51.1626 148.4 51.3813 148.496 51.5626 148.688C51.7546 148.869 51.8506 149.115 51.8506 149.424C51.8506 149.712 51.7546 149.952 51.5626 150.144C51.3813 150.325 51.1626 150.416 50.9066 150.416ZM50.9066 156.192C50.64 156.192 50.4106 156.101 50.2186 155.92C50.0373 155.728 49.9466 155.488 49.9466 155.2C49.9466 154.891 50.0373 154.645 50.2186 154.464C50.4106 154.272 50.64 154.176 50.9066 154.176C51.1626 154.176 51.3813 154.272 51.5626 154.464C51.7546 154.645 51.8506 154.891 51.8506 155.2C51.8506 155.488 51.7546 155.728 51.5626 155.92C51.3813 156.101 51.1626 156.192 50.9066 156.192Z" fill="#141414"/>
<path d="M57.3581 156V154.912H59.6941V147.392H57.8381V146.544C58.3075 146.459 58.7128 146.357 59.0541 146.24C59.4061 146.112 59.7208 145.963 59.9981 145.792H61.0061V154.912H63.1181V156H57.3581Z" fill="#141414"/>
<path d="M65.7113 152.128H68.9113V149.168C68.9113 148.891 68.9219 148.56 68.9433 148.176C68.9646 147.792 68.9806 147.467 68.9913 147.2H68.9273C68.7993 147.445 68.6659 147.685 68.5273 147.92C68.3886 148.155 68.2446 148.395 68.0953 148.64L65.7113 152.128ZM68.9113 156V153.184H64.3193V152.32L68.6873 145.792H70.1593V152.128H71.5513V153.184H70.1593V156H68.9113Z" fill="#141414"/>
<path d="M73.2644 156V154.912H75.6004V147.392H73.7444V146.544C74.2137 146.459 74.6191 146.357 74.9604 146.24C75.3124 146.112 75.6271 145.963 75.9044 145.792H76.9124V154.912H79.0244V156H73.2644Z" fill="#141414"/>
<path d="M83.9535 156.192C83.3135 156.192 82.7429 156.075 82.2415 155.84C81.7402 155.595 81.3402 155.259 81.0415 154.832C80.7535 154.405 80.6095 153.925 80.6095 153.392C80.6095 152.944 80.7002 152.549 80.8815 152.208C81.0735 151.856 81.3135 151.552 81.6015 151.296C81.9002 151.029 82.2095 150.811 82.5295 150.64V150.576C82.1562 150.309 81.8255 149.984 81.5375 149.6C81.2495 149.216 81.1055 148.757 81.1055 148.224C81.1055 147.701 81.2335 147.243 81.4895 146.848C81.7455 146.453 82.0922 146.149 82.5295 145.936C82.9669 145.712 83.4575 145.6 84.0015 145.6C84.8868 145.6 85.5855 145.856 86.0975 146.368C86.6202 146.88 86.8815 147.531 86.8815 148.32C86.8815 148.672 86.8068 149.008 86.6575 149.328C86.5082 149.637 86.3269 149.92 86.1135 150.176C85.9002 150.421 85.6869 150.624 85.4735 150.784V150.848C85.7829 151.019 86.0708 151.221 86.3375 151.456C86.6042 151.691 86.8228 151.973 86.9935 152.304C87.1642 152.624 87.2495 153.013 87.2495 153.472C87.2495 153.973 87.1108 154.432 86.8335 154.848C86.5668 155.264 86.1828 155.595 85.6815 155.84C85.1908 156.075 84.6148 156.192 83.9535 156.192ZM84.6735 150.432C85.0148 150.123 85.2762 149.797 85.4575 149.456C85.6495 149.115 85.7455 148.757 85.7455 148.384C85.7455 147.883 85.5909 147.456 85.2815 147.104C84.9722 146.752 84.5348 146.576 83.9695 146.576C83.5002 146.576 83.1055 146.725 82.7855 147.024C82.4762 147.323 82.3215 147.723 82.3215 148.224C82.3215 148.629 82.4282 148.965 82.6415 149.232C82.8655 149.499 83.1589 149.728 83.5215 149.92C83.8842 150.101 84.2682 150.272 84.6735 150.432ZM83.9855 155.216C84.5828 155.216 85.0629 155.051 85.4255 154.72C85.7989 154.379 85.9855 153.947 85.9855 153.424C85.9855 152.987 85.8575 152.629 85.6015 152.352C85.3455 152.075 85.0042 151.835 84.5775 151.632C84.1615 151.429 83.7082 151.232 83.2175 151.04C82.8122 151.307 82.4708 151.627 82.1935 152C81.9268 152.373 81.7935 152.795 81.7935 153.264C81.7935 153.829 82.0015 154.299 82.4175 154.672C82.8442 155.035 83.3668 155.216 83.9855 155.216Z" fill="#141414"/>
<path d="M89.1706 156V154.912H91.5066V147.392H89.6506V146.544C90.12 146.459 90.5253 146.357 90.8666 146.24C91.2186 146.112 91.5333 145.963 91.8106 145.792H92.8186V154.912H94.9306V156H89.1706Z" fill="#141414"/>
<path d="M98.6918 156C98.7558 154.72 98.8891 153.573 99.0918 152.56C99.3051 151.536 99.6144 150.576 100.02 149.68C100.436 148.773 100.98 147.856 101.652 146.928H96.5638V145.792H103.14V146.608C102.532 147.376 102.036 148.117 101.652 148.832C101.268 149.536 100.969 150.251 100.756 150.976C100.542 151.691 100.382 152.459 100.276 153.28C100.169 154.101 100.094 155.008 100.052 156H98.6918Z" fill="#141414"/>
<path d="M107.813 156.192C107.173 156.192 106.602 156.075 106.101 155.84C105.6 155.595 105.2 155.259 104.901 154.832C104.613 154.405 104.469 153.925 104.469 153.392C104.469 152.944 104.56 152.549 104.741 152.208C104.933 151.856 105.173 151.552 105.461 151.296C105.76 151.029 106.069 150.811 106.389 150.64V150.576C106.016 150.309 105.685 149.984 105.397 149.6C105.109 149.216 104.965 148.757 104.965 148.224C104.965 147.701 105.093 147.243 105.349 146.848C105.605 146.453 105.952 146.149 106.389 145.936C106.826 145.712 107.317 145.6 107.861 145.6C108.746 145.6 109.445 145.856 109.957 146.368C110.48 146.88 110.741 147.531 110.741 148.32C110.741 148.672 110.666 149.008 110.517 149.328C110.368 149.637 110.186 149.92 109.973 150.176C109.76 150.421 109.546 150.624 109.333 150.784V150.848C109.642 151.019 109.93 151.221 110.197 151.456C110.464 151.691 110.682 151.973 110.853 152.304C111.024 152.624 111.109 153.013 111.109 153.472C111.109 153.973 110.97 154.432 110.693 154.848C110.426 155.264 110.042 155.595 109.541 155.84C109.05 156.075 108.474 156.192 107.813 156.192ZM108.533 150.432C108.874 150.123 109.136 149.797 109.317 149.456C109.509 149.115 109.605 148.757 109.605 148.384C109.605 147.883 109.45 147.456 109.141 147.104C108.832 146.752 108.394 146.576 107.829 146.576C107.36 146.576 106.965 146.725 106.645 147.024C106.336 147.323 106.181 147.723 106.181 148.224C106.181 148.629 106.288 148.965 106.501 149.232C106.725 149.499 107.018 149.728 107.381 149.92C107.744 150.101 108.128 150.272 108.533 150.432ZM107.845 155.216C108.442 155.216 108.922 155.051 109.285 154.72C109.658 154.379 109.845 153.947 109.845 153.424C109.845 152.987 109.717 152.629 109.461 152.352C109.205 152.075 108.864 151.835 108.437 151.632C108.021 151.429 107.568 151.232 107.077 151.04C106.672 151.307 106.33 151.627 106.053 152C105.786 152.373 105.653 152.795 105.653 153.264C105.653 153.829 105.861 154.299 106.277 154.672C106.704 155.035 107.226 155.216 107.845 155.216Z" fill="#141414"/>
<path d="M115.766 156.192C115.126 156.192 114.555 156.075 114.054 155.84C113.553 155.595 113.153 155.259 112.854 154.832C112.566 154.405 112.422 153.925 112.422 153.392C112.422 152.944 112.513 152.549 112.694 152.208C112.886 151.856 113.126 151.552 113.414 151.296C113.713 151.029 114.022 150.811 114.342 150.64V150.576C113.969 150.309 113.638 149.984 113.35 149.6C113.062 149.216 112.918 148.757 112.918 148.224C112.918 147.701 113.046 147.243 113.302 146.848C113.558 146.453 113.905 146.149 114.342 145.936C114.779 145.712 115.27 145.6 115.814 145.6C116.699 145.6 117.398 145.856 117.91 146.368C118.433 146.88 118.694 147.531 118.694 148.32C118.694 148.672 118.619 149.008 118.47 149.328C118.321 149.637 118.139 149.92 117.926 150.176C117.713 150.421 117.499 150.624 117.286 150.784V150.848C117.595 151.019 117.883 151.221 118.15 151.456C118.417 151.691 118.635 151.973 118.806 152.304C118.977 152.624 119.062 153.013 119.062 153.472C119.062 153.973 118.923 154.432 118.646 154.848C118.379 155.264 117.995 155.595 117.494 155.84C117.003 156.075 116.427 156.192 115.766 156.192ZM116.486 150.432C116.827 150.123 117.089 149.797 117.27 149.456C117.462 149.115 117.558 148.757 117.558 148.384C117.558 147.883 117.403 147.456 117.094 147.104C116.785 146.752 116.347 146.576 115.782 146.576C115.313 146.576 114.918 146.725 114.598 147.024C114.289 147.323 114.134 147.723 114.134 148.224C114.134 148.629 114.241 148.965 114.454 149.232C114.678 149.499 114.971 149.728 115.334 149.92C115.697 150.101 116.081 150.272 116.486 150.432ZM115.798 155.216C116.395 155.216 116.875 155.051 117.238 154.72C117.611 154.379 117.798 153.947 117.798 153.424C117.798 152.987 117.67 152.629 117.414 152.352C117.158 152.075 116.817 151.835 116.39 151.632C115.974 151.429 115.521 151.232 115.03 151.04C114.625 151.307 114.283 151.627 114.006 152C113.739 152.373 113.606 152.795 113.606 153.264C113.606 153.829 113.814 154.299 114.23 154.672C114.657 155.035 115.179 155.216 115.798 155.216Z" fill="#141414"/>
<path d="M121.383 152.128H124.583V149.168C124.583 148.891 124.594 148.56 124.615 148.176C124.636 147.792 124.652 147.467 124.663 147.2H124.599C124.471 147.445 124.338 147.685 124.199 147.92C124.06 148.155 123.916 148.395 123.767 148.64L121.383 152.128ZM124.583 156V153.184H119.991V152.32L124.359 145.792H125.831V152.128H127.223V153.184H125.831V156H124.583Z" fill="#141414"/>
</svg>
