<svg width="227" height="156" viewBox="0 0 227 156" fill="none" xmlns="http://www.w3.org/2000/svg">
<path d="M1.41696 11.568V1.136H4.98496C5.71029 1.136 6.36096 1.216 6.93696 1.376C7.51296 1.52533 7.97163 1.78667 8.31296 2.16C8.65429 2.53333 8.82496 3.056 8.82496 3.728C8.82496 4.18667 8.70229 4.64 8.45696 5.088C8.22229 5.52533 7.89163 5.824 7.46496 5.984V6.048C7.99829 6.18667 8.44096 6.45867 8.79296 6.864C9.15563 7.25867 9.33696 7.80267 9.33696 8.496C9.33696 9.21067 9.15563 9.792 8.79296 10.24C8.43029 10.688 7.94496 11.024 7.33696 11.248C6.72896 11.4613 6.04629 11.568 5.28896 11.568H1.41696ZM3.76896 5.312H4.87296C5.44896 5.312 5.86496 5.2 6.12096 4.976C6.38763 4.752 6.52096 4.45333 6.52096 4.08C6.52096 3.67467 6.38763 3.38667 6.12096 3.216C5.85429 3.04533 5.44363 2.96 4.88896 2.96H3.76896V5.312ZM3.76896 9.744H5.09696C6.38763 9.744 7.03296 9.27467 7.03296 8.336C7.03296 7.87733 6.87296 7.552 6.55296 7.36C6.23296 7.15733 5.74763 7.056 5.09696 7.056H3.76896V9.744Z" fill="#141414"/>
<path d="M10.9125 11.568V3.632H12.8325L12.9925 5.024H13.0565C13.3445 4.49067 13.6911 4.096 14.0965 3.84C14.5018 3.57333 14.9071 3.44 15.3125 3.44C15.5365 3.44 15.7231 3.456 15.8725 3.488C16.0218 3.50933 16.1498 3.54667 16.2565 3.6L15.8725 5.632C15.7338 5.58933 15.5951 5.55733 15.4565 5.536C15.3285 5.51467 15.1791 5.504 15.0085 5.504C14.7098 5.504 14.3951 5.616 14.0645 5.84C13.7445 6.05333 13.4778 6.42667 13.2645 6.96V11.568H10.9125Z" fill="#141414"/>
<path d="M17.2875 11.568V3.632H19.6395V11.568H17.2875ZM18.4555 2.464C18.0608 2.464 17.7408 2.352 17.4955 2.128C17.2501 1.904 17.1275 1.60533 17.1275 1.232C17.1275 0.858667 17.2501 0.56 17.4955 0.336C17.7408 0.112 18.0608 0 18.4555 0C18.8501 0 19.1701 0.112 19.4155 0.336C19.6608 0.56 19.7835 0.858667 19.7835 1.232C19.7835 1.60533 19.6608 1.904 19.4155 2.128C19.1701 2.352 18.8501 2.464 18.4555 2.464Z" fill="#141414"/>
<path d="M24.7653 11.76C23.784 11.76 23.08 11.4773 22.6533 10.912C22.2373 10.3467 22.0293 9.60533 22.0293 8.688V5.472H20.9413V3.728L22.1573 3.632L22.4293 1.52H24.3813V3.632H26.2853V5.472H24.3813V8.656C24.3813 9.104 24.472 9.42933 24.6533 9.632C24.8453 9.824 25.096 9.92 25.4053 9.92C25.5333 9.92 25.6613 9.904 25.7893 9.872C25.928 9.84 26.0507 9.80267 26.1573 9.76L26.5253 11.472C26.3227 11.536 26.072 11.6 25.7733 11.664C25.4853 11.728 25.1493 11.76 24.7653 11.76Z" fill="#141414"/>
<path d="M27.8343 11.568V3.632H30.1863V11.568H27.8343ZM29.0023 2.464C28.6077 2.464 28.2877 2.352 28.0423 2.128C27.797 1.904 27.6743 1.60533 27.6743 1.232C27.6743 0.858667 27.797 0.56 28.0423 0.336C28.2877 0.112 28.6077 0 29.0023 0C29.397 0 29.717 0.112 29.9623 0.336C30.2077 0.56 30.3303 0.858667 30.3303 1.232C30.3303 1.60533 30.2077 1.904 29.9623 2.128C29.717 2.352 29.397 2.464 29.0023 2.464Z" fill="#141414"/>
<path d="M34.5922 11.76C34.0695 11.76 33.5309 11.6587 32.9762 11.456C32.4322 11.2533 31.9575 10.9867 31.5522 10.656L32.6082 9.184C32.9709 9.45067 33.3175 9.65867 33.6482 9.808C33.9895 9.94667 34.3255 10.016 34.6562 10.016C35.0082 10.016 35.2642 9.95733 35.4242 9.84C35.5842 9.712 35.6642 9.54667 35.6642 9.344C35.6642 9.16267 35.5842 9.01333 35.4242 8.896C35.2749 8.77867 35.0775 8.672 34.8322 8.576C34.5869 8.46933 34.3255 8.36267 34.0482 8.256C33.7282 8.128 33.4082 7.968 33.0882 7.776C32.7789 7.584 32.5175 7.33867 32.3042 7.04C32.0909 6.73067 31.9842 6.35733 31.9842 5.92C31.9842 5.184 32.2615 4.58667 32.8162 4.128C33.3815 3.66933 34.1175 3.44 35.0242 3.44C35.6322 3.44 36.1655 3.54667 36.6242 3.76C37.0935 3.96267 37.4935 4.192 37.8242 4.448L36.7682 5.856C36.4909 5.64267 36.2135 5.47733 35.9362 5.36C35.6589 5.24267 35.3815 5.184 35.1042 5.184C34.4962 5.184 34.1922 5.392 34.1922 5.808C34.1922 6.064 34.3415 6.26133 34.6402 6.4C34.9495 6.528 35.3069 6.66667 35.7122 6.816C36.0535 6.93333 36.3842 7.088 36.7042 7.28C37.0349 7.46133 37.3069 7.70667 37.5202 8.016C37.7442 8.31467 37.8562 8.70933 37.8562 9.2C37.8562 9.91467 37.5789 10.5227 37.0242 11.024C36.4695 11.5147 35.6589 11.76 34.5922 11.76Z" fill="#141414"/>
<path d="M39.35 11.568V0.352H41.702V3.104L41.59 4.528C41.8886 4.26133 42.2353 4.016 42.63 3.792C43.0353 3.55733 43.5046 3.44 44.038 3.44C44.902 3.44 45.526 3.728 45.91 4.304C46.3046 4.86933 46.502 5.648 46.502 6.64V11.568H44.15V6.944C44.15 6.368 44.07 5.97333 43.91 5.76C43.7606 5.54667 43.5153 5.44 43.174 5.44C42.8753 5.44 42.6193 5.50933 42.406 5.648C42.1926 5.776 41.958 5.96267 41.702 6.208V11.568H39.35Z" fill="#141414"/>
<path d="M54.3337 6.288L54.0777 7.248H56.3017L56.0617 6.288C55.923 5.76533 55.779 5.21067 55.6297 4.624C55.491 4.03733 55.3524 3.472 55.2137 2.928H55.1497C55.0217 3.48267 54.8884 4.05333 54.7497 4.64C54.6217 5.216 54.483 5.76533 54.3337 6.288ZM50.5577 11.568L53.8217 1.136H56.6537L59.9177 11.568H57.4217L56.7817 9.088H53.5977L52.9577 11.568H50.5577Z" fill="#141414"/>
<path d="M60.8656 11.568V3.632H62.7856L62.9456 4.656H63.0096C63.3403 4.32533 63.6923 4.04267 64.0656 3.808C64.4389 3.56267 64.8869 3.44 65.4096 3.44C65.9749 3.44 66.4283 3.55733 66.7696 3.792C67.1216 4.016 67.3989 4.34133 67.6016 4.768C67.9536 4.40533 68.3269 4.096 68.7216 3.84C69.1163 3.57333 69.5749 3.44 70.0976 3.44C70.9509 3.44 71.5749 3.728 71.9696 4.304C72.3749 4.86933 72.5776 5.648 72.5776 6.64V11.568H70.2256V6.944C70.2256 6.368 70.1456 5.97333 69.9856 5.76C69.8363 5.54667 69.5909 5.44 69.2496 5.44C68.8549 5.44 68.4016 5.696 67.8896 6.208V11.568H65.5376V6.944C65.5376 6.368 65.4576 5.97333 65.2976 5.76C65.1483 5.54667 64.9029 5.44 64.5616 5.44C64.1669 5.44 63.7189 5.696 63.2176 6.208V11.568H60.8656Z" fill="#141414"/>
<path d="M78.1363 11.76C77.379 11.76 76.6963 11.5947 76.0883 11.264C75.4803 10.9333 75.0003 10.4587 74.6483 9.84C74.2963 9.22133 74.1203 8.47467 74.1203 7.6C74.1203 6.736 74.2963 5.99467 74.6483 5.376C75.011 4.75733 75.4803 4.28267 76.0563 3.952C76.6323 3.61067 77.235 3.44 77.8643 3.44C78.6217 3.44 79.2457 3.61067 79.7363 3.952C80.2377 4.28267 80.611 4.736 80.8563 5.312C81.1123 5.87733 81.2403 6.52267 81.2403 7.248C81.2403 7.45067 81.2297 7.65333 81.2083 7.856C81.187 8.048 81.1657 8.192 81.1443 8.288H76.3923C76.499 8.864 76.739 9.29067 77.1123 9.568C77.4857 9.83467 77.9337 9.968 78.4563 9.968C79.0217 9.968 79.5923 9.792 80.1683 9.44L80.9523 10.864C80.547 11.1413 80.0937 11.36 79.5923 11.52C79.091 11.68 78.6057 11.76 78.1363 11.76ZM76.3763 6.736H79.2403C79.2403 6.29867 79.1337 5.94133 78.9203 5.664C78.7177 5.376 78.3817 5.232 77.9123 5.232C77.5497 5.232 77.2243 5.36 76.9363 5.616C76.6483 5.86133 76.4617 6.23467 76.3763 6.736Z" fill="#141414"/>
<path d="M82.8656 11.568V3.632H84.7856L84.9456 5.024H85.0096C85.2976 4.49067 85.6442 4.096 86.0496 3.84C86.4549 3.57333 86.8603 3.44 87.2656 3.44C87.4896 3.44 87.6763 3.456 87.8256 3.488C87.9749 3.50933 88.1029 3.54667 88.2096 3.6L87.8256 5.632C87.6869 5.58933 87.5482 5.55733 87.4096 5.536C87.2816 5.51467 87.1323 5.504 86.9616 5.504C86.6629 5.504 86.3483 5.616 86.0176 5.84C85.6976 6.05333 85.4309 6.42667 85.2176 6.96V11.568H82.8656Z" fill="#141414"/>
<path d="M89.2406 11.568V3.632H91.5926V11.568H89.2406ZM90.4086 2.464C90.0139 2.464 89.6939 2.352 89.4486 2.128C89.2033 1.904 89.0806 1.60533 89.0806 1.232C89.0806 0.858667 89.2033 0.56 89.4486 0.336C89.6939 0.112 90.0139 0 90.4086 0C90.8033 0 91.1233 0.112 91.3686 0.336C91.6139 0.56 91.7366 0.858667 91.7366 1.232C91.7366 1.60533 91.6139 1.904 91.3686 2.128C91.1233 2.352 90.8033 2.464 90.4086 2.464Z" fill="#141414"/>
<path d="M97.1185 11.76C96.3825 11.76 95.7158 11.6 95.1185 11.28C94.5318 10.9493 94.0625 10.4747 93.7105 9.856C93.3691 9.22667 93.1985 8.47467 93.1985 7.6C93.1985 6.71467 93.3905 5.96267 93.7745 5.344C94.1585 4.72533 94.6651 4.256 95.2945 3.936C95.9238 3.60533 96.6011 3.44 97.3265 3.44C97.8171 3.44 98.2491 3.52 98.6225 3.68C99.0065 3.84 99.3478 4.04267 99.6465 4.288L98.5425 5.808C98.1691 5.49867 97.8118 5.344 97.4705 5.344C96.9051 5.344 96.4518 5.54667 96.1105 5.952C95.7798 6.35733 95.6145 6.90667 95.6145 7.6C95.6145 8.28267 95.7798 8.832 96.1105 9.248C96.4518 9.65333 96.8785 9.856 97.3905 9.856C97.6465 9.856 97.8971 9.80267 98.1425 9.696C98.3878 9.57867 98.6118 9.44 98.8145 9.28L99.7425 10.816C99.3478 11.1573 98.9211 11.4027 98.4625 11.552C98.0038 11.6907 97.5558 11.76 97.1185 11.76Z" fill="#141414"/>
<path d="M102.975 11.76C102.25 11.76 101.674 11.5307 101.247 11.072C100.82 10.6027 100.607 10.032 100.607 9.36C100.607 8.528 100.959 7.87733 101.663 7.408C102.367 6.93867 103.503 6.624 105.071 6.464C105.05 6.112 104.943 5.83467 104.751 5.632C104.57 5.41867 104.26 5.312 103.823 5.312C103.492 5.312 103.156 5.376 102.815 5.504C102.474 5.632 102.111 5.808 101.727 6.032L100.879 4.48C101.38 4.17067 101.914 3.92 102.479 3.728C103.055 3.536 103.652 3.44 104.271 3.44C105.284 3.44 106.063 3.73333 106.607 4.32C107.151 4.90667 107.423 5.808 107.423 7.024V11.568H105.503L105.343 10.752H105.279C104.948 11.0507 104.591 11.296 104.207 11.488C103.834 11.6693 103.423 11.76 102.975 11.76ZM103.775 9.936C104.042 9.936 104.271 9.87733 104.463 9.76C104.666 9.632 104.868 9.46667 105.071 9.264V7.872C104.239 7.97867 103.663 8.14933 103.343 8.384C103.023 8.608 102.863 8.87467 102.863 9.184C102.863 9.44 102.943 9.632 103.103 9.76C103.274 9.87733 103.498 9.936 103.775 9.936Z" fill="#141414"/>
<path d="M109.412 11.568V3.632H111.332L111.492 4.64H111.556C111.898 4.32 112.271 4.04267 112.676 3.808C113.092 3.56267 113.567 3.44 114.1 3.44C114.964 3.44 115.588 3.728 115.972 4.304C116.367 4.86933 116.564 5.648 116.564 6.64V11.568H114.212V6.944C114.212 6.368 114.132 5.97333 113.972 5.76C113.823 5.54667 113.578 5.44 113.236 5.44C112.938 5.44 112.682 5.50933 112.468 5.648C112.255 5.776 112.02 5.96267 111.764 6.208V11.568H109.412Z" fill="#141414"/>
<path d="M123.996 11.568V3.12H121.132V1.136H129.228V3.12H126.364V11.568H123.996Z" fill="#141414"/>
<path d="M132.852 11.76C132.18 11.76 131.545 11.6 130.948 11.28C130.361 10.9493 129.886 10.4747 129.524 9.856C129.161 9.22667 128.98 8.47467 128.98 7.6C128.98 6.71467 129.161 5.96267 129.524 5.344C129.886 4.72533 130.361 4.256 130.948 3.936C131.545 3.60533 132.18 3.44 132.852 3.44C133.524 3.44 134.153 3.60533 134.74 3.936C135.326 4.256 135.801 4.72533 136.164 5.344C136.526 5.96267 136.708 6.71467 136.708 7.6C136.708 8.47467 136.526 9.22667 136.164 9.856C135.801 10.4747 135.326 10.9493 134.74 11.28C134.153 11.6 133.524 11.76 132.852 11.76ZM132.852 9.856C133.332 9.856 133.694 9.65333 133.94 9.248C134.185 8.832 134.308 8.28267 134.308 7.6C134.308 6.90667 134.185 6.35733 133.94 5.952C133.694 5.54667 133.332 5.344 132.852 5.344C132.361 5.344 131.993 5.54667 131.748 5.952C131.513 6.35733 131.396 6.90667 131.396 7.6C131.396 8.28267 131.513 8.832 131.748 9.248C131.993 9.65333 132.361 9.856 132.852 9.856Z" fill="#141414"/>
<path d="M142.479 11.76C142.127 11.76 141.769 11.6747 141.407 11.504C141.055 11.3227 140.724 11.0613 140.415 10.72H140.351L140.159 11.568H138.319V0.352H140.671V3.104L140.607 4.32C140.916 4.04267 141.252 3.82933 141.615 3.68C141.977 3.52 142.34 3.44 142.703 3.44C143.343 3.44 143.897 3.60533 144.367 3.936C144.836 4.26667 145.193 4.736 145.439 5.344C145.695 5.94133 145.823 6.64533 145.823 7.456C145.823 8.36267 145.663 9.14133 145.343 9.792C145.023 10.432 144.607 10.9227 144.095 11.264C143.593 11.5947 143.055 11.76 142.479 11.76ZM141.935 9.84C142.34 9.84 142.687 9.65333 142.975 9.28C143.263 8.90667 143.407 8.31467 143.407 7.504C143.407 6.07467 142.948 5.36 142.031 5.36C141.561 5.36 141.108 5.6 140.671 6.08V9.328C140.884 9.52 141.097 9.65333 141.311 9.728C141.524 9.80267 141.732 9.84 141.935 9.84Z" fill="#141414"/>
<path d="M149.319 11.76C148.593 11.76 148.017 11.5307 147.591 11.072C147.164 10.6027 146.951 10.032 146.951 9.36C146.951 8.528 147.303 7.87733 148.007 7.408C148.711 6.93867 149.847 6.624 151.415 6.464C151.393 6.112 151.287 5.83467 151.095 5.632C150.913 5.41867 150.604 5.312 150.167 5.312C149.836 5.312 149.5 5.376 149.159 5.504C148.817 5.632 148.455 5.808 148.071 6.032L147.223 4.48C147.724 4.17067 148.257 3.92 148.823 3.728C149.399 3.536 149.996 3.44 150.615 3.44C151.628 3.44 152.407 3.73333 152.951 4.32C153.495 4.90667 153.767 5.808 153.767 7.024V11.568H151.847L151.687 10.752H151.623C151.292 11.0507 150.935 11.296 150.551 11.488C150.177 11.6693 149.767 11.76 149.319 11.76ZM150.119 9.936C150.385 9.936 150.615 9.87733 150.807 9.76C151.009 9.632 151.212 9.46667 151.415 9.264V7.872C150.583 7.97867 150.007 8.14933 149.687 8.384C149.367 8.608 149.207 8.87467 149.207 9.184C149.207 9.44 149.287 9.632 149.447 9.76C149.617 9.87733 149.841 9.936 150.119 9.936Z" fill="#141414"/>
<path d="M159.212 11.76C158.476 11.76 157.81 11.6 157.212 11.28C156.626 10.9493 156.156 10.4747 155.804 9.856C155.463 9.22667 155.292 8.47467 155.292 7.6C155.292 6.71467 155.484 5.96267 155.868 5.344C156.252 4.72533 156.759 4.256 157.388 3.936C158.018 3.60533 158.695 3.44 159.42 3.44C159.911 3.44 160.343 3.52 160.716 3.68C161.1 3.84 161.442 4.04267 161.74 4.288L160.636 5.808C160.263 5.49867 159.906 5.344 159.564 5.344C158.999 5.344 158.546 5.54667 158.204 5.952C157.874 6.35733 157.708 6.90667 157.708 7.6C157.708 8.28267 157.874 8.832 158.204 9.248C158.546 9.65333 158.972 9.856 159.484 9.856C159.74 9.856 159.991 9.80267 160.236 9.696C160.482 9.57867 160.706 9.44 160.908 9.28L161.836 10.816C161.442 11.1573 161.015 11.4027 160.556 11.552C160.098 11.6907 159.65 11.76 159.212 11.76Z" fill="#141414"/>
<path d="M166.228 11.76C165.492 11.76 164.825 11.6 164.228 11.28C163.641 10.9493 163.172 10.4747 162.82 9.856C162.479 9.22667 162.308 8.47467 162.308 7.6C162.308 6.71467 162.5 5.96267 162.884 5.344C163.268 4.72533 163.775 4.256 164.404 3.936C165.033 3.60533 165.711 3.44 166.436 3.44C166.926 3.44 167.359 3.52 167.732 3.68C168.116 3.84 168.457 4.04267 168.756 4.288L167.652 5.808C167.279 5.49867 166.921 5.344 166.58 5.344C166.015 5.344 165.561 5.54667 165.22 5.952C164.889 6.35733 164.724 6.90667 164.724 7.6C164.724 8.28267 164.889 8.832 165.22 9.248C165.561 9.65333 165.988 9.856 166.5 9.856C166.756 9.856 167.007 9.80267 167.252 9.696C167.497 9.57867 167.721 9.44 167.924 9.28L168.852 10.816C168.457 11.1573 168.031 11.4027 167.572 11.552C167.113 11.6907 166.665 11.76 166.228 11.76Z" fill="#141414"/>
<path d="M173.195 11.76C172.523 11.76 171.889 11.6 171.291 11.28C170.705 10.9493 170.23 10.4747 169.867 9.856C169.505 9.22667 169.323 8.47467 169.323 7.6C169.323 6.71467 169.505 5.96267 169.867 5.344C170.23 4.72533 170.705 4.256 171.291 3.936C171.889 3.60533 172.523 3.44 173.195 3.44C173.867 3.44 174.497 3.60533 175.083 3.936C175.67 4.256 176.145 4.72533 176.507 5.344C176.87 5.96267 177.051 6.71467 177.051 7.6C177.051 8.47467 176.87 9.22667 176.507 9.856C176.145 10.4747 175.67 10.9493 175.083 11.28C174.497 11.6 173.867 11.76 173.195 11.76ZM173.195 9.856C173.675 9.856 174.038 9.65333 174.283 9.248C174.529 8.832 174.651 8.28267 174.651 7.6C174.651 6.90667 174.529 6.35733 174.283 5.952C174.038 5.54667 173.675 5.344 173.195 5.344C172.705 5.344 172.337 5.54667 172.091 5.952C171.857 6.35733 171.739 6.90667 171.739 7.6C171.739 8.28267 171.857 8.832 172.091 9.248C172.337 9.65333 172.705 9.856 173.195 9.856Z" fill="#141414"/>
<path d="M182.058 11.568V1.136H185.642C186.41 1.136 187.103 1.24267 187.722 1.456C188.351 1.65867 188.852 2.00533 189.226 2.496C189.599 2.98667 189.786 3.65333 189.786 4.496C189.786 5.30667 189.599 5.97333 189.226 6.496C188.852 7.01867 188.356 7.408 187.738 7.664C187.119 7.90933 186.442 8.032 185.706 8.032H184.41V11.568H182.058ZM184.41 6.16H185.562C186.842 6.16 187.482 5.60533 187.482 4.496C187.482 3.952 187.311 3.568 186.97 3.344C186.628 3.12 186.138 3.008 185.498 3.008H184.41V6.16Z" fill="#141414"/>
<path d="M194.461 11.76C193.789 11.76 193.154 11.6 192.557 11.28C191.97 10.9493 191.496 10.4747 191.133 9.856C190.77 9.22667 190.589 8.47467 190.589 7.6C190.589 6.71467 190.77 5.96267 191.133 5.344C191.496 4.72533 191.97 4.256 192.557 3.936C193.154 3.60533 193.789 3.44 194.461 3.44C195.133 3.44 195.762 3.60533 196.349 3.936C196.936 4.256 197.41 4.72533 197.773 5.344C198.136 5.96267 198.317 6.71467 198.317 7.6C198.317 8.47467 198.136 9.22667 197.773 9.856C197.41 10.4747 196.936 10.9493 196.349 11.28C195.762 11.6 195.133 11.76 194.461 11.76ZM194.461 9.856C194.941 9.856 195.304 9.65333 195.549 9.248C195.794 8.832 195.917 8.28267 195.917 7.6C195.917 6.90667 195.794 6.35733 195.549 5.952C195.304 5.54667 194.941 5.344 194.461 5.344C193.97 5.344 193.602 5.54667 193.357 5.952C193.122 6.35733 193.005 6.90667 193.005 7.6C193.005 8.28267 193.122 8.832 193.357 9.248C193.602 9.65333 193.97 9.856 194.461 9.856Z" fill="#141414"/>
<path d="M202.088 11.76C201.277 11.76 200.712 11.52 200.392 11.04C200.083 10.5493 199.928 9.904 199.928 9.104V0.352H202.28V9.2C202.28 9.44533 202.323 9.616 202.408 9.712C202.504 9.808 202.6 9.856 202.696 9.856C202.749 9.856 202.792 9.856 202.824 9.856C202.867 9.84533 202.92 9.83467 202.984 9.824L203.272 11.568C203.144 11.6213 202.979 11.664 202.776 11.696C202.584 11.7387 202.355 11.76 202.088 11.76Z" fill="#141414"/>
<path d="M206.842 11.76C206.32 11.76 205.781 11.6587 205.226 11.456C204.682 11.2533 204.208 10.9867 203.802 10.656L204.858 9.184C205.221 9.45067 205.568 9.65867 205.898 9.808C206.24 9.94667 206.576 10.016 206.906 10.016C207.258 10.016 207.514 9.95733 207.674 9.84C207.834 9.712 207.914 9.54667 207.914 9.344C207.914 9.16267 207.834 9.01333 207.674 8.896C207.525 8.77867 207.328 8.672 207.082 8.576C206.837 8.46933 206.576 8.36267 206.298 8.256C205.978 8.128 205.658 7.968 205.338 7.776C205.029 7.584 204.768 7.33867 204.554 7.04C204.341 6.73067 204.234 6.35733 204.234 5.92C204.234 5.184 204.512 4.58667 205.066 4.128C205.632 3.66933 206.368 3.44 207.274 3.44C207.882 3.44 208.416 3.54667 208.874 3.76C209.344 3.96267 209.744 4.192 210.074 4.448L209.018 5.856C208.741 5.64267 208.464 5.47733 208.186 5.36C207.909 5.24267 207.632 5.184 207.354 5.184C206.746 5.184 206.442 5.392 206.442 5.808C206.442 6.064 206.592 6.26133 206.89 6.4C207.2 6.528 207.557 6.66667 207.962 6.816C208.304 6.93333 208.634 7.088 208.954 7.28C209.285 7.46133 209.557 7.70667 209.77 8.016C209.994 8.31467 210.106 8.70933 210.106 9.2C210.106 9.91467 209.829 10.5227 209.274 11.024C208.72 11.5147 207.909 11.76 206.842 11.76Z" fill="#141414"/>
<path d="M211.6 11.568V0.352H213.888V6.784H213.952L216.464 3.632H219.024L216.24 6.896L219.232 11.568H216.688L214.896 8.48L213.888 9.616V11.568H211.6Z" fill="#141414"/>
<path d="M222.209 11.76C221.484 11.76 220.908 11.5307 220.481 11.072C220.055 10.6027 219.841 10.032 219.841 9.36C219.841 8.528 220.193 7.87733 220.897 7.408C221.601 6.93867 222.737 6.624 224.305 6.464C224.284 6.112 224.177 5.83467 223.985 5.632C223.804 5.41867 223.495 5.312 223.057 5.312C222.727 5.312 222.391 5.376 222.049 5.504C221.708 5.632 221.345 5.808 220.961 6.032L220.113 4.48C220.615 4.17067 221.148 3.92 221.713 3.728C222.289 3.536 222.887 3.44 223.505 3.44C224.519 3.44 225.297 3.73333 225.841 4.32C226.385 4.90667 226.657 5.808 226.657 7.024V11.568H224.737L224.577 10.752H224.513C224.183 11.0507 223.825 11.296 223.441 11.488C223.068 11.6693 222.657 11.76 222.209 11.76ZM223.009 9.936C223.276 9.936 223.505 9.87733 223.697 9.76C223.9 9.632 224.103 9.46667 224.305 9.264V7.872C223.473 7.97867 222.897 8.14933 222.577 8.384C222.257 8.608 222.097 8.87467 222.097 9.184C222.097 9.44 222.177 9.632 222.337 9.76C222.508 9.87733 222.732 9.936 223.009 9.936Z" fill="#141414"/>
<path d="M3.44896 35.568V27.12H0.584961V25.136H8.68096V27.12H5.81696V35.568H3.44896Z" fill="#141414"/>
<path d="M9.44371 35.568V27.632H11.3637L11.5237 29.024H11.5877C11.8757 28.4907 12.2224 28.096 12.6277 27.84C13.033 27.5733 13.4384 27.44 13.8437 27.44C14.0677 27.44 14.2544 27.456 14.4037 27.488C14.553 27.5093 14.681 27.5467 14.7877 27.6L14.4037 29.632C14.265 29.5893 14.1264 29.5573 13.9877 29.536C13.8597 29.5147 13.7104 29.504 13.5397 29.504C13.241 29.504 12.9264 29.616 12.5957 29.84C12.2757 30.0533 12.009 30.4267 11.7957 30.96V35.568H9.44371Z" fill="#141414"/>
<path d="M17.3656 35.76C16.6403 35.76 16.0643 35.5307 15.6376 35.072C15.2109 34.6027 14.9976 34.032 14.9976 33.36C14.9976 32.528 15.3496 31.8773 16.0536 31.408C16.7576 30.9387 17.8936 30.624 19.4616 30.464C19.4403 30.112 19.3336 29.8347 19.1416 29.632C18.9603 29.4187 18.6509 29.312 18.2136 29.312C17.8829 29.312 17.5469 29.376 17.2056 29.504C16.8643 29.632 16.5016 29.808 16.1176 30.032L15.2696 28.48C15.7709 28.1707 16.3043 27.92 16.8696 27.728C17.4456 27.536 18.0429 27.44 18.6616 27.44C19.6749 27.44 20.4536 27.7333 20.9976 28.32C21.5416 28.9067 21.8136 29.808 21.8136 31.024V35.568H19.8936L19.7336 34.752H19.6696C19.3389 35.0507 18.9816 35.296 18.5976 35.488C18.2243 35.6693 17.8136 35.76 17.3656 35.76ZM18.1656 33.936C18.4323 33.936 18.6616 33.8773 18.8536 33.76C19.0563 33.632 19.2589 33.4667 19.4616 33.264V31.872C18.6296 31.9787 18.0536 32.1493 17.7336 32.384C17.4136 32.608 17.2536 32.8747 17.2536 33.184C17.2536 33.44 17.3336 33.632 17.4936 33.76C17.6643 33.8773 17.8883 33.936 18.1656 33.936Z" fill="#141414"/>
<path d="M26.6351 35.76C25.6538 35.76 24.8644 35.392 24.2671 34.656C23.6804 33.9093 23.3871 32.8907 23.3871 31.6C23.3871 30.736 23.5418 29.9947 23.8511 29.376C24.1711 28.7467 24.5818 28.2667 25.0831 27.936C25.5951 27.6053 26.1284 27.44 26.6831 27.44C27.1204 27.44 27.4884 27.5147 27.7871 27.664C28.0858 27.8133 28.3684 28.016 28.6351 28.272L28.5391 27.056V24.352H30.8911V35.568H28.9711L28.8111 34.784H28.7471C28.4698 35.0613 28.1444 35.296 27.7711 35.488C27.3978 35.6693 27.0191 35.76 26.6351 35.76ZM27.2431 33.84C27.4991 33.84 27.7284 33.7867 27.9311 33.68C28.1444 33.5733 28.3471 33.3867 28.5391 33.12V29.872C28.3364 29.68 28.1178 29.5467 27.8831 29.472C27.6591 29.3973 27.4404 29.36 27.2271 29.36C26.8538 29.36 26.5231 29.5413 26.2351 29.904C25.9471 30.256 25.8031 30.8107 25.8031 31.568C25.8031 32.3467 25.9258 32.9227 26.1711 33.296C26.4271 33.6587 26.7844 33.84 27.2431 33.84Z" fill="#141414"/>
<path d="M32.975 35.568V27.632H35.327V35.568H32.975ZM34.143 26.464C33.7483 26.464 33.4283 26.352 33.183 26.128C32.9376 25.904 32.815 25.6053 32.815 25.232C32.815 24.8587 32.9376 24.56 33.183 24.336C33.4283 24.112 33.7483 24 34.143 24C34.5376 24 34.8576 24.112 35.103 24.336C35.3483 24.56 35.471 24.8587 35.471 25.232C35.471 25.6053 35.3483 25.904 35.103 26.128C34.8576 26.352 34.5376 26.464 34.143 26.464Z" fill="#141414"/>
<path d="M37.3968 35.568V27.632H39.3168L39.4768 28.64H39.5408C39.8822 28.32 40.2555 28.0427 40.6608 27.808C41.0768 27.5627 41.5515 27.44 42.0848 27.44C42.9488 27.44 43.5728 27.728 43.9568 28.304C44.3515 28.8693 44.5488 29.648 44.5488 30.64V35.568H42.1968V30.944C42.1968 30.368 42.1168 29.9733 41.9568 29.76C41.8075 29.5467 41.5622 29.44 41.2208 29.44C40.9222 29.44 40.6662 29.5093 40.4528 29.648C40.2395 29.776 40.0048 29.9627 39.7488 30.208V35.568H37.3968Z" fill="#141414"/>
<path d="M49.3851 38.944C48.7664 38.944 48.2064 38.8747 47.7051 38.736C47.2038 38.5973 46.8038 38.3787 46.5051 38.08C46.2064 37.7813 46.0571 37.3973 46.0571 36.928C46.0571 36.288 46.4358 35.7547 47.1931 35.328V35.264C46.9904 35.1253 46.8144 34.9493 46.6651 34.736C46.5264 34.5227 46.4571 34.2507 46.4571 33.92C46.4571 33.632 46.5424 33.3547 46.7131 33.088C46.8838 32.8213 47.0971 32.6027 47.3531 32.432V32.368C47.0758 32.176 46.8251 31.8987 46.6011 31.536C46.3878 31.1733 46.2811 30.7627 46.2811 30.304C46.2811 29.664 46.4357 29.136 46.7451 28.72C47.0544 28.2933 47.4598 27.9733 47.9611 27.76C48.4624 27.5467 48.9958 27.44 49.5611 27.44C50.0304 27.44 50.4411 27.504 50.7931 27.632H53.6891V29.344H52.4251C52.4997 29.4613 52.5584 29.6107 52.6011 29.792C52.6544 29.9733 52.6811 30.1707 52.6811 30.384C52.6811 30.992 52.5424 31.4933 52.2651 31.888C51.9878 32.2827 51.6144 32.576 51.1451 32.768C50.6758 32.96 50.1478 33.056 49.5611 33.056C49.2518 33.056 48.9318 33.0027 48.6011 32.896C48.4091 33.056 48.3131 33.2533 48.3131 33.488C48.3131 33.6907 48.4038 33.84 48.5851 33.936C48.7664 34.032 49.0758 34.08 49.5131 34.08H50.7931C51.7744 34.08 52.5211 34.24 53.0331 34.56C53.5558 34.8693 53.8171 35.3813 53.8171 36.096C53.8171 36.64 53.6358 37.1253 53.2731 37.552C52.9104 37.9893 52.3984 38.3307 51.7371 38.576C51.0757 38.8213 50.2918 38.944 49.3851 38.944ZM49.5611 31.632C49.8704 31.632 50.1264 31.52 50.3291 31.296C50.5424 31.072 50.6491 30.7413 50.6491 30.304C50.6491 29.888 50.5424 29.5733 50.3291 29.36C50.1264 29.136 49.8704 29.024 49.5611 29.024C49.2518 29.024 48.9904 29.1307 48.7771 29.344C48.5744 29.5573 48.4731 29.8773 48.4731 30.304C48.4731 30.7413 48.5744 31.072 48.7771 31.296C48.9904 31.52 49.2518 31.632 49.5611 31.632ZM49.7531 37.472C50.2864 37.472 50.7238 37.376 51.0651 37.184C51.4064 36.992 51.5771 36.7627 51.5771 36.496C51.5771 36.2507 51.4704 36.0853 51.2571 36C51.0544 35.9147 50.7558 35.872 50.3611 35.872H49.5451C49.2784 35.872 49.0544 35.8613 48.8731 35.84C48.7024 35.8293 48.5531 35.808 48.4251 35.776C48.1371 36.032 47.9931 36.2933 47.9931 36.56C47.9931 36.8587 48.1531 37.0827 48.4731 37.232C48.8037 37.392 49.2304 37.472 49.7531 37.472Z" fill="#141414"/>
<path d="M61.6791 35.76C60.9964 35.76 60.3138 35.632 59.6311 35.376C58.9591 35.12 58.3564 34.7467 57.8231 34.256L59.1671 32.64C59.5404 32.96 59.9564 33.2213 60.4151 33.424C60.8738 33.6267 61.3164 33.728 61.7431 33.728C62.2337 33.728 62.5964 33.6373 62.8311 33.456C63.0764 33.2747 63.1991 33.0293 63.1991 32.72C63.1991 32.3893 63.0604 32.1493 62.7831 32C62.5164 31.84 62.1538 31.664 61.6951 31.472L60.3351 30.896C59.9831 30.7467 59.6471 30.5493 59.3271 30.304C59.0071 30.048 58.7458 29.7333 58.5431 29.36C58.3404 28.9867 58.2391 28.5493 58.2391 28.048C58.2391 27.472 58.3937 26.9493 58.7031 26.48C59.0231 26.0107 59.4604 25.6373 60.0151 25.36C60.5804 25.0827 61.2257 24.944 61.9511 24.944C62.5484 24.944 63.1458 25.0613 63.7431 25.296C64.3404 25.5307 64.8631 25.872 65.3111 26.32L64.1111 27.808C63.7698 27.5413 63.4284 27.3387 63.0871 27.2C62.7458 27.0507 62.3671 26.976 61.9511 26.976C61.5457 26.976 61.2204 27.0613 60.9751 27.232C60.7404 27.392 60.6231 27.6213 60.6231 27.92C60.6231 28.24 60.7724 28.48 61.0711 28.64C61.3804 28.8 61.7591 28.9707 62.2071 29.152L63.5511 29.696C64.1804 29.952 64.6817 30.304 65.0551 30.752C65.4284 31.2 65.6151 31.792 65.6151 32.528C65.6151 33.104 65.4604 33.6373 65.1511 34.128C64.8418 34.6187 64.3937 35.0133 63.8071 35.312C63.2204 35.6107 62.5111 35.76 61.6791 35.76Z" fill="#141414"/>
<path d="M67.1937 38.512V27.632H69.1137L69.2737 28.416H69.3377C69.647 28.1387 69.9937 27.9093 70.3777 27.728C70.7724 27.536 71.1777 27.44 71.5937 27.44C72.5537 27.44 73.311 27.808 73.8657 28.544C74.4204 29.2693 74.6977 30.2453 74.6977 31.472C74.6977 32.3787 74.5377 33.152 74.2177 33.792C73.8977 34.432 73.4817 34.9227 72.9697 35.264C72.4684 35.5947 71.9297 35.76 71.3537 35.76C71.0124 35.76 70.6817 35.6907 70.3617 35.552C70.0417 35.4027 69.743 35.1947 69.4657 34.928L69.5457 36.192V38.512H67.1937ZM70.8097 33.84C71.215 33.84 71.5617 33.6533 71.8497 33.28C72.1377 32.9067 72.2817 32.3147 72.2817 31.504C72.2817 30.0747 71.823 29.36 70.9057 29.36C70.447 29.36 69.9937 29.6 69.5457 30.08V33.328C69.759 33.52 69.9724 33.6533 70.1857 33.728C70.399 33.8027 70.607 33.84 70.8097 33.84Z" fill="#141414"/>
<path d="M77.5693 35.76C77.164 35.76 76.8227 35.6213 76.5453 35.344C76.2787 35.056 76.1453 34.704 76.1453 34.288C76.1453 33.8613 76.2787 33.5093 76.5453 33.232C76.8227 32.944 77.164 32.8 77.5693 32.8C77.9747 32.8 78.3107 32.944 78.5773 33.232C78.8547 33.5093 78.9933 33.8613 78.9933 34.288C78.9933 34.704 78.8547 35.056 78.5773 35.344C78.3107 35.6213 77.9747 35.76 77.5693 35.76Z" fill="#141414"/>
<path d="M83.7773 35.568V34.304L87.1053 29.472H84.1453V27.632H90.0333V28.88L86.7053 33.728H90.1453V35.568H83.7773Z" fill="#141414"/>
<path d="M98.1798 35.76C97.5078 35.76 96.8732 35.6 96.2758 35.28C95.6892 34.9493 95.2145 34.4747 94.8518 33.856C94.4892 33.2267 94.3078 32.4747 94.3078 31.6C94.3078 30.7147 94.4892 29.9627 94.8518 29.344C95.2145 28.7253 95.6892 28.256 96.2758 27.936C96.8732 27.6053 97.5078 27.44 98.1798 27.44C98.8518 27.44 99.4812 27.6053 100.068 27.936C100.655 28.256 101.129 28.7253 101.492 29.344C101.855 29.9627 102.036 30.7147 102.036 31.6C102.036 32.4747 101.855 33.2267 101.492 33.856C101.129 34.4747 100.655 34.9493 100.068 35.28C99.4812 35.6 98.8518 35.76 98.1798 35.76ZM98.1798 33.856C98.6598 33.856 99.0225 33.6533 99.2678 33.248C99.5132 32.832 99.6358 32.2827 99.6358 31.6C99.6358 30.9067 99.5132 30.3573 99.2678 29.952C99.0225 29.5467 98.6598 29.344 98.1798 29.344C97.6892 29.344 97.3212 29.5467 97.0758 29.952C96.8412 30.3573 96.7238 30.9067 96.7238 31.6C96.7238 32.2827 96.8412 32.832 97.0758 33.248C97.3212 33.6533 97.6892 33.856 98.1798 33.856Z" fill="#141414"/>
<path d="M104.851 35.76C104.445 35.76 104.104 35.6213 103.827 35.344C103.56 35.056 103.427 34.704 103.427 34.288C103.427 33.8613 103.56 33.5093 103.827 33.232C104.104 32.944 104.445 32.8 104.851 32.8C105.256 32.8 105.592 32.944 105.859 33.232C106.136 33.5093 106.275 33.8613 106.275 34.288C106.275 34.704 106.136 35.056 105.859 35.344C105.592 35.6213 105.256 35.76 104.851 35.76Z" fill="#141414"/>
<path d="M111.539 35.76C110.867 35.76 110.233 35.6 109.635 35.28C109.049 34.9493 108.574 34.4747 108.211 33.856C107.849 33.2267 107.667 32.4747 107.667 31.6C107.667 30.7147 107.849 29.9627 108.211 29.344C108.574 28.7253 109.049 28.256 109.635 27.936C110.233 27.6053 110.867 27.44 111.539 27.44C112.211 27.44 112.841 27.6053 113.427 27.936C114.014 28.256 114.489 28.7253 114.851 29.344C115.214 29.9627 115.395 30.7147 115.395 31.6C115.395 32.4747 115.214 33.2267 114.851 33.856C114.489 34.4747 114.014 34.9493 113.427 35.28C112.841 35.6 112.211 35.76 111.539 35.76ZM111.539 33.856C112.019 33.856 112.382 33.6533 112.627 33.248C112.873 32.832 112.995 32.2827 112.995 31.6C112.995 30.9067 112.873 30.3573 112.627 29.952C112.382 29.5467 112.019 29.344 111.539 29.344C111.049 29.344 110.681 29.5467 110.435 29.952C110.201 30.3573 110.083 30.9067 110.083 31.6C110.083 32.2827 110.201 32.832 110.435 33.248C110.681 33.6533 111.049 33.856 111.539 33.856Z" fill="#141414"/>
<path d="M118.21 35.76C117.805 35.76 117.463 35.6213 117.186 35.344C116.919 35.056 116.786 34.704 116.786 34.288C116.786 33.8613 116.919 33.5093 117.186 33.232C117.463 32.944 117.805 32.8 118.21 32.8C118.615 32.8 118.951 32.944 119.218 33.232C119.495 33.5093 119.634 33.8613 119.634 34.288C119.634 34.704 119.495 35.056 119.218 35.344C118.951 35.6213 118.615 35.76 118.21 35.76Z" fill="#141414"/>
<path d="M3.80096 59.568V50.192H0.632961V49.072H8.31296V50.192H5.14496V59.568H3.80096Z" fill="#141414"/>
<path d="M10.0751 59.568V48.176H11.3871V51.28L11.3391 52.88C11.7124 52.528 12.1018 52.2293 12.5071 51.984C12.9231 51.728 13.3978 51.6 13.9311 51.6C14.7524 51.6 15.3498 51.8613 15.7231 52.384C16.1071 52.896 16.2991 53.648 16.2991 54.64V59.568H14.9871V54.816C14.9871 54.0907 14.8698 53.5627 14.6351 53.232C14.4004 52.9013 14.0271 52.736 13.5151 52.736C13.1204 52.736 12.7631 52.8373 12.4431 53.04C12.1338 53.2427 11.7818 53.5413 11.3871 53.936V59.568H10.0751Z" fill="#141414"/>
<path d="M21.9302 59.76C21.2369 59.76 20.6075 59.6 20.0422 59.28C19.4769 58.9493 19.0289 58.48 18.6982 57.872C18.3675 57.264 18.2022 56.5387 18.2022 55.696C18.2022 54.8427 18.3675 54.112 18.6982 53.504C19.0395 52.896 19.4769 52.4267 20.0102 52.096C20.5435 51.7653 21.1035 51.6 21.6902 51.6C22.6822 51.6 23.4449 51.9307 23.9782 52.592C24.5222 53.2533 24.7942 54.1387 24.7942 55.248C24.7942 55.3867 24.7889 55.5253 24.7782 55.664C24.7782 55.792 24.7675 55.904 24.7462 56H19.4982C19.5515 56.8213 19.8075 57.4773 20.2662 57.968C20.7355 58.4587 21.3435 58.704 22.0902 58.704C22.4635 58.704 22.8049 58.6507 23.1142 58.544C23.4342 58.4267 23.7382 58.2773 24.0262 58.096L24.4902 58.96C24.1595 59.1733 23.7809 59.36 23.3542 59.52C22.9382 59.68 22.4635 59.76 21.9302 59.76ZM19.4822 55.056H23.6422C23.6422 54.2667 23.4715 53.6693 23.1302 53.264C22.7995 52.848 22.3302 52.64 21.7222 52.64C21.1782 52.64 20.6875 52.8533 20.2502 53.28C19.8235 53.696 19.5675 54.288 19.4822 55.056Z" fill="#141414"/>
<path d="M30.0468 59.568V49.072H33.0388C33.8282 49.072 34.5162 49.168 35.1028 49.36C35.6895 49.552 36.1482 49.8773 36.4788 50.336C36.8095 50.784 36.9748 51.392 36.9748 52.16C36.9748 53.2587 36.6175 54.0747 35.9028 54.608C35.1882 55.1413 34.2548 55.408 33.1028 55.408H31.3748V59.568H30.0468ZM31.3748 54.32H32.9428C33.8602 54.32 34.5375 54.1493 34.9748 53.808C35.4228 53.456 35.6468 52.9067 35.6468 52.16C35.6468 51.4027 35.4122 50.88 34.9428 50.592C34.4842 50.2933 33.7962 50.144 32.8788 50.144H31.3748V54.32Z" fill="#141414"/>
<path d="M40.0858 59.76C39.4352 59.76 38.8912 59.568 38.4538 59.184C38.0272 58.7893 37.8138 58.2453 37.8138 57.552C37.8138 56.6987 38.1925 56.048 38.9498 55.6C39.7178 55.1413 40.9285 54.8213 42.5818 54.64C42.5818 54.3093 42.5338 53.9947 42.4378 53.696C42.3525 53.3973 42.1925 53.1573 41.9578 52.976C41.7338 52.784 41.4085 52.688 40.9818 52.688C40.5338 52.688 40.1125 52.7733 39.7178 52.944C39.3232 53.1147 38.9712 53.3067 38.6618 53.52L38.1498 52.608C38.5125 52.3733 38.9552 52.1493 39.4778 51.936C40.0112 51.712 40.5872 51.6 41.2058 51.6C42.1552 51.6 42.8432 51.8933 43.2698 52.48C43.6965 53.056 43.9098 53.8293 43.9098 54.8V59.568H42.8218L42.7098 58.64H42.6618C42.2992 58.9387 41.8992 59.2 41.4618 59.424C41.0352 59.648 40.5765 59.76 40.0858 59.76ZM40.4698 58.704C40.8432 58.704 41.1952 58.6133 41.5258 58.432C41.8565 58.2507 42.2085 57.9947 42.5818 57.664V55.504C41.2912 55.664 40.3845 55.904 39.8618 56.224C39.3498 56.544 39.0938 56.9547 39.0938 57.456C39.0938 57.8933 39.2272 58.2133 39.4938 58.416C39.7605 58.608 40.0858 58.704 40.4698 58.704Z" fill="#141414"/>
<path d="M46.3563 59.568V51.792H47.4443L47.5563 53.2H47.6043C47.871 52.7093 48.1963 52.32 48.5803 52.032C48.9643 51.744 49.375 51.6 49.8123 51.6C50.1217 51.6 50.399 51.6533 50.6443 51.76L50.3883 52.912C50.2603 52.8693 50.143 52.8373 50.0363 52.816C49.9297 52.7947 49.7963 52.784 49.6363 52.784C49.3057 52.784 48.959 52.9173 48.5963 53.184C48.2443 53.4507 47.935 53.9147 47.6683 54.576V59.568H46.3563Z" fill="#141414"/>
<path d="M51.9032 59.568V48.176H53.1992V55.888H53.2472L56.5592 51.792H58.0152L55.4072 54.912L58.3672 59.568H56.9272L54.6552 55.824L53.1992 57.52V59.568H51.9032Z" fill="#141414"/>
<path d="M64.3082 59.568L62.0842 49.072H63.4602L64.5642 54.784C64.6602 55.3493 64.7615 55.9147 64.8682 56.48C64.9749 57.0453 65.0762 57.6107 65.1722 58.176H65.2362C65.3535 57.6107 65.4762 57.0453 65.6042 56.48C65.7322 55.904 65.8549 55.3387 65.9722 54.784L67.4282 49.072H68.6442L70.1002 54.784C70.2282 55.3387 70.3562 55.904 70.4842 56.48C70.6122 57.0453 70.7402 57.6107 70.8682 58.176H70.9322C71.0282 57.6107 71.1242 57.0453 71.2202 56.48C71.3162 55.904 71.4175 55.3387 71.5242 54.784L72.6282 49.072H73.9082L71.7322 59.568H70.1322L68.5482 53.248C68.4522 52.8427 68.3615 52.448 68.2762 52.064C68.2015 51.6693 68.1215 51.2693 68.0362 50.864H67.9722C67.8975 51.2693 67.8122 51.6693 67.7162 52.064C67.6202 52.448 67.5295 52.8427 67.4442 53.248L65.8922 59.568H64.3082Z" fill="#141414"/>
<path d="M77.1483 59.76C76.4977 59.76 75.9537 59.568 75.5163 59.184C75.0897 58.7893 74.8763 58.2453 74.8763 57.552C74.8763 56.6987 75.255 56.048 76.0123 55.6C76.7803 55.1413 77.991 54.8213 79.6443 54.64C79.6443 54.3093 79.5963 53.9947 79.5003 53.696C79.415 53.3973 79.255 53.1573 79.0203 52.976C78.7963 52.784 78.471 52.688 78.0443 52.688C77.5963 52.688 77.175 52.7733 76.7803 52.944C76.3857 53.1147 76.0337 53.3067 75.7243 53.52L75.2123 52.608C75.575 52.3733 76.0177 52.1493 76.5403 51.936C77.0737 51.712 77.6497 51.6 78.2683 51.6C79.2177 51.6 79.9057 51.8933 80.3323 52.48C80.759 53.056 80.9723 53.8293 80.9723 54.8V59.568H79.8843L79.7723 58.64H79.7243C79.3617 58.9387 78.9617 59.2 78.5243 59.424C78.0977 59.648 77.639 59.76 77.1483 59.76ZM77.5323 58.704C77.9057 58.704 78.2577 58.6133 78.5883 58.432C78.919 58.2507 79.271 57.9947 79.6443 57.664V55.504C78.3537 55.664 77.447 55.904 76.9243 56.224C76.4123 56.544 76.1563 56.9547 76.1563 57.456C76.1563 57.8933 76.2897 58.2133 76.5563 58.416C76.823 58.608 77.1483 58.704 77.5323 58.704Z" fill="#141414"/>
<path d="M83.4188 59.568V51.792H84.5068L84.6188 53.2H84.6668C84.9335 52.7093 85.2588 52.32 85.6428 52.032C86.0268 51.744 86.4375 51.6 86.8748 51.6C87.1842 51.6 87.4615 51.6533 87.7068 51.76L87.4508 52.912C87.3228 52.8693 87.2055 52.8373 87.0988 52.816C86.9922 52.7947 86.8588 52.784 86.6988 52.784C86.3682 52.784 86.0215 52.9173 85.6588 53.184C85.3068 53.4507 84.9975 53.9147 84.7308 54.576V59.568H83.4188Z" fill="#141414"/>
<path d="M90.9352 59.76C90.3805 59.76 89.8525 59.6587 89.3512 59.456C88.8499 59.2427 88.4125 58.9867 88.0392 58.688L88.6952 57.808C89.0365 58.0747 89.3885 58.2987 89.7512 58.48C90.1139 58.6507 90.5245 58.736 90.9832 58.736C91.4952 58.736 91.8792 58.6187 92.1352 58.384C92.3912 58.1387 92.5192 57.8507 92.5192 57.52C92.5192 57.2533 92.4285 57.0293 92.2472 56.848C92.0765 56.6667 91.8525 56.5173 91.5752 56.4C91.3085 56.272 91.0312 56.1547 90.7432 56.048C90.3805 55.9093 90.0232 55.7547 89.6712 55.584C89.3192 55.4027 89.0312 55.1733 88.8072 54.896C88.5832 54.608 88.4712 54.2453 88.4712 53.808C88.4712 53.1787 88.7059 52.656 89.1752 52.24C89.6552 51.8133 90.3165 51.6 91.1592 51.6C91.6392 51.6 92.0872 51.6853 92.5032 51.856C92.9192 52.0267 93.2765 52.2347 93.5752 52.48L92.9352 53.312C92.6685 53.1093 92.3912 52.944 92.1032 52.816C91.8152 52.688 91.5005 52.624 91.1592 52.624C90.6685 52.624 90.3059 52.736 90.0712 52.96C89.8472 53.184 89.7352 53.4453 89.7352 53.744C89.7352 53.9893 89.8152 54.192 89.9752 54.352C90.1352 54.5013 90.3432 54.6347 90.5992 54.752C90.8552 54.8587 91.1272 54.9707 91.4152 55.088C91.7885 55.2267 92.1565 55.3867 92.5192 55.568C92.8819 55.7387 93.1805 55.9733 93.4152 56.272C93.6605 56.56 93.7832 56.9493 93.7832 57.44C93.7832 57.856 93.6712 58.24 93.4472 58.592C93.2339 58.944 92.9139 59.2267 92.4872 59.44C92.0712 59.6533 91.5539 59.76 90.9352 59.76Z" fill="#141414"/>
<path d="M97.3983 59.76C96.7477 59.76 96.2037 59.568 95.7663 59.184C95.3397 58.7893 95.1263 58.2453 95.1263 57.552C95.1263 56.6987 95.505 56.048 96.2623 55.6C97.0303 55.1413 98.241 54.8213 99.8943 54.64C99.8943 54.3093 99.8463 53.9947 99.7503 53.696C99.665 53.3973 99.505 53.1573 99.2703 52.976C99.0463 52.784 98.721 52.688 98.2943 52.688C97.8463 52.688 97.425 52.7733 97.0303 52.944C96.6357 53.1147 96.2837 53.3067 95.9743 53.52L95.4623 52.608C95.825 52.3733 96.2677 52.1493 96.7903 51.936C97.3237 51.712 97.8997 51.6 98.5183 51.6C99.4677 51.6 100.156 51.8933 100.582 52.48C101.009 53.056 101.222 53.8293 101.222 54.8V59.568H100.134L100.022 58.64H99.9743C99.6117 58.9387 99.2117 59.2 98.7743 59.424C98.3477 59.648 97.889 59.76 97.3983 59.76ZM97.7823 58.704C98.1557 58.704 98.5077 58.6133 98.8383 58.432C99.169 58.2507 99.521 57.9947 99.8943 57.664V55.504C98.6037 55.664 97.697 55.904 97.1743 56.224C96.6623 56.544 96.4063 56.9547 96.4063 57.456C96.4063 57.8933 96.5397 58.2133 96.8063 58.416C97.073 58.608 97.3983 58.704 97.7823 58.704Z" fill="#141414"/>
<path d="M104.901 59.568L102.741 51.792H104.085L105.237 56.288C105.322 56.6507 105.402 57.0133 105.477 57.376C105.552 57.728 105.626 58.0853 105.701 58.448H105.765C105.85 58.0853 105.936 57.728 106.021 57.376C106.106 57.0133 106.197 56.6507 106.293 56.288L107.493 51.792H108.773L109.989 56.288C110.085 56.6507 110.175 57.0133 110.261 57.376C110.357 57.728 110.448 58.0853 110.533 58.448H110.597C110.682 58.0853 110.762 57.728 110.837 57.376C110.922 57.0133 111.002 56.6507 111.077 56.288L112.213 51.792H113.461L111.381 59.568H109.781L108.661 55.392C108.565 55.0187 108.474 54.6507 108.389 54.288C108.314 53.9253 108.229 53.5467 108.133 53.152H108.069C107.983 53.5467 107.898 53.9307 107.813 54.304C107.728 54.6667 107.632 55.0347 107.525 55.408L106.437 59.568H104.901Z" fill="#141414"/>
<path d="M3.76896 83.76C2.94763 83.76 2.34496 83.504 1.96096 82.992C1.57696 82.4693 1.38496 81.712 1.38496 80.72V75.792H2.71296V80.544C2.71296 81.2693 2.82496 81.7973 3.04896 82.128C3.28363 82.4587 3.65696 82.624 4.16896 82.624C4.57429 82.624 4.93163 82.5227 5.24096 82.32C5.56096 82.1067 5.90229 81.7707 6.26496 81.312V75.792H7.57696V83.568H6.48896L6.37696 82.352H6.32896C5.96629 82.7787 5.58229 83.12 5.17696 83.376C4.77163 83.632 4.30229 83.76 3.76896 83.76Z" fill="#141414"/>
<path d="M11.5921 83.76C11.1014 83.76 10.7441 83.6107 10.5201 83.312C10.3068 83.0027 10.2001 82.5653 10.2001 82V72.176H11.5121V82.096C11.5121 82.2987 11.5494 82.448 11.6241 82.544C11.6988 82.6293 11.7841 82.672 11.8801 82.672C11.9228 82.672 11.9601 82.672 11.9921 82.672C12.0348 82.6613 12.0934 82.6507 12.1681 82.64L12.3441 83.632C12.2588 83.6747 12.1574 83.7067 12.0401 83.728C11.9228 83.7493 11.7734 83.76 11.5921 83.76Z" fill="#141414"/>
<path d="M14.9662 83.76C14.6995 83.76 14.4702 83.6693 14.2782 83.488C14.0969 83.296 14.0062 83.056 14.0062 82.768C14.0062 82.4587 14.0969 82.2133 14.2782 82.032C14.4702 81.84 14.6995 81.744 14.9662 81.744C15.2222 81.744 15.4409 81.84 15.6222 82.032C15.8142 82.2133 15.9102 82.4587 15.9102 82.768C15.9102 83.056 15.8142 83.296 15.6222 83.488C15.4409 83.6693 15.2222 83.76 14.9662 83.76Z" fill="#141414"/>
<path d="M21.5937 83.568V73.072H22.9217V78.336H22.9697L27.3377 73.072H28.8417L25.5617 77.072L29.3537 83.568H27.8657L24.7297 78.112L22.9217 80.24V83.568H21.5937Z" fill="#141414"/>
<path d="M30.7313 83.568V75.792H31.8193L31.9313 77.2H31.9793C32.246 76.7093 32.5713 76.32 32.9553 76.032C33.3393 75.744 33.75 75.6 34.1873 75.6C34.4967 75.6 34.774 75.6533 35.0193 75.76L34.7633 76.912C34.6353 76.8693 34.518 76.8373 34.4113 76.816C34.3047 76.7947 34.1713 76.784 34.0113 76.784C33.6807 76.784 33.334 76.9173 32.9713 77.184C32.6193 77.4507 32.31 77.9147 32.0433 78.576V83.568H30.7313Z" fill="#141414"/>
<path d="M37.6796 83.76C37.0289 83.76 36.4849 83.568 36.0476 83.184C35.6209 82.7893 35.4076 82.2453 35.4076 81.552C35.4076 80.6987 35.7863 80.048 36.5436 79.6C37.3116 79.1413 38.5223 78.8213 40.1756 78.64C40.1756 78.3093 40.1276 77.9947 40.0316 77.696C39.9463 77.3973 39.7863 77.1573 39.5516 76.976C39.3276 76.784 39.0023 76.688 38.5756 76.688C38.1276 76.688 37.7063 76.7733 37.3116 76.944C36.9169 77.1147 36.5649 77.3067 36.2556 77.52L35.7436 76.608C36.1063 76.3733 36.5489 76.1493 37.0716 75.936C37.6049 75.712 38.1809 75.6 38.7996 75.6C39.7489 75.6 40.4369 75.8933 40.8636 76.48C41.2903 77.056 41.5036 77.8293 41.5036 78.8V83.568H40.4156L40.3036 82.64H40.2556C39.8929 82.9387 39.4929 83.2 39.0556 83.424C38.6289 83.648 38.1702 83.76 37.6796 83.76ZM38.0636 82.704C38.4369 82.704 38.7889 82.6133 39.1196 82.432C39.4502 82.2507 39.8022 81.9947 40.1756 81.664V79.504C38.8849 79.664 37.9783 79.904 37.4556 80.224C36.9436 80.544 36.6876 80.9547 36.6876 81.456C36.6876 81.8933 36.8209 82.2133 37.0876 82.416C37.3543 82.608 37.6796 82.704 38.0636 82.704Z" fill="#141414"/>
<path d="M43.9501 83.568V72.176H45.2461V79.888H45.2941L48.6061 75.792H50.0621L47.4541 78.912L50.4141 83.568H48.9741L46.7021 79.824L45.2461 81.52V83.568H43.9501Z" fill="#141414"/>
<path d="M54.6147 83.76C53.9854 83.76 53.3934 83.6 52.8387 83.28C52.2947 82.96 51.852 82.496 51.5107 81.888C51.18 81.28 51.0147 80.5493 51.0147 79.696C51.0147 78.8213 51.18 78.08 51.5107 77.472C51.852 76.864 52.2947 76.4 52.8387 76.08C53.3934 75.76 53.9854 75.6 54.6147 75.6C55.2547 75.6 55.8467 75.76 56.3907 76.08C56.9347 76.4 57.372 76.864 57.7027 77.472C58.044 78.08 58.2147 78.8213 58.2147 79.696C58.2147 80.5493 58.044 81.28 57.7027 81.888C57.372 82.496 56.9347 82.96 56.3907 83.28C55.8467 83.6 55.2547 83.76 54.6147 83.76ZM54.6147 82.672C55.2867 82.672 55.8254 82.4 56.2307 81.856C56.6467 81.3013 56.8547 80.5813 56.8547 79.696C56.8547 78.8 56.6467 78.0747 56.2307 77.52C55.8254 76.9653 55.2867 76.688 54.6147 76.688C53.9534 76.688 53.4147 76.9653 52.9987 77.52C52.5827 78.0747 52.3747 78.8 52.3747 79.696C52.3747 80.5813 52.5827 81.3013 52.9987 81.856C53.4147 82.4 53.9534 82.672 54.6147 82.672Z" fill="#141414"/>
<path d="M61.4321 83.568L59.2721 75.792H60.6161L61.7681 80.288C61.8534 80.6507 61.9334 81.0133 62.0081 81.376C62.0827 81.728 62.1574 82.0853 62.2321 82.448H62.2961C62.3814 82.0853 62.4668 81.728 62.5521 81.376C62.6374 81.0133 62.7281 80.6507 62.8241 80.288L64.0241 75.792H65.3041L66.5201 80.288C66.6161 80.6507 66.7067 81.0133 66.7921 81.376C66.8881 81.728 66.9788 82.0853 67.0641 82.448H67.1281C67.2134 82.0853 67.2934 81.728 67.3681 81.376C67.4534 81.0133 67.5334 80.6507 67.6081 80.288L68.7441 75.792H69.9921L67.9121 83.568H66.3121L65.1921 79.392C65.0961 79.0187 65.0054 78.6507 64.9201 78.288C64.8454 77.9253 64.7601 77.5467 64.6641 77.152H64.6001C64.5147 77.5467 64.4294 77.9307 64.3441 78.304C64.2588 78.6667 64.1628 79.0347 64.0561 79.408L62.9681 83.568H61.4321Z" fill="#141414"/>
<path d="M71.6845 83.568V75.792H72.9965V83.568H71.6845ZM72.3565 74.192C72.1005 74.192 71.8871 74.1173 71.7165 73.968C71.5565 73.808 71.4765 73.5947 71.4765 73.328C71.4765 73.072 71.5565 72.864 71.7165 72.704C71.8871 72.544 72.1005 72.464 72.3565 72.464C72.6125 72.464 72.8205 72.544 72.9805 72.704C73.1511 72.864 73.2365 73.072 73.2365 73.328C73.2365 73.5947 73.1511 73.808 72.9805 73.968C72.8205 74.1173 72.6125 74.192 72.3565 74.192Z" fill="#141414"/>
<path d="M77.414 83.76C76.7633 83.76 76.2193 83.568 75.782 83.184C75.3553 82.7893 75.142 82.2453 75.142 81.552C75.142 80.6987 75.5206 80.048 76.278 79.6C77.046 79.1413 78.2566 78.8213 79.91 78.64C79.91 78.3093 79.862 77.9947 79.766 77.696C79.6806 77.3973 79.5206 77.1573 79.286 76.976C79.062 76.784 78.7366 76.688 78.31 76.688C77.862 76.688 77.4406 76.7733 77.046 76.944C76.6513 77.1147 76.2993 77.3067 75.99 77.52L75.478 76.608C75.8406 76.3733 76.2833 76.1493 76.806 75.936C77.3393 75.712 77.9153 75.6 78.534 75.6C79.4833 75.6 80.1713 75.8933 80.598 76.48C81.0246 77.056 81.238 77.8293 81.238 78.8V83.568H80.15L80.038 82.64H79.99C79.6273 82.9387 79.2273 83.2 78.79 83.424C78.3633 83.648 77.9046 83.76 77.414 83.76ZM77.798 82.704C78.1713 82.704 78.5233 82.6133 78.854 82.432C79.1846 82.2507 79.5366 81.9947 79.91 81.664V79.504C78.6193 79.664 77.7126 79.904 77.19 80.224C76.678 80.544 76.422 80.9547 76.422 81.456C76.422 81.8933 76.5553 82.2133 76.822 82.416C77.0886 82.608 77.414 82.704 77.798 82.704Z" fill="#141414"/>
<path d="M83.6845 83.568V72.176H84.9805V79.888H85.0285L88.3405 75.792H89.7965L87.1885 78.912L90.1485 83.568H88.7085L86.4365 79.824L84.9805 81.52V83.568H83.6845Z" fill="#141414"/>
<path d="M94.3491 83.76C93.7197 83.76 93.1277 83.6 92.5731 83.28C92.0291 82.96 91.5864 82.496 91.2451 81.888C90.9144 81.28 90.7491 80.5493 90.7491 79.696C90.7491 78.8213 90.9144 78.08 91.2451 77.472C91.5864 76.864 92.0291 76.4 92.5731 76.08C93.1277 75.76 93.7197 75.6 94.3491 75.6C94.9891 75.6 95.5811 75.76 96.1251 76.08C96.6691 76.4 97.1064 76.864 97.4371 77.472C97.7784 78.08 97.9491 78.8213 97.9491 79.696C97.9491 80.5493 97.7784 81.28 97.4371 81.888C97.1064 82.496 96.6691 82.96 96.1251 83.28C95.5811 83.6 94.9891 83.76 94.3491 83.76ZM94.3491 82.672C95.0211 82.672 95.5598 82.4 95.9651 81.856C96.3811 81.3013 96.5891 80.5813 96.5891 79.696C96.5891 78.8 96.3811 78.0747 95.9651 77.52C95.5598 76.9653 95.0211 76.688 94.3491 76.688C93.6878 76.688 93.1491 76.9653 92.7331 77.52C92.3171 78.0747 92.1091 78.8 92.1091 79.696C92.1091 80.5813 92.3171 81.3013 92.7331 81.856C93.1491 82.4 93.6878 82.672 94.3491 82.672ZM94.1251 74.4L93.4531 73.744L95.7091 71.072L96.6371 71.952L94.1251 74.4Z" fill="#141414"/>
<path d="M101.166 83.568L99.0065 75.792H100.35L101.502 80.288C101.588 80.6507 101.668 81.0133 101.742 81.376C101.817 81.728 101.892 82.0853 101.966 82.448H102.03C102.116 82.0853 102.201 81.728 102.286 81.376C102.372 81.0133 102.462 80.6507 102.558 80.288L103.758 75.792H105.038L106.254 80.288C106.35 80.6507 106.441 81.0133 106.526 81.376C106.622 81.728 106.713 82.0853 106.798 82.448H106.862C106.948 82.0853 107.028 81.728 107.102 81.376C107.188 81.0133 107.268 80.6507 107.342 80.288L108.478 75.792H109.726L107.646 83.568H106.046L104.926 79.392C104.83 79.0187 104.74 78.6507 104.654 78.288C104.58 77.9253 104.494 77.5467 104.398 77.152H104.334C104.249 77.5467 104.164 77.9307 104.078 78.304C103.993 78.6667 103.897 79.0347 103.79 79.408L102.702 83.568H101.166Z" fill="#141414"/>
<path d="M114.974 79.696H118.174V76.736C118.174 76.4587 118.185 76.128 118.206 75.744C118.227 75.36 118.243 75.0347 118.254 74.768H118.19C118.062 75.0133 117.929 75.2533 117.79 75.488C117.651 75.7227 117.507 75.9627 117.358 76.208L114.974 79.696ZM118.174 83.568V80.752H113.582V79.888L117.95 73.36H119.422V79.696H120.814V80.752H119.422V83.568H118.174Z" fill="#141414"/>
<path d="M125.263 83.76C124.623 83.76 124.052 83.6427 123.551 83.408C123.05 83.1627 122.65 82.8267 122.351 82.4C122.063 81.9733 121.919 81.4933 121.919 80.96C121.919 80.512 122.01 80.1173 122.191 79.776C122.383 79.424 122.623 79.12 122.911 78.864C123.21 78.5973 123.519 78.3787 123.839 78.208V78.144C123.466 77.8773 123.135 77.552 122.847 77.168C122.559 76.784 122.415 76.3253 122.415 75.792C122.415 75.2693 122.543 74.8107 122.799 74.416C123.055 74.0213 123.402 73.7173 123.839 73.504C124.276 73.28 124.767 73.168 125.311 73.168C126.196 73.168 126.895 73.424 127.407 73.936C127.93 74.448 128.191 75.0987 128.191 75.888C128.191 76.24 128.116 76.576 127.967 76.896C127.818 77.2053 127.636 77.488 127.423 77.744C127.21 77.9893 126.996 78.192 126.783 78.352V78.416C127.092 78.5867 127.38 78.7893 127.647 79.024C127.914 79.2587 128.132 79.5413 128.303 79.872C128.474 80.192 128.559 80.5813 128.559 81.04C128.559 81.5413 128.42 82 128.143 82.416C127.876 82.832 127.492 83.1627 126.991 83.408C126.5 83.6427 125.924 83.76 125.263 83.76ZM125.983 78C126.324 77.6907 126.586 77.3653 126.767 77.024C126.959 76.6827 127.055 76.3253 127.055 75.952C127.055 75.4507 126.9 75.024 126.591 74.672C126.282 74.32 125.844 74.144 125.279 74.144C124.81 74.144 124.415 74.2933 124.095 74.592C123.786 74.8907 123.631 75.2907 123.631 75.792C123.631 76.1973 123.738 76.5333 123.951 76.8C124.175 77.0667 124.468 77.296 124.831 77.488C125.194 77.6693 125.578 77.84 125.983 78ZM125.295 82.784C125.892 82.784 126.372 82.6187 126.735 82.288C127.108 81.9467 127.295 81.5147 127.295 80.992C127.295 80.5547 127.167 80.1973 126.911 79.92C126.655 79.6427 126.314 79.4027 125.887 79.2C125.471 78.9973 125.018 78.8 124.527 78.608C124.122 78.8747 123.78 79.1947 123.503 79.568C123.236 79.9413 123.103 80.3627 123.103 80.832C123.103 81.3973 123.311 81.8667 123.727 82.24C124.154 82.6027 124.676 82.784 125.295 82.784Z" fill="#141414"/>
<path d="M130.288 86.288L129.968 85.52C130.427 85.3173 130.784 85.0453 131.04 84.704C131.296 84.3733 131.419 83.9947 131.408 83.568C131.387 83.5787 131.36 83.584 131.328 83.584C131.296 83.584 131.27 83.584 131.248 83.584C130.992 83.584 130.768 83.5093 130.576 83.36C130.395 83.2 130.304 82.9707 130.304 82.672C130.304 82.384 130.4 82.16 130.592 82C130.784 81.8293 131.014 81.744 131.28 81.744C131.622 81.744 131.888 81.8827 132.08 82.16C132.283 82.4373 132.384 82.816 132.384 83.296C132.384 83.9787 132.198 84.576 131.824 85.088C131.451 85.6107 130.939 86.0107 130.288 86.288Z" fill="#141414"/>
<path d="M4.16896 107.76C3.14496 107.76 2.33963 107.301 1.75296 106.384C1.17696 105.456 0.888961 104.139 0.888961 102.432C0.888961 100.715 1.17696 99.408 1.75296 98.512C2.33963 97.616 3.14496 97.168 4.16896 97.168C5.18229 97.168 5.97696 97.616 6.55296 98.512C7.13963 99.408 7.43296 100.715 7.43296 102.432C7.43296 104.139 7.13963 105.456 6.55296 106.384C5.97696 107.301 5.18229 107.76 4.16896 107.76ZM4.16896 106.704C4.76629 106.704 5.24629 106.368 5.60896 105.696C5.97163 105.013 6.15296 103.925 6.15296 102.432C6.15296 100.939 5.97163 99.8667 5.60896 99.216C5.24629 98.5547 4.76629 98.224 4.16896 98.224C3.57163 98.224 3.08629 98.5547 2.71296 99.216C2.35029 99.8667 2.16896 100.939 2.16896 102.432C2.16896 103.925 2.35029 105.013 2.71296 105.696C3.08629 106.368 3.57163 106.704 4.16896 106.704Z" fill="#141414"/>
<path d="M8.77809 107.568V106.784C9.80209 105.76 10.6714 104.864 11.3861 104.096C12.1008 103.317 12.6448 102.619 13.0181 102C13.3914 101.371 13.5781 100.784 13.5781 100.24C13.5781 99.6533 13.4181 99.1733 13.0981 98.8C12.7781 98.4267 12.2928 98.24 11.6421 98.24C11.2154 98.24 10.8208 98.3627 10.4581 98.608C10.0954 98.8427 9.76475 99.1307 9.46609 99.472L8.71409 98.72C9.14075 98.2507 9.59409 97.8773 10.0741 97.6C10.5648 97.312 11.1408 97.168 11.8021 97.168C12.7514 97.168 13.4981 97.4453 14.0421 98C14.5861 98.544 14.8581 99.2693 14.8581 100.176C14.8581 100.816 14.6768 101.467 14.3141 102.128C13.9621 102.779 13.4714 103.467 12.8421 104.192C12.2234 104.907 11.5088 105.685 10.6981 106.528C10.9754 106.507 11.2634 106.485 11.5621 106.464C11.8608 106.443 12.1434 106.432 12.4101 106.432H15.3701V107.568H8.77809Z" fill="#141414"/>
<path d="M16.7472 104.064V103.056H20.4272V104.064H16.7472Z" fill="#141414"/>
<path d="M21.7 107.568V106.784C22.724 105.76 23.5933 104.864 24.308 104.096C25.0226 103.317 25.5666 102.619 25.94 102C26.3133 101.371 26.5 100.784 26.5 100.24C26.5 99.6533 26.34 99.1733 26.02 98.8C25.7 98.4267 25.2146 98.24 24.564 98.24C24.1373 98.24 23.7426 98.3627 23.38 98.608C23.0173 98.8427 22.6866 99.1307 22.388 99.472L21.636 98.72C22.0626 98.2507 22.516 97.8773 22.996 97.6C23.4866 97.312 24.0626 97.168 24.724 97.168C25.6733 97.168 26.42 97.4453 26.964 98C27.508 98.544 27.78 99.2693 27.78 100.176C27.78 100.816 27.5986 101.467 27.236 102.128C26.884 102.779 26.3933 103.467 25.764 104.192C25.1453 104.907 24.4306 105.685 23.62 106.528C23.8973 106.507 24.1853 106.485 24.484 106.464C24.7826 106.443 25.0653 106.432 25.332 106.432H28.292V107.568H21.7Z" fill="#141414"/>
<path d="M32.7571 107.76C31.9464 107.76 31.2744 107.616 30.7411 107.328C30.2078 107.04 29.7651 106.72 29.4131 106.368L30.0531 105.504C30.3624 105.803 30.7198 106.075 31.1251 106.32C31.5304 106.555 32.0318 106.672 32.6291 106.672C33.2584 106.672 33.7864 106.464 34.2131 106.048C34.6504 105.621 34.8691 105.051 34.8691 104.336C34.8691 103.632 34.6718 103.083 34.2771 102.688C33.8824 102.293 33.3544 102.096 32.6931 102.096C32.3411 102.096 32.0371 102.149 31.7811 102.256C31.5358 102.363 31.2584 102.517 30.9491 102.72L30.2451 102.272L30.5811 97.36H35.6851V98.496H31.7331L31.4611 101.52C31.7064 101.392 31.9518 101.291 32.1971 101.216C32.4424 101.141 32.7197 101.104 33.0291 101.104C33.6157 101.104 34.1437 101.221 34.6131 101.456C35.0931 101.68 35.4771 102.027 35.7651 102.496C36.0531 102.965 36.1971 103.568 36.1971 104.304C36.1971 105.04 36.0317 105.669 35.7011 106.192C35.3811 106.704 34.9598 107.093 34.4371 107.36C33.9144 107.627 33.3544 107.76 32.7571 107.76Z" fill="#141414"/>
<path d="M40.7102 107.76C39.8995 107.76 39.2275 107.616 38.6942 107.328C38.1609 107.04 37.7182 106.72 37.3662 106.368L38.0062 105.504C38.3155 105.803 38.6729 106.075 39.0782 106.32C39.4835 106.555 39.9849 106.672 40.5822 106.672C41.2115 106.672 41.7395 106.464 42.1662 106.048C42.6035 105.621 42.8222 105.051 42.8222 104.336C42.8222 103.632 42.6249 103.083 42.2302 102.688C41.8355 102.293 41.3075 102.096 40.6462 102.096C40.2942 102.096 39.9902 102.149 39.7342 102.256C39.4889 102.363 39.2115 102.517 38.9022 102.72L38.1982 102.272L38.5342 97.36H43.6382V98.496H39.6862L39.4142 101.52C39.6595 101.392 39.9049 101.291 40.1502 101.216C40.3955 101.141 40.6729 101.104 40.9822 101.104C41.5689 101.104 42.0969 101.221 42.5662 101.456C43.0462 101.68 43.4302 102.027 43.7182 102.496C44.0062 102.965 44.1502 103.568 44.1502 104.304C44.1502 105.04 43.9849 105.669 43.6542 106.192C43.3342 106.704 42.9129 107.093 42.3902 107.36C41.8675 107.627 41.3075 107.76 40.7102 107.76Z" fill="#141414"/>
<path d="M50.7145 107.568L48.4905 97.072H49.8665L50.9705 102.784C51.0665 103.349 51.1678 103.915 51.2745 104.48C51.3811 105.045 51.4825 105.611 51.5785 106.176H51.6425C51.7598 105.611 51.8825 105.045 52.0105 104.48C52.1385 103.904 52.2611 103.339 52.3785 102.784L53.8345 97.072H55.0505L56.5065 102.784C56.6345 103.339 56.7625 103.904 56.8905 104.48C57.0185 105.045 57.1465 105.611 57.2745 106.176H57.3385C57.4345 105.611 57.5305 105.045 57.6265 104.48C57.7225 103.904 57.8238 103.339 57.9305 102.784L59.0345 97.072H60.3145L58.1385 107.568H56.5385L54.9545 101.248C54.8585 100.843 54.7678 100.448 54.6825 100.064C54.6078 99.6693 54.5278 99.2693 54.4425 98.864H54.3785C54.3038 99.2693 54.2185 99.6693 54.1225 100.064C54.0265 100.448 53.9358 100.843 53.8505 101.248L52.2985 107.568H50.7145Z" fill="#141414"/>
<path d="M63.5546 107.76C62.9039 107.76 62.3599 107.568 61.9226 107.184C61.4959 106.789 61.2826 106.245 61.2826 105.552C61.2826 104.699 61.6613 104.048 62.4186 103.6C63.1866 103.141 64.3973 102.821 66.0506 102.64C66.0506 102.309 66.0026 101.995 65.9066 101.696C65.8213 101.397 65.6612 101.157 65.4266 100.976C65.2026 100.784 64.8773 100.688 64.4506 100.688C64.0026 100.688 63.5813 100.773 63.1866 100.944C62.7919 101.115 62.4399 101.307 62.1306 101.52L61.6186 100.608C61.9813 100.373 62.4239 100.149 62.9466 99.936C63.4799 99.712 64.0559 99.6 64.6746 99.6C65.6239 99.6 66.3119 99.8933 66.7386 100.48C67.1653 101.056 67.3786 101.829 67.3786 102.8V107.568H66.2906L66.1786 106.64H66.1306C65.7679 106.939 65.3679 107.2 64.9306 107.424C64.5039 107.648 64.0452 107.76 63.5546 107.76ZM63.9386 106.704C64.3119 106.704 64.6639 106.613 64.9946 106.432C65.3252 106.251 65.6772 105.995 66.0506 105.664V103.504C64.7599 103.664 63.8533 103.904 63.3306 104.224C62.8186 104.544 62.5626 104.955 62.5626 105.456C62.5626 105.893 62.6959 106.213 62.9626 106.416C63.2293 106.608 63.5546 106.704 63.9386 106.704Z" fill="#141414"/>
<path d="M69.8251 107.568V99.792H70.9131L71.0251 101.2H71.0731C71.3398 100.709 71.6651 100.32 72.0491 100.032C72.4331 99.744 72.8438 99.6 73.2811 99.6C73.5904 99.6 73.8678 99.6533 74.1131 99.76L73.8571 100.912C73.7291 100.869 73.6117 100.837 73.5051 100.816C73.3984 100.795 73.2651 100.784 73.1051 100.784C72.7744 100.784 72.4277 100.917 72.0651 101.184C71.7131 101.451 71.4038 101.915 71.1371 102.576V107.568H69.8251Z" fill="#141414"/>
<path d="M77.3415 107.76C76.7868 107.76 76.2588 107.659 75.7575 107.456C75.2561 107.243 74.8188 106.987 74.4455 106.688L75.1015 105.808C75.4428 106.075 75.7948 106.299 76.1575 106.48C76.5201 106.651 76.9308 106.736 77.3895 106.736C77.9015 106.736 78.2855 106.619 78.5415 106.384C78.7975 106.139 78.9255 105.851 78.9255 105.52C78.9255 105.253 78.8348 105.029 78.6535 104.848C78.4828 104.667 78.2588 104.517 77.9815 104.4C77.7148 104.272 77.4375 104.155 77.1495 104.048C76.7868 103.909 76.4295 103.755 76.0775 103.584C75.7255 103.403 75.4375 103.173 75.2135 102.896C74.9895 102.608 74.8775 102.245 74.8775 101.808C74.8775 101.179 75.1121 100.656 75.5815 100.24C76.0615 99.8133 76.7228 99.6 77.5655 99.6C78.0455 99.6 78.4935 99.6853 78.9095 99.856C79.3255 100.027 79.6828 100.235 79.9815 100.48L79.3415 101.312C79.0748 101.109 78.7975 100.944 78.5095 100.816C78.2215 100.688 77.9068 100.624 77.5655 100.624C77.0748 100.624 76.7121 100.736 76.4775 100.96C76.2535 101.184 76.1415 101.445 76.1415 101.744C76.1415 101.989 76.2215 102.192 76.3815 102.352C76.5415 102.501 76.7495 102.635 77.0055 102.752C77.2615 102.859 77.5335 102.971 77.8215 103.088C78.1948 103.227 78.5628 103.387 78.9255 103.568C79.2881 103.739 79.5868 103.973 79.8215 104.272C80.0668 104.56 80.1895 104.949 80.1895 105.44C80.1895 105.856 80.0775 106.24 79.8535 106.592C79.6401 106.944 79.3201 107.227 78.8935 107.44C78.4775 107.653 77.9601 107.76 77.3415 107.76Z" fill="#141414"/>
<path d="M81.1966 107.568V106.864L85.2926 100.864H81.6446V99.792H86.9566V100.496L82.8606 106.496H87.0846V107.568H81.1966Z" fill="#141414"/>
<path d="M90.2265 107.76C89.5758 107.76 89.0318 107.568 88.5945 107.184C88.1678 106.789 87.9545 106.245 87.9545 105.552C87.9545 104.699 88.3331 104.048 89.0905 103.6C89.8585 103.141 91.0691 102.821 92.7225 102.64C92.7225 102.309 92.6745 101.995 92.5785 101.696C92.4931 101.397 92.3331 101.157 92.0985 100.976C91.8745 100.784 91.5491 100.688 91.1225 100.688C90.6745 100.688 90.2531 100.773 89.8585 100.944C89.4638 101.115 89.1118 101.307 88.8025 101.52L88.2905 100.608C88.6531 100.373 89.0958 100.149 89.6185 99.936C90.1518 99.712 90.7278 99.6 91.3465 99.6C92.2958 99.6 92.9838 99.8933 93.4105 100.48C93.8371 101.056 94.0505 101.829 94.0505 102.8V107.568H92.9625L92.8505 106.64H92.8025C92.4398 106.939 92.0398 107.2 91.6025 107.424C91.1758 107.648 90.7171 107.76 90.2265 107.76ZM90.6105 106.704C90.9838 106.704 91.3358 106.613 91.6665 106.432C91.9971 106.251 92.3491 105.995 92.7225 105.664V103.504C91.4318 103.664 90.5251 103.904 90.0025 104.224C89.4905 104.544 89.2345 104.955 89.2345 105.456C89.2345 105.893 89.3678 106.213 89.6345 106.416C89.9011 106.608 90.2265 106.704 90.6105 106.704Z" fill="#141414"/>
<path d="M97.729 107.568L95.569 99.792H96.913L98.065 104.288C98.1503 104.651 98.2303 105.013 98.305 105.376C98.3796 105.728 98.4543 106.085 98.529 106.448H98.593C98.6783 106.085 98.7636 105.728 98.849 105.376C98.9343 105.013 99.025 104.651 99.121 104.288L100.321 99.792H101.601L102.817 104.288C102.913 104.651 103.004 105.013 103.089 105.376C103.185 105.728 103.276 106.085 103.361 106.448H103.425C103.51 106.085 103.59 105.728 103.665 105.376C103.75 105.013 103.83 104.651 103.905 104.288L105.041 99.792H106.289L104.209 107.568H102.609L101.489 103.392C101.393 103.019 101.302 102.651 101.217 102.288C101.142 101.925 101.057 101.547 100.961 101.152H100.897C100.812 101.547 100.726 101.931 100.641 102.304C100.556 102.667 100.46 103.035 100.353 103.408L99.265 107.568H97.729Z" fill="#141414"/>
<path d="M109.617 107.76C108.966 107.76 108.422 107.568 107.985 107.184C107.558 106.789 107.345 106.245 107.345 105.552C107.345 104.699 107.724 104.048 108.481 103.6C109.249 103.141 110.46 102.821 112.113 102.64C112.113 102.309 112.065 101.995 111.969 101.696C111.884 101.397 111.724 101.157 111.489 100.976C111.265 100.784 110.94 100.688 110.513 100.688C110.065 100.688 109.644 100.773 109.249 100.944C108.854 101.115 108.502 101.307 108.193 101.52L107.681 100.608C108.044 100.373 108.486 100.149 109.009 99.936C109.542 99.712 110.118 99.6 110.737 99.6C111.686 99.6 112.374 99.8933 112.801 100.48C113.228 101.056 113.441 101.829 113.441 102.8V107.568H112.353L112.241 106.64H112.193C111.83 106.939 111.43 107.2 110.993 107.424C110.566 107.648 110.108 107.76 109.617 107.76ZM110.001 106.704C110.374 106.704 110.726 106.613 111.057 106.432C111.388 106.251 111.74 105.995 112.113 105.664V103.504C110.822 103.664 109.916 103.904 109.393 104.224C108.881 104.544 108.625 104.955 108.625 105.456C108.625 105.893 108.758 106.213 109.025 106.416C109.292 106.608 109.617 106.704 110.001 106.704Z" fill="#141414"/>
<path d="M1.62496 131.568V121.072H3.00096L6.79296 127.664L7.92896 129.84H7.99296C7.96096 129.307 7.92363 128.757 7.88096 128.192C7.84896 127.616 7.83296 127.051 7.83296 126.496V121.072H9.09696V131.568H7.72096L3.91296 124.96L2.77696 122.8H2.71296C2.75563 123.323 2.79296 123.861 2.82496 124.416C2.86763 124.971 2.88896 125.525 2.88896 126.08V131.568H1.62496Z" fill="#141414"/>
<path d="M11.9843 131.568V121.072H13.3123V131.568H11.9843Z" fill="#141414"/>
<path d="M16.1875 131.568V121.072H19.1795C19.9688 121.072 20.6568 121.168 21.2435 121.36C21.8301 121.552 22.2888 121.877 22.6195 122.336C22.9501 122.784 23.1155 123.392 23.1155 124.16C23.1155 125.259 22.7581 126.075 22.0435 126.608C21.3288 127.141 20.3955 127.408 19.2435 127.408H17.5155V131.568H16.1875ZM17.5155 126.32H19.0835C20.0008 126.32 20.6781 126.149 21.1155 125.808C21.5635 125.456 21.7875 124.907 21.7875 124.16C21.7875 123.403 21.5528 122.88 21.0835 122.592C20.6248 122.293 19.9368 122.144 19.0195 122.144H17.5155V126.32Z" fill="#141414"/>
<path d="M25.81 125.984C25.5433 125.984 25.314 125.893 25.122 125.712C24.9406 125.52 24.85 125.28 24.85 124.992C24.85 124.683 24.9406 124.437 25.122 124.256C25.314 124.064 25.5433 123.968 25.81 123.968C26.066 123.968 26.2846 124.064 26.466 124.256C26.658 124.437 26.754 124.683 26.754 124.992C26.754 125.28 26.658 125.52 26.466 125.712C26.2846 125.893 26.066 125.984 25.81 125.984ZM25.81 131.76C25.5433 131.76 25.314 131.669 25.122 131.488C24.9406 131.296 24.85 131.056 24.85 130.768C24.85 130.459 24.9406 130.213 25.122 130.032C25.314 129.84 25.5433 129.744 25.81 129.744C26.066 129.744 26.2846 129.84 26.466 130.032C26.658 130.213 26.754 130.459 26.754 130.768C26.754 131.056 26.658 131.296 26.466 131.488C26.2846 131.669 26.066 131.76 25.81 131.76Z" fill="#141414"/>
<path d="M34.7415 131.76C33.9308 131.76 33.2588 131.616 32.7255 131.328C32.1921 131.04 31.7495 130.72 31.3975 130.368L32.0375 129.504C32.3468 129.803 32.7041 130.075 33.1095 130.32C33.5148 130.555 34.0161 130.672 34.6135 130.672C35.2428 130.672 35.7708 130.464 36.1975 130.048C36.6348 129.621 36.8535 129.051 36.8535 128.336C36.8535 127.632 36.6561 127.083 36.2615 126.688C35.8668 126.293 35.3388 126.096 34.6775 126.096C34.3255 126.096 34.0215 126.149 33.7655 126.256C33.5201 126.363 33.2428 126.517 32.9335 126.72L32.2295 126.272L32.5655 121.36H37.6695V122.496H33.7175L33.4455 125.52C33.6908 125.392 33.9361 125.291 34.1815 125.216C34.4268 125.141 34.7041 125.104 35.0135 125.104C35.6001 125.104 36.1281 125.221 36.5975 125.456C37.0775 125.68 37.4615 126.027 37.7495 126.496C38.0375 126.965 38.1815 127.568 38.1815 128.304C38.1815 129.04 38.0161 129.669 37.6855 130.192C37.3655 130.704 36.9441 131.093 36.4215 131.36C35.8988 131.627 35.3388 131.76 34.7415 131.76Z" fill="#141414"/>
<path d="M39.5906 131.568V130.784C40.6146 129.76 41.4839 128.864 42.1986 128.096C42.9133 127.317 43.4573 126.619 43.8306 126C44.2039 125.371 44.3906 124.784 44.3906 124.24C44.3906 123.653 44.2306 123.173 43.9106 122.8C43.5906 122.427 43.1053 122.24 42.4546 122.24C42.0279 122.24 41.6333 122.363 41.2706 122.608C40.9079 122.843 40.5773 123.131 40.2786 123.472L39.5266 122.72C39.9533 122.251 40.4066 121.877 40.8866 121.6C41.3773 121.312 41.9533 121.168 42.6146 121.168C43.5639 121.168 44.3106 121.445 44.8546 122C45.3986 122.544 45.6706 123.269 45.6706 124.176C45.6706 124.816 45.4893 125.467 45.1266 126.128C44.7746 126.779 44.2839 127.467 43.6546 128.192C43.0359 128.907 42.3213 129.685 41.5106 130.528C41.7879 130.507 42.0759 130.485 42.3746 130.464C42.6733 130.443 42.9559 130.432 43.2226 130.432H46.1826V131.568H39.5906Z" fill="#141414"/>
<path d="M47.5437 131.568V130.784C48.5677 129.76 49.437 128.864 50.1517 128.096C50.8664 127.317 51.4104 126.619 51.7837 126C52.157 125.371 52.3437 124.784 52.3437 124.24C52.3437 123.653 52.1837 123.173 51.8637 122.8C51.5437 122.427 51.0584 122.24 50.4077 122.24C49.981 122.24 49.5864 122.363 49.2237 122.608C48.861 122.843 48.5304 123.131 48.2317 123.472L47.4797 122.72C47.9064 122.251 48.3597 121.877 48.8397 121.6C49.3304 121.312 49.9064 121.168 50.5677 121.168C51.517 121.168 52.2637 121.445 52.8077 122C53.3517 122.544 53.6237 123.269 53.6237 124.176C53.6237 124.816 53.4424 125.467 53.0797 126.128C52.7277 126.779 52.237 127.467 51.6077 128.192C50.989 128.907 50.2744 129.685 49.4637 130.528C49.741 130.507 50.029 130.485 50.3277 130.464C50.6264 130.443 50.909 130.432 51.1757 130.432H54.1357V131.568H47.5437Z" fill="#141414"/>
<path d="M55.5128 128.064V127.056H59.1928V128.064H55.5128Z" fill="#141414"/>
<path d="M60.4656 131.568V130.784C61.4896 129.76 62.3589 128.864 63.0736 128.096C63.7883 127.317 64.3322 126.619 64.7056 126C65.0789 125.371 65.2656 124.784 65.2656 124.24C65.2656 123.653 65.1056 123.173 64.7856 122.8C64.4656 122.427 63.9803 122.24 63.3296 122.24C62.9029 122.24 62.5083 122.363 62.1456 122.608C61.7829 122.843 61.4523 123.131 61.1536 123.472L60.4016 122.72C60.8283 122.251 61.2816 121.877 61.7616 121.6C62.2523 121.312 62.8283 121.168 63.4896 121.168C64.4389 121.168 65.1856 121.445 65.7296 122C66.2736 122.544 66.5456 123.269 66.5456 124.176C66.5456 124.816 66.3643 125.467 66.0016 126.128C65.6496 126.779 65.1589 127.467 64.5296 128.192C63.9109 128.907 63.1963 129.685 62.3856 130.528C62.6629 130.507 62.9509 130.485 63.2496 130.464C63.5483 130.443 63.8309 130.432 64.0976 130.432H67.0576V131.568H60.4656Z" fill="#141414"/>
<path d="M69.6507 124.448C69.6507 125.109 69.8054 125.637 70.1147 126.032C70.4347 126.416 70.9094 126.608 71.5387 126.608C71.88 126.608 72.2374 126.501 72.6107 126.288C72.9947 126.075 73.352 125.728 73.6827 125.248C73.5974 124.256 73.3627 123.504 72.9787 122.992C72.5947 122.469 72.0774 122.208 71.4267 122.208C70.936 122.208 70.5147 122.416 70.1627 122.832C69.8214 123.237 69.6507 123.776 69.6507 124.448ZM71.0587 131.76C70.5147 131.76 70.0347 131.659 69.6187 131.456C69.2134 131.243 68.872 130.987 68.5947 130.688L69.3307 129.856C69.544 130.101 69.7947 130.299 70.0827 130.448C70.3814 130.597 70.6907 130.672 71.0107 130.672C71.4907 130.672 71.9334 130.533 72.3387 130.256C72.744 129.979 73.0694 129.52 73.3147 128.88C73.5707 128.24 73.704 127.376 73.7147 126.288C73.3947 126.693 73.0214 127.013 72.5947 127.248C72.168 127.483 71.7414 127.6 71.3147 127.6C70.44 127.6 69.736 127.339 69.2027 126.816C68.68 126.283 68.4187 125.493 68.4187 124.448C68.4187 123.797 68.5574 123.227 68.8347 122.736C69.112 122.245 69.4747 121.861 69.9227 121.584C70.3814 121.307 70.8827 121.168 71.4267 121.168C72.0987 121.168 72.7014 121.349 73.2347 121.712C73.768 122.075 74.184 122.619 74.4827 123.344C74.792 124.069 74.9467 124.981 74.9467 126.08C74.9467 127.445 74.76 128.544 74.3867 129.376C74.024 130.208 73.5494 130.816 72.9627 131.2C72.376 131.573 71.7414 131.76 71.0587 131.76Z" fill="#141414"/>
<path d="M76.9958 131.568V130.48H79.3318V122.96H77.4758V122.112C77.9452 122.027 78.3505 121.925 78.6918 121.808C79.0438 121.68 79.3585 121.531 79.6358 121.36H80.6438V130.48H82.7558V131.568H76.9958Z" fill="#141414"/>
<path d="M84.341 128.064V127.056H88.021V128.064H84.341Z" fill="#141414"/>
<path d="M91.4857 131.568C91.5497 130.288 91.683 129.141 91.8857 128.128C92.099 127.104 92.4084 126.144 92.8137 125.248C93.2297 124.341 93.7737 123.424 94.4457 122.496H89.3577V121.36H95.9337V122.176C95.3257 122.944 94.8297 123.685 94.4457 124.4C94.0617 125.104 93.763 125.819 93.5497 126.544C93.3364 127.259 93.1764 128.027 93.0697 128.848C92.963 129.669 92.8884 130.576 92.8457 131.568H91.4857Z" fill="#141414"/>
<path d="M97.2468 131.568V130.784C98.2708 129.76 99.1402 128.864 99.8548 128.096C100.57 127.317 101.113 126.619 101.487 126C101.86 125.371 102.047 124.784 102.047 124.24C102.047 123.653 101.887 123.173 101.567 122.8C101.247 122.427 100.761 122.24 100.111 122.24C99.6842 122.24 99.2895 122.363 98.9268 122.608C98.5642 122.843 98.2335 123.131 97.9348 123.472L97.1828 122.72C97.6095 122.251 98.0628 121.877 98.5428 121.6C99.0335 121.312 99.6095 121.168 100.271 121.168C101.22 121.168 101.967 121.445 102.511 122C103.055 122.544 103.327 123.269 103.327 124.176C103.327 124.816 103.146 125.467 102.783 126.128C102.431 126.779 101.94 127.467 101.311 128.192C100.692 128.907 99.9775 129.685 99.1668 130.528C99.4442 130.507 99.7322 130.485 100.031 130.464C100.33 130.443 100.612 130.432 100.879 130.432H103.839V131.568H97.2468Z" fill="#141414"/>
<path d="M105.216 128.064V127.056H108.896V128.064H105.216Z" fill="#141414"/>
<path d="M110.793 131.568V130.48H113.129V122.96H111.273V122.112C111.742 122.027 112.147 121.925 112.489 121.808C112.841 121.68 113.155 121.531 113.433 121.36H114.441V130.48H116.553V131.568H110.793Z" fill="#141414"/>
<path d="M121.466 131.76C120.442 131.76 119.637 131.301 119.05 130.384C118.474 129.456 118.186 128.139 118.186 126.432C118.186 124.715 118.474 123.408 119.05 122.512C119.637 121.616 120.442 121.168 121.466 121.168C122.479 121.168 123.274 121.616 123.85 122.512C124.437 123.408 124.73 124.715 124.73 126.432C124.73 128.139 124.437 129.456 123.85 130.384C123.274 131.301 122.479 131.76 121.466 131.76ZM121.466 130.704C122.063 130.704 122.543 130.368 122.906 129.696C123.269 129.013 123.45 127.925 123.45 126.432C123.45 124.939 123.269 123.867 122.906 123.216C122.543 122.555 122.063 122.224 121.466 122.224C120.868 122.224 120.383 122.555 120.01 123.216C119.647 123.867 119.466 124.939 119.466 126.432C119.466 127.925 119.647 129.013 120.01 129.696C120.383 130.368 120.868 130.704 121.466 130.704Z" fill="#141414"/>
<path d="M1.62496 155.568V145.072H4.90496C5.61963 145.072 6.25429 145.168 6.80896 145.36C7.36363 145.541 7.79563 145.851 8.10496 146.288C8.42496 146.715 8.58496 147.291 8.58496 148.016C8.58496 148.827 8.37163 149.483 7.94496 149.984C7.51829 150.475 6.94229 150.811 6.21696 150.992L8.88896 155.568H7.38496L4.85696 151.136H2.95296V155.568H1.62496ZM2.95296 150.048H4.71296C5.53429 150.048 6.16363 149.883 6.60096 149.552C7.03829 149.211 7.25696 148.699 7.25696 148.016C7.25696 147.323 7.03829 146.837 6.60096 146.56C6.16363 146.283 5.53429 146.144 4.71296 146.144H2.95296V150.048Z" fill="#141414"/>
<path d="M10.7343 155.568V145.072H16.7823V146.192H12.0623V149.488H16.0463V150.624H12.0623V154.432H16.9423V155.568H10.7343Z" fill="#141414"/>
<path d="M23.2998 155.76C22.3825 155.76 21.5665 155.547 20.8518 155.12C20.1372 154.683 19.5772 154.059 19.1718 153.248C18.7665 152.437 18.5638 151.461 18.5638 150.32C18.5638 149.189 18.7718 148.219 19.1878 147.408C19.6038 146.597 20.1745 145.973 20.8998 145.536C21.6252 145.099 22.4518 144.88 23.3798 144.88C24.1052 144.88 24.7132 145.019 25.2038 145.296C25.7052 145.563 26.1052 145.856 26.4038 146.176L25.6678 147.04C25.4012 146.763 25.0918 146.528 24.7398 146.336C24.3878 146.144 23.9452 146.048 23.4118 146.048C22.7078 146.048 22.0945 146.224 21.5718 146.576C21.0492 146.917 20.6438 147.403 20.3558 148.032C20.0785 148.661 19.9398 149.413 19.9398 150.288C19.9398 151.611 20.2385 152.661 20.8358 153.44C21.4438 154.208 22.3078 154.592 23.4278 154.592C23.8012 154.592 24.1585 154.539 24.4998 154.432C24.8412 154.315 25.1132 154.16 25.3158 153.968V151.232H23.0918V150.128H26.5318V154.544C26.2012 154.896 25.7532 155.189 25.1878 155.424C24.6332 155.648 24.0038 155.76 23.2998 155.76Z" fill="#141414"/>
<path d="M32.9188 155.76C32.0442 155.76 31.2655 155.536 30.5828 155.088C29.9108 154.64 29.3828 154.005 28.9988 153.184C28.6255 152.363 28.4388 151.392 28.4388 150.272C28.4388 149.152 28.6255 148.192 28.9988 147.392C29.3828 146.581 29.9108 145.963 30.5828 145.536C31.2655 145.099 32.0442 144.88 32.9188 144.88C33.8042 144.88 34.5828 145.099 35.2548 145.536C35.9268 145.963 36.4548 146.581 36.8388 147.392C37.2228 148.192 37.4148 149.152 37.4148 150.272C37.4148 151.392 37.2228 152.363 36.8388 153.184C36.4548 154.005 35.9268 154.64 35.2548 155.088C34.5828 155.536 33.8042 155.76 32.9188 155.76ZM32.9188 154.592C33.5482 154.592 34.0922 154.416 34.5508 154.064C35.0202 153.701 35.3828 153.2 35.6388 152.56C35.8948 151.909 36.0228 151.147 36.0228 150.272C36.0228 148.971 35.7402 147.941 35.1748 147.184C34.6095 146.427 33.8575 146.048 32.9188 146.048C31.9802 146.048 31.2282 146.427 30.6628 147.184C30.0975 147.941 29.8148 148.971 29.8148 150.272C29.8148 151.147 29.9428 151.909 30.1988 152.56C30.4548 153.2 30.8175 153.701 31.2868 154.064C31.7562 154.416 32.3002 154.592 32.9188 154.592Z" fill="#141414"/>
<path d="M39.6718 155.568V145.072H41.0478L44.8398 151.664L45.9758 153.84H46.0398C46.0078 153.307 45.9705 152.757 45.9278 152.192C45.8958 151.616 45.8798 151.051 45.8798 150.496V145.072H47.1438V155.568H45.7678L41.9598 148.96L40.8238 146.8H40.7598C40.8025 147.323 40.8398 147.861 40.8718 148.416C40.9145 148.971 40.9358 149.525 40.9358 150.08V155.568H39.6718Z" fill="#141414"/>
<path d="M50.5912 149.984C50.3245 149.984 50.0952 149.893 49.9032 149.712C49.7219 149.52 49.6312 149.28 49.6312 148.992C49.6312 148.683 49.7219 148.437 49.9032 148.256C50.0952 148.064 50.3245 147.968 50.5912 147.968C50.8472 147.968 51.0659 148.064 51.2472 148.256C51.4392 148.437 51.5352 148.683 51.5352 148.992C51.5352 149.28 51.4392 149.52 51.2472 149.712C51.0659 149.893 50.8472 149.984 50.5912 149.984ZM50.5912 155.76C50.3245 155.76 50.0952 155.669 49.9032 155.488C49.7219 155.296 49.6312 155.056 49.6312 154.768C49.6312 154.459 49.7219 154.213 49.9032 154.032C50.0952 153.84 50.3245 153.744 50.5912 153.744C50.8472 153.744 51.0659 153.84 51.2472 154.032C51.4392 154.213 51.5352 154.459 51.5352 154.768C51.5352 155.056 51.4392 155.296 51.2472 155.488C51.0659 155.669 50.8472 155.76 50.5912 155.76Z" fill="#141414"/>
<path d="M57.0427 155.568V154.48H59.3787V146.96H57.5227V146.112C57.992 146.027 58.3974 145.925 58.7387 145.808C59.0907 145.68 59.4054 145.531 59.6827 145.36H60.6907V154.48H62.8027V155.568H57.0427Z" fill="#141414"/>
<path d="M65.3958 151.696H68.5958V148.736C68.5958 148.459 68.6065 148.128 68.6278 147.744C68.6492 147.36 68.6652 147.035 68.6758 146.768H68.6118C68.4838 147.013 68.3505 147.253 68.2118 147.488C68.0732 147.723 67.9292 147.963 67.7798 148.208L65.3958 151.696ZM68.5958 155.568V152.752H64.0038V151.888L68.3718 145.36H69.8438V151.696H71.2358V152.752H69.8438V155.568H68.5958Z" fill="#141414"/>
<path d="M72.949 155.568V154.48H75.285V146.96H73.429V146.112C73.8983 146.027 74.3036 145.925 74.645 145.808C74.997 145.68 75.3116 145.531 75.589 145.36H76.597V154.48H78.709V155.568H72.949Z" fill="#141414"/>
<path d="M83.6381 155.76C82.9981 155.76 82.4274 155.643 81.9261 155.408C81.4248 155.163 81.0247 154.827 80.7261 154.4C80.4381 153.973 80.2941 153.493 80.2941 152.96C80.2941 152.512 80.3848 152.117 80.5661 151.776C80.7581 151.424 80.9981 151.12 81.2861 150.864C81.5848 150.597 81.8941 150.379 82.2141 150.208V150.144C81.8408 149.877 81.5101 149.552 81.2221 149.168C80.9341 148.784 80.7901 148.325 80.7901 147.792C80.7901 147.269 80.9181 146.811 81.1741 146.416C81.4301 146.021 81.7768 145.717 82.2141 145.504C82.6514 145.28 83.1421 145.168 83.6861 145.168C84.5714 145.168 85.2701 145.424 85.7821 145.936C86.3047 146.448 86.5661 147.099 86.5661 147.888C86.5661 148.24 86.4914 148.576 86.3421 148.896C86.1928 149.205 86.0114 149.488 85.7981 149.744C85.5848 149.989 85.3714 150.192 85.1581 150.352V150.416C85.4674 150.587 85.7554 150.789 86.0221 151.024C86.2888 151.259 86.5074 151.541 86.6781 151.872C86.8488 152.192 86.9341 152.581 86.9341 153.04C86.9341 153.541 86.7954 154 86.5181 154.416C86.2514 154.832 85.8674 155.163 85.3661 155.408C84.8754 155.643 84.2994 155.76 83.6381 155.76ZM84.3581 150C84.6994 149.691 84.9607 149.365 85.1421 149.024C85.3341 148.683 85.4301 148.325 85.4301 147.952C85.4301 147.451 85.2754 147.024 84.9661 146.672C84.6568 146.32 84.2194 146.144 83.6541 146.144C83.1848 146.144 82.7901 146.293 82.4701 146.592C82.1608 146.891 82.0061 147.291 82.0061 147.792C82.0061 148.197 82.1128 148.533 82.3261 148.8C82.5501 149.067 82.8434 149.296 83.2061 149.488C83.5687 149.669 83.9528 149.84 84.3581 150ZM83.6701 154.784C84.2674 154.784 84.7474 154.619 85.1101 154.288C85.4834 153.947 85.6701 153.515 85.6701 152.992C85.6701 152.555 85.5421 152.197 85.2861 151.92C85.0301 151.643 84.6888 151.403 84.2621 151.2C83.8461 150.997 83.3928 150.8 82.9021 150.608C82.4967 150.875 82.1554 151.195 81.8781 151.568C81.6114 151.941 81.4781 152.363 81.4781 152.832C81.4781 153.397 81.6861 153.867 82.1021 154.24C82.5287 154.603 83.0514 154.784 83.6701 154.784Z" fill="#141414"/>
<path d="M88.8552 155.568V154.48H91.1912V146.96H89.3352V146.112C89.8045 146.027 90.2099 145.925 90.5512 145.808C90.9032 145.68 91.2179 145.531 91.4952 145.36H92.5032V154.48H94.6152V155.568H88.8552Z" fill="#141414"/>
<path d="M98.3763 155.568C98.4403 154.288 98.5737 153.141 98.7763 152.128C98.9897 151.104 99.299 150.144 99.7043 149.248C100.12 148.341 100.664 147.424 101.336 146.496H96.2483V145.36H102.824V146.176C102.216 146.944 101.72 147.685 101.336 148.4C100.952 149.104 100.654 149.819 100.44 150.544C100.227 151.259 100.067 152.027 99.9603 152.848C99.8537 153.669 99.779 154.576 99.7363 155.568H98.3763Z" fill="#141414"/>
<path d="M107.497 155.76C106.857 155.76 106.287 155.643 105.785 155.408C105.284 155.163 104.884 154.827 104.585 154.4C104.297 153.973 104.153 153.493 104.153 152.96C104.153 152.512 104.244 152.117 104.425 151.776C104.617 151.424 104.857 151.12 105.145 150.864C105.444 150.597 105.753 150.379 106.073 150.208V150.144C105.7 149.877 105.369 149.552 105.081 149.168C104.793 148.784 104.649 148.325 104.649 147.792C104.649 147.269 104.777 146.811 105.033 146.416C105.289 146.021 105.636 145.717 106.073 145.504C106.511 145.28 107.001 145.168 107.545 145.168C108.431 145.168 109.129 145.424 109.641 145.936C110.164 146.448 110.425 147.099 110.425 147.888C110.425 148.24 110.351 148.576 110.201 148.896C110.052 149.205 109.871 149.488 109.657 149.744C109.444 149.989 109.231 150.192 109.017 150.352V150.416C109.327 150.587 109.615 150.789 109.881 151.024C110.148 151.259 110.367 151.541 110.537 151.872C110.708 152.192 110.793 152.581 110.793 153.04C110.793 153.541 110.655 154 110.377 154.416C110.111 154.832 109.727 155.163 109.225 155.408C108.735 155.643 108.159 155.76 107.497 155.76ZM108.217 150C108.559 149.691 108.82 149.365 109.001 149.024C109.193 148.683 109.289 148.325 109.289 147.952C109.289 147.451 109.135 147.024 108.825 146.672C108.516 146.32 108.079 146.144 107.513 146.144C107.044 146.144 106.649 146.293 106.329 146.592C106.02 146.891 105.865 147.291 105.865 147.792C105.865 148.197 105.972 148.533 106.185 148.8C106.409 149.067 106.703 149.296 107.065 149.488C107.428 149.669 107.812 149.84 108.217 150ZM107.529 154.784C108.127 154.784 108.607 154.619 108.969 154.288C109.343 153.947 109.529 153.515 109.529 152.992C109.529 152.555 109.401 152.197 109.145 151.92C108.889 151.643 108.548 151.403 108.121 151.2C107.705 150.997 107.252 150.8 106.761 150.608C106.356 150.875 106.015 151.195 105.737 151.568C105.471 151.941 105.337 152.363 105.337 152.832C105.337 153.397 105.545 153.867 105.961 154.24C106.388 154.603 106.911 154.784 107.529 154.784Z" fill="#141414"/>
<path d="M115.451 155.76C114.811 155.76 114.24 155.643 113.739 155.408C113.237 155.163 112.837 154.827 112.539 154.4C112.251 153.973 112.107 153.493 112.107 152.96C112.107 152.512 112.197 152.117 112.379 151.776C112.571 151.424 112.811 151.12 113.099 150.864C113.397 150.597 113.707 150.379 114.027 150.208V150.144C113.653 149.877 113.323 149.552 113.035 149.168C112.747 148.784 112.603 148.325 112.603 147.792C112.603 147.269 112.731 146.811 112.987 146.416C113.243 146.021 113.589 145.717 114.027 145.504C114.464 145.28 114.955 145.168 115.499 145.168C116.384 145.168 117.083 145.424 117.595 145.936C118.117 146.448 118.379 147.099 118.379 147.888C118.379 148.24 118.304 148.576 118.155 148.896C118.005 149.205 117.824 149.488 117.611 149.744C117.397 149.989 117.184 150.192 116.971 150.352V150.416C117.28 150.587 117.568 150.789 117.835 151.024C118.101 151.259 118.32 151.541 118.491 151.872C118.661 152.192 118.747 152.581 118.747 153.04C118.747 153.541 118.608 154 118.331 154.416C118.064 154.832 117.68 155.163 117.179 155.408C116.688 155.643 116.112 155.76 115.451 155.76ZM116.171 150C116.512 149.691 116.773 149.365 116.955 149.024C117.147 148.683 117.243 148.325 117.243 147.952C117.243 147.451 117.088 147.024 116.779 146.672C116.469 146.32 116.032 146.144 115.467 146.144C114.997 146.144 114.603 146.293 114.283 146.592C113.973 146.891 113.819 147.291 113.819 147.792C113.819 148.197 113.925 148.533 114.139 148.8C114.363 149.067 114.656 149.296 115.019 149.488C115.381 149.669 115.765 149.84 116.171 150ZM115.483 154.784C116.08 154.784 116.56 154.619 116.923 154.288C117.296 153.947 117.483 153.515 117.483 152.992C117.483 152.555 117.355 152.197 117.099 151.92C116.843 151.643 116.501 151.403 116.075 151.2C115.659 150.997 115.205 150.8 114.715 150.608C114.309 150.875 113.968 151.195 113.691 151.568C113.424 151.941 113.291 152.363 113.291 152.832C113.291 153.397 113.499 153.867 113.915 154.24C114.341 154.603 114.864 154.784 115.483 154.784Z" fill="#141414"/>
<path d="M121.068 151.696H124.268V148.736C124.268 148.459 124.278 148.128 124.3 147.744C124.321 147.36 124.337 147.035 124.348 146.768H124.284C124.156 147.013 124.022 147.253 123.884 147.488C123.745 147.723 123.601 147.963 123.452 148.208L121.068 151.696ZM124.268 155.568V152.752H119.676V151.888L124.044 145.36H125.516V151.696H126.908V152.752H125.516V155.568H124.268Z" fill="#141414"/>
</svg>
