<svg width="227" height="156" viewBox="0 0 227 156" fill="none" xmlns="http://www.w3.org/2000/svg">
<path d="M0.832 11.568V1.136H4.4C5.12533 1.136 5.776 1.216 6.352 1.376C6.928 1.52533 7.38667 1.78667 7.728 2.16C8.06933 2.53333 8.24 3.056 8.24 3.728C8.24 4.18667 8.11733 4.64 7.872 5.088C7.63733 5.52533 7.30667 5.824 6.88 5.984V6.048C7.41333 6.18667 7.856 6.45867 8.208 6.864C8.57067 7.25867 8.752 7.80267 8.752 8.496C8.752 9.21067 8.57067 9.792 8.208 10.24C7.84533 10.688 7.36 11.024 6.752 11.248C6.144 11.4613 5.46133 11.568 4.704 11.568H0.832ZM3.184 5.312H4.288C4.864 5.312 5.28 5.2 5.536 4.976C5.80267 4.752 5.936 4.45333 5.936 4.08C5.936 3.67467 5.80267 3.38667 5.536 3.216C5.26933 3.04533 4.85867 2.96 4.304 2.96H3.184V5.312ZM3.184 9.744H4.512C5.80267 9.744 6.448 9.27467 6.448 8.336C6.448 7.87733 6.288 7.552 5.968 7.36C5.648 7.15733 5.16267 7.056 4.512 7.056H3.184V9.744Z" fill="#141414"/>
<path d="M10.3275 11.568V3.632H12.2475L12.4075 5.024H12.4715C12.7595 4.49067 13.1062 4.096 13.5115 3.84C13.9168 3.57333 14.3222 3.44 14.7275 3.44C14.9515 3.44 15.1382 3.456 15.2875 3.488C15.4368 3.50933 15.5648 3.54667 15.6715 3.6L15.2875 5.632C15.1488 5.58933 15.0102 5.55733 14.8715 5.536C14.7435 5.51467 14.5942 5.504 14.4235 5.504C14.1248 5.504 13.8102 5.616 13.4795 5.84C13.1595 6.05333 12.8928 6.42667 12.6795 6.96V11.568H10.3275Z" fill="#141414"/>
<path d="M16.7025 11.568V3.632H19.0545V11.568H16.7025ZM17.8705 2.464C17.4758 2.464 17.1558 2.352 16.9105 2.128C16.6652 1.904 16.5425 1.60533 16.5425 1.232C16.5425 0.858667 16.6652 0.56 16.9105 0.336C17.1558 0.112 17.4758 0 17.8705 0C18.2652 0 18.5852 0.112 18.8305 0.336C19.0758 0.56 19.1985 0.858667 19.1985 1.232C19.1985 1.60533 19.0758 1.904 18.8305 2.128C18.5852 2.352 18.2652 2.464 17.8705 2.464Z" fill="#141414"/>
<path d="M24.1804 11.76C23.199 11.76 22.495 11.4773 22.0684 10.912C21.6524 10.3467 21.4444 9.60533 21.4444 8.688V5.472H20.3564V3.728L21.5724 3.632L21.8444 1.52H23.7964V3.632H25.7004V5.472H23.7964V8.656C23.7964 9.104 23.887 9.42933 24.0684 9.632C24.2604 9.824 24.511 9.92 24.8204 9.92C24.9484 9.92 25.0764 9.904 25.2044 9.872C25.343 9.84 25.4657 9.80267 25.5724 9.76L25.9404 11.472C25.7377 11.536 25.487 11.6 25.1884 11.664C24.9004 11.728 24.5644 11.76 24.1804 11.76Z" fill="#141414"/>
<path d="M27.2494 11.568V3.632H29.6014V11.568H27.2494ZM28.4174 2.464C28.0227 2.464 27.7027 2.352 27.4574 2.128C27.212 1.904 27.0894 1.60533 27.0894 1.232C27.0894 0.858667 27.212 0.56 27.4574 0.336C27.7027 0.112 28.0227 0 28.4174 0C28.812 0 29.132 0.112 29.3774 0.336C29.6227 0.56 29.7454 0.858667 29.7454 1.232C29.7454 1.60533 29.6227 1.904 29.3774 2.128C29.132 2.352 28.812 2.464 28.4174 2.464Z" fill="#141414"/>
<path d="M34.0072 11.76C33.4846 11.76 32.9459 11.6587 32.3912 11.456C31.8472 11.2533 31.3726 10.9867 30.9673 10.656L32.0232 9.184C32.3859 9.45067 32.7326 9.65867 33.0632 9.808C33.4046 9.94667 33.7406 10.016 34.0712 10.016C34.4232 10.016 34.6792 9.95733 34.8392 9.84C34.9992 9.712 35.0793 9.54667 35.0793 9.344C35.0793 9.16267 34.9992 9.01333 34.8392 8.896C34.6899 8.77867 34.4926 8.672 34.2472 8.576C34.0019 8.46933 33.7406 8.36267 33.4632 8.256C33.1432 8.128 32.8232 7.968 32.5033 7.776C32.1939 7.584 31.9326 7.33867 31.7193 7.04C31.5059 6.73067 31.3993 6.35733 31.3993 5.92C31.3993 5.184 31.6766 4.58667 32.2312 4.128C32.7966 3.66933 33.5326 3.44 34.4392 3.44C35.0472 3.44 35.5806 3.54667 36.0392 3.76C36.5086 3.96267 36.9086 4.192 37.2393 4.448L36.1833 5.856C35.9059 5.64267 35.6286 5.47733 35.3512 5.36C35.0739 5.24267 34.7966 5.184 34.5192 5.184C33.9112 5.184 33.6073 5.392 33.6073 5.808C33.6073 6.064 33.7566 6.26133 34.0552 6.4C34.3646 6.528 34.7219 6.66667 35.1273 6.816C35.4686 6.93333 35.7992 7.088 36.1192 7.28C36.4499 7.46133 36.7219 7.70667 36.9352 8.016C37.1592 8.31467 37.2712 8.70933 37.2712 9.2C37.2712 9.91467 36.9939 10.5227 36.4392 11.024C35.8846 11.5147 35.0739 11.76 34.0072 11.76Z" fill="#141414"/>
<path d="M38.765 11.568V0.352H41.117V3.104L41.005 4.528C41.3037 4.26133 41.6503 4.016 42.045 3.792C42.4503 3.55733 42.9197 3.44 43.453 3.44C44.317 3.44 44.941 3.728 45.325 4.304C45.7197 4.86933 45.917 5.648 45.917 6.64V11.568H43.565V6.944C43.565 6.368 43.485 5.97333 43.325 5.76C43.1757 5.54667 42.9303 5.44 42.589 5.44C42.2903 5.44 42.0343 5.50933 41.821 5.648C41.6077 5.776 41.373 5.96267 41.117 6.208V11.568H38.765Z" fill="#141414"/>
<path d="M53.7487 6.288L53.4927 7.248H55.7167L55.4767 6.288C55.3381 5.76533 55.1941 5.21067 55.0448 4.624C54.9061 4.03733 54.7674 3.472 54.6287 2.928H54.5648C54.4368 3.48267 54.3034 4.05333 54.1647 4.64C54.0368 5.216 53.8981 5.76533 53.7487 6.288ZM49.9727 11.568L53.2367 1.136H56.0687L59.3327 11.568H56.8368L56.1967 9.088H53.0127L52.3727 11.568H49.9727Z" fill="#141414"/>
<path d="M60.2806 11.568V3.632H62.2006L62.3606 4.656H62.4246C62.7553 4.32533 63.1073 4.04267 63.4806 3.808C63.854 3.56267 64.302 3.44 64.8246 3.44C65.39 3.44 65.8433 3.55733 66.1846 3.792C66.5366 4.016 66.814 4.34133 67.0166 4.768C67.3686 4.40533 67.742 4.096 68.1366 3.84C68.5313 3.57333 68.99 3.44 69.5126 3.44C70.366 3.44 70.99 3.728 71.3846 4.304C71.79 4.86933 71.9926 5.648 71.9926 6.64V11.568H69.6406V6.944C69.6406 6.368 69.5606 5.97333 69.4006 5.76C69.2513 5.54667 69.006 5.44 68.6646 5.44C68.27 5.44 67.8166 5.696 67.3046 6.208V11.568H64.9526V6.944C64.9526 6.368 64.8726 5.97333 64.7126 5.76C64.5633 5.54667 64.318 5.44 63.9766 5.44C63.582 5.44 63.134 5.696 62.6326 6.208V11.568H60.2806Z" fill="#141414"/>
<path d="M77.5514 11.76C76.794 11.76 76.1114 11.5947 75.5034 11.264C74.8954 10.9333 74.4154 10.4587 74.0634 9.84C73.7114 9.22133 73.5354 8.47467 73.5354 7.6C73.5354 6.736 73.7114 5.99467 74.0634 5.376C74.426 4.75733 74.8954 4.28267 75.4714 3.952C76.0474 3.61067 76.65 3.44 77.2794 3.44C78.0367 3.44 78.6607 3.61067 79.1514 3.952C79.6527 4.28267 80.026 4.736 80.2714 5.312C80.5274 5.87733 80.6554 6.52267 80.6554 7.248C80.6554 7.45067 80.6447 7.65333 80.6234 7.856C80.602 8.048 80.5807 8.192 80.5594 8.288H75.8074C75.914 8.864 76.154 9.29067 76.5274 9.568C76.9007 9.83467 77.3487 9.968 77.8714 9.968C78.4367 9.968 79.0074 9.792 79.5834 9.44L80.3674 10.864C79.962 11.1413 79.5087 11.36 79.0074 11.52C78.506 11.68 78.0207 11.76 77.5514 11.76ZM75.7914 6.736H78.6554C78.6554 6.29867 78.5487 5.94133 78.3354 5.664C78.1327 5.376 77.7967 5.232 77.3274 5.232C76.9647 5.232 76.6394 5.36 76.3514 5.616C76.0634 5.86133 75.8767 6.23467 75.7914 6.736Z" fill="#141414"/>
<path d="M82.2806 11.568V3.632H84.2006L84.3606 5.024H84.4246C84.7126 4.49067 85.0593 4.096 85.4646 3.84C85.87 3.57333 86.2753 3.44 86.6806 3.44C86.9046 3.44 87.0913 3.456 87.2406 3.488C87.39 3.50933 87.518 3.54667 87.6246 3.6L87.2406 5.632C87.102 5.58933 86.9633 5.55733 86.8246 5.536C86.6966 5.51467 86.5473 5.504 86.3766 5.504C86.078 5.504 85.7633 5.616 85.4326 5.84C85.1126 6.05333 84.846 6.42667 84.6326 6.96V11.568H82.2806Z" fill="#141414"/>
<path d="M88.6556 11.568V3.632H91.0076V11.568H88.6556ZM89.8236 2.464C89.429 2.464 89.109 2.352 88.8636 2.128C88.6183 1.904 88.4956 1.60533 88.4956 1.232C88.4956 0.858667 88.6183 0.56 88.8636 0.336C89.109 0.112 89.429 0 89.8236 0C90.2183 0 90.5383 0.112 90.7836 0.336C91.029 0.56 91.1516 0.858667 91.1516 1.232C91.1516 1.60533 91.029 1.904 90.7836 2.128C90.5383 2.352 90.2183 2.464 89.8236 2.464Z" fill="#141414"/>
<path d="M96.5335 11.76C95.7975 11.76 95.1308 11.6 94.5335 11.28C93.9468 10.9493 93.4775 10.4747 93.1255 9.856C92.7842 9.22667 92.6135 8.47467 92.6135 7.6C92.6135 6.71467 92.8055 5.96267 93.1895 5.344C93.5735 4.72533 94.0802 4.256 94.7095 3.936C95.3388 3.60533 96.0162 3.44 96.7415 3.44C97.2322 3.44 97.6642 3.52 98.0375 3.68C98.4215 3.84 98.7628 4.04267 99.0615 4.288L97.9575 5.808C97.5842 5.49867 97.2268 5.344 96.8855 5.344C96.3202 5.344 95.8668 5.54667 95.5255 5.952C95.1948 6.35733 95.0295 6.90667 95.0295 7.6C95.0295 8.28267 95.1948 8.832 95.5255 9.248C95.8668 9.65333 96.2935 9.856 96.8055 9.856C97.0615 9.856 97.3122 9.80267 97.5575 9.696C97.8028 9.57867 98.0268 9.44 98.2295 9.28L99.1575 10.816C98.7628 11.1573 98.3362 11.4027 97.8775 11.552C97.4188 11.6907 96.9708 11.76 96.5335 11.76Z" fill="#141414"/>
<path d="M102.39 11.76C101.665 11.76 101.089 11.5307 100.662 11.072C100.235 10.6027 100.022 10.032 100.022 9.36C100.022 8.528 100.374 7.87733 101.078 7.408C101.782 6.93867 102.918 6.624 104.486 6.464C104.465 6.112 104.358 5.83467 104.166 5.632C103.985 5.41867 103.675 5.312 103.238 5.312C102.907 5.312 102.571 5.376 102.23 5.504C101.889 5.632 101.526 5.808 101.142 6.032L100.294 4.48C100.795 4.17067 101.329 3.92 101.894 3.728C102.47 3.536 103.067 3.44 103.686 3.44C104.699 3.44 105.478 3.73333 106.022 4.32C106.566 4.90667 106.838 5.808 106.838 7.024V11.568H104.918L104.758 10.752H104.694C104.363 11.0507 104.006 11.296 103.622 11.488C103.249 11.6693 102.838 11.76 102.39 11.76ZM103.19 9.936C103.457 9.936 103.686 9.87733 103.878 9.76C104.081 9.632 104.283 9.46667 104.486 9.264V7.872C103.654 7.97867 103.078 8.14933 102.758 8.384C102.438 8.608 102.278 8.87467 102.278 9.184C102.278 9.44 102.358 9.632 102.518 9.76C102.689 9.87733 102.913 9.936 103.19 9.936Z" fill="#141414"/>
<path d="M108.827 11.568V3.632H110.747L110.908 4.64H110.971C111.313 4.32 111.686 4.04267 112.091 3.808C112.507 3.56267 112.982 3.44 113.515 3.44C114.379 3.44 115.003 3.728 115.387 4.304C115.782 4.86933 115.979 5.648 115.979 6.64V11.568H113.627V6.944C113.627 6.368 113.548 5.97333 113.387 5.76C113.238 5.54667 112.993 5.44 112.651 5.44C112.353 5.44 112.097 5.50933 111.883 5.648C111.67 5.776 111.435 5.96267 111.179 6.208V11.568H108.827Z" fill="#141414"/>
<path d="M123.411 11.568V3.12H120.547V1.136H128.643V3.12H125.779V11.568H123.411Z" fill="#141414"/>
<path d="M132.267 11.76C131.595 11.76 130.96 11.6 130.363 11.28C129.776 10.9493 129.301 10.4747 128.939 9.856C128.576 9.22667 128.395 8.47467 128.395 7.6C128.395 6.71467 128.576 5.96267 128.939 5.344C129.301 4.72533 129.776 4.256 130.363 3.936C130.96 3.60533 131.595 3.44 132.267 3.44C132.939 3.44 133.568 3.60533 134.155 3.936C134.741 4.256 135.216 4.72533 135.579 5.344C135.941 5.96267 136.123 6.71467 136.123 7.6C136.123 8.47467 135.941 9.22667 135.579 9.856C135.216 10.4747 134.741 10.9493 134.155 11.28C133.568 11.6 132.939 11.76 132.267 11.76ZM132.267 9.856C132.747 9.856 133.109 9.65333 133.355 9.248C133.6 8.832 133.723 8.28267 133.723 7.6C133.723 6.90667 133.6 6.35733 133.355 5.952C133.109 5.54667 132.747 5.344 132.267 5.344C131.776 5.344 131.408 5.54667 131.163 5.952C130.928 6.35733 130.811 6.90667 130.811 7.6C130.811 8.28267 130.928 8.832 131.163 9.248C131.408 9.65333 131.776 9.856 132.267 9.856Z" fill="#141414"/>
<path d="M141.894 11.76C141.542 11.76 141.184 11.6747 140.822 11.504C140.47 11.3227 140.139 11.0613 139.83 10.72H139.766L139.574 11.568H137.734V0.352H140.086V3.104L140.022 4.32C140.331 4.04267 140.667 3.82933 141.03 3.68C141.392 3.52 141.755 3.44 142.118 3.44C142.758 3.44 143.312 3.60533 143.782 3.936C144.251 4.26667 144.608 4.736 144.854 5.344C145.11 5.94133 145.238 6.64533 145.238 7.456C145.238 8.36267 145.078 9.14133 144.758 9.792C144.438 10.432 144.022 10.9227 143.51 11.264C143.008 11.5947 142.47 11.76 141.894 11.76ZM141.35 9.84C141.755 9.84 142.102 9.65333 142.39 9.28C142.678 8.90667 142.822 8.31467 142.822 7.504C142.822 6.07467 142.363 5.36 141.446 5.36C140.976 5.36 140.523 5.6 140.086 6.08V9.328C140.299 9.52 140.512 9.65333 140.726 9.728C140.939 9.80267 141.147 9.84 141.35 9.84Z" fill="#141414"/>
<path d="M148.734 11.76C148.008 11.76 147.432 11.5307 147.006 11.072C146.579 10.6027 146.366 10.032 146.366 9.36C146.366 8.528 146.718 7.87733 147.422 7.408C148.126 6.93867 149.262 6.624 150.83 6.464C150.808 6.112 150.702 5.83467 150.51 5.632C150.328 5.41867 150.019 5.312 149.582 5.312C149.251 5.312 148.915 5.376 148.574 5.504C148.232 5.632 147.87 5.808 147.486 6.032L146.638 4.48C147.139 4.17067 147.672 3.92 148.238 3.728C148.814 3.536 149.411 3.44 150.03 3.44C151.043 3.44 151.822 3.73333 152.366 4.32C152.91 4.90667 153.182 5.808 153.182 7.024V11.568H151.262L151.102 10.752H151.038C150.707 11.0507 150.35 11.296 149.966 11.488C149.592 11.6693 149.182 11.76 148.734 11.76ZM149.534 9.936C149.8 9.936 150.03 9.87733 150.222 9.76C150.424 9.632 150.627 9.46667 150.83 9.264V7.872C149.998 7.97867 149.422 8.14933 149.102 8.384C148.782 8.608 148.622 8.87467 148.622 9.184C148.622 9.44 148.702 9.632 148.862 9.76C149.032 9.87733 149.256 9.936 149.534 9.936Z" fill="#141414"/>
<path d="M158.627 11.76C157.891 11.76 157.225 11.6 156.627 11.28C156.041 10.9493 155.571 10.4747 155.219 9.856C154.878 9.22667 154.707 8.47467 154.707 7.6C154.707 6.71467 154.899 5.96267 155.283 5.344C155.667 4.72533 156.174 4.256 156.803 3.936C157.433 3.60533 158.11 3.44 158.835 3.44C159.326 3.44 159.758 3.52 160.131 3.68C160.515 3.84 160.857 4.04267 161.155 4.288L160.051 5.808C159.678 5.49867 159.321 5.344 158.979 5.344C158.414 5.344 157.961 5.54667 157.619 5.952C157.289 6.35733 157.123 6.90667 157.123 7.6C157.123 8.28267 157.289 8.832 157.619 9.248C157.961 9.65333 158.387 9.856 158.899 9.856C159.155 9.856 159.406 9.80267 159.651 9.696C159.897 9.57867 160.121 9.44 160.323 9.28L161.251 10.816C160.857 11.1573 160.43 11.4027 159.971 11.552C159.513 11.6907 159.065 11.76 158.627 11.76Z" fill="#141414"/>
<path d="M165.643 11.76C164.907 11.76 164.24 11.6 163.643 11.28C163.056 10.9493 162.587 10.4747 162.235 9.856C161.894 9.22667 161.723 8.47467 161.723 7.6C161.723 6.71467 161.915 5.96267 162.299 5.344C162.683 4.72533 163.19 4.256 163.819 3.936C164.448 3.60533 165.126 3.44 165.851 3.44C166.342 3.44 166.774 3.52 167.147 3.68C167.531 3.84 167.872 4.04267 168.171 4.288L167.067 5.808C166.694 5.49867 166.336 5.344 165.995 5.344C165.43 5.344 164.976 5.54667 164.635 5.952C164.304 6.35733 164.139 6.90667 164.139 7.6C164.139 8.28267 164.304 8.832 164.635 9.248C164.976 9.65333 165.403 9.856 165.915 9.856C166.171 9.856 166.422 9.80267 166.667 9.696C166.912 9.57867 167.136 9.44 167.339 9.28L168.267 10.816C167.872 11.1573 167.446 11.4027 166.987 11.552C166.528 11.6907 166.08 11.76 165.643 11.76Z" fill="#141414"/>
<path d="M172.611 11.76C171.939 11.76 171.304 11.6 170.707 11.28C170.12 10.9493 169.645 10.4747 169.283 9.856C168.92 9.22667 168.739 8.47467 168.739 7.6C168.739 6.71467 168.92 5.96267 169.283 5.344C169.645 4.72533 170.12 4.256 170.707 3.936C171.304 3.60533 171.939 3.44 172.611 3.44C173.283 3.44 173.912 3.60533 174.499 3.936C175.085 4.256 175.56 4.72533 175.923 5.344C176.285 5.96267 176.467 6.71467 176.467 7.6C176.467 8.47467 176.285 9.22667 175.923 9.856C175.56 10.4747 175.085 10.9493 174.499 11.28C173.912 11.6 173.283 11.76 172.611 11.76ZM172.611 9.856C173.09 9.856 173.453 9.65333 173.699 9.248C173.944 8.832 174.067 8.28267 174.067 7.6C174.067 6.90667 173.944 6.35733 173.699 5.952C173.453 5.54667 173.09 5.344 172.611 5.344C172.12 5.344 171.752 5.54667 171.507 5.952C171.272 6.35733 171.155 6.90667 171.155 7.6C171.155 8.28267 171.272 8.832 171.507 9.248C171.752 9.65333 172.12 9.856 172.611 9.856Z" fill="#141414"/>
<path d="M181.473 11.568V1.136H185.057C185.825 1.136 186.518 1.24267 187.137 1.456C187.766 1.65867 188.267 2.00533 188.641 2.496C189.014 2.98667 189.201 3.65333 189.201 4.496C189.201 5.30667 189.014 5.97333 188.641 6.496C188.267 7.01867 187.771 7.408 187.153 7.664C186.534 7.90933 185.857 8.032 185.121 8.032H183.825V11.568H181.473ZM183.825 6.16H184.977C186.257 6.16 186.897 5.60533 186.897 4.496C186.897 3.952 186.726 3.568 186.385 3.344C186.043 3.12 185.553 3.008 184.913 3.008H183.825V6.16Z" fill="#141414"/>
<path d="M193.876 11.76C193.204 11.76 192.569 11.6 191.972 11.28C191.385 10.9493 190.911 10.4747 190.548 9.856C190.185 9.22667 190.004 8.47467 190.004 7.6C190.004 6.71467 190.185 5.96267 190.548 5.344C190.911 4.72533 191.385 4.256 191.972 3.936C192.569 3.60533 193.204 3.44 193.876 3.44C194.548 3.44 195.177 3.60533 195.764 3.936C196.351 4.256 196.825 4.72533 197.188 5.344C197.551 5.96267 197.732 6.71467 197.732 7.6C197.732 8.47467 197.551 9.22667 197.188 9.856C196.825 10.4747 196.351 10.9493 195.764 11.28C195.177 11.6 194.548 11.76 193.876 11.76ZM193.876 9.856C194.356 9.856 194.719 9.65333 194.964 9.248C195.209 8.832 195.332 8.28267 195.332 7.6C195.332 6.90667 195.209 6.35733 194.964 5.952C194.719 5.54667 194.356 5.344 193.876 5.344C193.385 5.344 193.017 5.54667 192.772 5.952C192.537 6.35733 192.42 6.90667 192.42 7.6C192.42 8.28267 192.537 8.832 192.772 9.248C193.017 9.65333 193.385 9.856 193.876 9.856Z" fill="#141414"/>
<path d="M201.503 11.76C200.692 11.76 200.127 11.52 199.807 11.04C199.498 10.5493 199.343 9.904 199.343 9.104V0.352H201.695V9.2C201.695 9.44533 201.738 9.616 201.823 9.712C201.919 9.808 202.015 9.856 202.111 9.856C202.164 9.856 202.207 9.856 202.239 9.856C202.282 9.84533 202.335 9.83467 202.399 9.824L202.687 11.568C202.559 11.6213 202.394 11.664 202.191 11.696C201.999 11.7387 201.77 11.76 201.503 11.76Z" fill="#141414"/>
<path d="M206.257 11.76C205.735 11.76 205.196 11.6587 204.641 11.456C204.097 11.2533 203.623 10.9867 203.217 10.656L204.273 9.184C204.636 9.45067 204.983 9.65867 205.313 9.808C205.655 9.94667 205.991 10.016 206.321 10.016C206.673 10.016 206.929 9.95733 207.089 9.84C207.249 9.712 207.329 9.54667 207.329 9.344C207.329 9.16267 207.249 9.01333 207.089 8.896C206.94 8.77867 206.743 8.672 206.497 8.576C206.252 8.46933 205.991 8.36267 205.713 8.256C205.393 8.128 205.073 7.968 204.753 7.776C204.444 7.584 204.183 7.33867 203.969 7.04C203.756 6.73067 203.649 6.35733 203.649 5.92C203.649 5.184 203.927 4.58667 204.481 4.128C205.047 3.66933 205.783 3.44 206.689 3.44C207.297 3.44 207.831 3.54667 208.289 3.76C208.759 3.96267 209.159 4.192 209.489 4.448L208.433 5.856C208.156 5.64267 207.879 5.47733 207.601 5.36C207.324 5.24267 207.047 5.184 206.769 5.184C206.161 5.184 205.857 5.392 205.857 5.808C205.857 6.064 206.007 6.26133 206.305 6.4C206.615 6.528 206.972 6.66667 207.377 6.816C207.719 6.93333 208.049 7.088 208.369 7.28C208.7 7.46133 208.972 7.70667 209.185 8.016C209.409 8.31467 209.521 8.70933 209.521 9.2C209.521 9.91467 209.244 10.5227 208.689 11.024C208.135 11.5147 207.324 11.76 206.257 11.76Z" fill="#141414"/>
<path d="M211.015 11.568V0.352H213.303V6.784H213.367L215.879 3.632H218.439L215.655 6.896L218.647 11.568H216.103L214.311 8.48L213.303 9.616V11.568H211.015Z" fill="#141414"/>
<path d="M221.624 11.76C220.899 11.76 220.323 11.5307 219.896 11.072C219.47 10.6027 219.256 10.032 219.256 9.36C219.256 8.528 219.608 7.87733 220.312 7.408C221.016 6.93867 222.152 6.624 223.72 6.464C223.699 6.112 223.592 5.83467 223.4 5.632C223.219 5.41867 222.91 5.312 222.472 5.312C222.142 5.312 221.806 5.376 221.464 5.504C221.123 5.632 220.76 5.808 220.376 6.032L219.528 4.48C220.03 4.17067 220.563 3.92 221.128 3.728C221.704 3.536 222.302 3.44 222.92 3.44C223.934 3.44 224.712 3.73333 225.256 4.32C225.8 4.90667 226.072 5.808 226.072 7.024V11.568H224.152L223.992 10.752H223.928C223.598 11.0507 223.24 11.296 222.856 11.488C222.483 11.6693 222.072 11.76 221.624 11.76ZM222.424 9.936C222.691 9.936 222.92 9.87733 223.112 9.76C223.315 9.632 223.518 9.46667 223.72 9.264V7.872C222.888 7.97867 222.312 8.14933 221.992 8.384C221.672 8.608 221.512 8.87467 221.512 9.184C221.512 9.44 221.592 9.632 221.752 9.76C221.923 9.87733 222.147 9.936 222.424 9.936Z" fill="#141414"/>
<path d="M2.864 35.568V27.12H0V25.136H8.096V27.12H5.232V35.568H2.864Z" fill="#141414"/>
<path d="M8.85875 35.568V27.632H10.7788L10.9388 29.024H11.0028C11.2908 28.4907 11.6374 28.096 12.0428 27.84C12.4481 27.5733 12.8534 27.44 13.2588 27.44C13.4828 27.44 13.6694 27.456 13.8188 27.488C13.9681 27.5093 14.0961 27.5467 14.2028 27.6L13.8188 29.632C13.6801 29.5893 13.5414 29.5573 13.4028 29.536C13.2747 29.5147 13.1254 29.504 12.9548 29.504C12.6561 29.504 12.3414 29.616 12.0108 29.84C11.6908 30.0533 11.4241 30.4267 11.2108 30.96V35.568H8.85875Z" fill="#141414"/>
<path d="M16.7806 35.76C16.0553 35.76 15.4793 35.5307 15.0526 35.072C14.626 34.6027 14.4126 34.032 14.4126 33.36C14.4126 32.528 14.7646 31.8773 15.4686 31.408C16.1726 30.9387 17.3086 30.624 18.8766 30.464C18.8553 30.112 18.7486 29.8347 18.5566 29.632C18.3753 29.4187 18.066 29.312 17.6286 29.312C17.298 29.312 16.962 29.376 16.6206 29.504C16.2793 29.632 15.9166 29.808 15.5326 30.032L14.6846 28.48C15.186 28.1707 15.7193 27.92 16.2846 27.728C16.8606 27.536 17.458 27.44 18.0766 27.44C19.09 27.44 19.8686 27.7333 20.4126 28.32C20.9566 28.9067 21.2286 29.808 21.2286 31.024V35.568H19.3086L19.1486 34.752H19.0846C18.754 35.0507 18.3966 35.296 18.0126 35.488C17.6393 35.6693 17.2286 35.76 16.7806 35.76ZM17.5806 33.936C17.8473 33.936 18.0766 33.8773 18.2686 33.76C18.4713 33.632 18.674 33.4667 18.8766 33.264V31.872C18.0446 31.9787 17.4686 32.1493 17.1486 32.384C16.8286 32.608 16.6686 32.8747 16.6686 33.184C16.6686 33.44 16.7486 33.632 16.9086 33.76C17.0793 33.8773 17.3033 33.936 17.5806 33.936Z" fill="#141414"/>
<path d="M26.0501 35.76C25.0688 35.76 24.2795 35.392 23.6821 34.656C23.0955 33.9093 22.8021 32.8907 22.8021 31.6C22.8021 30.736 22.9568 29.9947 23.2661 29.376C23.5861 28.7467 23.9968 28.2667 24.4981 27.936C25.0101 27.6053 25.5435 27.44 26.0981 27.44C26.5355 27.44 26.9035 27.5147 27.2021 27.664C27.5008 27.8133 27.7835 28.016 28.0501 28.272L27.9541 27.056V24.352H30.3061V35.568H28.3861L28.2261 34.784H28.1621C27.8848 35.0613 27.5595 35.296 27.1861 35.488C26.8128 35.6693 26.4341 35.76 26.0501 35.76ZM26.6581 33.84C26.9141 33.84 27.1435 33.7867 27.3461 33.68C27.5595 33.5733 27.7621 33.3867 27.9541 33.12V29.872C27.7515 29.68 27.5328 29.5467 27.2981 29.472C27.0741 29.3973 26.8555 29.36 26.6421 29.36C26.2688 29.36 25.9381 29.5413 25.6501 29.904C25.3621 30.256 25.2181 30.8107 25.2181 31.568C25.2181 32.3467 25.3408 32.9227 25.5861 33.296C25.8421 33.6587 26.1995 33.84 26.6581 33.84Z" fill="#141414"/>
<path d="M32.39 35.568V27.632H34.742V35.568H32.39ZM33.558 26.464C33.1633 26.464 32.8433 26.352 32.598 26.128C32.3527 25.904 32.23 25.6053 32.23 25.232C32.23 24.8587 32.3527 24.56 32.598 24.336C32.8433 24.112 33.1633 24 33.558 24C33.9527 24 34.2727 24.112 34.518 24.336C34.7633 24.56 34.886 24.8587 34.886 25.232C34.886 25.6053 34.7633 25.904 34.518 26.128C34.2727 26.352 33.9527 26.464 33.558 26.464Z" fill="#141414"/>
<path d="M36.8119 35.568V27.632H38.7319L38.8919 28.64H38.9559C39.2972 28.32 39.6705 28.0427 40.0759 27.808C40.4919 27.5627 40.9665 27.44 41.4999 27.44C42.3639 27.44 42.9879 27.728 43.3719 28.304C43.7665 28.8693 43.9639 29.648 43.9639 30.64V35.568H41.6119V30.944C41.6119 30.368 41.5319 29.9733 41.3719 29.76C41.2225 29.5467 40.9772 29.44 40.6359 29.44C40.3372 29.44 40.0812 29.5093 39.8679 29.648C39.6545 29.776 39.4199 29.9627 39.1639 30.208V35.568H36.8119Z" fill="#141414"/>
<path d="M48.8001 38.944C48.1815 38.944 47.6215 38.8747 47.1201 38.736C46.6188 38.5973 46.2188 38.3787 45.9201 38.08C45.6215 37.7813 45.4721 37.3973 45.4721 36.928C45.4721 36.288 45.8508 35.7547 46.6081 35.328V35.264C46.4055 35.1253 46.2295 34.9493 46.0801 34.736C45.9415 34.5227 45.8721 34.2507 45.8721 33.92C45.8721 33.632 45.9575 33.3547 46.1281 33.088C46.2988 32.8213 46.5121 32.6027 46.7681 32.432V32.368C46.4908 32.176 46.2401 31.8987 46.0161 31.536C45.8028 31.1733 45.6961 30.7627 45.6961 30.304C45.6961 29.664 45.8508 29.136 46.1601 28.72C46.4695 28.2933 46.8748 27.9733 47.3761 27.76C47.8775 27.5467 48.4108 27.44 48.9761 27.44C49.4455 27.44 49.8561 27.504 50.2081 27.632H53.1041V29.344H51.8401C51.9148 29.4613 51.9735 29.6107 52.0161 29.792C52.0695 29.9733 52.0961 30.1707 52.0961 30.384C52.0961 30.992 51.9575 31.4933 51.6801 31.888C51.4028 32.2827 51.0295 32.576 50.5601 32.768C50.0908 32.96 49.5628 33.056 48.9761 33.056C48.6668 33.056 48.3468 33.0027 48.0161 32.896C47.8241 33.056 47.7281 33.2533 47.7281 33.488C47.7281 33.6907 47.8188 33.84 48.0001 33.936C48.1815 34.032 48.4908 34.08 48.9281 34.08H50.2081C51.1895 34.08 51.9361 34.24 52.4481 34.56C52.9708 34.8693 53.2321 35.3813 53.2321 36.096C53.2321 36.64 53.0508 37.1253 52.6881 37.552C52.3255 37.9893 51.8135 38.3307 51.1521 38.576C50.4908 38.8213 49.7068 38.944 48.8001 38.944ZM48.9761 31.632C49.2855 31.632 49.5415 31.52 49.7441 31.296C49.9575 31.072 50.0641 30.7413 50.0641 30.304C50.0641 29.888 49.9575 29.5733 49.7441 29.36C49.5415 29.136 49.2855 29.024 48.9761 29.024C48.6668 29.024 48.4055 29.1307 48.1921 29.344C47.9895 29.5573 47.8881 29.8773 47.8881 30.304C47.8881 30.7413 47.9895 31.072 48.1921 31.296C48.4055 31.52 48.6668 31.632 48.9761 31.632ZM49.1681 37.472C49.7015 37.472 50.1388 37.376 50.4801 37.184C50.8215 36.992 50.9921 36.7627 50.9921 36.496C50.9921 36.2507 50.8855 36.0853 50.6721 36C50.4695 35.9147 50.1708 35.872 49.7761 35.872H48.9601C48.6935 35.872 48.4695 35.8613 48.2881 35.84C48.1175 35.8293 47.9681 35.808 47.8401 35.776C47.5521 36.032 47.4081 36.2933 47.4081 36.56C47.4081 36.8587 47.5681 37.0827 47.8881 37.232C48.2188 37.392 48.6455 37.472 49.1681 37.472Z" fill="#141414"/>
<path d="M61.0941 35.76C60.4115 35.76 59.7288 35.632 59.0461 35.376C58.3741 35.12 57.7715 34.7467 57.2381 34.256L58.5821 32.64C58.9555 32.96 59.3715 33.2213 59.8301 33.424C60.2888 33.6267 60.7315 33.728 61.1581 33.728C61.6488 33.728 62.0115 33.6373 62.2461 33.456C62.4915 33.2747 62.6141 33.0293 62.6141 32.72C62.6141 32.3893 62.4755 32.1493 62.1981 32C61.9315 31.84 61.5688 31.664 61.1101 31.472L59.7501 30.896C59.3981 30.7467 59.0621 30.5493 58.7421 30.304C58.4221 30.048 58.1608 29.7333 57.9581 29.36C57.7555 28.9867 57.6541 28.5493 57.6541 28.048C57.6541 27.472 57.8088 26.9493 58.1181 26.48C58.4381 26.0107 58.8755 25.6373 59.4301 25.36C59.9955 25.0827 60.6408 24.944 61.3661 24.944C61.9635 24.944 62.5608 25.0613 63.1581 25.296C63.7555 25.5307 64.2781 25.872 64.7261 26.32L63.5261 27.808C63.1848 27.5413 62.8435 27.3387 62.5021 27.2C62.1608 27.0507 61.7821 26.976 61.3661 26.976C60.9608 26.976 60.6355 27.0613 60.3901 27.232C60.1555 27.392 60.0381 27.6213 60.0381 27.92C60.0381 28.24 60.1875 28.48 60.4861 28.64C60.7955 28.8 61.1741 28.9707 61.6221 29.152L62.9661 29.696C63.5955 29.952 64.0968 30.304 64.4701 30.752C64.8435 31.2 65.0301 31.792 65.0301 32.528C65.0301 33.104 64.8755 33.6373 64.5661 34.128C64.2568 34.6187 63.8088 35.0133 63.2221 35.312C62.6355 35.6107 61.9261 35.76 61.0941 35.76Z" fill="#141414"/>
<path d="M66.6087 38.512V27.632H68.5287L68.6888 28.416H68.7527C69.0621 28.1387 69.4087 27.9093 69.7927 27.728C70.1874 27.536 70.5928 27.44 71.0088 27.44C71.9688 27.44 72.7261 27.808 73.2807 28.544C73.8354 29.2693 74.1127 30.2453 74.1127 31.472C74.1127 32.3787 73.9528 33.152 73.6328 33.792C73.3128 34.432 72.8968 34.9227 72.3848 35.264C71.8834 35.5947 71.3447 35.76 70.7687 35.76C70.4274 35.76 70.0967 35.6907 69.7767 35.552C69.4567 35.4027 69.1581 35.1947 68.8807 34.928L68.9607 36.192V38.512H66.6087ZM70.2247 33.84C70.6301 33.84 70.9767 33.6533 71.2647 33.28C71.5527 32.9067 71.6967 32.3147 71.6967 31.504C71.6967 30.0747 71.2381 29.36 70.3207 29.36C69.8621 29.36 69.4087 29.6 68.9607 30.08V33.328C69.1741 33.52 69.3874 33.6533 69.6007 33.728C69.8141 33.8027 70.0221 33.84 70.2247 33.84Z" fill="#141414"/>
<path d="M76.9844 35.76C76.579 35.76 76.2377 35.6213 75.9604 35.344C75.6937 35.056 75.5604 34.704 75.5604 34.288C75.5604 33.8613 75.6937 33.5093 75.9604 33.232C76.2377 32.944 76.579 32.8 76.9844 32.8C77.3897 32.8 77.7257 32.944 77.9924 33.232C78.2697 33.5093 78.4084 33.8613 78.4084 34.288C78.4084 34.704 78.2697 35.056 77.9924 35.344C77.7257 35.6213 77.3897 35.76 76.9844 35.76Z" fill="#141414"/>
<path d="M83.1924 35.568V34.304L86.5204 29.472H83.5604V27.632H89.4484V28.88L86.1204 33.728H89.5604V35.568H83.1924Z" fill="#141414"/>
<path d="M97.5949 35.76C96.9229 35.76 96.2882 35.6 95.6909 35.28C95.1042 34.9493 94.6295 34.4747 94.2669 33.856C93.9042 33.2267 93.7229 32.4747 93.7229 31.6C93.7229 30.7147 93.9042 29.9627 94.2669 29.344C94.6295 28.7253 95.1042 28.256 95.6909 27.936C96.2882 27.6053 96.9229 27.44 97.5949 27.44C98.2669 27.44 98.8962 27.6053 99.4829 27.936C100.07 28.256 100.544 28.7253 100.907 29.344C101.27 29.9627 101.451 30.7147 101.451 31.6C101.451 32.4747 101.27 33.2267 100.907 33.856C100.544 34.4747 100.07 34.9493 99.4829 35.28C98.8962 35.6 98.2669 35.76 97.5949 35.76ZM97.5949 33.856C98.0749 33.856 98.4375 33.6533 98.6829 33.248C98.9282 32.832 99.0509 32.2827 99.0509 31.6C99.0509 30.9067 98.9282 30.3573 98.6829 29.952C98.4375 29.5467 98.0749 29.344 97.5949 29.344C97.1042 29.344 96.7362 29.5467 96.4909 29.952C96.2562 30.3573 96.1389 30.9067 96.1389 31.6C96.1389 32.2827 96.2562 32.832 96.4909 33.248C96.7362 33.6533 97.1042 33.856 97.5949 33.856Z" fill="#141414"/>
<path d="M104.266 35.76C103.86 35.76 103.519 35.6213 103.242 35.344C102.975 35.056 102.842 34.704 102.842 34.288C102.842 33.8613 102.975 33.5093 103.242 33.232C103.519 32.944 103.86 32.8 104.266 32.8C104.671 32.8 105.007 32.944 105.274 33.232C105.551 33.5093 105.69 33.8613 105.69 34.288C105.69 34.704 105.551 35.056 105.274 35.344C105.007 35.6213 104.671 35.76 104.266 35.76Z" fill="#141414"/>
<path d="M110.954 35.76C110.282 35.76 109.648 35.6 109.05 35.28C108.464 34.9493 107.989 34.4747 107.626 33.856C107.264 33.2267 107.082 32.4747 107.082 31.6C107.082 30.7147 107.264 29.9627 107.626 29.344C107.989 28.7253 108.464 28.256 109.05 27.936C109.648 27.6053 110.282 27.44 110.954 27.44C111.626 27.44 112.256 27.6053 112.842 27.936C113.429 28.256 113.904 28.7253 114.266 29.344C114.629 29.9627 114.81 30.7147 114.81 31.6C114.81 32.4747 114.629 33.2267 114.266 33.856C113.904 34.4747 113.429 34.9493 112.842 35.28C112.256 35.6 111.626 35.76 110.954 35.76ZM110.954 33.856C111.434 33.856 111.797 33.6533 112.042 33.248C112.288 32.832 112.41 32.2827 112.41 31.6C112.41 30.9067 112.288 30.3573 112.042 29.952C111.797 29.5467 111.434 29.344 110.954 29.344C110.464 29.344 110.096 29.5467 109.85 29.952C109.616 30.3573 109.498 30.9067 109.498 31.6C109.498 32.2827 109.616 32.832 109.85 33.248C110.096 33.6533 110.464 33.856 110.954 33.856Z" fill="#141414"/>
<path d="M117.625 35.76C117.22 35.76 116.878 35.6213 116.601 35.344C116.334 35.056 116.201 34.704 116.201 34.288C116.201 33.8613 116.334 33.5093 116.601 33.232C116.878 32.944 117.22 32.8 117.625 32.8C118.03 32.8 118.366 32.944 118.633 33.232C118.91 33.5093 119.049 33.8613 119.049 34.288C119.049 34.704 118.91 35.056 118.633 35.344C118.366 35.6213 118.03 35.76 117.625 35.76Z" fill="#141414"/>
<path d="M3.216 59.568V50.192H0.048V49.072H7.728V50.192H4.56V59.568H3.216Z" fill="#141414"/>
<path d="M9.49013 59.568V48.176H10.8021V51.28L10.7541 52.88C11.1275 52.528 11.5168 52.2293 11.9221 51.984C12.3381 51.728 12.8128 51.6 13.3461 51.6C14.1675 51.6 14.7648 51.8613 15.1381 52.384C15.5221 52.896 15.7141 53.648 15.7141 54.64V59.568H14.4021V54.816C14.4021 54.0907 14.2848 53.5627 14.0501 53.232C13.8155 52.9013 13.4421 52.736 12.9301 52.736C12.5355 52.736 12.1781 52.8373 11.8581 53.04C11.5488 53.2427 11.1968 53.5413 10.8021 53.936V59.568H9.49013Z" fill="#141414"/>
<path d="M21.3453 59.76C20.6519 59.76 20.0226 59.6 19.4573 59.28C18.8919 58.9493 18.4439 58.48 18.1133 57.872C17.7826 57.264 17.6173 56.5387 17.6173 55.696C17.6173 54.8427 17.7826 54.112 18.1133 53.504C18.4546 52.896 18.8919 52.4267 19.4253 52.096C19.9586 51.7653 20.5186 51.6 21.1052 51.6C22.0972 51.6 22.8599 51.9307 23.3933 52.592C23.9373 53.2533 24.2093 54.1387 24.2093 55.248C24.2093 55.3867 24.2039 55.5253 24.1933 55.664C24.1933 55.792 24.1826 55.904 24.1613 56H18.9132C18.9666 56.8213 19.2226 57.4773 19.6812 57.968C20.1506 58.4587 20.7586 58.704 21.5053 58.704C21.8786 58.704 22.2199 58.6507 22.5293 58.544C22.8493 58.4267 23.1533 58.2773 23.4413 58.096L23.9053 58.96C23.5746 59.1733 23.1959 59.36 22.7693 59.52C22.3533 59.68 21.8786 59.76 21.3453 59.76ZM18.8973 55.056H23.0573C23.0573 54.2667 22.8866 53.6693 22.5452 53.264C22.2146 52.848 21.7453 52.64 21.1373 52.64C20.5933 52.64 20.1026 52.8533 19.6653 53.28C19.2386 53.696 18.9826 54.288 18.8973 55.056Z" fill="#141414"/>
<path d="M29.4619 59.568V49.072H32.4539C33.2432 49.072 33.9312 49.168 34.5179 49.36C35.1045 49.552 35.5632 49.8773 35.8939 50.336C36.2245 50.784 36.3899 51.392 36.3899 52.16C36.3899 53.2587 36.0325 54.0747 35.3179 54.608C34.6032 55.1413 33.6699 55.408 32.5179 55.408H30.7899V59.568H29.4619ZM30.7899 54.32H32.3579C33.2752 54.32 33.9525 54.1493 34.3899 53.808C34.8379 53.456 35.0619 52.9067 35.0619 52.16C35.0619 51.4027 34.8272 50.88 34.3579 50.592C33.8992 50.2933 33.2112 50.144 32.2939 50.144H30.7899V54.32Z" fill="#141414"/>
<path d="M39.5009 59.76C38.8502 59.76 38.3062 59.568 37.8689 59.184C37.4422 58.7893 37.2289 58.2453 37.2289 57.552C37.2289 56.6987 37.6075 56.048 38.3649 55.6C39.1329 55.1413 40.3435 54.8213 41.9969 54.64C41.9969 54.3093 41.9489 53.9947 41.8529 53.696C41.7675 53.3973 41.6075 53.1573 41.3729 52.976C41.1489 52.784 40.8235 52.688 40.3969 52.688C39.9489 52.688 39.5275 52.7733 39.1329 52.944C38.7382 53.1147 38.3862 53.3067 38.0769 53.52L37.5649 52.608C37.9275 52.3733 38.3702 52.1493 38.8929 51.936C39.4262 51.712 40.0022 51.6 40.6209 51.6C41.5702 51.6 42.2582 51.8933 42.6849 52.48C43.1115 53.056 43.3249 53.8293 43.3249 54.8V59.568H42.2369L42.1249 58.64H42.0769C41.7142 58.9387 41.3142 59.2 40.8769 59.424C40.4502 59.648 39.9915 59.76 39.5009 59.76ZM39.8849 58.704C40.2582 58.704 40.6102 58.6133 40.9409 58.432C41.2715 58.2507 41.6235 57.9947 41.9969 57.664V55.504C40.7062 55.664 39.7995 55.904 39.2769 56.224C38.7649 56.544 38.5089 56.9547 38.5089 57.456C38.5089 57.8933 38.6422 58.2133 38.9089 58.416C39.1755 58.608 39.5009 58.704 39.8849 58.704Z" fill="#141414"/>
<path d="M45.7714 59.568V51.792H46.8594L46.9714 53.2H47.0194C47.286 52.7093 47.6114 52.32 47.9954 52.032C48.3794 51.744 48.79 51.6 49.2274 51.6C49.5367 51.6 49.814 51.6533 50.0594 51.76L49.8034 52.912C49.6754 52.8693 49.558 52.8373 49.4514 52.816C49.3447 52.7947 49.2114 52.784 49.0514 52.784C48.7207 52.784 48.374 52.9173 48.0114 53.184C47.6594 53.4507 47.35 53.9147 47.0834 54.576V59.568H45.7714Z" fill="#141414"/>
<path d="M51.3182 59.568V48.176H52.6143V55.888H52.6622L55.9743 51.792H57.4302L54.8223 54.912L57.7822 59.568H56.3422L54.0702 55.824L52.6143 57.52V59.568H51.3182Z" fill="#141414"/>
<path d="M63.7233 59.568L61.4992 49.072H62.8752L63.9792 54.784C64.0752 55.3493 64.1766 55.9147 64.2832 56.48C64.3899 57.0453 64.4912 57.6107 64.5872 58.176H64.6512C64.7686 57.6107 64.8913 57.0453 65.0192 56.48C65.1472 55.904 65.2699 55.3387 65.3872 54.784L66.8432 49.072H68.0592L69.5153 54.784C69.6432 55.3387 69.7712 55.904 69.8992 56.48C70.0272 57.0453 70.1553 57.6107 70.2832 58.176H70.3473C70.4433 57.6107 70.5392 57.0453 70.6352 56.48C70.7312 55.904 70.8326 55.3387 70.9392 54.784L72.0433 49.072H73.3232L71.1472 59.568H69.5472L67.9632 53.248C67.8672 52.8427 67.7766 52.448 67.6912 52.064C67.6166 51.6693 67.5366 51.2693 67.4512 50.864H67.3872C67.3126 51.2693 67.2272 51.6693 67.1312 52.064C67.0352 52.448 66.9446 52.8427 66.8592 53.248L65.3073 59.568H63.7233Z" fill="#141414"/>
<path d="M76.5634 59.76C75.9127 59.76 75.3687 59.568 74.9314 59.184C74.5047 58.7893 74.2914 58.2453 74.2914 57.552C74.2914 56.6987 74.67 56.048 75.4274 55.6C76.1954 55.1413 77.406 54.8213 79.0594 54.64C79.0594 54.3093 79.0114 53.9947 78.9154 53.696C78.83 53.3973 78.67 53.1573 78.4354 52.976C78.2114 52.784 77.886 52.688 77.4594 52.688C77.0114 52.688 76.59 52.7733 76.1954 52.944C75.8007 53.1147 75.4487 53.3067 75.1394 53.52L74.6274 52.608C74.99 52.3733 75.4327 52.1493 75.9554 51.936C76.4887 51.712 77.0647 51.6 77.6834 51.6C78.6327 51.6 79.3207 51.8933 79.7474 52.48C80.174 53.056 80.3874 53.8293 80.3874 54.8V59.568H79.2994L79.1874 58.64H79.1394C78.7767 58.9387 78.3767 59.2 77.9394 59.424C77.5127 59.648 77.054 59.76 76.5634 59.76ZM76.9474 58.704C77.3207 58.704 77.6727 58.6133 78.0034 58.432C78.334 58.2507 78.686 57.9947 79.0594 57.664V55.504C77.7687 55.664 76.862 55.904 76.3394 56.224C75.8274 56.544 75.5714 56.9547 75.5714 57.456C75.5714 57.8933 75.7047 58.2133 75.9714 58.416C76.238 58.608 76.5634 58.704 76.9474 58.704Z" fill="#141414"/>
<path d="M82.8339 59.568V51.792H83.9219L84.0339 53.2H84.0819C84.3485 52.7093 84.6739 52.32 85.0579 52.032C85.4419 51.744 85.8525 51.6 86.2899 51.6C86.5992 51.6 86.8765 51.6533 87.1219 51.76L86.8659 52.912C86.7379 52.8693 86.6205 52.8373 86.5139 52.816C86.4072 52.7947 86.2739 52.784 86.1139 52.784C85.7832 52.784 85.4365 52.9173 85.0739 53.184C84.7219 53.4507 84.4125 53.9147 84.1459 54.576V59.568H82.8339Z" fill="#141414"/>
<path d="M90.3503 59.76C89.7956 59.76 89.2676 59.6587 88.7663 59.456C88.2649 59.2427 87.8276 58.9867 87.4542 58.688L88.1103 57.808C88.4516 58.0747 88.8036 58.2987 89.1663 58.48C89.5289 58.6507 89.9396 58.736 90.3982 58.736C90.9102 58.736 91.2943 58.6187 91.5502 58.384C91.8062 58.1387 91.9342 57.8507 91.9342 57.52C91.9342 57.2533 91.8436 57.0293 91.6622 56.848C91.4916 56.6667 91.2676 56.5173 90.9902 56.4C90.7236 56.272 90.4463 56.1547 90.1582 56.048C89.7956 55.9093 89.4382 55.7547 89.0863 55.584C88.7343 55.4027 88.4463 55.1733 88.2223 54.896C87.9983 54.608 87.8862 54.2453 87.8862 53.808C87.8862 53.1787 88.1209 52.656 88.5902 52.24C89.0703 51.8133 89.7316 51.6 90.5742 51.6C91.0543 51.6 91.5023 51.6853 91.9183 51.856C92.3343 52.0267 92.6916 52.2347 92.9902 52.48L92.3503 53.312C92.0836 53.1093 91.8063 52.944 91.5182 52.816C91.2302 52.688 90.9156 52.624 90.5742 52.624C90.0836 52.624 89.7209 52.736 89.4863 52.96C89.2623 53.184 89.1502 53.4453 89.1502 53.744C89.1502 53.9893 89.2302 54.192 89.3903 54.352C89.5503 54.5013 89.7583 54.6347 90.0143 54.752C90.2702 54.8587 90.5422 54.9707 90.8302 55.088C91.2036 55.2267 91.5716 55.3867 91.9342 55.568C92.2969 55.7387 92.5956 55.9733 92.8302 56.272C93.0756 56.56 93.1982 56.9493 93.1982 57.44C93.1982 57.856 93.0863 58.24 92.8623 58.592C92.6489 58.944 92.3289 59.2267 91.9023 59.44C91.4863 59.6533 90.9689 59.76 90.3503 59.76Z" fill="#141414"/>
<path d="M96.8134 59.76C96.1627 59.76 95.6187 59.568 95.1814 59.184C94.7547 58.7893 94.5414 58.2453 94.5414 57.552C94.5414 56.6987 94.92 56.048 95.6774 55.6C96.4454 55.1413 97.656 54.8213 99.3094 54.64C99.3094 54.3093 99.2614 53.9947 99.1654 53.696C99.08 53.3973 98.92 53.1573 98.6854 52.976C98.4614 52.784 98.136 52.688 97.7094 52.688C97.2614 52.688 96.84 52.7733 96.4454 52.944C96.0507 53.1147 95.6987 53.3067 95.3894 53.52L94.8774 52.608C95.24 52.3733 95.6827 52.1493 96.2054 51.936C96.7387 51.712 97.3147 51.6 97.9334 51.6C98.8827 51.6 99.5707 51.8933 99.9974 52.48C100.424 53.056 100.637 53.8293 100.637 54.8V59.568H99.5494L99.4374 58.64H99.3894C99.0267 58.9387 98.6267 59.2 98.1894 59.424C97.7627 59.648 97.304 59.76 96.8134 59.76ZM97.1974 58.704C97.5707 58.704 97.9227 58.6133 98.2534 58.432C98.584 58.2507 98.936 57.9947 99.3094 57.664V55.504C98.0187 55.664 97.112 55.904 96.5894 56.224C96.0774 56.544 95.8214 56.9547 95.8214 57.456C95.8214 57.8933 95.9547 58.2133 96.2214 58.416C96.488 58.608 96.8134 58.704 97.1974 58.704Z" fill="#141414"/>
<path d="M104.316 59.568L102.156 51.792H103.5L104.652 56.288C104.737 56.6507 104.817 57.0133 104.892 57.376C104.967 57.728 105.041 58.0853 105.116 58.448H105.18C105.265 58.0853 105.351 57.728 105.436 57.376C105.521 57.0133 105.612 56.6507 105.708 56.288L106.908 51.792H108.188L109.404 56.288C109.5 56.6507 109.591 57.0133 109.676 57.376C109.772 57.728 109.863 58.0853 109.948 58.448H110.012C110.097 58.0853 110.177 57.728 110.252 57.376C110.337 57.0133 110.417 56.6507 110.492 56.288L111.628 51.792H112.876L110.796 59.568H109.196L108.076 55.392C107.98 55.0187 107.889 54.6507 107.804 54.288C107.729 53.9253 107.644 53.5467 107.548 53.152H107.484C107.399 53.5467 107.313 53.9307 107.228 54.304C107.143 54.6667 107.047 55.0347 106.94 55.408L105.852 59.568H104.316Z" fill="#141414"/>
<path d="M3.184 83.76C2.36267 83.76 1.76 83.504 1.376 82.992C0.992 82.4693 0.8 81.712 0.8 80.72V75.792H2.128V80.544C2.128 81.2693 2.24 81.7973 2.464 82.128C2.69867 82.4587 3.072 82.624 3.584 82.624C3.98933 82.624 4.34667 82.5227 4.656 82.32C4.976 82.1067 5.31733 81.7707 5.68 81.312V75.792H6.992V83.568H5.904L5.792 82.352H5.744C5.38133 82.7787 4.99733 83.12 4.592 83.376C4.18667 83.632 3.71733 83.76 3.184 83.76Z" fill="#141414"/>
<path d="M11.0071 83.76C10.5165 83.76 10.1591 83.6107 9.93513 83.312C9.72179 83.0027 9.61513 82.5653 9.61513 82V72.176H10.9271V82.096C10.9271 82.2987 10.9645 82.448 11.0391 82.544C11.1138 82.6293 11.1991 82.672 11.2951 82.672C11.3378 82.672 11.3751 82.672 11.4071 82.672C11.4498 82.6613 11.5085 82.6507 11.5831 82.64L11.7591 83.632C11.6738 83.6747 11.5725 83.7067 11.4551 83.728C11.3378 83.7493 11.1885 83.76 11.0071 83.76Z" fill="#141414"/>
<path d="M14.3813 83.76C14.1146 83.76 13.8853 83.6693 13.6933 83.488C13.5119 83.296 13.4213 83.056 13.4213 82.768C13.4213 82.4587 13.5119 82.2133 13.6933 82.032C13.8853 81.84 14.1146 81.744 14.3813 81.744C14.6373 81.744 14.8559 81.84 15.0373 82.032C15.2293 82.2133 15.3253 82.4587 15.3253 82.768C15.3253 83.056 15.2293 83.296 15.0373 83.488C14.8559 83.6693 14.6373 83.76 14.3813 83.76Z" fill="#141414"/>
<path d="M21.0088 83.568V73.072H22.3368V78.336H22.3848L26.7528 73.072H28.2568L24.9768 77.072L28.7688 83.568H27.2808L24.1448 78.112L22.3368 80.24V83.568H21.0088Z" fill="#141414"/>
<path d="M30.1464 83.568V75.792H31.2344L31.3464 77.2H31.3944C31.661 76.7093 31.9864 76.32 32.3704 76.032C32.7544 75.744 33.165 75.6 33.6024 75.6C33.9117 75.6 34.189 75.6533 34.4344 75.76L34.1784 76.912C34.0504 76.8693 33.933 76.8373 33.8264 76.816C33.7197 76.7947 33.5864 76.784 33.4264 76.784C33.0957 76.784 32.749 76.9173 32.3864 77.184C32.0344 77.4507 31.725 77.9147 31.4584 78.576V83.568H30.1464Z" fill="#141414"/>
<path d="M37.0946 83.76C36.444 83.76 35.9 83.568 35.4626 83.184C35.036 82.7893 34.8226 82.2453 34.8226 81.552C34.8226 80.6987 35.2013 80.048 35.9586 79.6C36.7266 79.1413 37.9373 78.8213 39.5906 78.64C39.5906 78.3093 39.5426 77.9947 39.4466 77.696C39.3613 77.3973 39.2013 77.1573 38.9666 76.976C38.7426 76.784 38.4173 76.688 37.9906 76.688C37.5426 76.688 37.1213 76.7733 36.7266 76.944C36.332 77.1147 35.98 77.3067 35.6706 77.52L35.1586 76.608C35.5213 76.3733 35.964 76.1493 36.4866 75.936C37.02 75.712 37.596 75.6 38.2146 75.6C39.164 75.6 39.852 75.8933 40.2786 76.48C40.7053 77.056 40.9186 77.8293 40.9186 78.8V83.568H39.8306L39.7186 82.64H39.6706C39.308 82.9387 38.908 83.2 38.4706 83.424C38.044 83.648 37.5853 83.76 37.0946 83.76ZM37.4786 82.704C37.852 82.704 38.204 82.6133 38.5346 82.432C38.8653 82.2507 39.2173 81.9947 39.5906 81.664V79.504C38.3 79.664 37.3933 79.904 36.8706 80.224C36.3586 80.544 36.1026 80.9547 36.1026 81.456C36.1026 81.8933 36.236 82.2133 36.5026 82.416C36.7693 82.608 37.0946 82.704 37.4786 82.704Z" fill="#141414"/>
<path d="M43.3651 83.568V72.176H44.6611V79.888H44.7091L48.0211 75.792H49.4771L46.8691 78.912L49.8291 83.568H48.3891L46.1171 79.824L44.6611 81.52V83.568H43.3651Z" fill="#141414"/>
<path d="M54.0297 83.76C53.4004 83.76 52.8084 83.6 52.2537 83.28C51.7098 82.96 51.2671 82.496 50.9257 81.888C50.5951 81.28 50.4297 80.5493 50.4297 79.696C50.4297 78.8213 50.5951 78.08 50.9257 77.472C51.2671 76.864 51.7098 76.4 52.2537 76.08C52.8084 75.76 53.4004 75.6 54.0297 75.6C54.6697 75.6 55.2617 75.76 55.8057 76.08C56.3497 76.4 56.7871 76.864 57.1177 77.472C57.4591 78.08 57.6297 78.8213 57.6297 79.696C57.6297 80.5493 57.4591 81.28 57.1177 81.888C56.7871 82.496 56.3497 82.96 55.8057 83.28C55.2617 83.6 54.6697 83.76 54.0297 83.76ZM54.0297 82.672C54.7017 82.672 55.2404 82.4 55.6457 81.856C56.0617 81.3013 56.2697 80.5813 56.2697 79.696C56.2697 78.8 56.0617 78.0747 55.6457 77.52C55.2404 76.9653 54.7017 76.688 54.0297 76.688C53.3684 76.688 52.8298 76.9653 52.4137 77.52C51.9977 78.0747 51.7897 78.8 51.7897 79.696C51.7897 80.5813 51.9977 81.3013 52.4137 81.856C52.8298 82.4 53.3684 82.672 54.0297 82.672Z" fill="#141414"/>
<path d="M60.8471 83.568L58.6871 75.792H60.0311L61.1831 80.288C61.2685 80.6507 61.3485 81.0133 61.4231 81.376C61.4978 81.728 61.5725 82.0853 61.6471 82.448H61.7111C61.7965 82.0853 61.8818 81.728 61.9671 81.376C62.0525 81.0133 62.1431 80.6507 62.2391 80.288L63.4391 75.792H64.7191L65.9351 80.288C66.0311 80.6507 66.1218 81.0133 66.2071 81.376C66.3031 81.728 66.3938 82.0853 66.4791 82.448H66.5431C66.6285 82.0853 66.7085 81.728 66.7831 81.376C66.8685 81.0133 66.9485 80.6507 67.0231 80.288L68.1591 75.792H69.4071L67.3271 83.568H65.7271L64.6071 79.392C64.5111 79.0187 64.4205 78.6507 64.3351 78.288C64.2605 77.9253 64.1751 77.5467 64.0791 77.152H64.0151C63.9298 77.5467 63.8445 77.9307 63.7591 78.304C63.6738 78.6667 63.5778 79.0347 63.4711 79.408L62.3831 83.568H60.8471Z" fill="#141414"/>
<path d="M71.0995 83.568V75.792H72.4115V83.568H71.0995ZM71.7715 74.192C71.5155 74.192 71.3022 74.1173 71.1315 73.968C70.9715 73.808 70.8915 73.5947 70.8915 73.328C70.8915 73.072 70.9715 72.864 71.1315 72.704C71.3022 72.544 71.5155 72.464 71.7715 72.464C72.0275 72.464 72.2355 72.544 72.3955 72.704C72.5662 72.864 72.6515 73.072 72.6515 73.328C72.6515 73.5947 72.5662 73.808 72.3955 73.968C72.2355 74.1173 72.0275 74.192 71.7715 74.192Z" fill="#141414"/>
<path d="M76.829 83.76C76.1783 83.76 75.6343 83.568 75.197 83.184C74.7703 82.7893 74.557 82.2453 74.557 81.552C74.557 80.6987 74.9357 80.048 75.693 79.6C76.461 79.1413 77.6717 78.8213 79.325 78.64C79.325 78.3093 79.277 77.9947 79.181 77.696C79.0957 77.3973 78.9357 77.1573 78.701 76.976C78.477 76.784 78.1517 76.688 77.725 76.688C77.277 76.688 76.8557 76.7733 76.461 76.944C76.0663 77.1147 75.7143 77.3067 75.405 77.52L74.893 76.608C75.2557 76.3733 75.6983 76.1493 76.221 75.936C76.7543 75.712 77.3303 75.6 77.949 75.6C78.8983 75.6 79.5863 75.8933 80.013 76.48C80.4397 77.056 80.653 77.8293 80.653 78.8V83.568H79.565L79.453 82.64H79.405C79.0423 82.9387 78.6423 83.2 78.205 83.424C77.7783 83.648 77.3197 83.76 76.829 83.76ZM77.213 82.704C77.5863 82.704 77.9383 82.6133 78.269 82.432C78.5997 82.2507 78.9517 81.9947 79.325 81.664V79.504C78.0343 79.664 77.1277 79.904 76.605 80.224C76.093 80.544 75.837 80.9547 75.837 81.456C75.837 81.8933 75.9703 82.2133 76.237 82.416C76.5037 82.608 76.829 82.704 77.213 82.704Z" fill="#141414"/>
<path d="M83.0995 83.568V72.176H84.3955V79.888H84.4435L87.7555 75.792H89.2115L86.6035 78.912L89.5635 83.568H88.1235L85.8515 79.824L84.3955 81.52V83.568H83.0995Z" fill="#141414"/>
<path d="M93.7641 83.76C93.1348 83.76 92.5428 83.6 91.9881 83.28C91.4441 82.96 91.0015 82.496 90.6601 81.888C90.3295 81.28 90.1641 80.5493 90.1641 79.696C90.1641 78.8213 90.3295 78.08 90.6601 77.472C91.0015 76.864 91.4441 76.4 91.9881 76.08C92.5428 75.76 93.1348 75.6 93.7641 75.6C94.4041 75.6 94.9961 75.76 95.5401 76.08C96.0841 76.4 96.5215 76.864 96.8521 77.472C97.1935 78.08 97.3641 78.8213 97.3641 79.696C97.3641 80.5493 97.1935 81.28 96.8521 81.888C96.5215 82.496 96.0841 82.96 95.5401 83.28C94.9961 83.6 94.4041 83.76 93.7641 83.76ZM93.7641 82.672C94.4361 82.672 94.9748 82.4 95.3801 81.856C95.7961 81.3013 96.0041 80.5813 96.0041 79.696C96.0041 78.8 95.7961 78.0747 95.3801 77.52C94.9748 76.9653 94.4361 76.688 93.7641 76.688C93.1028 76.688 92.5641 76.9653 92.1481 77.52C91.7321 78.0747 91.5241 78.8 91.5241 79.696C91.5241 80.5813 91.7321 81.3013 92.1481 81.856C92.5641 82.4 93.1028 82.672 93.7641 82.672ZM93.5401 74.4L92.8681 73.744L95.1241 71.072L96.0521 71.952L93.5401 74.4Z" fill="#141414"/>
<path d="M100.581 83.568L98.4215 75.792H99.7655L100.917 80.288C101.003 80.6507 101.083 81.0133 101.158 81.376C101.232 81.728 101.307 82.0853 101.382 82.448H101.445C101.531 82.0853 101.616 81.728 101.701 81.376C101.787 81.0133 101.877 80.6507 101.973 80.288L103.174 75.792H104.453L105.67 80.288C105.766 80.6507 105.856 81.0133 105.941 81.376C106.037 81.728 106.128 82.0853 106.214 82.448H106.277C106.363 82.0853 106.443 81.728 106.518 81.376C106.603 81.0133 106.683 80.6507 106.757 80.288L107.894 75.792H109.142L107.062 83.568H105.462L104.341 79.392C104.245 79.0187 104.155 78.6507 104.069 78.288C103.995 77.9253 103.91 77.5467 103.813 77.152H103.749C103.664 77.5467 103.579 77.9307 103.493 78.304C103.408 78.6667 103.312 79.0347 103.205 79.408L102.118 83.568H100.581Z" fill="#141414"/>
<path d="M114.389 79.696H117.589V76.736C117.589 76.4587 117.6 76.128 117.621 75.744C117.642 75.36 117.658 75.0347 117.669 74.768H117.605C117.477 75.0133 117.344 75.2533 117.205 75.488C117.066 75.7227 116.922 75.9627 116.773 76.208L114.389 79.696ZM117.589 83.568V80.752H112.997V79.888L117.365 73.36H118.837V79.696H120.229V80.752H118.837V83.568H117.589Z" fill="#141414"/>
<path d="M124.678 83.76C124.038 83.76 123.467 83.6427 122.966 83.408C122.465 83.1627 122.065 82.8267 121.766 82.4C121.478 81.9733 121.334 81.4933 121.334 80.96C121.334 80.512 121.425 80.1173 121.606 79.776C121.798 79.424 122.038 79.12 122.326 78.864C122.625 78.5973 122.934 78.3787 123.254 78.208V78.144C122.881 77.8773 122.55 77.552 122.262 77.168C121.974 76.784 121.83 76.3253 121.83 75.792C121.83 75.2693 121.958 74.8107 122.214 74.416C122.47 74.0213 122.817 73.7173 123.254 73.504C123.691 73.28 124.182 73.168 124.726 73.168C125.611 73.168 126.31 73.424 126.822 73.936C127.345 74.448 127.606 75.0987 127.606 75.888C127.606 76.24 127.531 76.576 127.382 76.896C127.233 77.2053 127.051 77.488 126.838 77.744C126.625 77.9893 126.411 78.192 126.198 78.352V78.416C126.507 78.5867 126.795 78.7893 127.062 79.024C127.329 79.2587 127.547 79.5413 127.718 79.872C127.889 80.192 127.974 80.5813 127.974 81.04C127.974 81.5413 127.835 82 127.558 82.416C127.291 82.832 126.907 83.1627 126.406 83.408C125.915 83.6427 125.339 83.76 124.678 83.76ZM125.398 78C125.739 77.6907 126.001 77.3653 126.182 77.024C126.374 76.6827 126.47 76.3253 126.47 75.952C126.47 75.4507 126.315 75.024 126.006 74.672C125.697 74.32 125.259 74.144 124.694 74.144C124.225 74.144 123.83 74.2933 123.51 74.592C123.201 74.8907 123.046 75.2907 123.046 75.792C123.046 76.1973 123.153 76.5333 123.366 76.8C123.59 77.0667 123.883 77.296 124.246 77.488C124.609 77.6693 124.993 77.84 125.398 78ZM124.71 82.784C125.307 82.784 125.787 82.6187 126.15 82.288C126.523 81.9467 126.71 81.5147 126.71 80.992C126.71 80.5547 126.582 80.1973 126.326 79.92C126.07 79.6427 125.729 79.4027 125.302 79.2C124.886 78.9973 124.433 78.8 123.942 78.608C123.537 78.8747 123.195 79.1947 122.918 79.568C122.651 79.9413 122.518 80.3627 122.518 80.832C122.518 81.3973 122.726 81.8667 123.142 82.24C123.569 82.6027 124.091 82.784 124.71 82.784Z" fill="#141414"/>
<path d="M129.703 86.288L129.383 85.52C129.842 85.3173 130.199 85.0453 130.455 84.704C130.711 84.3733 130.834 83.9947 130.823 83.568C130.802 83.5787 130.775 83.584 130.743 83.584C130.711 83.584 130.685 83.584 130.663 83.584C130.407 83.584 130.183 83.5093 129.991 83.36C129.81 83.2 129.719 82.9707 129.719 82.672C129.719 82.384 129.815 82.16 130.007 82C130.199 81.8293 130.429 81.744 130.695 81.744C131.037 81.744 131.303 81.8827 131.495 82.16C131.698 82.4373 131.799 82.816 131.799 83.296C131.799 83.9787 131.613 84.576 131.239 85.088C130.866 85.6107 130.354 86.0107 129.703 86.288Z" fill="#141414"/>
<path d="M3.584 107.76C2.56 107.76 1.75467 107.301 1.168 106.384C0.592 105.456 0.304 104.139 0.304 102.432C0.304 100.715 0.592 99.408 1.168 98.512C1.75467 97.616 2.56 97.168 3.584 97.168C4.59733 97.168 5.392 97.616 5.968 98.512C6.55467 99.408 6.848 100.715 6.848 102.432C6.848 104.139 6.55467 105.456 5.968 106.384C5.392 107.301 4.59733 107.76 3.584 107.76ZM3.584 106.704C4.18133 106.704 4.66133 106.368 5.024 105.696C5.38667 105.013 5.568 103.925 5.568 102.432C5.568 100.939 5.38667 99.8667 5.024 99.216C4.66133 98.5547 4.18133 98.224 3.584 98.224C2.98667 98.224 2.50133 98.5547 2.128 99.216C1.76533 99.8667 1.584 100.939 1.584 102.432C1.584 103.925 1.76533 105.013 2.128 105.696C2.50133 106.368 2.98667 106.704 3.584 106.704Z" fill="#141414"/>
<path d="M8.19313 107.568V106.784C9.21713 105.76 10.0865 104.864 10.8011 104.096C11.5158 103.317 12.0598 102.619 12.4331 102C12.8065 101.371 12.9931 100.784 12.9931 100.24C12.9931 99.6533 12.8331 99.1733 12.5131 98.8C12.1931 98.4267 11.7078 98.24 11.0571 98.24C10.6305 98.24 10.2358 98.3627 9.87313 98.608C9.51046 98.8427 9.17979 99.1307 8.88113 99.472L8.12913 98.72C8.55579 98.2507 9.00912 97.8773 9.48913 97.6C9.97979 97.312 10.5558 97.168 11.2171 97.168C12.1665 97.168 12.9131 97.4453 13.4571 98C14.0011 98.544 14.2731 99.2693 14.2731 100.176C14.2731 100.816 14.0918 101.467 13.7291 102.128C13.3771 102.779 12.8865 103.467 12.2571 104.192C11.6385 104.907 10.9238 105.685 10.1131 106.528C10.3905 106.507 10.6785 106.485 10.9771 106.464C11.2758 106.443 11.5585 106.432 11.8251 106.432H14.7851V107.568H8.19313Z" fill="#141414"/>
<path d="M16.1623 104.064V103.056H19.8423V104.064H16.1623Z" fill="#141414"/>
<path d="M21.115 107.568V106.784C22.139 105.76 23.0083 104.864 23.723 104.096C24.4377 103.317 24.9817 102.619 25.355 102C25.7283 101.371 25.915 100.784 25.915 100.24C25.915 99.6533 25.755 99.1733 25.435 98.8C25.115 98.4267 24.6297 98.24 23.979 98.24C23.5523 98.24 23.1577 98.3627 22.795 98.608C22.4323 98.8427 22.1017 99.1307 21.803 99.472L21.051 98.72C21.4777 98.2507 21.931 97.8773 22.411 97.6C22.9017 97.312 23.4777 97.168 24.139 97.168C25.0883 97.168 25.835 97.4453 26.379 98C26.923 98.544 27.195 99.2693 27.195 100.176C27.195 100.816 27.0137 101.467 26.651 102.128C26.299 102.779 25.8083 103.467 25.179 104.192C24.5603 104.907 23.8457 105.685 23.035 106.528C23.3123 106.507 23.6003 106.485 23.899 106.464C24.1977 106.443 24.4803 106.432 24.747 106.432H27.707V107.568H21.115Z" fill="#141414"/>
<path d="M32.1721 107.76C31.3615 107.76 30.6895 107.616 30.1561 107.328C29.6228 107.04 29.1801 106.72 28.8281 106.368L29.4681 105.504C29.7775 105.803 30.1348 106.075 30.5401 106.32C30.9455 106.555 31.4468 106.672 32.0441 106.672C32.6735 106.672 33.2015 106.464 33.6281 106.048C34.0655 105.621 34.2841 105.051 34.2841 104.336C34.2841 103.632 34.0868 103.083 33.6921 102.688C33.2975 102.293 32.7695 102.096 32.1081 102.096C31.7561 102.096 31.4521 102.149 31.1961 102.256C30.9508 102.363 30.6735 102.517 30.3641 102.72L29.6601 102.272L29.9961 97.36H35.1001V98.496H31.1481L30.8761 101.52C31.1215 101.392 31.3668 101.291 31.6121 101.216C31.8575 101.141 32.1348 101.104 32.4441 101.104C33.0308 101.104 33.5588 101.221 34.0281 101.456C34.5081 101.68 34.8921 102.027 35.1801 102.496C35.4681 102.965 35.6121 103.568 35.6121 104.304C35.6121 105.04 35.4468 105.669 35.1161 106.192C34.7961 106.704 34.3748 107.093 33.8521 107.36C33.3295 107.627 32.7695 107.76 32.1721 107.76Z" fill="#141414"/>
<path d="M40.1252 107.76C39.3146 107.76 38.6426 107.616 38.1092 107.328C37.5759 107.04 37.1333 106.72 36.7812 106.368L37.4212 105.504C37.7306 105.803 38.0879 106.075 38.4932 106.32C38.8986 106.555 39.3999 106.672 39.9972 106.672C40.6266 106.672 41.1546 106.464 41.5812 106.048C42.0186 105.621 42.2372 105.051 42.2372 104.336C42.2372 103.632 42.0399 103.083 41.6452 102.688C41.2506 102.293 40.7226 102.096 40.0612 102.096C39.7092 102.096 39.4053 102.149 39.1493 102.256C38.9039 102.363 38.6266 102.517 38.3172 102.72L37.6132 102.272L37.9492 97.36H43.0532V98.496H39.1012L38.8293 101.52C39.0746 101.392 39.3199 101.291 39.5653 101.216C39.8106 101.141 40.0879 101.104 40.3972 101.104C40.9839 101.104 41.5119 101.221 41.9812 101.456C42.4612 101.68 42.8452 102.027 43.1332 102.496C43.4212 102.965 43.5653 103.568 43.5653 104.304C43.5653 105.04 43.3999 105.669 43.0692 106.192C42.7492 106.704 42.3279 107.093 41.8052 107.36C41.2826 107.627 40.7226 107.76 40.1252 107.76Z" fill="#141414"/>
<path d="M50.1295 107.568L47.9055 97.072H49.2815L50.3855 102.784C50.4815 103.349 50.5828 103.915 50.6895 104.48C50.7962 105.045 50.8975 105.611 50.9935 106.176H51.0575C51.1748 105.611 51.2975 105.045 51.4255 104.48C51.5535 103.904 51.6762 103.339 51.7935 102.784L53.2495 97.072H54.4655L55.9215 102.784C56.0495 103.339 56.1775 103.904 56.3055 104.48C56.4335 105.045 56.5615 105.611 56.6895 106.176H56.7535C56.8495 105.611 56.9455 105.045 57.0415 104.48C57.1375 103.904 57.2388 103.339 57.3455 102.784L58.4495 97.072H59.7295L57.5535 107.568H55.9535L54.3695 101.248C54.2735 100.843 54.1828 100.448 54.0975 100.064C54.0228 99.6693 53.9428 99.2693 53.8575 98.864H53.7935C53.7188 99.2693 53.6335 99.6693 53.5375 100.064C53.4415 100.448 53.3508 100.843 53.2655 101.248L51.7135 107.568H50.1295Z" fill="#141414"/>
<path d="M62.9696 107.76C62.319 107.76 61.775 107.568 61.3376 107.184C60.911 106.789 60.6976 106.245 60.6976 105.552C60.6976 104.699 61.0763 104.048 61.8336 103.6C62.6016 103.141 63.8123 102.821 65.4656 102.64C65.4656 102.309 65.4176 101.995 65.3216 101.696C65.2363 101.397 65.0763 101.157 64.8416 100.976C64.6176 100.784 64.2923 100.688 63.8656 100.688C63.4176 100.688 62.9963 100.773 62.6016 100.944C62.207 101.115 61.855 101.307 61.5456 101.52L61.0336 100.608C61.3963 100.373 61.839 100.149 62.3616 99.936C62.895 99.712 63.471 99.6 64.0896 99.6C65.039 99.6 65.727 99.8933 66.1536 100.48C66.5803 101.056 66.7936 101.829 66.7936 102.8V107.568H65.7056L65.5936 106.64H65.5456C65.183 106.939 64.783 107.2 64.3456 107.424C63.919 107.648 63.4603 107.76 62.9696 107.76ZM63.3536 106.704C63.727 106.704 64.079 106.613 64.4096 106.432C64.7403 106.251 65.0923 105.995 65.4656 105.664V103.504C64.175 103.664 63.2683 103.904 62.7456 104.224C62.2336 104.544 61.9776 104.955 61.9776 105.456C61.9776 105.893 62.111 106.213 62.3776 106.416C62.6443 106.608 62.9696 106.704 63.3536 106.704Z" fill="#141414"/>
<path d="M69.2401 107.568V99.792H70.3281L70.4401 101.2H70.4881C70.7548 100.709 71.0801 100.32 71.4641 100.032C71.8481 99.744 72.2588 99.6 72.6961 99.6C73.0055 99.6 73.2828 99.6533 73.5281 99.76L73.2721 100.912C73.1441 100.869 73.0268 100.837 72.9201 100.816C72.8135 100.795 72.6801 100.784 72.5201 100.784C72.1895 100.784 71.8428 100.917 71.4801 101.184C71.1281 101.451 70.8188 101.915 70.5521 102.576V107.568H69.2401Z" fill="#141414"/>
<path d="M76.7565 107.76C76.2018 107.76 75.6738 107.659 75.1725 107.456C74.6712 107.243 74.2338 106.987 73.8605 106.688L74.5165 105.808C74.8578 106.075 75.2098 106.299 75.5725 106.48C75.9352 106.651 76.3458 106.736 76.8045 106.736C77.3165 106.736 77.7005 106.619 77.9565 106.384C78.2125 106.139 78.3405 105.851 78.3405 105.52C78.3405 105.253 78.2498 105.029 78.0685 104.848C77.8978 104.667 77.6738 104.517 77.3965 104.4C77.1298 104.272 76.8525 104.155 76.5645 104.048C76.2018 103.909 75.8445 103.755 75.4925 103.584C75.1405 103.403 74.8525 103.173 74.6285 102.896C74.4045 102.608 74.2925 102.245 74.2925 101.808C74.2925 101.179 74.5272 100.656 74.9965 100.24C75.4765 99.8133 76.1378 99.6 76.9805 99.6C77.4605 99.6 77.9085 99.6853 78.3245 99.856C78.7405 100.027 79.0978 100.235 79.3965 100.48L78.7565 101.312C78.4898 101.109 78.2125 100.944 77.9245 100.816C77.6365 100.688 77.3218 100.624 76.9805 100.624C76.4898 100.624 76.1272 100.736 75.8925 100.96C75.6685 101.184 75.5565 101.445 75.5565 101.744C75.5565 101.989 75.6365 102.192 75.7965 102.352C75.9565 102.501 76.1645 102.635 76.4205 102.752C76.6765 102.859 76.9485 102.971 77.2365 103.088C77.6098 103.227 77.9778 103.387 78.3405 103.568C78.7032 103.739 79.0018 103.973 79.2365 104.272C79.4818 104.56 79.6045 104.949 79.6045 105.44C79.6045 105.856 79.4925 106.24 79.2685 106.592C79.0552 106.944 78.7352 107.227 78.3085 107.44C77.8925 107.653 77.3752 107.76 76.7565 107.76Z" fill="#141414"/>
<path d="M80.6116 107.568V106.864L84.7076 100.864H81.0596V99.792H86.3716V100.496L82.2756 106.496H86.4996V107.568H80.6116Z" fill="#141414"/>
<path d="M89.6415 107.76C88.9908 107.76 88.4468 107.568 88.0095 107.184C87.5828 106.789 87.3695 106.245 87.3695 105.552C87.3695 104.699 87.7482 104.048 88.5055 103.6C89.2735 103.141 90.4842 102.821 92.1375 102.64C92.1375 102.309 92.0895 101.995 91.9935 101.696C91.9082 101.397 91.7482 101.157 91.5135 100.976C91.2895 100.784 90.9642 100.688 90.5375 100.688C90.0895 100.688 89.6682 100.773 89.2735 100.944C88.8788 101.115 88.5268 101.307 88.2175 101.52L87.7055 100.608C88.0682 100.373 88.5108 100.149 89.0335 99.936C89.5668 99.712 90.1428 99.6 90.7615 99.6C91.7108 99.6 92.3988 99.8933 92.8255 100.48C93.2522 101.056 93.4655 101.829 93.4655 102.8V107.568H92.3775L92.2655 106.64H92.2175C91.8548 106.939 91.4548 107.2 91.0175 107.424C90.5908 107.648 90.1322 107.76 89.6415 107.76ZM90.0255 106.704C90.3988 106.704 90.7508 106.613 91.0815 106.432C91.4122 106.251 91.7642 105.995 92.1375 105.664V103.504C90.8468 103.664 89.9402 103.904 89.4175 104.224C88.9055 104.544 88.6495 104.955 88.6495 105.456C88.6495 105.893 88.7828 106.213 89.0495 106.416C89.3162 106.608 89.6415 106.704 90.0255 106.704Z" fill="#141414"/>
<path d="M97.144 107.568L94.984 99.792H96.328L97.48 104.288C97.5653 104.651 97.6453 105.013 97.72 105.376C97.7947 105.728 97.8693 106.085 97.944 106.448H98.008C98.0933 106.085 98.1787 105.728 98.264 105.376C98.3493 105.013 98.44 104.651 98.536 104.288L99.736 99.792H101.016L102.232 104.288C102.328 104.651 102.419 105.013 102.504 105.376C102.6 105.728 102.691 106.085 102.776 106.448H102.84C102.925 106.085 103.005 105.728 103.08 105.376C103.165 105.013 103.245 104.651 103.32 104.288L104.456 99.792H105.704L103.624 107.568H102.024L100.904 103.392C100.808 103.019 100.717 102.651 100.632 102.288C100.557 101.925 100.472 101.547 100.376 101.152H100.312C100.227 101.547 100.141 101.931 100.056 102.304C99.9707 102.667 99.8747 103.035 99.768 103.408L98.68 107.568H97.144Z" fill="#141414"/>
<path d="M109.032 107.76C108.381 107.76 107.837 107.568 107.4 107.184C106.973 106.789 106.76 106.245 106.76 105.552C106.76 104.699 107.139 104.048 107.896 103.6C108.664 103.141 109.875 102.821 111.528 102.64C111.528 102.309 111.48 101.995 111.384 101.696C111.299 101.397 111.139 101.157 110.904 100.976C110.68 100.784 110.355 100.688 109.928 100.688C109.48 100.688 109.059 100.773 108.664 100.944C108.269 101.115 107.917 101.307 107.608 101.52L107.096 100.608C107.459 100.373 107.901 100.149 108.424 99.936C108.957 99.712 109.533 99.6 110.152 99.6C111.101 99.6 111.789 99.8933 112.216 100.48C112.643 101.056 112.856 101.829 112.856 102.8V107.568H111.768L111.656 106.64H111.608C111.245 106.939 110.845 107.2 110.408 107.424C109.981 107.648 109.523 107.76 109.032 107.76ZM109.416 106.704C109.789 106.704 110.141 106.613 110.472 106.432C110.803 106.251 111.155 105.995 111.528 105.664V103.504C110.237 103.664 109.331 103.904 108.808 104.224C108.296 104.544 108.04 104.955 108.04 105.456C108.04 105.893 108.173 106.213 108.44 106.416C108.707 106.608 109.032 106.704 109.416 106.704Z" fill="#141414"/>
<path d="M1.04 131.568V121.072H2.416L6.208 127.664L7.344 129.84H7.408C7.376 129.307 7.33867 128.757 7.296 128.192C7.264 127.616 7.248 127.051 7.248 126.496V121.072H8.512V131.568H7.136L3.328 124.96L2.192 122.8H2.128C2.17067 123.323 2.208 123.861 2.24 124.416C2.28267 124.971 2.304 125.525 2.304 126.08V131.568H1.04Z" fill="#141414"/>
<path d="M11.3994 131.568V121.072H12.7274V131.568H11.3994Z" fill="#141414"/>
<path d="M15.6025 131.568V121.072H18.5945C19.3838 121.072 20.0718 121.168 20.6585 121.36C21.2452 121.552 21.7038 121.877 22.0345 122.336C22.3652 122.784 22.5305 123.392 22.5305 124.16C22.5305 125.259 22.1732 126.075 21.4585 126.608C20.7438 127.141 19.8105 127.408 18.6585 127.408H16.9305V131.568H15.6025ZM16.9305 126.32H18.4985C19.4158 126.32 20.0932 126.149 20.5305 125.808C20.9785 125.456 21.2025 124.907 21.2025 124.16C21.2025 123.403 20.9678 122.88 20.4985 122.592C20.0398 122.293 19.3518 122.144 18.4345 122.144H16.9305V126.32Z" fill="#141414"/>
<path d="M25.225 125.984C24.9583 125.984 24.729 125.893 24.537 125.712C24.3557 125.52 24.265 125.28 24.265 124.992C24.265 124.683 24.3557 124.437 24.537 124.256C24.729 124.064 24.9583 123.968 25.225 123.968C25.481 123.968 25.6997 124.064 25.881 124.256C26.073 124.437 26.169 124.683 26.169 124.992C26.169 125.28 26.073 125.52 25.881 125.712C25.6997 125.893 25.481 125.984 25.225 125.984ZM25.225 131.76C24.9583 131.76 24.729 131.669 24.537 131.488C24.3557 131.296 24.265 131.056 24.265 130.768C24.265 130.459 24.3557 130.213 24.537 130.032C24.729 129.84 24.9583 129.744 25.225 129.744C25.481 129.744 25.6997 129.84 25.881 130.032C26.073 130.213 26.169 130.459 26.169 130.768C26.169 131.056 26.073 131.296 25.881 131.488C25.6997 131.669 25.481 131.76 25.225 131.76Z" fill="#141414"/>
<path d="M34.1565 131.76C33.3458 131.76 32.6738 131.616 32.1405 131.328C31.6072 131.04 31.1645 130.72 30.8125 130.368L31.4525 129.504C31.7618 129.803 32.1192 130.075 32.5245 130.32C32.9298 130.555 33.4312 130.672 34.0285 130.672C34.6578 130.672 35.1858 130.464 35.6125 130.048C36.0498 129.621 36.2685 129.051 36.2685 128.336C36.2685 127.632 36.0712 127.083 35.6765 126.688C35.2818 126.293 34.7538 126.096 34.0925 126.096C33.7405 126.096 33.4365 126.149 33.1805 126.256C32.9352 126.363 32.6578 126.517 32.3485 126.72L31.6445 126.272L31.9805 121.36H37.0845V122.496H33.1325L32.8605 125.52C33.1058 125.392 33.3512 125.291 33.5965 125.216C33.8418 125.141 34.1192 125.104 34.4285 125.104C35.0152 125.104 35.5432 125.221 36.0125 125.456C36.4925 125.68 36.8765 126.027 37.1645 126.496C37.4525 126.965 37.5965 127.568 37.5965 128.304C37.5965 129.04 37.4312 129.669 37.1005 130.192C36.7805 130.704 36.3592 131.093 35.8365 131.36C35.3138 131.627 34.7538 131.76 34.1565 131.76Z" fill="#141414"/>
<path d="M39.0056 131.568V130.784C40.0296 129.76 40.899 128.864 41.6136 128.096C42.3283 127.317 42.8723 126.619 43.2456 126C43.619 125.371 43.8056 124.784 43.8056 124.24C43.8056 123.653 43.6456 123.173 43.3256 122.8C43.0056 122.427 42.5203 122.24 41.8696 122.24C41.443 122.24 41.0483 122.363 40.6856 122.608C40.323 122.843 39.9923 123.131 39.6936 123.472L38.9416 122.72C39.3683 122.251 39.8216 121.877 40.3016 121.6C40.7923 121.312 41.3683 121.168 42.0296 121.168C42.979 121.168 43.7256 121.445 44.2696 122C44.8136 122.544 45.0856 123.269 45.0856 124.176C45.0856 124.816 44.9043 125.467 44.5416 126.128C44.1896 126.779 43.699 127.467 43.0696 128.192C42.451 128.907 41.7363 129.685 40.9256 130.528C41.203 130.507 41.491 130.485 41.7896 130.464C42.0883 130.443 42.371 130.432 42.6376 130.432H45.5976V131.568H39.0056Z" fill="#141414"/>
<path d="M46.9587 131.568V130.784C47.9827 129.76 48.8521 128.864 49.5667 128.096C50.2814 127.317 50.8254 126.619 51.1987 126C51.5721 125.371 51.7587 124.784 51.7587 124.24C51.7587 123.653 51.5987 123.173 51.2787 122.8C50.9587 122.427 50.4734 122.24 49.8228 122.24C49.3961 122.24 49.0014 122.363 48.6387 122.608C48.2761 122.843 47.9454 123.131 47.6467 123.472L46.8947 122.72C47.3214 122.251 47.7747 121.877 48.2547 121.6C48.7454 121.312 49.3214 121.168 49.9827 121.168C50.9321 121.168 51.6787 121.445 52.2227 122C52.7667 122.544 53.0387 123.269 53.0387 124.176C53.0387 124.816 52.8574 125.467 52.4947 126.128C52.1427 126.779 51.6521 127.467 51.0227 128.192C50.4041 128.907 49.6894 129.685 48.8787 130.528C49.1561 130.507 49.4441 130.485 49.7427 130.464C50.0414 130.443 50.3241 130.432 50.5907 130.432H53.5508V131.568H46.9587Z" fill="#141414"/>
<path d="M54.9279 128.064V127.056H58.6079V128.064H54.9279Z" fill="#141414"/>
<path d="M59.8806 131.568V130.784C60.9046 129.76 61.774 128.864 62.4886 128.096C63.2033 127.317 63.7473 126.619 64.1206 126C64.494 125.371 64.6806 124.784 64.6806 124.24C64.6806 123.653 64.5206 123.173 64.2006 122.8C63.8806 122.427 63.3953 122.24 62.7446 122.24C62.318 122.24 61.9233 122.363 61.5606 122.608C61.198 122.843 60.8673 123.131 60.5686 123.472L59.8166 122.72C60.2433 122.251 60.6966 121.877 61.1766 121.6C61.6673 121.312 62.2433 121.168 62.9046 121.168C63.854 121.168 64.6006 121.445 65.1446 122C65.6886 122.544 65.9606 123.269 65.9606 124.176C65.9606 124.816 65.7793 125.467 65.4166 126.128C65.0646 126.779 64.574 127.467 63.9446 128.192C63.326 128.907 62.6113 129.685 61.8006 130.528C62.078 130.507 62.366 130.485 62.6646 130.464C62.9633 130.443 63.246 130.432 63.5126 130.432H66.4726V131.568H59.8806Z" fill="#141414"/>
<path d="M69.0658 124.448C69.0658 125.109 69.2204 125.637 69.5297 126.032C69.8497 126.416 70.3244 126.608 70.9538 126.608C71.2951 126.608 71.6524 126.501 72.0257 126.288C72.4098 126.075 72.7671 125.728 73.0977 125.248C73.0124 124.256 72.7777 123.504 72.3937 122.992C72.0097 122.469 71.4924 122.208 70.8418 122.208C70.3511 122.208 69.9297 122.416 69.5778 122.832C69.2364 123.237 69.0658 123.776 69.0658 124.448ZM70.4737 131.76C69.9297 131.76 69.4497 131.659 69.0337 131.456C68.6284 131.243 68.2871 130.987 68.0098 130.688L68.7458 129.856C68.9591 130.101 69.2097 130.299 69.4977 130.448C69.7964 130.597 70.1058 130.672 70.4258 130.672C70.9058 130.672 71.3484 130.533 71.7537 130.256C72.1591 129.979 72.4844 129.52 72.7298 128.88C72.9857 128.24 73.1191 127.376 73.1297 126.288C72.8097 126.693 72.4364 127.013 72.0098 127.248C71.5831 127.483 71.1564 127.6 70.7298 127.6C69.8551 127.6 69.1511 127.339 68.6178 126.816C68.0951 126.283 67.8337 125.493 67.8337 124.448C67.8337 123.797 67.9724 123.227 68.2497 122.736C68.5271 122.245 68.8897 121.861 69.3377 121.584C69.7964 121.307 70.2978 121.168 70.8418 121.168C71.5137 121.168 72.1164 121.349 72.6497 121.712C73.1831 122.075 73.5991 122.619 73.8978 123.344C74.2071 124.069 74.3617 124.981 74.3617 126.08C74.3617 127.445 74.1751 128.544 73.8018 129.376C73.4391 130.208 72.9644 130.816 72.3777 131.2C71.7911 131.573 71.1564 131.76 70.4737 131.76Z" fill="#141414"/>
<path d="M76.4109 131.568V130.48H78.7469V122.96H76.8909V122.112C77.3602 122.027 77.7655 121.925 78.1069 121.808C78.4589 121.68 78.7735 121.531 79.0509 121.36H80.0589V130.48H82.1709V131.568H76.4109Z" fill="#141414"/>
<path d="M83.756 128.064V127.056H87.436V128.064H83.756Z" fill="#141414"/>
<path d="M90.9007 131.568C90.9648 130.288 91.0981 129.141 91.3008 128.128C91.5141 127.104 91.8234 126.144 92.2288 125.248C92.6448 124.341 93.1888 123.424 93.8607 122.496H88.7728V121.36H95.3487V122.176C94.7407 122.944 94.2448 123.685 93.8607 124.4C93.4767 125.104 93.1781 125.819 92.9648 126.544C92.7514 127.259 92.5914 128.027 92.4847 128.848C92.3781 129.669 92.3034 130.576 92.2607 131.568H90.9007Z" fill="#141414"/>
<path d="M96.6619 131.568V130.784C97.6859 129.76 98.5552 128.864 99.2699 128.096C99.9845 127.317 100.529 126.619 100.902 126C101.275 125.371 101.462 124.784 101.462 124.24C101.462 123.653 101.302 123.173 100.982 122.8C100.662 122.427 100.177 122.24 99.5259 122.24C99.0992 122.24 98.7045 122.363 98.3419 122.608C97.9792 122.843 97.6485 123.131 97.3499 123.472L96.5979 122.72C97.0245 122.251 97.4779 121.877 97.9579 121.6C98.4485 121.312 99.0245 121.168 99.6859 121.168C100.635 121.168 101.382 121.445 101.926 122C102.47 122.544 102.742 123.269 102.742 124.176C102.742 124.816 102.561 125.467 102.198 126.128C101.846 126.779 101.355 127.467 100.726 128.192C100.107 128.907 99.3925 129.685 98.5819 130.528C98.8592 130.507 99.1472 130.485 99.4459 130.464C99.7445 130.443 100.027 130.432 100.294 130.432H103.254V131.568H96.6619Z" fill="#141414"/>
<path d="M104.631 128.064V127.056H108.311V128.064H104.631Z" fill="#141414"/>
<path d="M110.208 131.568V130.48H112.544V122.96H110.688V122.112C111.157 122.027 111.562 121.925 111.904 121.808C112.256 121.68 112.57 121.531 112.848 121.36H113.856V130.48H115.968V131.568H110.208Z" fill="#141414"/>
<path d="M120.881 131.76C119.857 131.76 119.052 131.301 118.465 130.384C117.889 129.456 117.601 128.139 117.601 126.432C117.601 124.715 117.889 123.408 118.465 122.512C119.052 121.616 119.857 121.168 120.881 121.168C121.894 121.168 122.689 121.616 123.265 122.512C123.852 123.408 124.145 124.715 124.145 126.432C124.145 128.139 123.852 129.456 123.265 130.384C122.689 131.301 121.894 131.76 120.881 131.76ZM120.881 130.704C121.478 130.704 121.958 130.368 122.321 129.696C122.684 129.013 122.865 127.925 122.865 126.432C122.865 124.939 122.684 123.867 122.321 123.216C121.958 122.555 121.478 122.224 120.881 122.224C120.284 122.224 119.798 122.555 119.425 123.216C119.062 123.867 118.881 124.939 118.881 126.432C118.881 127.925 119.062 129.013 119.425 129.696C119.798 130.368 120.284 130.704 120.881 130.704Z" fill="#141414"/>
<path d="M1.04 155.568V145.072H4.32C5.03467 145.072 5.66933 145.168 6.224 145.36C6.77867 145.541 7.21067 145.851 7.52 146.288C7.84 146.715 8 147.291 8 148.016C8 148.827 7.78667 149.483 7.36 149.984C6.93333 150.475 6.35733 150.811 5.632 150.992L8.304 155.568H6.8L4.272 151.136H2.368V155.568H1.04ZM2.368 150.048H4.128C4.94933 150.048 5.57867 149.883 6.016 149.552C6.45333 149.211 6.672 148.699 6.672 148.016C6.672 147.323 6.45333 146.837 6.016 146.56C5.57867 146.283 4.94933 146.144 4.128 146.144H2.368V150.048Z" fill="#141414"/>
<path d="M10.1494 155.568V145.072H16.1974V146.192H11.4774V149.488H15.4614V150.624H11.4774V154.432H16.3574V155.568H10.1494Z" fill="#141414"/>
<path d="M22.7149 155.76C21.7975 155.76 20.9815 155.547 20.2669 155.12C19.5522 154.683 18.9922 154.059 18.5869 153.248C18.1815 152.437 17.9789 151.461 17.9789 150.32C17.9789 149.189 18.1869 148.219 18.6029 147.408C19.0189 146.597 19.5895 145.973 20.3149 145.536C21.0402 145.099 21.8669 144.88 22.7949 144.88C23.5202 144.88 24.1282 145.019 24.6189 145.296C25.1202 145.563 25.5202 145.856 25.8189 146.176L25.0829 147.04C24.8162 146.763 24.5069 146.528 24.1549 146.336C23.8029 146.144 23.3602 146.048 22.8269 146.048C22.1229 146.048 21.5095 146.224 20.9869 146.576C20.4642 146.917 20.0589 147.403 19.7709 148.032C19.4935 148.661 19.3549 149.413 19.3549 150.288C19.3549 151.611 19.6535 152.661 20.2509 153.44C20.8589 154.208 21.7229 154.592 22.8429 154.592C23.2162 154.592 23.5735 154.539 23.9149 154.432C24.2562 154.315 24.5282 154.16 24.7309 153.968V151.232H22.5069V150.128H25.9469V154.544C25.6162 154.896 25.1682 155.189 24.6029 155.424C24.0482 155.648 23.4189 155.76 22.7149 155.76Z" fill="#141414"/>
<path d="M32.3339 155.76C31.4592 155.76 30.6805 155.536 29.9979 155.088C29.3259 154.64 28.7979 154.005 28.4139 153.184C28.0405 152.363 27.8539 151.392 27.8539 150.272C27.8539 149.152 28.0405 148.192 28.4139 147.392C28.7979 146.581 29.3259 145.963 29.9979 145.536C30.6805 145.099 31.4592 144.88 32.3339 144.88C33.2192 144.88 33.9979 145.099 34.6699 145.536C35.3419 145.963 35.8699 146.581 36.2539 147.392C36.6379 148.192 36.8299 149.152 36.8299 150.272C36.8299 151.392 36.6379 152.363 36.2539 153.184C35.8699 154.005 35.3419 154.64 34.6699 155.088C33.9979 155.536 33.2192 155.76 32.3339 155.76ZM32.3339 154.592C32.9632 154.592 33.5072 154.416 33.9659 154.064C34.4352 153.701 34.7979 153.2 35.0539 152.56C35.3099 151.909 35.4379 151.147 35.4379 150.272C35.4379 148.971 35.1552 147.941 34.5899 147.184C34.0245 146.427 33.2725 146.048 32.3339 146.048C31.3952 146.048 30.6432 146.427 30.0779 147.184C29.5125 147.941 29.2299 148.971 29.2299 150.272C29.2299 151.147 29.3579 151.909 29.6139 152.56C29.8699 153.2 30.2325 153.701 30.7019 154.064C31.1712 154.416 31.7152 154.592 32.3339 154.592Z" fill="#141414"/>
<path d="M39.0869 155.568V145.072H40.4629L44.2549 151.664L45.3909 153.84H45.4549C45.4229 153.307 45.3855 152.757 45.3429 152.192C45.3109 151.616 45.2949 151.051 45.2949 150.496V145.072H46.5589V155.568H45.1829L41.3749 148.96L40.2389 146.8H40.1749C40.2175 147.323 40.2549 147.861 40.2869 148.416C40.3295 148.971 40.3509 149.525 40.3509 150.08V155.568H39.0869Z" fill="#141414"/>
<path d="M50.0062 149.984C49.7396 149.984 49.5103 149.893 49.3182 149.712C49.1369 149.52 49.0462 149.28 49.0462 148.992C49.0462 148.683 49.1369 148.437 49.3182 148.256C49.5103 148.064 49.7396 147.968 50.0062 147.968C50.2622 147.968 50.4809 148.064 50.6622 148.256C50.8542 148.437 50.9502 148.683 50.9502 148.992C50.9502 149.28 50.8542 149.52 50.6622 149.712C50.4809 149.893 50.2622 149.984 50.0062 149.984ZM50.0062 155.76C49.7396 155.76 49.5103 155.669 49.3182 155.488C49.1369 155.296 49.0462 155.056 49.0462 154.768C49.0462 154.459 49.1369 154.213 49.3182 154.032C49.5103 153.84 49.7396 153.744 50.0062 153.744C50.2622 153.744 50.4809 153.84 50.6622 154.032C50.8542 154.213 50.9502 154.459 50.9502 154.768C50.9502 155.056 50.8542 155.296 50.6622 155.488C50.4809 155.669 50.2622 155.76 50.0062 155.76Z" fill="#141414"/>
<path d="M56.4577 155.568V154.48H58.7937V146.96H56.9377V146.112C57.4071 146.027 57.8124 145.925 58.1537 145.808C58.5057 145.68 58.8204 145.531 59.0977 145.36H60.1057V154.48H62.2178V155.568H56.4577Z" fill="#141414"/>
<path d="M64.8109 151.696H68.0109V148.736C68.0109 148.459 68.0215 148.128 68.0429 147.744C68.0642 147.36 68.0802 147.035 68.0909 146.768H68.0269C67.8989 147.013 67.7655 147.253 67.6269 147.488C67.4882 147.723 67.3442 147.963 67.1949 148.208L64.8109 151.696ZM68.0109 155.568V152.752H63.4189V151.888L67.7869 145.36H69.2589V151.696H70.6509V152.752H69.2589V155.568H68.0109Z" fill="#141414"/>
<path d="M72.364 155.568V154.48H74.7V146.96H72.844V146.112C73.3133 146.027 73.7187 145.925 74.06 145.808C74.412 145.68 74.7267 145.531 75.004 145.36H76.012V154.48H78.124V155.568H72.364Z" fill="#141414"/>
<path d="M83.0531 155.76C82.4131 155.76 81.8425 155.643 81.3411 155.408C80.8398 155.163 80.4398 154.827 80.1411 154.4C79.8531 153.973 79.7091 153.493 79.7091 152.96C79.7091 152.512 79.7998 152.117 79.9811 151.776C80.1731 151.424 80.4131 151.12 80.7011 150.864C80.9998 150.597 81.3091 150.379 81.6291 150.208V150.144C81.2558 149.877 80.9251 149.552 80.6371 149.168C80.3491 148.784 80.2051 148.325 80.2051 147.792C80.2051 147.269 80.3331 146.811 80.5891 146.416C80.8451 146.021 81.1918 145.717 81.6291 145.504C82.0665 145.28 82.5571 145.168 83.1011 145.168C83.9865 145.168 84.6851 145.424 85.1971 145.936C85.7198 146.448 85.9811 147.099 85.9811 147.888C85.9811 148.24 85.9065 148.576 85.7571 148.896C85.6078 149.205 85.4265 149.488 85.2131 149.744C84.9998 149.989 84.7865 150.192 84.5731 150.352V150.416C84.8825 150.587 85.1705 150.789 85.4371 151.024C85.7038 151.259 85.9225 151.541 86.0931 151.872C86.2638 152.192 86.3491 152.581 86.3491 153.04C86.3491 153.541 86.2105 154 85.9331 154.416C85.6665 154.832 85.2825 155.163 84.7811 155.408C84.2905 155.643 83.7145 155.76 83.0531 155.76ZM83.7731 150C84.1145 149.691 84.3758 149.365 84.5571 149.024C84.7491 148.683 84.8451 148.325 84.8451 147.952C84.8451 147.451 84.6905 147.024 84.3811 146.672C84.0718 146.32 83.6345 146.144 83.0691 146.144C82.5998 146.144 82.2051 146.293 81.8851 146.592C81.5758 146.891 81.4211 147.291 81.4211 147.792C81.4211 148.197 81.5278 148.533 81.7411 148.8C81.9651 149.067 82.2585 149.296 82.6211 149.488C82.9838 149.669 83.3678 149.84 83.7731 150ZM83.0851 154.784C83.6825 154.784 84.1625 154.619 84.5251 154.288C84.8985 153.947 85.0851 153.515 85.0851 152.992C85.0851 152.555 84.9571 152.197 84.7011 151.92C84.4451 151.643 84.1038 151.403 83.6771 151.2C83.2611 150.997 82.8078 150.8 82.3171 150.608C81.9118 150.875 81.5705 151.195 81.2931 151.568C81.0265 151.941 80.8931 152.363 80.8931 152.832C80.8931 153.397 81.1011 153.867 81.5171 154.24C81.9438 154.603 82.4665 154.784 83.0851 154.784Z" fill="#141414"/>
<path d="M88.2702 155.568V154.48H90.6062V146.96H88.7503V146.112C89.2196 146.027 89.6249 145.925 89.9662 145.808C90.3182 145.68 90.6329 145.531 90.9102 145.36H91.9183V154.48H94.0303V155.568H88.2702Z" fill="#141414"/>
<path d="M97.7914 155.568C97.8554 154.288 97.9887 153.141 98.1914 152.128C98.4047 151.104 98.714 150.144 99.1194 149.248C99.5354 148.341 100.079 147.424 100.751 146.496H95.6634V145.36H102.239V146.176C101.631 146.944 101.135 147.685 100.751 148.4C100.367 149.104 100.069 149.819 99.8554 150.544C99.642 151.259 99.482 152.027 99.3754 152.848C99.2687 153.669 99.194 154.576 99.1514 155.568H97.7914Z" fill="#141414"/>
<path d="M106.912 155.76C106.272 155.76 105.702 155.643 105.201 155.408C104.699 155.163 104.299 154.827 104 154.4C103.712 153.973 103.568 153.493 103.568 152.96C103.568 152.512 103.659 152.117 103.84 151.776C104.033 151.424 104.272 151.12 104.561 150.864C104.859 150.597 105.169 150.379 105.489 150.208V150.144C105.115 149.877 104.785 149.552 104.496 149.168C104.208 148.784 104.064 148.325 104.064 147.792C104.064 147.269 104.193 146.811 104.449 146.416C104.704 146.021 105.051 145.717 105.489 145.504C105.926 145.28 106.417 145.168 106.961 145.168C107.846 145.168 108.544 145.424 109.056 145.936C109.579 146.448 109.84 147.099 109.84 147.888C109.84 148.24 109.766 148.576 109.617 148.896C109.467 149.205 109.286 149.488 109.073 149.744C108.859 149.989 108.646 150.192 108.433 150.352V150.416C108.742 150.587 109.03 150.789 109.297 151.024C109.563 151.259 109.782 151.541 109.952 151.872C110.123 152.192 110.208 152.581 110.208 153.04C110.208 153.541 110.07 154 109.792 154.416C109.526 154.832 109.142 155.163 108.64 155.408C108.15 155.643 107.574 155.76 106.912 155.76ZM107.632 150C107.974 149.691 108.235 149.365 108.416 149.024C108.608 148.683 108.704 148.325 108.704 147.952C108.704 147.451 108.55 147.024 108.241 146.672C107.931 146.32 107.494 146.144 106.928 146.144C106.459 146.144 106.064 146.293 105.744 146.592C105.435 146.891 105.28 147.291 105.28 147.792C105.28 148.197 105.387 148.533 105.601 148.8C105.825 149.067 106.118 149.296 106.48 149.488C106.843 149.669 107.227 149.84 107.632 150ZM106.944 154.784C107.542 154.784 108.022 154.619 108.384 154.288C108.758 153.947 108.944 153.515 108.944 152.992C108.944 152.555 108.816 152.197 108.561 151.92C108.305 151.643 107.963 151.403 107.536 151.2C107.12 150.997 106.667 150.8 106.176 150.608C105.771 150.875 105.43 151.195 105.152 151.568C104.886 151.941 104.752 152.363 104.752 152.832C104.752 153.397 104.96 153.867 105.376 154.24C105.803 154.603 106.326 154.784 106.944 154.784Z" fill="#141414"/>
<path d="M114.866 155.76C114.226 155.76 113.655 155.643 113.154 155.408C112.652 155.163 112.252 154.827 111.954 154.4C111.666 153.973 111.522 153.493 111.522 152.96C111.522 152.512 111.612 152.117 111.794 151.776C111.986 151.424 112.226 151.12 112.514 150.864C112.812 150.597 113.122 150.379 113.442 150.208V150.144C113.068 149.877 112.738 149.552 112.45 149.168C112.162 148.784 112.018 148.325 112.018 147.792C112.018 147.269 112.146 146.811 112.402 146.416C112.658 146.021 113.004 145.717 113.442 145.504C113.879 145.28 114.37 145.168 114.914 145.168C115.799 145.168 116.498 145.424 117.01 145.936C117.532 146.448 117.794 147.099 117.794 147.888C117.794 148.24 117.719 148.576 117.57 148.896C117.42 149.205 117.239 149.488 117.026 149.744C116.812 149.989 116.599 150.192 116.386 150.352V150.416C116.695 150.587 116.983 150.789 117.25 151.024C117.516 151.259 117.735 151.541 117.906 151.872C118.076 152.192 118.162 152.581 118.162 153.04C118.162 153.541 118.023 154 117.746 154.416C117.479 154.832 117.095 155.163 116.594 155.408C116.103 155.643 115.527 155.76 114.866 155.76ZM115.586 150C115.927 149.691 116.188 149.365 116.37 149.024C116.562 148.683 116.658 148.325 116.658 147.952C116.658 147.451 116.503 147.024 116.194 146.672C115.884 146.32 115.447 146.144 114.882 146.144C114.412 146.144 114.018 146.293 113.698 146.592C113.388 146.891 113.234 147.291 113.234 147.792C113.234 148.197 113.34 148.533 113.554 148.8C113.778 149.067 114.071 149.296 114.434 149.488C114.796 149.669 115.18 149.84 115.586 150ZM114.898 154.784C115.495 154.784 115.975 154.619 116.338 154.288C116.711 153.947 116.898 153.515 116.898 152.992C116.898 152.555 116.77 152.197 116.514 151.92C116.258 151.643 115.916 151.403 115.49 151.2C115.074 150.997 114.62 150.8 114.13 150.608C113.724 150.875 113.383 151.195 113.106 151.568C112.839 151.941 112.706 152.363 112.706 152.832C112.706 153.397 112.914 153.867 113.33 154.24C113.756 154.603 114.279 154.784 114.898 154.784Z" fill="#141414"/>
<path d="M120.483 151.696H123.683V148.736C123.683 148.459 123.693 148.128 123.715 147.744C123.736 147.36 123.752 147.035 123.763 146.768H123.699C123.571 147.013 123.437 147.253 123.299 147.488C123.16 147.723 123.016 147.963 122.867 148.208L120.483 151.696ZM123.683 155.568V152.752H119.091V151.888L123.459 145.36H124.931V151.696H126.323V152.752H124.931V155.568H123.683Z" fill="#141414"/>
</svg>
