<svg width="42" height="42" viewBox="0 0 42 42" fill="none" xmlns="http://www.w3.org/2000/svg">
<path d="M0.170776 21.0041C0.1732 31.2528 7.62578 39.9791 17.7479 41.5853V27.0249H12.4624V21.0041H17.7541V16.4207C17.5176 14.2489 18.2594 12.0845 19.7784 10.5143C21.2974 8.9442 23.4361 8.13117 25.6145 8.29572C27.1781 8.32097 28.7378 8.46023 30.2812 8.71239V13.8353H27.6479C26.7413 13.7166 25.8298 14.016 25.1703 14.6492C24.5107 15.2824 24.1745 16.1809 24.2562 17.0916V21.0041H30.0291L29.1062 27.027H24.2562V41.5853C35.203 39.8553 42.8793 29.8578 41.7239 18.8355C40.5685 7.81316 30.986 -0.375259 19.9183 0.202344C8.8507 0.779947 0.172536 9.92136 0.170776 21.0041Z" fill="#D94D2C"/>
</svg>
