<svg width="38" height="38" viewBox="0 0 38 38" fill="none" xmlns="http://www.w3.org/2000/svg">
<path d="M19.0042 37.8355C13.8792 37.8355 13.275 37.8084 11.275 37.7209C9.71534 37.6696 8.17589 37.3526 6.7229 36.7834C4.20897 35.8051 2.22111 33.8165 1.24373 31.3022C0.696455 29.8439 0.401271 28.3032 0.370817 26.7459C0.25415 24.7501 0.25415 24.0959 0.25415 19.0105C0.25415 13.8709 0.281234 13.2709 0.370817 11.2813C0.401937 9.72617 0.697111 8.1876 1.24373 6.73133C2.22005 4.21368 4.21113 2.22336 6.72915 1.248C8.18466 0.69842 9.72362 0.402465 11.2792 0.372998C13.2687 0.260498 13.9229 0.260498 19.0042 0.260498C24.1708 0.260498 24.7646 0.287581 26.7333 0.372998C28.2929 0.40272 29.8359 0.698643 31.2958 1.248C33.8131 2.22446 35.8038 4.21441 36.7812 6.73133C37.3377 8.20882 37.6345 9.77144 37.6583 11.3501C37.775 13.3459 37.775 13.998 37.775 19.0813C37.775 24.1647 37.7458 24.8313 37.6583 26.8042C37.6273 28.363 37.3314 29.9051 36.7833 31.3647C35.8034 33.8807 33.8126 35.87 31.2958 36.848C29.838 37.3942 28.2981 37.6894 26.7417 37.7209C24.7521 37.8355 24.1 37.8355 19.0042 37.8355ZM18.9333 3.55841C13.8375 3.55841 13.3083 3.58341 11.3187 3.673C10.1312 3.68873 8.95515 3.90787 7.84165 4.32091C6.19739 4.9501 4.89629 6.2459 4.2604 7.88758C3.84418 9.0132 3.625 10.2021 3.61248 11.4022C3.50207 13.4209 3.50207 13.9501 3.50207 19.0105C3.50207 24.0105 3.52082 24.6167 3.61248 26.623C3.63113 27.8109 3.85018 28.9872 4.2604 30.1022C4.89723 31.7428 6.1981 33.0376 7.84165 33.6668C8.95439 34.0825 10.1309 34.3018 11.3187 34.3147C13.3354 34.4313 13.8667 34.4313 18.9333 34.4313C24.0437 34.4313 24.5729 34.4063 26.5458 34.3147C27.7342 34.3002 28.9111 34.081 30.025 33.6668C31.6593 33.0321 32.9519 31.7403 33.5875 30.1063C34.0029 28.9798 34.222 27.7903 34.2354 26.5897H34.2583C34.3479 24.598 34.3479 24.0667 34.3479 18.9772C34.3479 13.8876 34.325 13.3522 34.2354 11.3626C34.2167 10.176 33.9977 9.00115 33.5875 7.88758C32.9534 6.25127 31.6606 4.95694 30.025 4.32091C28.9113 3.90579 27.7342 3.68658 26.5458 3.673C24.5312 3.55841 24.0042 3.55841 18.9333 3.55841ZM19.0042 28.6334C15.1083 28.6359 11.5946 26.2912 10.1018 22.6927C8.60896 19.0942 9.43104 14.9508 12.1846 12.1948C14.9382 9.43881 19.0809 8.61314 22.6807 10.1029C26.2805 11.5926 28.6283 15.1042 28.6292 19.0001C28.6234 24.3148 24.3189 28.6231 19.0042 28.6334ZM19.0042 12.7459C15.5524 12.7459 12.7542 15.5441 12.7542 18.9959C12.7542 22.4477 15.5524 25.2459 19.0042 25.2459C22.4559 25.2459 25.2542 22.4477 25.2542 18.9959C25.2461 15.5475 22.4526 12.7539 19.0042 12.7459ZM29.0042 11.2605C27.7655 11.2559 26.7644 10.2492 26.7667 9.01052C26.769 7.77181 27.7738 6.76885 29.0125 6.76885C30.2512 6.76885 31.256 7.77179 31.2583 9.0105C31.2589 9.60813 31.0214 10.1814 30.5984 10.6036C30.1755 11.0258 29.6018 11.2622 29.0042 11.2605Z" fill="#D94D2C"/>
</svg>
