<svg width="607" height="15" viewBox="0 0 607 15" fill="none" xmlns="http://www.w3.org/2000/svg">
<path d="M4.64803 11.1679C3.88269 11.1679 3.20136 10.9719 2.60403 10.5799C2.01603 10.1879 1.55403 9.63258 1.21803 8.91392C0.891361 8.19525 0.728027 7.34592 0.728027 6.36592C0.728027 5.38592 0.891361 4.54592 1.21803 3.84592C1.55403 3.13658 2.01603 2.59525 2.60403 2.22192C3.20136 1.83925 3.88269 1.64792 4.64803 1.64792C5.42269 1.64792 6.10403 1.83925 6.69203 2.22192C7.28003 2.59525 7.74203 3.13658 8.07803 3.84592C8.41403 4.54592 8.58203 5.38592 8.58203 6.36592C8.58203 7.34592 8.41403 8.19525 8.07803 8.91392C7.74203 9.63258 7.28003 10.1879 6.69203 10.5799C6.10403 10.9719 5.42269 11.1679 4.64803 11.1679ZM4.64803 10.1459C5.19869 10.1459 5.67469 9.99192 6.07603 9.68392C6.48669 9.36658 6.80403 8.92792 7.02803 8.36792C7.25203 7.79858 7.36403 7.13125 7.36403 6.36592C7.36403 5.22725 7.11669 4.32658 6.62203 3.66392C6.12736 3.00125 5.46936 2.66992 4.64803 2.66992C3.82669 2.66992 3.16869 3.00125 2.67403 3.66392C2.17936 4.32658 1.93203 5.22725 1.93203 6.36592C1.93203 7.13125 2.04403 7.79858 2.26803 8.36792C2.49203 8.92792 2.80936 9.36658 3.22003 9.68392C3.63069 9.99192 4.10669 10.1459 4.64803 10.1459Z" fill="#141414"/>
<path d="M12.2229 11.1679C11.7376 11.1679 11.2756 11.0793 10.8369 10.9019C10.3982 10.7153 10.0156 10.4913 9.6889 10.2299L10.2629 9.45992C10.5616 9.69325 10.8696 9.88925 11.1869 10.0479C11.5042 10.1973 11.8636 10.2719 12.2649 10.2719C12.7129 10.2719 13.0489 10.1693 13.2729 9.96392C13.4969 9.74925 13.6089 9.49725 13.6089 9.20792C13.6089 8.97458 13.5296 8.77858 13.3709 8.61992C13.2216 8.46125 13.0256 8.33058 12.7829 8.22792C12.5496 8.11592 12.3069 8.01325 12.0549 7.91992C11.7376 7.79858 11.4249 7.66325 11.1169 7.51392C10.8089 7.35525 10.5569 7.15458 10.3609 6.91192C10.1649 6.65992 10.0669 6.34258 10.0669 5.95992C10.0669 5.40925 10.2722 4.95192 10.6829 4.58792C11.1029 4.21458 11.6816 4.02792 12.4189 4.02792C12.8389 4.02792 13.2309 4.10258 13.5949 4.25192C13.9589 4.40125 14.2716 4.58325 14.5329 4.79792L13.9729 5.52592C13.7396 5.34858 13.4969 5.20392 13.2449 5.09192C12.9929 4.97992 12.7176 4.92392 12.4189 4.92392C11.9896 4.92392 11.6722 5.02192 11.4669 5.21792C11.2709 5.41392 11.1729 5.64258 11.1729 5.90392C11.1729 6.11858 11.2429 6.29592 11.3829 6.43592C11.5229 6.56658 11.7049 6.68325 11.9289 6.78592C12.1529 6.87925 12.3909 6.97725 12.6429 7.07992C12.9696 7.20125 13.2916 7.34125 13.6089 7.49992C13.9262 7.64925 14.1876 7.85458 14.3929 8.11592C14.6076 8.36792 14.7149 8.70858 14.7149 9.13792C14.7149 9.50192 14.6169 9.83792 14.4209 10.1459C14.2342 10.4539 13.9542 10.7013 13.5809 10.8879C13.2169 11.0746 12.7642 11.1679 12.2229 11.1679ZM12.1109 2.97792L11.5229 2.40392L13.4969 0.065918L14.3089 0.835918L12.1109 2.97792Z" fill="#141414"/>
<path d="M17.3881 10.9999L15.4981 4.19592H16.6741L17.6821 8.12992C17.7568 8.44725 17.8268 8.76458 17.8921 9.08192C17.9575 9.38992 18.0228 9.70259 18.0881 10.0199H18.1441C18.2188 9.70259 18.2935 9.38992 18.3681 9.08192C18.4428 8.76458 18.5221 8.44725 18.6061 8.12992L19.6561 4.19592H20.7761L21.8401 8.12992C21.9241 8.44725 22.0035 8.76458 22.0781 9.08192C22.1621 9.38992 22.2415 9.70259 22.3161 10.0199H22.3721C22.4468 9.70259 22.5168 9.38992 22.5821 9.08192C22.6568 8.76458 22.7268 8.44725 22.7921 8.12992L23.7861 4.19592H24.8781L23.0581 10.9999H21.6581L20.6781 7.34592C20.5941 7.01925 20.5148 6.69725 20.4401 6.37992C20.3748 6.06258 20.3001 5.73125 20.2161 5.38592H20.1601C20.0855 5.73125 20.0108 6.06725 19.9361 6.39392C19.8615 6.71125 19.7775 7.03325 19.6841 7.35992L18.7321 10.9999H17.3881Z" fill="#141414"/>
<path d="M26.359 10.9999V4.19592H27.507V10.9999H26.359ZM26.947 2.79592C26.723 2.79592 26.5363 2.73058 26.387 2.59992C26.247 2.45992 26.177 2.27325 26.177 2.03992C26.177 1.81592 26.247 1.63392 26.387 1.49392C26.5363 1.35392 26.723 1.28392 26.947 1.28392C27.171 1.28392 27.353 1.35392 27.493 1.49392C27.6423 1.63392 27.717 1.81592 27.717 2.03992C27.717 2.27325 27.6423 2.45992 27.493 2.59992C27.353 2.73058 27.171 2.79592 26.947 2.79592Z" fill="#141414"/>
<path d="M31.3723 11.1679C30.8029 11.1679 30.3269 10.9999 29.9443 10.6639C29.5709 10.3186 29.3843 9.84258 29.3843 9.23592C29.3843 8.48925 29.7156 7.91992 30.3783 7.52792C31.0503 7.12658 32.1096 6.84658 33.5563 6.68792C33.5563 6.39858 33.5143 6.12325 33.4303 5.86192C33.3556 5.60058 33.2156 5.39058 33.0103 5.23192C32.8143 5.06392 32.5296 4.97992 32.1563 4.97992C31.7643 4.97992 31.3956 5.05458 31.0503 5.20392C30.7049 5.35325 30.3969 5.52125 30.1263 5.70792L29.6783 4.90992C29.9956 4.70458 30.3829 4.50858 30.8403 4.32192C31.3069 4.12592 31.8109 4.02792 32.3523 4.02792C33.1829 4.02792 33.7849 4.28458 34.1583 4.79792C34.5316 5.30192 34.7183 5.97858 34.7183 6.82792V10.9999H33.7663L33.6683 10.1879H33.6263C33.3089 10.4493 32.9589 10.6779 32.5763 10.8739C32.2029 11.0699 31.8016 11.1679 31.3723 11.1679ZM31.7083 10.2439C32.0349 10.2439 32.3429 10.1646 32.6323 10.0059C32.9216 9.84725 33.2296 9.62325 33.5563 9.33392V7.44392C32.4269 7.58392 31.6336 7.79392 31.1763 8.07392C30.7283 8.35392 30.5043 8.71325 30.5043 9.15192C30.5043 9.53458 30.6209 9.81458 30.8543 9.99192C31.0876 10.1599 31.3723 10.2439 31.7083 10.2439Z" fill="#141414"/>
<path d="M39.183 11.1679C38.3336 11.1679 37.6523 10.8599 37.139 10.2439C36.6256 9.61858 36.369 8.74125 36.369 7.61192C36.369 6.87458 36.5043 6.23992 36.775 5.70792C37.055 5.16658 37.419 4.75125 37.867 4.46192C38.3243 4.17258 38.8096 4.02792 39.323 4.02792C39.715 4.02792 40.0556 4.09792 40.345 4.23792C40.6343 4.37792 40.9283 4.56925 41.227 4.81192L41.171 3.64992V1.03192H42.333V10.9999H41.381L41.283 10.2019H41.241C40.9796 10.4633 40.6716 10.6919 40.317 10.8879C39.9623 11.0746 39.5843 11.1679 39.183 11.1679ZM39.435 10.2019C40.0323 10.2019 40.611 9.88925 41.171 9.26392V5.70792C40.8816 5.44658 40.6016 5.26458 40.331 5.16192C40.0696 5.04992 39.799 4.99392 39.519 4.99392C39.155 4.99392 38.8236 5.10592 38.525 5.32992C38.2356 5.54458 38.0023 5.84792 37.825 6.23992C37.6476 6.62258 37.559 7.07525 37.559 7.59792C37.559 8.40992 37.7223 9.04925 38.049 9.51592C38.3756 9.97325 38.8376 10.2019 39.435 10.2019Z" fill="#141414"/>
<path d="M47.3126 11.1679C46.7153 11.1679 46.1739 11.0279 45.6886 10.7479C45.2033 10.4679 44.8206 10.0619 44.5406 9.52992C44.2606 8.99792 44.1206 8.35858 44.1206 7.61192C44.1206 6.84658 44.2699 6.19792 44.5686 5.66592C44.8766 5.13392 45.2779 4.72792 45.7726 4.44792C46.2766 4.16792 46.8179 4.02792 47.3966 4.02792C47.8446 4.02792 48.2273 4.10725 48.5446 4.26592C48.8713 4.42458 49.1513 4.61125 49.3846 4.82592L48.7966 5.58192C48.6006 5.40458 48.3906 5.25992 48.1666 5.14792C47.9519 5.03592 47.7093 4.97992 47.4386 4.97992C47.0279 4.97992 46.6593 5.09192 46.3326 5.31592C46.0153 5.53058 45.7633 5.83858 45.5766 6.23992C45.3993 6.63192 45.3106 7.08925 45.3106 7.61192C45.3106 8.38658 45.5019 9.01658 45.8846 9.50192C46.2766 9.97792 46.7853 10.2159 47.4106 10.2159C47.7279 10.2159 48.0219 10.1506 48.2926 10.0199C48.5633 9.87992 48.8013 9.71658 49.0066 9.52992L49.5106 10.2999C49.2026 10.5706 48.8619 10.7853 48.4886 10.9439C48.1153 11.0933 47.7233 11.1679 47.3126 11.1679Z" fill="#141414"/>
<path d="M50.2954 10.9999V10.3839L53.8794 5.13392H50.6874V4.19592H55.3354V4.81192L51.7514 10.0619H55.4474V10.9999H50.2954Z" fill="#141414"/>
<path d="M58.1965 11.1679C57.6272 11.1679 57.1512 10.9999 56.7685 10.6639C56.3952 10.3186 56.2085 9.84258 56.2085 9.23592C56.2085 8.48925 56.5398 7.91992 57.2025 7.52792C57.8745 7.12658 58.9338 6.84658 60.3805 6.68792C60.3805 6.39858 60.3385 6.12325 60.2545 5.86192C60.1798 5.60058 60.0398 5.39058 59.8345 5.23192C59.6385 5.06392 59.3538 4.97992 58.9805 4.97992C58.5885 4.97992 58.2198 5.05458 57.8745 5.20392C57.5292 5.35325 57.2212 5.52125 56.9505 5.70792L56.5025 4.90992C56.8198 4.70458 57.2072 4.50858 57.6645 4.32192C58.1312 4.12592 58.6352 4.02792 59.1765 4.02792C60.0072 4.02792 60.6092 4.28458 60.9825 4.79792C61.3558 5.30192 61.5425 5.97858 61.5425 6.82792V10.9999H60.5905L60.4925 10.1879H60.4505C60.1332 10.4493 59.7832 10.6779 59.4005 10.8739C59.0272 11.0699 58.6258 11.1679 58.1965 11.1679ZM58.5325 10.2439C58.8592 10.2439 59.1672 10.1646 59.4565 10.0059C59.7458 9.84725 60.0538 9.62325 60.3805 9.33392V7.44392C59.2512 7.58392 58.4578 7.79392 58.0005 8.07392C57.5525 8.35392 57.3285 8.71325 57.3285 9.15192C57.3285 9.53458 57.4452 9.81458 57.6785 9.99192C57.9118 10.1599 58.1965 10.2439 58.5325 10.2439Z" fill="#141414"/>
<path d="M63.6832 10.9999V4.19592H64.6352L64.7332 5.17592H64.7752C65.0739 4.84925 65.4005 4.57858 65.7552 4.36392C66.1099 4.13992 66.4879 4.02792 66.8892 4.02792C67.4119 4.02792 67.8178 4.14458 68.1072 4.37792C68.4059 4.60192 68.6252 4.91925 68.7652 5.32992C69.1199 4.94725 69.4792 4.63458 69.8432 4.39192C70.2072 4.14925 70.5945 4.02792 71.0052 4.02792C71.7052 4.02792 72.2232 4.25658 72.5592 4.71392C72.9045 5.16192 73.0772 5.81992 73.0772 6.68792V10.9999H71.9292V6.84192C71.9292 6.20725 71.8265 5.74525 71.6212 5.45592C71.4159 5.16658 71.0985 5.02192 70.6692 5.02192C70.1652 5.02192 69.5959 5.37192 68.9612 6.07192V10.9999H67.8132V6.84192C67.8132 6.20725 67.7105 5.74525 67.5052 5.45592C67.2999 5.16658 66.9779 5.02192 66.5392 5.02192C66.0352 5.02192 65.4659 5.37192 64.8312 6.07192V10.9999H63.6832Z" fill="#141414"/>
<path d="M75.0806 13.3799L74.8006 12.7079C75.2019 12.5306 75.5146 12.2926 75.7386 11.9939C75.9626 11.7046 76.0699 11.3733 76.0606 10.9999C76.0419 11.0093 76.0186 11.0139 75.9906 11.0139C75.9626 11.0139 75.9393 11.0139 75.9206 11.0139C75.6966 11.0139 75.5006 10.9486 75.3326 10.8179C75.1739 10.6779 75.0946 10.4773 75.0946 10.2159C75.0946 9.96392 75.1786 9.76792 75.3466 9.62792C75.5146 9.47859 75.7153 9.40392 75.9486 9.40392C76.2473 9.40392 76.4806 9.52525 76.6486 9.76792C76.8259 10.0106 76.9146 10.3419 76.9146 10.7619C76.9146 11.3593 76.7513 11.8819 76.4246 12.3299C76.0979 12.7873 75.6499 13.1373 75.0806 13.3799Z" fill="#141414"/>
<path d="M80.8657 10.9999V10.3839L84.4497 5.13392H81.2577V4.19592H85.9057V4.81192L82.3217 10.0619H86.0177V10.9999H80.8657ZM83.6657 2.79592C83.4417 2.79592 83.255 2.73058 83.1057 2.59992C82.9657 2.45992 82.8957 2.27325 82.8957 2.03992C82.8957 1.81592 82.9657 1.63392 83.1057 1.49392C83.255 1.35392 83.4417 1.28392 83.6657 1.28392C83.8897 1.28392 84.0717 1.35392 84.2117 1.49392C84.361 1.63392 84.4357 1.81592 84.4357 2.03992C84.4357 2.27325 84.361 2.45992 84.2117 2.59992C84.0717 2.73058 83.8897 2.79592 83.6657 2.79592Z" fill="#141414"/>
<path d="M90.1482 11.1679C89.5415 11.1679 88.9909 11.0279 88.4962 10.7479C88.0015 10.4586 87.6096 10.0479 87.3202 9.51592C87.0309 8.98392 86.8862 8.34925 86.8862 7.61192C86.8862 6.86525 87.0309 6.22592 87.3202 5.69392C87.6189 5.16192 88.0015 4.75125 88.4682 4.46192C88.9349 4.17258 89.4249 4.02792 89.9382 4.02792C90.8062 4.02792 91.4735 4.31725 91.9402 4.89592C92.4162 5.47458 92.6542 6.24925 92.6542 7.21992C92.6542 7.34125 92.6496 7.46258 92.6402 7.58392C92.6402 7.69592 92.6309 7.79392 92.6122 7.87792H88.0202C88.0669 8.59659 88.2909 9.17058 88.6922 9.59992C89.1029 10.0293 89.6349 10.2439 90.2882 10.2439C90.6149 10.2439 90.9136 10.1973 91.1842 10.1039C91.4642 10.0013 91.7302 9.87058 91.9822 9.71192L92.3882 10.4679C92.0989 10.6546 91.7676 10.8179 91.3942 10.9579C91.0302 11.0979 90.6149 11.1679 90.1482 11.1679ZM88.0062 7.05192H91.6462C91.6462 6.36125 91.4969 5.83858 91.1982 5.48392C90.9089 5.11992 90.4982 4.93792 89.9662 4.93792C89.4902 4.93792 89.0609 5.12458 88.6782 5.49792C88.3049 5.86192 88.0809 6.37992 88.0062 7.05192Z" fill="#141414"/>
<path d="M96.4383 14.0379C96.2329 14.0379 96.0463 14.0193 95.8783 13.9819C95.7009 13.9446 95.5516 13.9026 95.4303 13.8559L95.6683 12.9879C95.7523 13.0159 95.8503 13.0393 95.9623 13.0579C96.0743 13.0859 96.1909 13.0999 96.3123 13.0999C96.6483 13.0999 96.8723 12.9786 96.9843 12.7359C97.0963 12.5026 97.1523 12.1806 97.1523 11.7699V4.19592H98.3003V11.7699C98.3003 12.4606 98.1603 13.0113 97.8803 13.4219C97.6003 13.8326 97.1196 14.0379 96.4383 14.0379ZM97.7123 2.79592C97.4883 2.79592 97.3016 2.73058 97.1523 2.59992C97.0123 2.45992 96.9423 2.27325 96.9423 2.03992C96.9423 1.81592 97.0123 1.63392 97.1523 1.49392C97.3016 1.35392 97.4883 1.28392 97.7123 1.28392C97.9363 1.28392 98.1183 1.35392 98.2583 1.49392C98.4076 1.63392 98.4823 1.81592 98.4823 2.03992C98.4823 2.27325 98.4076 2.45992 98.2583 2.59992C98.1183 2.73058 97.9363 2.79592 97.7123 2.79592Z" fill="#141414"/>
<path d="M103.355 11.1679C102.749 11.1679 102.198 11.0279 101.703 10.7479C101.209 10.4586 100.817 10.0479 100.527 9.51592C100.238 8.98392 100.093 8.34925 100.093 7.61192C100.093 6.86525 100.238 6.22592 100.527 5.69392C100.826 5.16192 101.209 4.75125 101.675 4.46192C102.142 4.17258 102.632 4.02792 103.145 4.02792C104.013 4.02792 104.681 4.31725 105.147 4.89592C105.623 5.47458 105.861 6.24925 105.861 7.21992C105.861 7.34125 105.857 7.46258 105.847 7.58392C105.847 7.69592 105.838 7.79392 105.819 7.87792H101.227C101.274 8.59659 101.498 9.17058 101.899 9.59992C102.31 10.0293 102.842 10.2439 103.495 10.2439C103.822 10.2439 104.121 10.1973 104.391 10.1039C104.671 10.0013 104.937 9.87058 105.189 9.71192L105.595 10.4679C105.306 10.6546 104.975 10.8179 104.601 10.9579C104.237 11.0979 103.822 11.1679 103.355 11.1679ZM101.213 7.05192H104.853C104.853 6.36125 104.704 5.83858 104.405 5.48392C104.116 5.11992 103.705 4.93792 103.173 4.93792C102.697 4.93792 102.268 5.12458 101.885 5.49792C101.512 5.86192 101.288 6.37992 101.213 7.05192Z" fill="#141414"/>
<path d="M109.321 11.1679C108.835 11.1679 108.373 11.0793 107.935 10.9019C107.496 10.7153 107.113 10.4913 106.787 10.2299L107.361 9.45992C107.659 9.69325 107.967 9.88925 108.285 10.0479C108.602 10.1973 108.961 10.2719 109.363 10.2719C109.811 10.2719 110.147 10.1693 110.371 9.96392C110.595 9.74925 110.707 9.49725 110.707 9.20792C110.707 8.97458 110.627 8.77858 110.469 8.61992C110.319 8.46125 110.123 8.33058 109.881 8.22792C109.647 8.11592 109.405 8.01325 109.153 7.91992C108.835 7.79858 108.523 7.66325 108.215 7.51392C107.907 7.35525 107.655 7.15458 107.459 6.91192C107.263 6.65992 107.165 6.34258 107.165 5.95992C107.165 5.40925 107.37 4.95192 107.781 4.58792C108.201 4.21458 108.779 4.02792 109.517 4.02792C109.937 4.02792 110.329 4.10258 110.693 4.25192C111.057 4.40125 111.369 4.58325 111.631 4.79792L111.071 5.52592C110.837 5.34858 110.595 5.20392 110.343 5.09192C110.091 4.97992 109.815 4.92392 109.517 4.92392C109.087 4.92392 108.77 5.02192 108.565 5.21792C108.369 5.41392 108.271 5.64258 108.271 5.90392C108.271 6.11858 108.341 6.29592 108.481 6.43592C108.621 6.56658 108.803 6.68325 109.027 6.78592C109.251 6.87925 109.489 6.97725 109.741 7.07992C110.067 7.20125 110.389 7.34125 110.707 7.49992C111.024 7.64925 111.285 7.85458 111.491 8.11592C111.705 8.36792 111.813 8.70858 111.813 9.13792C111.813 9.50192 111.715 9.83792 111.519 10.1459C111.332 10.4539 111.052 10.7013 110.679 10.8879C110.315 11.0746 109.862 11.1679 109.321 11.1679Z" fill="#141414"/>
<path d="M115.276 11.1679C114.548 11.1679 114.04 10.9579 113.75 10.5379C113.47 10.1179 113.33 9.57192 113.33 8.89992V5.13392H112.322V4.26592L113.386 4.19592L113.526 2.29192H114.492V4.19592H116.326V5.13392H114.492V8.91392C114.492 9.33392 114.567 9.66058 114.716 9.89392C114.875 10.1179 115.15 10.2299 115.542 10.2299C115.664 10.2299 115.794 10.2113 115.934 10.1739C116.074 10.1273 116.2 10.0853 116.312 10.0479L116.536 10.9159C116.35 10.9813 116.144 11.0373 115.92 11.0839C115.706 11.1399 115.491 11.1679 115.276 11.1679Z" fill="#141414"/>
<path d="M120.431 11.1679C119.825 11.1679 119.274 11.0279 118.779 10.7479C118.285 10.4586 117.893 10.0479 117.603 9.51592C117.314 8.98392 117.169 8.34925 117.169 7.61192C117.169 6.86525 117.314 6.22592 117.603 5.69392C117.902 5.16192 118.285 4.75125 118.751 4.46192C119.218 4.17258 119.708 4.02792 120.221 4.02792C121.089 4.02792 121.757 4.31725 122.223 4.89592C122.699 5.47458 122.937 6.24925 122.937 7.21992C122.937 7.34125 122.933 7.46258 122.923 7.58392C122.923 7.69592 122.914 7.79392 122.895 7.87792H118.303C118.35 8.59659 118.574 9.17058 118.975 9.59992C119.386 10.0293 119.918 10.2439 120.571 10.2439C120.898 10.2439 121.197 10.1973 121.467 10.1039C121.747 10.0013 122.013 9.87058 122.265 9.71192L122.671 10.4679C122.382 10.6546 122.051 10.8179 121.677 10.9579C121.313 11.0979 120.898 11.1679 120.431 11.1679ZM118.289 7.05192H121.929C121.929 6.36125 121.78 5.83858 121.481 5.48392C121.192 5.11992 120.781 4.93792 120.249 4.93792C119.773 4.93792 119.344 5.12458 118.961 5.49792C118.588 5.86192 118.364 6.37992 118.289 7.05192Z" fill="#141414"/>
<path d="M124.619 10.9999V4.19592H125.571L125.669 5.17592H125.711C126.009 4.84925 126.336 4.57858 126.691 4.36392C127.045 4.13992 127.423 4.02792 127.825 4.02792C128.347 4.02792 128.753 4.14458 129.043 4.37792C129.341 4.60192 129.561 4.91925 129.701 5.32992C130.055 4.94725 130.415 4.63458 130.779 4.39192C131.143 4.14925 131.53 4.02792 131.941 4.02792C132.641 4.02792 133.159 4.25658 133.495 4.71392C133.84 5.16192 134.013 5.81992 134.013 6.68792V10.9999H132.865V6.84192C132.865 6.20725 132.762 5.74525 132.557 5.45592C132.351 5.16658 132.034 5.02192 131.605 5.02192C131.101 5.02192 130.531 5.37192 129.897 6.07192V10.9999H128.749V6.84192C128.749 6.20725 128.646 5.74525 128.441 5.45592C128.235 5.16658 127.913 5.02192 127.475 5.02192C126.971 5.02192 126.401 5.37192 125.767 6.07192V10.9999H124.619Z" fill="#141414"/>
<path d="M139.029 13.8699V4.19592H139.981L140.079 4.97992H140.121C140.429 4.71858 140.765 4.49458 141.129 4.30792C141.502 4.12125 141.89 4.02792 142.291 4.02792C143.168 4.02792 143.836 4.34525 144.293 4.97992C144.75 5.60525 144.979 6.44525 144.979 7.49992C144.979 8.26525 144.839 8.92325 144.559 9.47392C144.288 10.0246 143.929 10.4446 143.481 10.7339C143.042 11.0233 142.562 11.1679 142.039 11.1679C141.722 11.1679 141.404 11.0979 141.087 10.9579C140.779 10.8179 140.466 10.6266 140.149 10.3839L140.177 11.5739V13.8699H139.029ZM141.843 10.2019C142.403 10.2019 142.865 9.96392 143.229 9.48792C143.602 9.00258 143.789 8.33992 143.789 7.49992C143.789 6.75325 143.649 6.15125 143.369 5.69392C143.098 5.22725 142.641 4.99392 141.997 4.99392C141.708 4.99392 141.414 5.07325 141.115 5.23192C140.826 5.39058 140.513 5.61925 140.177 5.91792V9.48792C140.485 9.74925 140.784 9.93592 141.073 10.0479C141.362 10.1506 141.619 10.2019 141.843 10.2019Z" fill="#141414"/>
<path d="M149.553 11.1679C148.946 11.1679 148.395 11.0279 147.901 10.7479C147.406 10.4586 147.014 10.0479 146.725 9.51592C146.435 8.98392 146.291 8.34925 146.291 7.61192C146.291 6.86525 146.435 6.22592 146.725 5.69392C147.023 5.16192 147.406 4.75125 147.873 4.46192C148.339 4.17258 148.829 4.02792 149.343 4.02792C150.211 4.02792 150.878 4.31725 151.345 4.89592C151.821 5.47458 152.059 6.24925 152.059 7.21992C152.059 7.34125 152.054 7.46258 152.045 7.58392C152.045 7.69592 152.035 7.79392 152.017 7.87792H147.425C147.471 8.59659 147.695 9.17058 148.097 9.59992C148.507 10.0293 149.039 10.2439 149.693 10.2439C150.019 10.2439 150.318 10.1973 150.589 10.1039C150.869 10.0013 151.135 9.87058 151.387 9.71192L151.793 10.4679C151.503 10.6546 151.172 10.8179 150.799 10.9579C150.435 11.0979 150.019 11.1679 149.553 11.1679ZM147.411 7.05192H151.051C151.051 6.36125 150.901 5.83858 150.603 5.48392C150.313 5.11992 149.903 4.93792 149.371 4.93792C148.895 4.93792 148.465 5.12458 148.083 5.49792C147.709 5.86192 147.485 6.37992 147.411 7.05192Z" fill="#141414"/>
<path d="M155.126 11.1679C154.696 11.1679 154.384 11.0373 154.188 10.7759C154.001 10.5053 153.908 10.1226 153.908 9.62792V6.33792L152.886 6.99592L152.466 6.25392L153.908 5.37192V1.03192H155.056V4.79792L156.106 4.13992L156.512 4.88192L155.056 5.74992V9.71192C155.056 9.88925 155.088 10.0199 155.154 10.1039C155.219 10.1786 155.294 10.2159 155.378 10.2159C155.415 10.2159 155.448 10.2159 155.476 10.2159C155.513 10.2066 155.564 10.1973 155.63 10.1879L155.784 11.0559C155.709 11.0933 155.62 11.1213 155.518 11.1399C155.415 11.1586 155.284 11.1679 155.126 11.1679Z" fill="#141414"/>
<path d="M157.65 10.9999V4.19592H158.602L158.7 5.17592H158.742C159.069 4.84925 159.414 4.57858 159.778 4.36392C160.142 4.13992 160.557 4.02792 161.024 4.02792C161.743 4.02792 162.265 4.25658 162.592 4.71392C162.928 5.16192 163.096 5.81992 163.096 6.68792V10.9999H161.948V6.84192C161.948 6.20725 161.845 5.74525 161.64 5.45592C161.435 5.16658 161.108 5.02192 160.66 5.02192C160.315 5.02192 160.002 5.11058 159.722 5.28792C159.451 5.46525 159.143 5.72658 158.798 6.07192V10.9999H157.65Z" fill="#141414"/>
<path d="M167.952 11.1679C167.402 11.1679 166.884 11.0279 166.398 10.7479C165.922 10.4679 165.535 10.0619 165.236 9.52992C164.947 8.99792 164.802 8.35858 164.802 7.61192C164.802 6.84658 164.947 6.19792 165.236 5.66592C165.535 5.13392 165.922 4.72792 166.398 4.44792C166.884 4.16792 167.402 4.02792 167.952 4.02792C168.512 4.02792 169.03 4.16792 169.506 4.44792C169.982 4.72792 170.365 5.13392 170.654 5.66592C170.953 6.19792 171.102 6.84658 171.102 7.61192C171.102 8.35858 170.953 8.99792 170.654 9.52992C170.365 10.0619 169.982 10.4679 169.506 10.7479C169.03 11.0279 168.512 11.1679 167.952 11.1679ZM167.952 10.2159C168.54 10.2159 169.012 9.97792 169.366 9.50192C169.73 9.01658 169.912 8.38658 169.912 7.61192C169.912 6.82792 169.73 6.19325 169.366 5.70792C169.012 5.22258 168.54 4.97992 167.952 4.97992C167.374 4.97992 166.902 5.22258 166.538 5.70792C166.174 6.19325 165.992 6.82792 165.992 7.61192C165.992 8.38658 166.174 9.01658 166.538 9.50192C166.902 9.97792 167.374 10.2159 167.952 10.2159Z" fill="#141414"/>
<path d="M174.112 11.1679C173.683 11.1679 173.37 11.0373 173.174 10.7759C172.987 10.5053 172.894 10.1226 172.894 9.62792V1.03192H174.042V9.71192C174.042 9.88925 174.075 10.0199 174.14 10.1039C174.205 10.1786 174.28 10.2159 174.364 10.2159C174.401 10.2159 174.434 10.2159 174.462 10.2159C174.499 10.2066 174.551 10.1973 174.616 10.1879L174.77 11.0559C174.695 11.0933 174.607 11.1213 174.504 11.1399C174.401 11.1586 174.271 11.1679 174.112 11.1679Z" fill="#141414"/>
<path d="M179.22 11.1679C178.614 11.1679 178.063 11.0279 177.568 10.7479C177.074 10.4586 176.682 10.0479 176.392 9.51592C176.103 8.98392 175.958 8.34925 175.958 7.61192C175.958 6.86525 176.103 6.22592 176.392 5.69392C176.691 5.16192 177.074 4.75125 177.54 4.46192C178.007 4.17258 178.497 4.02792 179.01 4.02792C179.878 4.02792 180.546 4.31725 181.012 4.89592C181.488 5.47458 181.726 6.24925 181.726 7.21992C181.726 7.34125 181.722 7.46258 181.712 7.58392C181.712 7.69592 181.703 7.79392 181.684 7.87792H177.092C177.139 8.59659 177.363 9.17058 177.764 9.59992C178.175 10.0293 178.707 10.2439 179.36 10.2439C179.687 10.2439 179.986 10.1973 180.256 10.1039C180.536 10.0013 180.802 9.87058 181.054 9.71192L181.46 10.4679C181.171 10.6546 180.84 10.8179 180.466 10.9579C180.102 11.0979 179.687 11.1679 179.22 11.1679ZM177.078 7.05192H180.718C180.718 6.36125 180.569 5.83858 180.27 5.48392C179.981 5.11992 179.57 4.93792 179.038 4.93792C178.562 4.93792 178.133 5.12458 177.75 5.49792C177.377 5.86192 177.153 6.37992 177.078 7.05192Z" fill="#141414"/>
<path d="M185.413 11.1679C184.685 11.1679 184.176 10.9579 183.887 10.5379C183.607 10.1179 183.467 9.57192 183.467 8.89992V5.13392H182.459V4.26592L183.523 4.19592L183.663 2.29192H184.629V4.19592H186.463V5.13392H184.629V8.91392C184.629 9.33392 184.704 9.66058 184.853 9.89392C185.012 10.1179 185.287 10.2299 185.679 10.2299C185.8 10.2299 185.931 10.2113 186.071 10.1739C186.211 10.1273 186.337 10.0853 186.449 10.0479L186.673 10.9159C186.486 10.9813 186.281 11.0373 186.057 11.0839C185.842 11.1399 185.628 11.1679 185.413 11.1679Z" fill="#141414"/>
<path d="M188.002 10.9999V4.19592H188.954L189.052 5.17592H189.094C189.42 4.84925 189.766 4.57858 190.13 4.36392C190.494 4.13992 190.909 4.02792 191.376 4.02792C192.094 4.02792 192.617 4.25658 192.944 4.71392C193.28 5.16192 193.448 5.81992 193.448 6.68792V10.9999H192.3V6.84192C192.3 6.20725 192.197 5.74525 191.992 5.45592C191.786 5.16658 191.46 5.02192 191.012 5.02192C190.666 5.02192 190.354 5.11058 190.074 5.28792C189.803 5.46525 189.495 5.72658 189.15 6.07192V10.9999H188.002Z" fill="#141414"/>
<path d="M195.658 10.9999V4.19592H196.806V10.9999H195.658ZM196.246 2.79592C196.022 2.79592 195.835 2.73058 195.686 2.59992C195.546 2.45992 195.476 2.27325 195.476 2.03992C195.476 1.81592 195.546 1.63392 195.686 1.49392C195.835 1.35392 196.022 1.28392 196.246 1.28392C196.47 1.28392 196.652 1.35392 196.792 1.49392C196.941 1.63392 197.016 1.81592 197.016 2.03992C197.016 2.27325 196.941 2.45992 196.792 2.59992C196.652 2.73058 196.47 2.79592 196.246 2.79592Z" fill="#141414"/>
<path d="M199.103 10.9999V4.19592H200.055L200.153 5.17592H200.195C200.494 4.84925 200.82 4.57858 201.175 4.36392C201.53 4.13992 201.908 4.02792 202.309 4.02792C202.832 4.02792 203.238 4.14458 203.527 4.37792C203.826 4.60192 204.045 4.91925 204.185 5.32992C204.54 4.94725 204.899 4.63458 205.263 4.39192C205.627 4.14925 206.014 4.02792 206.425 4.02792C207.125 4.02792 207.643 4.25658 207.979 4.71392C208.324 5.16192 208.497 5.81992 208.497 6.68792V10.9999H207.349V6.84192C207.349 6.20725 207.246 5.74525 207.041 5.45592C206.836 5.16658 206.518 5.02192 206.089 5.02192C205.585 5.02192 205.016 5.37192 204.381 6.07192V10.9999H203.233V6.84192C203.233 6.20725 203.13 5.74525 202.925 5.45592C202.72 5.16658 202.398 5.02192 201.959 5.02192C201.455 5.02192 200.886 5.37192 200.251 6.07192V10.9999H199.103Z" fill="#141414"/>
<path d="M215.501 11.1679C214.783 11.1679 214.255 10.9439 213.919 10.4959C213.583 10.0386 213.415 9.37592 213.415 8.50792V4.19592H214.577V8.35392C214.577 8.98858 214.675 9.45058 214.871 9.73992C215.077 10.0293 215.403 10.1739 215.851 10.1739C216.206 10.1739 216.519 10.0853 216.789 9.90792C217.069 9.72125 217.368 9.42725 217.685 9.02592V4.19592H218.833V10.9999H217.881L217.783 9.93592H217.741C217.424 10.3093 217.088 10.6079 216.733 10.8319C216.379 11.0559 215.968 11.1679 215.501 11.1679Z" fill="#141414"/>
<path d="M220.415 10.9999V10.3839L223.999 5.13392H220.807V4.19592H225.454V4.81192L221.87 10.0619H225.566V10.9999H220.415ZM223.214 2.79592C222.99 2.79592 222.804 2.73058 222.654 2.59992C222.514 2.45992 222.445 2.27325 222.445 2.03992C222.445 1.81592 222.514 1.63392 222.654 1.49392C222.804 1.35392 222.99 1.28392 223.214 1.28392C223.438 1.28392 223.62 1.35392 223.76 1.49392C223.91 1.63392 223.984 1.81592 223.984 2.03992C223.984 2.27325 223.91 2.45992 223.76 2.59992C223.62 2.73058 223.438 2.79592 223.214 2.79592Z" fill="#141414"/>
<path d="M227.133 13.9259C226.984 13.9259 226.839 13.9119 226.699 13.8839C226.568 13.8559 226.447 13.8233 226.335 13.7859L226.559 12.8759C226.634 12.8946 226.718 12.9133 226.811 12.9319C226.904 12.9599 226.993 12.9739 227.077 12.9739C227.46 12.9739 227.777 12.8339 228.029 12.5539C228.281 12.2833 228.477 11.9379 228.617 11.5179L228.771 11.0139L226.041 4.19592H227.231L228.617 7.96192C228.72 8.25125 228.827 8.56392 228.939 8.89992C229.06 9.23592 229.172 9.56258 229.275 9.87992H229.331C229.434 9.57192 229.532 9.24992 229.625 8.91392C229.718 8.57792 229.812 8.26058 229.905 7.96192L231.123 4.19592H232.243L229.681 11.5599C229.522 12.0079 229.331 12.4093 229.107 12.7639C228.892 13.1186 228.622 13.3986 228.295 13.6039C227.978 13.8186 227.59 13.9259 227.133 13.9259Z" fill="#141414"/>
<path d="M235.698 11.1679C234.97 11.1679 234.462 10.9579 234.172 10.5379C233.892 10.1179 233.752 9.57192 233.752 8.89992V5.13392H232.744V4.26592L233.808 4.19592L233.948 2.29192H234.914V4.19592H236.748V5.13392H234.914V8.91392C234.914 9.33392 234.989 9.66058 235.138 9.89392C235.297 10.1179 235.572 10.2299 235.964 10.2299C236.086 10.2299 236.216 10.2113 236.356 10.1739C236.496 10.1273 236.622 10.0853 236.734 10.0479L236.958 10.9159C236.772 10.9813 236.566 11.0373 236.342 11.0839C236.128 11.1399 235.913 11.1679 235.698 11.1679Z" fill="#141414"/>
<path d="M238.287 10.9999V1.03192H239.421V7.77992H239.463L242.361 4.19592H243.635L241.353 6.92592L243.943 10.9999H242.683L240.695 7.72392L239.421 9.20792V10.9999H238.287Z" fill="#141414"/>
<path d="M247.618 11.1679C247.068 11.1679 246.55 11.0279 246.064 10.7479C245.588 10.4679 245.201 10.0619 244.902 9.52992C244.613 8.99792 244.468 8.35858 244.468 7.61192C244.468 6.84658 244.613 6.19792 244.902 5.66592C245.201 5.13392 245.588 4.72792 246.064 4.44792C246.55 4.16792 247.068 4.02792 247.618 4.02792C248.178 4.02792 248.696 4.16792 249.172 4.44792C249.648 4.72792 250.031 5.13392 250.32 5.66592C250.619 6.19792 250.768 6.84658 250.768 7.61192C250.768 8.35858 250.619 8.99792 250.32 9.52992C250.031 10.0619 249.648 10.4679 249.172 10.7479C248.696 11.0279 248.178 11.1679 247.618 11.1679ZM247.618 10.2159C248.206 10.2159 248.678 9.97792 249.032 9.50192C249.396 9.01658 249.578 8.38658 249.578 7.61192C249.578 6.82792 249.396 6.19325 249.032 5.70792C248.678 5.22258 248.206 4.97992 247.618 4.97992C247.04 4.97992 246.568 5.22258 246.204 5.70792C245.84 6.19325 245.658 6.82792 245.658 7.61192C245.658 8.38658 245.84 9.01658 246.204 9.50192C246.568 9.97792 247.04 10.2159 247.618 10.2159Z" fill="#141414"/>
<path d="M253.583 10.9999L251.693 4.19592H252.869L253.877 8.12992C253.952 8.44725 254.022 8.76458 254.087 9.08192C254.153 9.38992 254.218 9.70259 254.283 10.0199H254.339C254.414 9.70259 254.489 9.38992 254.563 9.08192C254.638 8.76458 254.717 8.44725 254.801 8.12992L255.851 4.19592H256.971L258.035 8.12992C258.119 8.44725 258.199 8.76458 258.273 9.08192C258.357 9.38992 258.437 9.70259 258.511 10.0199H258.567C258.642 9.70259 258.712 9.38992 258.777 9.08192C258.852 8.76458 258.922 8.44725 258.987 8.12992L259.981 4.19592H261.073L259.253 10.9999H257.853L256.873 7.34592C256.789 7.01925 256.71 6.69725 256.635 6.37992C256.57 6.06258 256.495 5.73125 256.411 5.38592H256.355C256.281 5.73125 256.206 6.06725 256.131 6.39392C256.057 6.71125 255.973 7.03325 255.879 7.35992L254.927 10.9999H253.583Z" fill="#141414"/>
<path d="M262.554 10.9999V4.19592H263.506L263.604 5.17592H263.646C263.973 4.84925 264.318 4.57858 264.682 4.36392C265.046 4.13992 265.462 4.02792 265.928 4.02792C266.647 4.02792 267.17 4.25658 267.496 4.71392C267.832 5.16192 268 5.81992 268 6.68792V10.9999H266.852V6.84192C266.852 6.20725 266.75 5.74525 266.544 5.45592C266.339 5.16658 266.012 5.02192 265.564 5.02192C265.219 5.02192 264.906 5.11058 264.626 5.28792C264.356 5.46525 264.048 5.72658 263.702 6.07192V10.9999H262.554Z" fill="#141414"/>
<path d="M270.211 10.9999V4.19592H271.359V10.9999H270.211ZM270.799 2.79592C270.575 2.79592 270.388 2.73058 270.239 2.59992C270.099 2.45992 270.029 2.27325 270.029 2.03992C270.029 1.81592 270.099 1.63392 270.239 1.49392C270.388 1.35392 270.575 1.28392 270.799 1.28392C271.023 1.28392 271.205 1.35392 271.345 1.49392C271.494 1.63392 271.569 1.81592 271.569 2.03992C271.569 2.27325 271.494 2.45992 271.345 2.59992C271.205 2.73058 271.023 2.79592 270.799 2.79592Z" fill="#141414"/>
<path d="M273.656 10.9999V1.03192H274.79V7.77992H274.832L277.73 4.19592H279.004L276.722 6.92592L279.312 10.9999H278.052L276.064 7.72392L274.79 9.20792V10.9999H273.656Z" fill="#141414"/>
<path d="M280.587 10.9999V4.19592H281.735V10.9999H280.587ZM281.175 2.79592C280.951 2.79592 280.765 2.73058 280.615 2.59992C280.475 2.45992 280.405 2.27325 280.405 2.03992C280.405 1.81592 280.475 1.63392 280.615 1.49392C280.765 1.35392 280.951 1.28392 281.175 1.28392C281.399 1.28392 281.581 1.35392 281.721 1.49392C281.871 1.63392 281.945 1.81592 281.945 2.03992C281.945 2.27325 281.871 2.45992 281.721 2.59992C281.581 2.73058 281.399 2.79592 281.175 2.79592Z" fill="#141414"/>
<path d="M286.791 11.1679C286.184 11.1679 285.633 11.0279 285.139 10.7479C284.644 10.4586 284.252 10.0479 283.963 9.51592C283.673 8.98392 283.529 8.34925 283.529 7.61192C283.529 6.86525 283.673 6.22592 283.963 5.69392C284.261 5.16192 284.644 4.75125 285.111 4.46192C285.577 4.17258 286.067 4.02792 286.581 4.02792C287.449 4.02792 288.116 4.31725 288.583 4.89592C289.059 5.47458 289.297 6.24925 289.297 7.21992C289.297 7.34125 289.292 7.46258 289.283 7.58392C289.283 7.69592 289.273 7.79392 289.255 7.87792H284.663C284.709 8.59659 284.933 9.17058 285.335 9.59992C285.745 10.0293 286.277 10.2439 286.931 10.2439C287.257 10.2439 287.556 10.1973 287.827 10.1039C288.107 10.0013 288.373 9.87058 288.625 9.71192L289.031 10.4679C288.741 10.6546 288.41 10.8179 288.037 10.9579C287.673 11.0979 287.257 11.1679 286.791 11.1679ZM284.649 7.05192H288.289C288.289 6.36125 288.139 5.83858 287.841 5.48392C287.551 5.11992 287.141 4.93792 286.609 4.93792C286.133 4.93792 285.703 5.12458 285.321 5.49792C284.947 5.86192 284.723 6.37992 284.649 7.05192Z" fill="#141414"/>
<path d="M290.978 10.9999V4.19592H291.93L292.028 5.17592H292.07C292.369 4.84925 292.695 4.57858 293.05 4.36392C293.405 4.13992 293.783 4.02792 294.184 4.02792C294.707 4.02792 295.113 4.14458 295.402 4.37792C295.701 4.60192 295.92 4.91925 296.06 5.32992C296.415 4.94725 296.774 4.63458 297.138 4.39192C297.502 4.14925 297.889 4.02792 298.3 4.02792C299 4.02792 299.518 4.25658 299.854 4.71392C300.199 5.16192 300.372 5.81992 300.372 6.68792V10.9999H299.224V6.84192C299.224 6.20725 299.121 5.74525 298.916 5.45592C298.711 5.16658 298.393 5.02192 297.964 5.02192C297.46 5.02192 296.891 5.37192 296.256 6.07192V10.9999H295.108V6.84192C295.108 6.20725 295.005 5.74525 294.8 5.45592C294.595 5.16658 294.273 5.02192 293.834 5.02192C293.33 5.02192 292.761 5.37192 292.126 6.07192V10.9999H290.978Z" fill="#141414"/>
<path d="M306.466 10.9999L304.576 4.19592H305.752L306.76 8.12992C306.835 8.44725 306.905 8.76458 306.97 9.08192C307.036 9.38992 307.101 9.70259 307.166 10.0199H307.222C307.297 9.70259 307.372 9.38992 307.446 9.08192C307.521 8.76458 307.6 8.44725 307.684 8.12992L308.734 4.19592H309.854L310.918 8.12992C311.002 8.44725 311.082 8.76458 311.156 9.08192C311.24 9.38992 311.32 9.70259 311.394 10.0199H311.45C311.525 9.70259 311.595 9.38992 311.66 9.08192C311.735 8.76458 311.805 8.44725 311.87 8.12992L312.864 4.19592H313.956L312.136 10.9999H310.736L309.756 7.34592C309.672 7.01925 309.593 6.69725 309.518 6.37992C309.453 6.06258 309.378 5.73125 309.294 5.38592H309.238C309.164 5.73125 309.089 6.06725 309.014 6.39392C308.94 6.71125 308.856 7.03325 308.762 7.35992L307.81 10.9999H306.466Z" fill="#141414"/>
<path d="M315.549 13.9259C315.4 13.9259 315.255 13.9119 315.115 13.8839C314.984 13.8559 314.863 13.8233 314.751 13.7859L314.975 12.8759C315.05 12.8946 315.134 12.9133 315.227 12.9319C315.32 12.9599 315.409 12.9739 315.493 12.9739C315.876 12.9739 316.193 12.8339 316.445 12.5539C316.697 12.2833 316.893 11.9379 317.033 11.5179L317.187 11.0139L314.457 4.19592H315.647L317.033 7.96192C317.136 8.25125 317.243 8.56392 317.355 8.89992C317.476 9.23592 317.588 9.56258 317.691 9.87992H317.747C317.85 9.57192 317.948 9.24992 318.041 8.91392C318.134 8.57792 318.228 8.26058 318.321 7.96192L319.539 4.19592H320.659L318.097 11.5599C317.938 12.0079 317.747 12.4093 317.523 12.7639C317.308 13.1186 317.038 13.3986 316.711 13.6039C316.394 13.8186 316.006 13.9259 315.549 13.9259Z" fill="#141414"/>
<path d="M321.972 10.9999V4.19592H322.924L323.022 5.42792H323.064C323.298 4.99858 323.582 4.65792 323.918 4.40592C324.254 4.15392 324.614 4.02792 324.996 4.02792C325.267 4.02792 325.51 4.07458 325.724 4.16792L325.5 5.17592C325.388 5.13858 325.286 5.11058 325.192 5.09192C325.099 5.07325 324.982 5.06392 324.842 5.06392C324.553 5.06392 324.25 5.18058 323.932 5.41392C323.624 5.64725 323.354 6.05325 323.12 6.63192V10.9999H321.972Z" fill="#141414"/>
<path d="M329.335 11.1679C328.784 11.1679 328.266 11.0279 327.781 10.7479C327.305 10.4679 326.918 10.0619 326.619 9.52992C326.33 8.99792 326.185 8.35858 326.185 7.61192C326.185 6.84658 326.33 6.19792 326.619 5.66592C326.918 5.13392 327.305 4.72792 327.781 4.44792C328.266 4.16792 328.784 4.02792 329.335 4.02792C329.895 4.02792 330.413 4.16792 330.889 4.44792C331.365 4.72792 331.748 5.13392 332.037 5.66592C332.336 6.19792 332.485 6.84658 332.485 7.61192C332.485 8.35858 332.336 8.99792 332.037 9.52992C331.748 10.0619 331.365 10.4679 330.889 10.7479C330.413 11.0279 329.895 11.1679 329.335 11.1679ZM329.335 10.2159C329.923 10.2159 330.394 9.97792 330.749 9.50192C331.113 9.01658 331.295 8.38658 331.295 7.61192C331.295 6.82792 331.113 6.19325 330.749 5.70792C330.394 5.22258 329.923 4.97992 329.335 4.97992C328.756 4.97992 328.285 5.22258 327.921 5.70792C327.557 6.19325 327.375 6.82792 327.375 7.61192C327.375 8.38658 327.557 9.01658 327.921 9.50192C328.285 9.97792 328.756 10.2159 329.335 10.2159Z" fill="#141414"/>
<path d="M337.287 11.1679C336.97 11.1679 336.638 11.0933 336.293 10.9439C335.957 10.7853 335.64 10.5706 335.341 10.2999H335.299L335.201 10.9999H334.277V1.03192H335.425V3.74792L335.397 4.97992C335.705 4.70925 336.041 4.48525 336.405 4.30792C336.778 4.12125 337.152 4.02792 337.525 4.02792C338.412 4.02792 339.084 4.34058 339.541 4.96592C339.998 5.59125 340.227 6.43125 340.227 7.48592C340.227 8.26058 340.087 8.92325 339.807 9.47392C339.536 10.0246 339.177 10.4446 338.729 10.7339C338.29 11.0233 337.81 11.1679 337.287 11.1679ZM337.091 10.2019C337.651 10.2019 338.113 9.96392 338.477 9.48792C338.85 9.00258 339.037 8.33992 339.037 7.49992C339.037 6.75325 338.897 6.15125 338.617 5.69392C338.346 5.22725 337.889 4.99392 337.245 4.99392C336.956 4.99392 336.662 5.07325 336.363 5.23192C336.064 5.39058 335.752 5.61925 335.425 5.91792V9.48792C335.724 9.74925 336.018 9.93592 336.307 10.0479C336.606 10.1506 336.867 10.2019 337.091 10.2019Z" fill="#141414"/>
<path d="M344.661 11.1679C344.111 11.1679 343.593 11.0279 343.107 10.7479C342.631 10.4679 342.244 10.0619 341.945 9.52992C341.656 8.99792 341.511 8.35858 341.511 7.61192C341.511 6.84658 341.656 6.19792 341.945 5.66592C342.244 5.13392 342.631 4.72792 343.107 4.44792C343.593 4.16792 344.111 4.02792 344.661 4.02792C345.221 4.02792 345.739 4.16792 346.215 4.44792C346.691 4.72792 347.074 5.13392 347.363 5.66592C347.662 6.19792 347.811 6.84658 347.811 7.61192C347.811 8.35858 347.662 8.99792 347.363 9.52992C347.074 10.0619 346.691 10.4679 346.215 10.7479C345.739 11.0279 345.221 11.1679 344.661 11.1679ZM344.661 10.2159C345.249 10.2159 345.721 9.97792 346.075 9.50192C346.439 9.01658 346.621 8.38658 346.621 7.61192C346.621 6.82792 346.439 6.19325 346.075 5.70792C345.721 5.22258 345.249 4.97992 344.661 4.97992C344.083 4.97992 343.611 5.22258 343.247 5.70792C342.883 6.19325 342.701 6.82792 342.701 7.61192C342.701 8.38658 342.883 9.01658 343.247 9.50192C343.611 9.97792 344.083 10.2159 344.661 10.2159ZM344.465 2.97792L343.877 2.40392L345.851 0.065918L346.663 0.835918L344.465 2.97792Z" fill="#141414"/>
<path d="M350.626 10.9999L348.736 4.19592H349.912L350.92 8.12992C350.995 8.44725 351.065 8.76458 351.13 9.08192C351.196 9.38992 351.261 9.70259 351.326 10.0199H351.382C351.457 9.70259 351.532 9.38992 351.606 9.08192C351.681 8.76458 351.76 8.44725 351.844 8.12992L352.894 4.19592H354.014L355.078 8.12992C355.162 8.44725 355.242 8.76458 355.316 9.08192C355.4 9.38992 355.48 9.70259 355.554 10.0199H355.61C355.685 9.70259 355.755 9.38992 355.82 9.08192C355.895 8.76458 355.965 8.44725 356.03 8.12992L357.024 4.19592H358.116L356.296 10.9999H354.896L353.916 7.34592C353.832 7.01925 353.753 6.69725 353.678 6.37992C353.613 6.06258 353.538 5.73125 353.454 5.38592H353.398C353.324 5.73125 353.249 6.06725 353.174 6.39392C353.1 6.71125 353.016 7.03325 352.922 7.35992L351.97 10.9999H350.626Z" fill="#141414"/>
<path d="M364.542 11.1679C363.814 11.1679 363.305 10.9579 363.016 10.5379C362.736 10.1179 362.596 9.57192 362.596 8.89992V5.13392H361.588V4.26592L362.652 4.19592L362.792 2.29192H363.758V4.19592H365.592V5.13392H363.758V8.91392C363.758 9.33392 363.833 9.66058 363.982 9.89392C364.141 10.1179 364.416 10.2299 364.808 10.2299C364.929 10.2299 365.06 10.2113 365.2 10.1739C365.34 10.1273 365.466 10.0853 365.578 10.0479L365.802 10.9159C365.615 10.9813 365.41 11.0373 365.186 11.0839C364.971 11.1399 364.757 11.1679 364.542 11.1679Z" fill="#141414"/>
<path d="M367.242 13.9259C367.093 13.9259 366.948 13.9119 366.808 13.8839C366.678 13.8559 366.556 13.8233 366.444 13.7859L366.668 12.8759C366.743 12.8946 366.827 12.9133 366.92 12.9319C367.014 12.9599 367.102 12.9739 367.186 12.9739C367.569 12.9739 367.886 12.8339 368.138 12.5539C368.39 12.2833 368.586 11.9379 368.726 11.5179L368.88 11.0139L366.15 4.19592H367.34L368.726 7.96192C368.829 8.25125 368.936 8.56392 369.048 8.89992C369.17 9.23592 369.282 9.56258 369.384 9.87992H369.44C369.543 9.57192 369.641 9.24992 369.734 8.91392C369.828 8.57792 369.921 8.26058 370.014 7.96192L371.232 4.19592H372.352L369.79 11.5599C369.632 12.0079 369.44 12.4093 369.216 12.7639C369.002 13.1186 368.731 13.3986 368.404 13.6039C368.087 13.8186 367.7 13.9259 367.242 13.9259Z" fill="#141414"/>
<path d="M375.808 11.1679C375.08 11.1679 374.571 10.9579 374.282 10.5379C374.002 10.1179 373.862 9.57192 373.862 8.89992V5.13392H372.854V4.26592L373.918 4.19592L374.058 2.29192H375.024V4.19592H376.858V5.13392H375.024V8.91392C375.024 9.33392 375.098 9.66058 375.248 9.89392C375.406 10.1179 375.682 10.2299 376.074 10.2299C376.195 10.2299 376.326 10.2113 376.466 10.1739C376.606 10.1273 376.732 10.0853 376.844 10.0479L377.068 10.9159C376.881 10.9813 376.676 11.0373 376.452 11.0839C376.237 11.1399 376.022 11.1679 375.808 11.1679Z" fill="#141414"/>
<path d="M380.851 11.1679C380.3 11.1679 379.782 11.0279 379.297 10.7479C378.821 10.4679 378.433 10.0619 378.135 9.52992C377.845 8.99792 377.701 8.35858 377.701 7.61192C377.701 6.84658 377.845 6.19792 378.135 5.66592C378.433 5.13392 378.821 4.72792 379.297 4.44792C379.782 4.16792 380.3 4.02792 380.851 4.02792C381.411 4.02792 381.929 4.16792 382.405 4.44792C382.881 4.72792 383.263 5.13392 383.553 5.66592C383.851 6.19792 384.001 6.84658 384.001 7.61192C384.001 8.35858 383.851 8.99792 383.553 9.52992C383.263 10.0619 382.881 10.4679 382.405 10.7479C381.929 11.0279 381.411 11.1679 380.851 11.1679ZM380.851 10.2159C381.439 10.2159 381.91 9.97792 382.265 9.50192C382.629 9.01658 382.811 8.38658 382.811 7.61192C382.811 6.82792 382.629 6.19325 382.265 5.70792C381.91 5.22258 381.439 4.97992 380.851 4.97992C380.272 4.97992 379.801 5.22258 379.437 5.70792C379.073 6.19325 378.891 6.82792 378.891 7.61192C378.891 8.38658 379.073 9.01658 379.437 9.50192C379.801 9.97792 380.272 10.2159 380.851 10.2159Z" fill="#141414"/>
<path d="M385.793 10.9999V4.19592H386.745L386.843 5.17592H386.885C387.211 4.84925 387.557 4.57858 387.921 4.36392C388.285 4.13992 388.7 4.02792 389.167 4.02792C389.885 4.02792 390.408 4.25658 390.735 4.71392C391.071 5.16192 391.239 5.81992 391.239 6.68792V10.9999H390.091V6.84192C390.091 6.20725 389.988 5.74525 389.783 5.45592C389.577 5.16658 389.251 5.02192 388.803 5.02192C388.457 5.02192 388.145 5.11058 387.865 5.28792C387.594 5.46525 387.286 5.72658 386.941 6.07192V10.9999H385.793Z" fill="#141414"/>
<path d="M393.449 10.9999V4.19592H394.597V10.9999H393.449ZM394.037 2.79592C393.813 2.79592 393.626 2.73058 393.477 2.59992C393.337 2.45992 393.267 2.27325 393.267 2.03992C393.267 1.81592 393.337 1.63392 393.477 1.49392C393.626 1.35392 393.813 1.28392 394.037 1.28392C394.261 1.28392 394.443 1.35392 394.583 1.49392C394.732 1.63392 394.807 1.81592 394.807 2.03992C394.807 2.27325 394.732 2.45992 394.583 2.59992C394.443 2.73058 394.261 2.79592 394.037 2.79592Z" fill="#141414"/>
<path d="M399.54 11.1679C398.989 11.1679 398.471 11.0279 397.986 10.7479C397.51 10.4679 397.123 10.0619 396.824 9.52992C396.535 8.99792 396.39 8.35858 396.39 7.61192C396.39 6.84658 396.535 6.19792 396.824 5.66592C397.123 5.13392 397.51 4.72792 397.986 4.44792C398.471 4.16792 398.989 4.02792 399.54 4.02792C400.1 4.02792 400.618 4.16792 401.094 4.44792C401.57 4.72792 401.953 5.13392 402.242 5.66592C402.541 6.19792 402.69 6.84658 402.69 7.61192C402.69 8.35858 402.541 8.99792 402.242 9.52992C401.953 10.0619 401.57 10.4679 401.094 10.7479C400.618 11.0279 400.1 11.1679 399.54 11.1679ZM399.54 10.2159C400.128 10.2159 400.599 9.97792 400.954 9.50192C401.318 9.01658 401.5 8.38658 401.5 7.61192C401.5 6.82792 401.318 6.19325 400.954 5.70792C400.599 5.22258 400.128 4.97992 399.54 4.97992C398.961 4.97992 398.49 5.22258 398.126 5.70792C397.762 6.19325 397.58 6.82792 397.58 7.61192C397.58 8.38658 397.762 9.01658 398.126 9.50192C398.49 9.97792 398.961 10.2159 399.54 10.2159Z" fill="#141414"/>
<path d="M405.505 10.9999L403.615 4.19592H404.791L405.799 8.12992C405.874 8.44725 405.944 8.76458 406.009 9.08192C406.075 9.38992 406.14 9.70259 406.205 10.0199H406.261C406.336 9.70259 406.411 9.38992 406.485 9.08192C406.56 8.76458 406.639 8.44725 406.723 8.12992L407.773 4.19592H408.893L409.957 8.12992C410.041 8.44725 410.121 8.76458 410.195 9.08192C410.279 9.38992 410.359 9.70259 410.433 10.0199H410.489C410.564 9.70259 410.634 9.38992 410.699 9.08192C410.774 8.76458 410.844 8.44725 410.909 8.12992L411.903 4.19592H412.995L411.175 10.9999H409.775L408.795 7.34592C408.711 7.01925 408.632 6.69725 408.557 6.37992C408.492 6.06258 408.417 5.73125 408.333 5.38592H408.277C408.203 5.73125 408.128 6.06725 408.053 6.39392C407.979 6.71125 407.895 7.03325 407.801 7.35992L406.849 10.9999H405.505Z" fill="#141414"/>
<path d="M414.588 13.9259C414.439 13.9259 414.294 13.9119 414.154 13.8839C414.023 13.8559 413.902 13.8233 413.79 13.7859L414.014 12.8759C414.089 12.8946 414.173 12.9133 414.266 12.9319C414.359 12.9599 414.448 12.9739 414.532 12.9739C414.915 12.9739 415.232 12.8339 415.484 12.5539C415.736 12.2833 415.932 11.9379 416.072 11.5179L416.226 11.0139L413.496 4.19592H414.686L416.072 7.96192C416.175 8.25125 416.282 8.56392 416.394 8.89992C416.516 9.23592 416.628 9.56258 416.73 9.87992H416.786C416.889 9.57192 416.987 9.24992 417.08 8.91392C417.173 8.57792 417.267 8.26058 417.36 7.96192L418.578 4.19592H419.698L417.136 11.5599C416.978 12.0079 416.786 12.4093 416.562 12.7639C416.348 13.1186 416.077 13.3986 415.75 13.6039C415.433 13.8186 415.046 13.9259 414.588 13.9259Z" fill="#141414"/>
<path d="M423.645 11.1679C423.047 11.1679 422.506 11.0279 422.021 10.7479C421.535 10.4679 421.153 10.0619 420.873 9.52992C420.593 8.99792 420.453 8.35858 420.453 7.61192C420.453 6.84658 420.602 6.19792 420.901 5.66592C421.209 5.13392 421.61 4.72792 422.105 4.44792C422.609 4.16792 423.15 4.02792 423.729 4.02792C424.177 4.02792 424.559 4.10725 424.877 4.26592C425.203 4.42458 425.483 4.61125 425.717 4.82592L425.129 5.58192C424.933 5.40458 424.723 5.25992 424.499 5.14792C424.284 5.03592 424.041 4.97992 423.771 4.97992C423.36 4.97992 422.991 5.09192 422.665 5.31592C422.347 5.53058 422.095 5.83858 421.909 6.23992C421.731 6.63192 421.643 7.08925 421.643 7.61192C421.643 8.38658 421.834 9.01658 422.217 9.50192C422.609 9.97792 423.117 10.2159 423.743 10.2159C424.06 10.2159 424.354 10.1506 424.625 10.0199C424.895 9.87992 425.133 9.71658 425.339 9.52992L425.843 10.2999C425.535 10.5706 425.194 10.7853 424.821 10.9439C424.447 11.0933 424.055 11.1679 423.645 11.1679Z" fill="#141414"/>
<path d="M427.341 10.9999V1.03192H428.489V3.74792L428.447 5.14792C428.774 4.83992 429.115 4.57858 429.469 4.36392C429.833 4.13992 430.249 4.02792 430.715 4.02792C431.434 4.02792 431.957 4.25658 432.283 4.71392C432.619 5.16192 432.787 5.81992 432.787 6.68792V10.9999H431.639V6.84192C431.639 6.20725 431.537 5.74525 431.331 5.45592C431.126 5.16658 430.799 5.02192 430.351 5.02192C430.006 5.02192 429.693 5.11058 429.413 5.28792C429.143 5.46525 428.835 5.72658 428.489 6.07192V10.9999H427.341Z" fill="#141414"/>
<path d="M437.759 10.9999V4.19592H438.907V10.9999H437.759ZM438.347 2.79592C438.123 2.79592 437.937 2.73058 437.787 2.59992C437.647 2.45992 437.577 2.27325 437.577 2.03992C437.577 1.81592 437.647 1.63392 437.787 1.49392C437.937 1.35392 438.123 1.28392 438.347 1.28392C438.571 1.28392 438.753 1.35392 438.893 1.49392C439.043 1.63392 439.117 1.81592 439.117 2.03992C439.117 2.27325 439.043 2.45992 438.893 2.59992C438.753 2.73058 438.571 2.79592 438.347 2.79592Z" fill="#141414"/>
<path d="M440.197 13.2399L443.935 1.05992H444.775L441.037 13.2399H440.197Z" fill="#141414"/>
<path d="M447.317 11.1679C446.888 11.1679 446.575 11.0373 446.379 10.7759C446.193 10.5053 446.099 10.1226 446.099 9.62792V1.03192H447.247V9.71192C447.247 9.88925 447.28 10.0199 447.345 10.1039C447.411 10.1786 447.485 10.2159 447.569 10.2159C447.607 10.2159 447.639 10.2159 447.667 10.2159C447.705 10.2066 447.756 10.1973 447.821 10.1879L447.975 11.0559C447.901 11.0933 447.812 11.1213 447.709 11.1399C447.607 11.1586 447.476 11.1679 447.317 11.1679Z" fill="#141414"/>
<path d="M451.656 11.1679C450.937 11.1679 450.41 10.9439 450.074 10.4959C449.738 10.0386 449.57 9.37592 449.57 8.50792V4.19592H450.732V8.35392C450.732 8.98858 450.83 9.45058 451.026 9.73992C451.231 10.0293 451.558 10.1739 452.006 10.1739C452.36 10.1739 452.673 10.0853 452.944 9.90792C453.224 9.72125 453.522 9.42725 453.84 9.02592V4.19592H454.988V10.9999H454.036L453.938 9.93592H453.896C453.578 10.3093 453.242 10.6079 452.888 10.8319C452.533 11.0559 452.122 11.1679 451.656 11.1679Z" fill="#141414"/>
<path d="M460.293 11.1679C459.975 11.1679 459.644 11.0933 459.299 10.9439C458.963 10.7853 458.645 10.5706 458.347 10.2999H458.305L458.207 10.9999H457.283V1.03192H458.431V3.74792L458.403 4.97992C458.711 4.70925 459.047 4.48525 459.411 4.30792C459.784 4.12125 460.157 4.02792 460.531 4.02792C461.417 4.02792 462.089 4.34058 462.547 4.96592C463.004 5.59125 463.233 6.43125 463.233 7.48592C463.233 8.26058 463.093 8.92325 462.813 9.47392C462.542 10.0246 462.183 10.4446 461.735 10.7339C461.296 11.0233 460.815 11.1679 460.293 11.1679ZM460.097 10.2019C460.657 10.2019 461.119 9.96392 461.483 9.48792C461.856 9.00258 462.043 8.33992 462.043 7.49992C462.043 6.75325 461.903 6.15125 461.623 5.69392C461.352 5.22725 460.895 4.99392 460.251 4.99392C459.961 4.99392 459.667 5.07325 459.369 5.23192C459.07 5.39058 458.757 5.61925 458.431 5.91792V9.48792C458.729 9.74925 459.023 9.93592 459.313 10.0479C459.611 10.1506 459.873 10.2019 460.097 10.2019Z" fill="#141414"/>
<path d="M468.902 10.9999L467.012 4.19592H468.188L469.196 8.12992C469.27 8.44725 469.34 8.76458 469.406 9.08192C469.471 9.38992 469.536 9.70259 469.602 10.0199H469.658C469.732 9.70259 469.807 9.38992 469.882 9.08192C469.956 8.76458 470.036 8.44725 470.12 8.12992L471.17 4.19592H472.29L473.354 8.12992C473.438 8.44725 473.517 8.76458 473.592 9.08192C473.676 9.38992 473.755 9.70259 473.83 10.0199H473.886C473.96 9.70259 474.03 9.38992 474.096 9.08192C474.171 8.76458 474.24 8.44725 474.306 8.12992L475.3 4.19592H476.392L474.572 10.9999H473.172L472.192 7.34592C472.108 7.01925 472.029 6.69725 471.954 6.37992C471.888 6.06258 471.814 5.73125 471.73 5.38592H471.674C471.599 5.73125 471.524 6.06725 471.45 6.39392C471.375 6.71125 471.291 7.03325 471.198 7.35992L470.246 10.9999H468.902Z" fill="#141414"/>
<path d="M477.985 13.9259C477.835 13.9259 477.691 13.9119 477.551 13.8839C477.42 13.8559 477.299 13.8233 477.187 13.7859L477.411 12.8759C477.485 12.8946 477.569 12.9133 477.663 12.9319C477.756 12.9599 477.845 12.9739 477.929 12.9739C478.311 12.9739 478.629 12.8339 478.881 12.5539C479.133 12.2833 479.329 11.9379 479.469 11.5179L479.623 11.0139L476.893 4.19592H478.083L479.469 7.96192C479.571 8.25125 479.679 8.56392 479.791 8.89992C479.912 9.23592 480.024 9.56258 480.127 9.87992H480.183C480.285 9.57192 480.383 9.24992 480.477 8.91392C480.57 8.57792 480.663 8.26058 480.757 7.96192L481.975 4.19592H483.095L480.533 11.5599C480.374 12.0079 480.183 12.4093 479.959 12.7639C479.744 13.1186 479.473 13.3986 479.147 13.6039C478.829 13.8186 478.442 13.9259 477.985 13.9259Z" fill="#141414"/>
<path d="M484.408 10.9999V4.19592H485.36L485.458 5.42792H485.5C485.733 4.99858 486.018 4.65792 486.354 4.40592C486.69 4.15392 487.049 4.02792 487.432 4.02792C487.702 4.02792 487.945 4.07458 488.16 4.16792L487.936 5.17592C487.824 5.13858 487.721 5.11058 487.628 5.09192C487.534 5.07325 487.418 5.06392 487.278 5.06392C486.988 5.06392 486.685 5.18058 486.368 5.41392C486.06 5.64725 485.789 6.05325 485.556 6.63192V10.9999H484.408Z" fill="#141414"/>
<path d="M491.771 11.1679C491.22 11.1679 490.702 11.0279 490.217 10.7479C489.741 10.4679 489.353 10.0619 489.055 9.52992C488.765 8.99792 488.621 8.35858 488.621 7.61192C488.621 6.84658 488.765 6.19792 489.055 5.66592C489.353 5.13392 489.741 4.72792 490.217 4.44792C490.702 4.16792 491.22 4.02792 491.771 4.02792C492.331 4.02792 492.849 4.16792 493.325 4.44792C493.801 4.72792 494.183 5.13392 494.473 5.66592C494.771 6.19792 494.921 6.84658 494.921 7.61192C494.921 8.35858 494.771 8.99792 494.473 9.52992C494.183 10.0619 493.801 10.4679 493.325 10.7479C492.849 11.0279 492.331 11.1679 491.771 11.1679ZM491.771 10.2159C492.359 10.2159 492.83 9.97792 493.185 9.50192C493.549 9.01658 493.731 8.38658 493.731 7.61192C493.731 6.82792 493.549 6.19325 493.185 5.70792C492.83 5.22258 492.359 4.97992 491.771 4.97992C491.192 4.97992 490.721 5.22258 490.357 5.70792C489.993 6.19325 489.811 6.82792 489.811 7.61192C489.811 8.38658 489.993 9.01658 490.357 9.50192C490.721 9.97792 491.192 10.2159 491.771 10.2159Z" fill="#141414"/>
<path d="M499.722 11.1679C499.405 11.1679 499.074 11.0933 498.728 10.9439C498.392 10.7853 498.075 10.5706 497.776 10.2999H497.734L497.636 10.9999H496.712V1.03192H497.86V3.74792L497.832 4.97992C498.141 4.70925 498.476 4.48525 498.84 4.30792C499.214 4.12125 499.587 4.02792 499.96 4.02792C500.847 4.02792 501.519 4.34058 501.976 4.96592C502.434 5.59125 502.662 6.43125 502.662 7.48592C502.662 8.26058 502.522 8.92325 502.242 9.47392C501.972 10.0246 501.612 10.4446 501.164 10.7339C500.726 11.0233 500.245 11.1679 499.722 11.1679ZM499.526 10.2019C500.086 10.2019 500.548 9.96392 500.912 9.48792C501.286 9.00258 501.472 8.33992 501.472 7.49992C501.472 6.75325 501.332 6.15125 501.052 5.69392C500.782 5.22725 500.324 4.99392 499.68 4.99392C499.391 4.99392 499.097 5.07325 498.798 5.23192C498.5 5.39058 498.187 5.61925 497.86 5.91792V9.48792C498.159 9.74925 498.453 9.93592 498.742 10.0479C499.041 10.1506 499.302 10.2019 499.526 10.2019Z" fill="#141414"/>
<path d="M507.097 11.1679C506.546 11.1679 506.028 11.0279 505.543 10.7479C505.067 10.4679 504.679 10.0619 504.381 9.52992C504.091 8.99792 503.947 8.35858 503.947 7.61192C503.947 6.84658 504.091 6.19792 504.381 5.66592C504.679 5.13392 505.067 4.72792 505.543 4.44792C506.028 4.16792 506.546 4.02792 507.097 4.02792C507.657 4.02792 508.175 4.16792 508.651 4.44792C509.127 4.72792 509.509 5.13392 509.799 5.66592C510.097 6.19792 510.247 6.84658 510.247 7.61192C510.247 8.35858 510.097 8.99792 509.799 9.52992C509.509 10.0619 509.127 10.4679 508.651 10.7479C508.175 11.0279 507.657 11.1679 507.097 11.1679ZM507.097 10.2159C507.685 10.2159 508.156 9.97792 508.511 9.50192C508.875 9.01658 509.057 8.38658 509.057 7.61192C509.057 6.82792 508.875 6.19325 508.511 5.70792C508.156 5.22258 507.685 4.97992 507.097 4.97992C506.518 4.97992 506.047 5.22258 505.683 5.70792C505.319 6.19325 505.137 6.82792 505.137 7.61192C505.137 8.38658 505.319 9.01658 505.683 9.50192C506.047 9.97792 506.518 10.2159 507.097 10.2159ZM506.901 2.97792L506.313 2.40392L508.287 0.065918L509.099 0.835918L506.901 2.97792Z" fill="#141414"/>
<path d="M513.062 10.9999L511.172 4.19592H512.348L513.356 8.12992C513.431 8.44725 513.501 8.76458 513.566 9.08192C513.631 9.38992 513.697 9.70259 513.762 10.0199H513.818C513.893 9.70259 513.967 9.38992 514.042 9.08192C514.117 8.76458 514.196 8.44725 514.28 8.12992L515.33 4.19592H516.45L517.514 8.12992C517.598 8.44725 517.677 8.76458 517.752 9.08192C517.836 9.38992 517.915 9.70259 517.99 10.0199H518.046C518.121 9.70259 518.191 9.38992 518.256 9.08192C518.331 8.76458 518.401 8.44725 518.466 8.12992L519.46 4.19592H520.552L518.732 10.9999H517.332L516.352 7.34592C516.268 7.01925 516.189 6.69725 516.114 6.37992C516.049 6.06258 515.974 5.73125 515.89 5.38592H515.834C515.759 5.73125 515.685 6.06725 515.61 6.39392C515.535 6.71125 515.451 7.03325 515.358 7.35992L514.406 10.9999H513.062Z" fill="#141414"/>
<path d="M524.836 13.8699V4.19592H525.787L525.885 4.97992H525.927C526.235 4.71858 526.571 4.49458 526.935 4.30792C527.309 4.12125 527.696 4.02792 528.097 4.02792C528.975 4.02792 529.642 4.34525 530.099 4.97992C530.557 5.60525 530.786 6.44525 530.786 7.49992C530.786 8.26525 530.646 8.92325 530.365 9.47392C530.095 10.0246 529.735 10.4446 529.287 10.7339C528.849 11.0233 528.368 11.1679 527.846 11.1679C527.528 11.1679 527.211 11.0979 526.893 10.9579C526.586 10.8179 526.273 10.6266 525.956 10.3839L525.984 11.5739V13.8699H524.836ZM527.649 10.2019C528.209 10.2019 528.672 9.96392 529.036 9.48792C529.409 9.00258 529.596 8.33992 529.596 7.49992C529.596 6.75325 529.456 6.15125 529.175 5.69392C528.905 5.22725 528.448 4.99392 527.804 4.99392C527.514 4.99392 527.22 5.07325 526.922 5.23192C526.632 5.39058 526.32 5.61925 525.984 5.91792V9.48792C526.292 9.74925 526.59 9.93592 526.88 10.0479C527.169 10.1506 527.425 10.2019 527.649 10.2019Z" fill="#141414"/>
<path d="M535.247 11.1679C534.696 11.1679 534.178 11.0279 533.693 10.7479C533.217 10.4679 532.83 10.0619 532.531 9.52992C532.242 8.99792 532.097 8.35858 532.097 7.61192C532.097 6.84658 532.242 6.19792 532.531 5.66592C532.83 5.13392 533.217 4.72792 533.693 4.44792C534.178 4.16792 534.696 4.02792 535.247 4.02792C535.807 4.02792 536.325 4.16792 536.801 4.44792C537.277 4.72792 537.66 5.13392 537.949 5.66592C538.248 6.19792 538.397 6.84658 538.397 7.61192C538.397 8.35858 538.248 8.99792 537.949 9.52992C537.66 10.0619 537.277 10.4679 536.801 10.7479C536.325 11.0279 535.807 11.1679 535.247 11.1679ZM535.247 10.2159C535.835 10.2159 536.306 9.97792 536.661 9.50192C537.025 9.01658 537.207 8.38658 537.207 7.61192C537.207 6.82792 537.025 6.19325 536.661 5.70792C536.306 5.22258 535.835 4.97992 535.247 4.97992C534.668 4.97992 534.197 5.22258 533.833 5.70792C533.469 6.19325 533.287 6.82792 533.287 7.61192C533.287 8.38658 533.469 9.01658 533.833 9.50192C534.197 9.97792 534.668 10.2159 535.247 10.2159Z" fill="#141414"/>
<path d="M541.212 10.9999L539.322 4.19592H540.498L541.506 8.12992C541.581 8.44725 541.651 8.76458 541.716 9.08192C541.782 9.38992 541.847 9.70259 541.912 10.0199H541.968C542.043 9.70259 542.118 9.38992 542.192 9.08192C542.267 8.76458 542.346 8.44725 542.43 8.12992L543.48 4.19592H544.6L545.664 8.12992C545.748 8.44725 545.828 8.76458 545.902 9.08192C545.986 9.38992 546.066 9.70259 546.14 10.0199H546.196C546.271 9.70259 546.341 9.38992 546.406 9.08192C546.481 8.76458 546.551 8.44725 546.616 8.12992L547.61 4.19592H548.702L546.882 10.9999H545.482L544.502 7.34592C544.418 7.01925 544.339 6.69725 544.264 6.37992C544.199 6.06258 544.124 5.73125 544.04 5.38592H543.984C543.91 5.73125 543.835 6.06725 543.76 6.39392C543.686 6.71125 543.602 7.03325 543.508 7.35992L542.556 10.9999H541.212Z" fill="#141414"/>
<path d="M550.183 10.9999V4.19592H551.331V10.9999H550.183ZM550.771 2.79592C550.547 2.79592 550.361 2.73058 550.211 2.59992C550.071 2.45992 550.001 2.27325 550.001 2.03992C550.001 1.81592 550.071 1.63392 550.211 1.49392C550.361 1.35392 550.547 1.28392 550.771 1.28392C550.995 1.28392 551.177 1.35392 551.317 1.49392C551.466 1.63392 551.541 1.81592 551.541 2.03992C551.541 2.27325 551.466 2.45992 551.317 2.59992C551.177 2.73058 550.995 2.79592 550.771 2.79592Z" fill="#141414"/>
<path d="M557.744 13.8839C557.39 13.8839 557.086 13.7813 556.834 13.5759C556.592 13.3799 556.47 13.0859 556.47 12.6939C556.47 12.3113 556.592 11.9659 556.834 11.6579C557.077 11.3593 557.329 11.1213 557.59 10.9439L557.492 10.1879H557.45C557.133 10.4493 556.783 10.6779 556.4 10.8739C556.027 11.0699 555.626 11.1679 555.196 11.1679C554.627 11.1679 554.151 10.9999 553.768 10.6639C553.395 10.3186 553.208 9.84258 553.208 9.23592C553.208 8.48925 553.54 7.91992 554.202 7.52792C554.874 7.12658 555.934 6.84658 557.38 6.68792C557.38 6.39858 557.338 6.12325 557.254 5.86192C557.18 5.60058 557.04 5.39058 556.834 5.23192C556.638 5.06392 556.354 4.97992 555.98 4.97992C555.588 4.97992 555.22 5.05458 554.874 5.20392C554.529 5.35325 554.221 5.52125 553.95 5.70792L553.502 4.90992C553.82 4.70458 554.207 4.50858 554.664 4.32192C555.131 4.12592 555.635 4.02792 556.176 4.02792C557.007 4.02792 557.609 4.28458 557.982 4.79792C558.356 5.30192 558.542 5.97858 558.542 6.82792V10.9999C558.15 11.1493 557.847 11.3639 557.632 11.6439C557.427 11.9239 557.324 12.1993 557.324 12.4699C557.324 12.6846 557.39 12.8433 557.52 12.9459C557.651 13.0579 557.8 13.1139 557.968 13.1139C558.08 13.1139 558.183 13.0953 558.276 13.0579C558.37 13.0299 558.458 12.9879 558.542 12.9319L558.836 13.5059C558.706 13.6086 558.533 13.6973 558.318 13.7719C558.113 13.8466 557.922 13.8839 557.744 13.8839ZM555.532 10.2439C555.859 10.2439 556.167 10.1646 556.456 10.0059C556.746 9.84725 557.054 9.62325 557.38 9.33392V7.44392C556.251 7.58392 555.458 7.79392 555 8.07392C554.552 8.35392 554.328 8.71325 554.328 9.15192C554.328 9.53458 554.445 9.81458 554.678 9.99192C554.912 10.1599 555.196 10.2439 555.532 10.2439Z" fill="#141414"/>
<path d="M559.969 10.9999V10.3839L563.553 5.13392H560.361V4.19592H565.009V4.81192L561.425 10.0619H565.121V10.9999H559.969Z" fill="#141414"/>
<path d="M567.87 11.1679C567.301 11.1679 566.825 10.9999 566.442 10.6639C566.069 10.3186 565.882 9.84258 565.882 9.23592C565.882 8.48925 566.214 7.91992 566.876 7.52792C567.548 7.12658 568.608 6.84658 570.054 6.68792C570.054 6.39858 570.012 6.12325 569.928 5.86192C569.854 5.60058 569.714 5.39058 569.508 5.23192C569.312 5.06392 569.028 4.97992 568.654 4.97992C568.262 4.97992 567.894 5.05458 567.548 5.20392C567.203 5.35325 566.895 5.52125 566.624 5.70792L566.176 4.90992C566.494 4.70458 566.881 4.50858 567.338 4.32192C567.805 4.12592 568.309 4.02792 568.85 4.02792C569.681 4.02792 570.283 4.28458 570.656 4.79792C571.03 5.30192 571.216 5.97858 571.216 6.82792V10.9999H570.264L570.166 10.1879H570.124C569.807 10.4493 569.457 10.6779 569.074 10.8739C568.701 11.0699 568.3 11.1679 567.87 11.1679ZM568.206 10.2439C568.533 10.2439 568.841 10.1646 569.13 10.0059C569.42 9.84725 569.728 9.62325 570.054 9.33392V7.44392C568.925 7.58392 568.132 7.79392 567.674 8.07392C567.226 8.35392 567.002 8.71325 567.002 9.15192C567.002 9.53458 567.119 9.81458 567.352 9.99192C567.586 10.1599 567.87 10.2439 568.206 10.2439Z" fill="#141414"/>
<path d="M573.357 10.9999V4.19592H574.309L574.407 5.17592H574.449C574.776 4.84925 575.121 4.57858 575.485 4.36392C575.849 4.13992 576.264 4.02792 576.731 4.02792C577.45 4.02792 577.972 4.25658 578.299 4.71392C578.635 5.16192 578.803 5.81992 578.803 6.68792V10.9999H577.655V6.84192C577.655 6.20725 577.552 5.74525 577.347 5.45592C577.142 5.16658 576.815 5.02192 576.367 5.02192C576.022 5.02192 575.709 5.11058 575.429 5.28792C575.158 5.46525 574.85 5.72658 574.505 6.07192V10.9999H573.357Z" fill="#141414"/>
<path d="M581.125 13.9259C580.976 13.9259 580.831 13.9119 580.691 13.8839C580.561 13.8559 580.439 13.8233 580.327 13.7859L580.551 12.8759C580.626 12.8946 580.71 12.9133 580.803 12.9319C580.897 12.9599 580.985 12.9739 581.069 12.9739C581.452 12.9739 581.769 12.8339 582.021 12.5539C582.273 12.2833 582.469 11.9379 582.609 11.5179L582.763 11.0139L580.033 4.19592H581.223L582.609 7.96192C582.712 8.25125 582.819 8.56392 582.931 8.89992C583.053 9.23592 583.165 9.56258 583.267 9.87992H583.323C583.426 9.57192 583.524 9.24992 583.617 8.91392C583.711 8.57792 583.804 8.26058 583.897 7.96192L585.115 4.19592H586.235L583.673 11.5599C583.515 12.0079 583.323 12.4093 583.099 12.7639C582.885 13.1186 582.614 13.3986 582.287 13.6039C581.97 13.8186 581.583 13.9259 581.125 13.9259Z" fill="#141414"/>
<path d="M590.182 11.1679C589.584 11.1679 589.043 11.0279 588.558 10.7479C588.072 10.4679 587.69 10.0619 587.41 9.52992C587.13 8.99792 586.99 8.35858 586.99 7.61192C586.99 6.84658 587.139 6.19792 587.438 5.66592C587.746 5.13392 588.147 4.72792 588.642 4.44792C589.146 4.16792 589.687 4.02792 590.266 4.02792C590.714 4.02792 591.096 4.10725 591.414 4.26592C591.74 4.42458 592.02 4.61125 592.254 4.82592L591.666 5.58192C591.47 5.40458 591.26 5.25992 591.036 5.14792C590.821 5.03592 590.578 4.97992 590.308 4.97992C589.897 4.97992 589.528 5.09192 589.202 5.31592C588.884 5.53058 588.632 5.83858 588.446 6.23992C588.268 6.63192 588.18 7.08925 588.18 7.61192C588.18 8.38658 588.371 9.01658 588.754 9.50192C589.146 9.97792 589.654 10.2159 590.28 10.2159C590.597 10.2159 590.891 10.1506 591.162 10.0199C591.432 9.87992 591.67 9.71658 591.876 9.52992L592.38 10.2999C592.072 10.5706 591.731 10.7853 591.358 10.9439C590.984 11.0933 590.592 11.1679 590.182 11.1679Z" fill="#141414"/>
<path d="M593.878 10.9999V1.03192H595.026V3.74792L594.984 5.14792C595.311 4.83992 595.652 4.57858 596.006 4.36392C596.37 4.13992 596.786 4.02792 597.252 4.02792C597.971 4.02792 598.494 4.25658 598.82 4.71392C599.156 5.16192 599.324 5.81992 599.324 6.68792V10.9999H598.176V6.84192C598.176 6.20725 598.074 5.74525 597.868 5.45592C597.663 5.16658 597.336 5.02192 596.888 5.02192C596.543 5.02192 596.23 5.11058 595.95 5.28792C595.68 5.46525 595.372 5.72658 595.026 6.07192V10.9999H593.878Z" fill="#141414"/>
<path d="M602.096 11.1679C601.862 11.1679 601.662 11.0886 601.494 10.9299C601.335 10.7619 601.256 10.5519 601.256 10.2999C601.256 10.0293 601.335 9.81458 601.494 9.65592C601.662 9.48792 601.862 9.40392 602.096 9.40392C602.32 9.40392 602.511 9.48792 602.67 9.65592C602.838 9.81458 602.922 10.0293 602.922 10.2999C602.922 10.5519 602.838 10.7619 602.67 10.9299C602.511 11.0886 602.32 11.1679 602.096 11.1679Z" fill="#141414"/>
<path d="M603.836 5.11992L603.276 4.71392L604.074 3.39792L602.716 2.83792L602.926 2.19392L604.354 2.54392L604.48 1.03192H605.166L605.292 2.52992L606.734 2.19392L606.944 2.83792L605.586 3.39792L606.37 4.71392L605.824 5.11992L604.83 3.91592L603.836 5.11992Z" fill="#141414"/>
</svg>
