<svg width="359" height="34" viewBox="0 0 359 34" fill="none" xmlns="http://www.w3.org/2000/svg">
<path d="M4.64794 11.1684C3.8826 11.1684 3.20127 10.9724 2.60394 10.5804C2.01594 10.1884 1.55394 9.63307 1.21794 8.91441C0.891271 8.19574 0.727938 7.34641 0.727938 6.36641C0.727938 5.38641 0.891271 4.54641 1.21794 3.84641C1.55394 3.13707 2.01594 2.59574 2.60394 2.22241C3.20127 1.83974 3.8826 1.64841 4.64794 1.64841C5.4226 1.64841 6.10394 1.83974 6.69194 2.22241C7.27994 2.59574 7.74194 3.13707 8.07794 3.84641C8.41394 4.54641 8.58194 5.38641 8.58194 6.36641C8.58194 7.34641 8.41394 8.19574 8.07794 8.91441C7.74194 9.63307 7.27994 10.1884 6.69194 10.5804C6.10394 10.9724 5.4226 11.1684 4.64794 11.1684ZM4.64794 10.1464C5.1986 10.1464 5.6746 9.99241 6.07594 9.68441C6.4866 9.36707 6.80394 8.92841 7.02794 8.36841C7.25194 7.79907 7.36394 7.13174 7.36394 6.36641C7.36394 5.22774 7.1166 4.32707 6.62194 3.66441C6.12727 3.00174 5.46927 2.67041 4.64794 2.67041C3.8266 2.67041 3.1686 3.00174 2.67394 3.66441C2.17927 4.32707 1.93194 5.22774 1.93194 6.36641C1.93194 7.13174 2.04394 7.79907 2.26794 8.36841C2.49194 8.92841 2.80927 9.36707 3.21994 9.68441C3.6306 9.99241 4.1066 10.1464 4.64794 10.1464Z" fill="#141414"/>
<path d="M12.2228 11.1684C11.7375 11.1684 11.2755 11.0797 10.8368 10.9024C10.3981 10.7157 10.0155 10.4917 9.68881 10.2304L10.2628 9.46041C10.5615 9.69374 10.8695 9.88974 11.1868 10.0484C11.5041 10.1977 11.8635 10.2724 12.2648 10.2724C12.7128 10.2724 13.0488 10.1697 13.2728 9.96441C13.4968 9.74974 13.6088 9.49774 13.6088 9.20841C13.6088 8.97507 13.5295 8.77907 13.3708 8.62041C13.2215 8.46174 13.0255 8.33107 12.7828 8.22841C12.5495 8.11641 12.3068 8.01374 12.0548 7.92041C11.7375 7.79907 11.4248 7.66374 11.1168 7.51441C10.8088 7.35574 10.5568 7.15507 10.3608 6.91241C10.1648 6.66041 10.0668 6.34307 10.0668 5.96041C10.0668 5.40974 10.2721 4.95241 10.6828 4.58841C11.1028 4.21507 11.6815 4.02841 12.4188 4.02841C12.8388 4.02841 13.2308 4.10307 13.5948 4.25241C13.9588 4.40174 14.2715 4.58374 14.5328 4.79841L13.9728 5.52641C13.7395 5.34907 13.4968 5.20441 13.2448 5.09241C12.9928 4.98041 12.7175 4.92441 12.4188 4.92441C11.9895 4.92441 11.6721 5.02241 11.4668 5.21841C11.2708 5.41441 11.1728 5.64307 11.1728 5.90441C11.1728 6.11907 11.2428 6.29641 11.3828 6.43641C11.5228 6.56707 11.7048 6.68374 11.9288 6.78641C12.1528 6.87974 12.3908 6.97774 12.6428 7.08041C12.9695 7.20174 13.2915 7.34174 13.6088 7.50041C13.9261 7.64974 14.1875 7.85507 14.3928 8.11641C14.6075 8.36841 14.7148 8.70907 14.7148 9.13841C14.7148 9.50241 14.6168 9.83841 14.4208 10.1464C14.2341 10.4544 13.9541 10.7017 13.5808 10.8884C13.2168 11.0751 12.7641 11.1684 12.2228 11.1684ZM12.1108 2.97841L11.5228 2.40441L13.4968 0.0664062L14.3088 0.836406L12.1108 2.97841Z" fill="#141414"/>
<path d="M17.388 11.0004L15.498 4.19641H16.674L17.682 8.13041C17.7567 8.44774 17.8267 8.76507 17.892 9.08241C17.9574 9.39041 18.0227 9.70307 18.088 10.0204H18.144C18.2187 9.70307 18.2934 9.39041 18.368 9.08241C18.4427 8.76507 18.522 8.44774 18.606 8.13041L19.656 4.19641H20.776L21.84 8.13041C21.924 8.44774 22.0034 8.76507 22.078 9.08241C22.162 9.39041 22.2414 9.70307 22.316 10.0204H22.372C22.4467 9.70307 22.5167 9.39041 22.582 9.08241C22.6567 8.76507 22.7267 8.44774 22.792 8.13041L23.786 4.19641H24.878L23.058 11.0004H21.658L20.678 7.34641C20.594 7.01974 20.5147 6.69774 20.44 6.38041C20.3747 6.06307 20.3 5.73174 20.216 5.38641H20.16C20.0854 5.73174 20.0107 6.06774 19.936 6.39441C19.8614 6.71174 19.7774 7.03374 19.684 7.36041L18.732 11.0004H17.388Z" fill="#141414"/>
<path d="M26.3589 11.0004V4.19641H27.5069V11.0004H26.3589ZM26.9469 2.79641C26.7229 2.79641 26.5362 2.73107 26.3869 2.60041C26.2469 2.46041 26.1769 2.27374 26.1769 2.04041C26.1769 1.81641 26.2469 1.63441 26.3869 1.49441C26.5362 1.35441 26.7229 1.28441 26.9469 1.28441C27.1709 1.28441 27.3529 1.35441 27.4929 1.49441C27.6422 1.63441 27.7169 1.81641 27.7169 2.04041C27.7169 2.27374 27.6422 2.46041 27.4929 2.60041C27.3529 2.73107 27.1709 2.79641 26.9469 2.79641Z" fill="#141414"/>
<path d="M31.3722 11.1684C30.8029 11.1684 30.3269 11.0004 29.9442 10.6644C29.5709 10.3191 29.3842 9.84307 29.3842 9.23641C29.3842 8.48974 29.7155 7.92041 30.3782 7.52841C31.0502 7.12707 32.1095 6.84707 33.5562 6.68841C33.5562 6.39907 33.5142 6.12374 33.4302 5.86241C33.3555 5.60107 33.2155 5.39107 33.0102 5.23241C32.8142 5.06441 32.5295 4.98041 32.1562 4.98041C31.7642 4.98041 31.3955 5.05507 31.0502 5.20441C30.7049 5.35374 30.3969 5.52174 30.1262 5.70841L29.6782 4.91041C29.9955 4.70507 30.3829 4.50907 30.8402 4.32241C31.3069 4.12641 31.8109 4.02841 32.3522 4.02841C33.1829 4.02841 33.7849 4.28507 34.1582 4.79841C34.5315 5.30241 34.7182 5.97907 34.7182 6.82841V11.0004H33.7662L33.6682 10.1884H33.6262C33.3089 10.4497 32.9589 10.6784 32.5762 10.8744C32.2029 11.0704 31.8015 11.1684 31.3722 11.1684ZM31.7082 10.2444C32.0349 10.2444 32.3429 10.1651 32.6322 10.0064C32.9215 9.84774 33.2295 9.62374 33.5562 9.33441V7.44441C32.4269 7.58441 31.6335 7.79441 31.1762 8.07441C30.7282 8.35441 30.5042 8.71374 30.5042 9.15241C30.5042 9.53507 30.6209 9.81507 30.8542 9.99241C31.0875 10.1604 31.3722 10.2444 31.7082 10.2444Z" fill="#141414"/>
<path d="M39.1829 11.1684C38.3335 11.1684 37.6522 10.8604 37.1389 10.2444C36.6255 9.61907 36.3689 8.74174 36.3689 7.61241C36.3689 6.87507 36.5042 6.24041 36.7749 5.70841C37.0549 5.16707 37.4189 4.75174 37.8669 4.46241C38.3242 4.17307 38.8095 4.02841 39.3229 4.02841C39.7149 4.02841 40.0555 4.09841 40.3449 4.23841C40.6342 4.37841 40.9282 4.56974 41.2269 4.81241L41.1709 3.65041V1.03241H42.3329V11.0004H41.3809L41.2829 10.2024H41.2409C40.9795 10.4637 40.6715 10.6924 40.3169 10.8884C39.9622 11.0751 39.5842 11.1684 39.1829 11.1684ZM39.4349 10.2024C40.0322 10.2024 40.6109 9.88974 41.1709 9.26441V5.70841C40.8815 5.44707 40.6015 5.26507 40.3309 5.16241C40.0695 5.05041 39.7989 4.99441 39.5189 4.99441C39.1549 4.99441 38.8235 5.10641 38.5249 5.33041C38.2355 5.54507 38.0022 5.84841 37.8249 6.24041C37.6475 6.62307 37.5589 7.07574 37.5589 7.59841C37.5589 8.41041 37.7222 9.04974 38.0489 9.51641C38.3755 9.97374 38.8375 10.2024 39.4349 10.2024Z" fill="#141414"/>
<path d="M47.3125 11.1684C46.7152 11.1684 46.1738 11.0284 45.6885 10.7484C45.2032 10.4684 44.8205 10.0624 44.5405 9.53041C44.2605 8.99841 44.1205 8.35907 44.1205 7.61241C44.1205 6.84707 44.2698 6.19841 44.5685 5.66641C44.8765 5.13441 45.2778 4.72841 45.7725 4.44841C46.2765 4.16841 46.8178 4.02841 47.3965 4.02841C47.8445 4.02841 48.2272 4.10774 48.5445 4.26641C48.8712 4.42507 49.1512 4.61174 49.3845 4.82641L48.7965 5.58241C48.6005 5.40507 48.3905 5.26041 48.1665 5.14841C47.9518 5.03641 47.7092 4.98041 47.4385 4.98041C47.0278 4.98041 46.6592 5.09241 46.3325 5.31641C46.0152 5.53107 45.7632 5.83907 45.5765 6.24041C45.3992 6.63241 45.3105 7.08974 45.3105 7.61241C45.3105 8.38707 45.5018 9.01707 45.8845 9.50241C46.2765 9.97841 46.7852 10.2164 47.4105 10.2164C47.7278 10.2164 48.0218 10.1511 48.2925 10.0204C48.5632 9.88041 48.8012 9.71707 49.0065 9.53041L49.5105 10.3004C49.2025 10.5711 48.8618 10.7857 48.4885 10.9444C48.1152 11.0937 47.7232 11.1684 47.3125 11.1684Z" fill="#141414"/>
<path d="M50.2953 11.0004V10.3844L53.8793 5.13441H50.6873V4.19641H55.3353V4.81241L51.7513 10.0624H55.4473V11.0004H50.2953Z" fill="#141414"/>
<path d="M58.1964 11.1684C57.6271 11.1684 57.1511 11.0004 56.7684 10.6644C56.3951 10.3191 56.2084 9.84307 56.2084 9.23641C56.2084 8.48974 56.5397 7.92041 57.2024 7.52841C57.8744 7.12707 58.9337 6.84707 60.3804 6.68841C60.3804 6.39907 60.3384 6.12374 60.2544 5.86241C60.1797 5.60107 60.0397 5.39107 59.8344 5.23241C59.6384 5.06441 59.3537 4.98041 58.9804 4.98041C58.5884 4.98041 58.2197 5.05507 57.8744 5.20441C57.5291 5.35374 57.2211 5.52174 56.9504 5.70841L56.5024 4.91041C56.8197 4.70507 57.2071 4.50907 57.6644 4.32241C58.1311 4.12641 58.6351 4.02841 59.1764 4.02841C60.0071 4.02841 60.6091 4.28507 60.9824 4.79841C61.3557 5.30241 61.5424 5.97907 61.5424 6.82841V11.0004H60.5904L60.4924 10.1884H60.4504C60.1331 10.4497 59.7831 10.6784 59.4004 10.8744C59.0271 11.0704 58.6257 11.1684 58.1964 11.1684ZM58.5324 10.2444C58.8591 10.2444 59.1671 10.1651 59.4564 10.0064C59.7457 9.84774 60.0537 9.62374 60.3804 9.33441V7.44441C59.2511 7.58441 58.4577 7.79441 58.0004 8.07441C57.5524 8.35441 57.3284 8.71374 57.3284 9.15241C57.3284 9.53507 57.4451 9.81507 57.6784 9.99241C57.9117 10.1604 58.1964 10.2444 58.5324 10.2444Z" fill="#141414"/>
<path d="M63.6831 11.0004V4.19641H64.6351L64.7331 5.17641H64.7751C65.0738 4.84974 65.4004 4.57907 65.7551 4.36441C66.1098 4.14041 66.4878 4.02841 66.8891 4.02841C67.4118 4.02841 67.8178 4.14507 68.1071 4.37841C68.4058 4.60241 68.6251 4.91974 68.7651 5.33041C69.1198 4.94774 69.4791 4.63507 69.8431 4.39241C70.2071 4.14974 70.5944 4.02841 71.0051 4.02841C71.7051 4.02841 72.2231 4.25707 72.5591 4.71441C72.9044 5.16241 73.0771 5.82041 73.0771 6.68841V11.0004H71.9291V6.84241C71.9291 6.20774 71.8264 5.74574 71.6211 5.45641C71.4158 5.16707 71.0984 5.02241 70.6691 5.02241C70.1651 5.02241 69.5958 5.37241 68.9611 6.07241V11.0004H67.8131V6.84241C67.8131 6.20774 67.7104 5.74574 67.5051 5.45641C67.2998 5.16707 66.9778 5.02241 66.5391 5.02241C66.0351 5.02241 65.4658 5.37241 64.8311 6.07241V11.0004H63.6831Z" fill="#141414"/>
<path d="M75.0805 13.3804L74.8005 12.7084C75.2019 12.5311 75.5145 12.2931 75.7385 11.9944C75.9625 11.7051 76.0698 11.3737 76.0605 11.0004C76.0418 11.0097 76.0185 11.0144 75.9905 11.0144C75.9625 11.0144 75.9392 11.0144 75.9205 11.0144C75.6965 11.0144 75.5005 10.9491 75.3325 10.8184C75.1739 10.6784 75.0945 10.4777 75.0945 10.2164C75.0945 9.96441 75.1785 9.76841 75.3465 9.62841C75.5145 9.47907 75.7152 9.40441 75.9485 9.40441C76.2472 9.40441 76.4805 9.52574 76.6485 9.76841C76.8258 10.0111 76.9145 10.3424 76.9145 10.7624C76.9145 11.3597 76.7512 11.8824 76.4245 12.3304C76.0978 12.7877 75.6499 13.1377 75.0805 13.3804Z" fill="#141414"/>
<path d="M80.8656 11.0004V10.3844L84.4496 5.13441H81.2576V4.19641H85.9056V4.81241L82.3216 10.0624H86.0176V11.0004H80.8656ZM83.6656 2.79641C83.4416 2.79641 83.2549 2.73107 83.1056 2.60041C82.9656 2.46041 82.8956 2.27374 82.8956 2.04041C82.8956 1.81641 82.9656 1.63441 83.1056 1.49441C83.2549 1.35441 83.4416 1.28441 83.6656 1.28441C83.8896 1.28441 84.0716 1.35441 84.2116 1.49441C84.3609 1.63441 84.4356 1.81641 84.4356 2.04041C84.4356 2.27374 84.3609 2.46041 84.2116 2.60041C84.0716 2.73107 83.8896 2.79641 83.6656 2.79641Z" fill="#141414"/>
<path d="M90.1481 11.1684C89.5415 11.1684 88.9908 11.0284 88.4961 10.7484C88.0015 10.4591 87.6095 10.0484 87.3201 9.51641C87.0308 8.98441 86.8861 8.34974 86.8861 7.61241C86.8861 6.86574 87.0308 6.22641 87.3201 5.69441C87.6188 5.16241 88.0015 4.75174 88.4681 4.46241C88.9348 4.17307 89.4248 4.02841 89.9381 4.02841C90.8061 4.02841 91.4735 4.31774 91.9401 4.89641C92.4161 5.47507 92.6541 6.24974 92.6541 7.22041C92.6541 7.34174 92.6495 7.46307 92.6401 7.58441C92.6401 7.69641 92.6308 7.79441 92.6121 7.87841H88.0201C88.0668 8.59707 88.2908 9.17107 88.6921 9.60041C89.1028 10.0297 89.6348 10.2444 90.2881 10.2444C90.6148 10.2444 90.9135 10.1977 91.1841 10.1044C91.4641 10.0017 91.7301 9.87107 91.9821 9.71241L92.3881 10.4684C92.0988 10.6551 91.7675 10.8184 91.3941 10.9584C91.0301 11.0984 90.6148 11.1684 90.1481 11.1684ZM88.0061 7.05241H91.6461C91.6461 6.36174 91.4968 5.83907 91.1981 5.48441C90.9088 5.12041 90.4981 4.93841 89.9661 4.93841C89.4901 4.93841 89.0608 5.12507 88.6781 5.49841C88.3048 5.86241 88.0808 6.38041 88.0061 7.05241Z" fill="#141414"/>
<path d="M96.4382 14.0384C96.2328 14.0384 96.0462 14.0197 95.8782 13.9824C95.7008 13.9451 95.5515 13.9031 95.4302 13.8564L95.6682 12.9884C95.7522 13.0164 95.8502 13.0397 95.9622 13.0584C96.0742 13.0864 96.1908 13.1004 96.3122 13.1004C96.6482 13.1004 96.8722 12.9791 96.9842 12.7364C97.0962 12.5031 97.1522 12.1811 97.1522 11.7704V4.19641H98.3002V11.7704C98.3002 12.4611 98.1602 13.0117 97.8802 13.4224C97.6002 13.8331 97.1195 14.0384 96.4382 14.0384ZM97.7122 2.79641C97.4882 2.79641 97.3015 2.73107 97.1522 2.60041C97.0122 2.46041 96.9422 2.27374 96.9422 2.04041C96.9422 1.81641 97.0122 1.63441 97.1522 1.49441C97.3015 1.35441 97.4882 1.28441 97.7122 1.28441C97.9362 1.28441 98.1182 1.35441 98.2582 1.49441C98.4075 1.63441 98.4822 1.81641 98.4822 2.04041C98.4822 2.27374 98.4075 2.46041 98.2582 2.60041C98.1182 2.73107 97.9362 2.79641 97.7122 2.79641Z" fill="#141414"/>
<path d="M103.355 11.1684C102.748 11.1684 102.198 11.0284 101.703 10.7484C101.208 10.4591 100.816 10.0484 100.527 9.51641C100.238 8.98441 100.093 8.34974 100.093 7.61241C100.093 6.86574 100.238 6.22641 100.527 5.69441C100.826 5.16241 101.208 4.75174 101.675 4.46241C102.142 4.17307 102.632 4.02841 103.145 4.02841C104.013 4.02841 104.68 4.31774 105.147 4.89641C105.623 5.47507 105.861 6.24974 105.861 7.22041C105.861 7.34174 105.856 7.46307 105.847 7.58441C105.847 7.69641 105.838 7.79441 105.819 7.87841H101.227C101.274 8.59707 101.498 9.17107 101.899 9.60041C102.31 10.0297 102.842 10.2444 103.495 10.2444C103.822 10.2444 104.12 10.1977 104.391 10.1044C104.671 10.0017 104.937 9.87107 105.189 9.71241L105.595 10.4684C105.306 10.6551 104.974 10.8184 104.601 10.9584C104.237 11.0984 103.822 11.1684 103.355 11.1684ZM101.213 7.05241H104.853C104.853 6.36174 104.704 5.83907 104.405 5.48441C104.116 5.12041 103.705 4.93841 103.173 4.93841C102.697 4.93841 102.268 5.12507 101.885 5.49841C101.512 5.86241 101.288 6.38041 101.213 7.05241Z" fill="#141414"/>
<path d="M109.32 11.1684C108.835 11.1684 108.373 11.0797 107.934 10.9024C107.496 10.7157 107.113 10.4917 106.786 10.2304L107.36 9.46041C107.659 9.69374 107.967 9.88974 108.284 10.0484C108.602 10.1977 108.961 10.2724 109.362 10.2724C109.81 10.2724 110.146 10.1697 110.37 9.96441C110.594 9.74974 110.706 9.49774 110.706 9.20841C110.706 8.97507 110.627 8.77907 110.468 8.62041C110.319 8.46174 110.123 8.33107 109.88 8.22841C109.647 8.11641 109.404 8.01374 109.152 7.92041C108.835 7.79907 108.522 7.66374 108.214 7.51441C107.906 7.35574 107.654 7.15507 107.458 6.91241C107.262 6.66041 107.164 6.34307 107.164 5.96041C107.164 5.40974 107.37 4.95241 107.78 4.58841C108.2 4.21507 108.779 4.02841 109.516 4.02841C109.936 4.02841 110.328 4.10307 110.692 4.25241C111.056 4.40174 111.369 4.58374 111.63 4.79841L111.07 5.52641C110.837 5.34907 110.594 5.20441 110.342 5.09241C110.09 4.98041 109.815 4.92441 109.516 4.92441C109.087 4.92441 108.77 5.02241 108.564 5.21841C108.368 5.41441 108.27 5.64307 108.27 5.90441C108.27 6.11907 108.34 6.29641 108.48 6.43641C108.62 6.56707 108.802 6.68374 109.026 6.78641C109.25 6.87974 109.488 6.97774 109.74 7.08041C110.067 7.20174 110.389 7.34174 110.706 7.50041C111.024 7.64974 111.285 7.85507 111.49 8.11641C111.705 8.36841 111.812 8.70907 111.812 9.13841C111.812 9.50241 111.714 9.83841 111.518 10.1464C111.332 10.4544 111.052 10.7017 110.678 10.8884C110.314 11.0751 109.862 11.1684 109.32 11.1684Z" fill="#141414"/>
<path d="M115.276 11.1684C114.548 11.1684 114.04 10.9584 113.75 10.5384C113.47 10.1184 113.33 9.57241 113.33 8.90041V5.13441H112.322V4.26641L113.386 4.19641L113.526 2.29241H114.492V4.19641H116.326V5.13441H114.492V8.91441C114.492 9.33441 114.567 9.66107 114.716 9.89441C114.875 10.1184 115.15 10.2304 115.542 10.2304C115.664 10.2304 115.794 10.2117 115.934 10.1744C116.074 10.1277 116.2 10.0857 116.312 10.0484L116.536 10.9164C116.35 10.9817 116.144 11.0377 115.92 11.0844C115.706 11.1404 115.491 11.1684 115.276 11.1684Z" fill="#141414"/>
<path d="M120.431 11.1684C119.825 11.1684 119.274 11.0284 118.779 10.7484C118.285 10.4591 117.893 10.0484 117.603 9.51641C117.314 8.98441 117.169 8.34974 117.169 7.61241C117.169 6.86574 117.314 6.22641 117.603 5.69441C117.902 5.16241 118.285 4.75174 118.751 4.46241C119.218 4.17307 119.708 4.02841 120.221 4.02841C121.089 4.02841 121.757 4.31774 122.223 4.89641C122.699 5.47507 122.937 6.24974 122.937 7.22041C122.937 7.34174 122.933 7.46307 122.923 7.58441C122.923 7.69641 122.914 7.79441 122.895 7.87841H118.303C118.35 8.59707 118.574 9.17107 118.975 9.60041C119.386 10.0297 119.918 10.2444 120.571 10.2444C120.898 10.2444 121.197 10.1977 121.467 10.1044C121.747 10.0017 122.013 9.87107 122.265 9.71241L122.671 10.4684C122.382 10.6551 122.051 10.8184 121.677 10.9584C121.313 11.0984 120.898 11.1684 120.431 11.1684ZM118.289 7.05241H121.929C121.929 6.36174 121.78 5.83907 121.481 5.48441C121.192 5.12041 120.781 4.93841 120.249 4.93841C119.773 4.93841 119.344 5.12507 118.961 5.49841C118.588 5.86241 118.364 6.38041 118.289 7.05241Z" fill="#141414"/>
<path d="M124.619 11.0004V4.19641H125.571L125.669 5.17641H125.711C126.009 4.84974 126.336 4.57907 126.691 4.36441C127.045 4.14041 127.423 4.02841 127.825 4.02841C128.347 4.02841 128.753 4.14507 129.043 4.37841C129.341 4.60241 129.561 4.91974 129.701 5.33041C130.055 4.94774 130.415 4.63507 130.779 4.39241C131.143 4.14974 131.53 4.02841 131.941 4.02841C132.641 4.02841 133.159 4.25707 133.495 4.71441C133.84 5.16241 134.013 5.82041 134.013 6.68841V11.0004H132.865V6.84241C132.865 6.20774 132.762 5.74574 132.557 5.45641C132.351 5.16707 132.034 5.02241 131.605 5.02241C131.101 5.02241 130.531 5.37241 129.897 6.07241V11.0004H128.749V6.84241C128.749 6.20774 128.646 5.74574 128.441 5.45641C128.235 5.16707 127.913 5.02241 127.475 5.02241C126.971 5.02241 126.401 5.37241 125.767 6.07241V11.0004H124.619Z" fill="#141414"/>
<path d="M139.029 13.8704V4.19641H139.981L140.079 4.98041H140.121C140.429 4.71907 140.765 4.49507 141.129 4.30841C141.502 4.12174 141.889 4.02841 142.291 4.02841C143.168 4.02841 143.835 4.34574 144.293 4.98041C144.75 5.60574 144.979 6.44574 144.979 7.50041C144.979 8.26574 144.839 8.92374 144.559 9.47441C144.288 10.0251 143.929 10.4451 143.481 10.7344C143.042 11.0237 142.561 11.1684 142.039 11.1684C141.721 11.1684 141.404 11.0984 141.087 10.9584C140.779 10.8184 140.466 10.6271 140.149 10.3844L140.177 11.5744V13.8704H139.029ZM141.843 10.2024C142.403 10.2024 142.865 9.96441 143.229 9.48841C143.602 9.00307 143.789 8.34041 143.789 7.50041C143.789 6.75374 143.649 6.15174 143.369 5.69441C143.098 5.22774 142.641 4.99441 141.997 4.99441C141.707 4.99441 141.413 5.07374 141.115 5.23241C140.825 5.39107 140.513 5.61974 140.177 5.91841V9.48841C140.485 9.74974 140.783 9.93641 141.073 10.0484C141.362 10.1511 141.619 10.2024 141.843 10.2024Z" fill="#141414"/>
<path d="M149.552 11.1684C148.946 11.1684 148.395 11.0284 147.9 10.7484C147.406 10.4591 147.014 10.0484 146.724 9.51641C146.435 8.98441 146.29 8.34974 146.29 7.61241C146.29 6.86574 146.435 6.22641 146.724 5.69441C147.023 5.16241 147.406 4.75174 147.872 4.46241C148.339 4.17307 148.829 4.02841 149.342 4.02841C150.21 4.02841 150.878 4.31774 151.344 4.89641C151.82 5.47507 152.058 6.24974 152.058 7.22041C152.058 7.34174 152.054 7.46307 152.044 7.58441C152.044 7.69641 152.035 7.79441 152.016 7.87841H147.424C147.471 8.59707 147.695 9.17107 148.096 9.60041C148.507 10.0297 149.039 10.2444 149.692 10.2444C150.019 10.2444 150.318 10.1977 150.588 10.1044C150.868 10.0017 151.134 9.87107 151.386 9.71241L151.792 10.4684C151.503 10.6551 151.172 10.8184 150.798 10.9584C150.434 11.0984 150.019 11.1684 149.552 11.1684ZM147.41 7.05241H151.05C151.05 6.36174 150.901 5.83907 150.602 5.48441C150.313 5.12041 149.902 4.93841 149.37 4.93841C148.894 4.93841 148.465 5.12507 148.082 5.49841C147.709 5.86241 147.485 6.38041 147.41 7.05241Z" fill="#141414"/>
<path d="M155.126 11.1684C154.696 11.1684 154.384 11.0377 154.188 10.7764C154.001 10.5057 153.908 10.1231 153.908 9.62841V6.33841L152.886 6.99641L152.466 6.25441L153.908 5.37241V1.03241H155.056V4.79841L156.106 4.14041L156.512 4.88241L155.056 5.75041V9.71241C155.056 9.88974 155.088 10.0204 155.154 10.1044C155.219 10.1791 155.294 10.2164 155.378 10.2164C155.415 10.2164 155.448 10.2164 155.476 10.2164C155.513 10.2071 155.564 10.1977 155.63 10.1884L155.784 11.0564C155.709 11.0937 155.62 11.1217 155.518 11.1404C155.415 11.1591 155.284 11.1684 155.126 11.1684Z" fill="#141414"/>
<path d="M157.65 11.0004V4.19641H158.602L158.7 5.17641H158.742C159.069 4.84974 159.414 4.57907 159.778 4.36441C160.142 4.14041 160.557 4.02841 161.024 4.02841C161.743 4.02841 162.265 4.25707 162.592 4.71441C162.928 5.16241 163.096 5.82041 163.096 6.68841V11.0004H161.948V6.84241C161.948 6.20774 161.845 5.74574 161.64 5.45641C161.435 5.16707 161.108 5.02241 160.66 5.02241C160.315 5.02241 160.002 5.11107 159.722 5.28841C159.451 5.46574 159.143 5.72707 158.798 6.07241V11.0004H157.65Z" fill="#141414"/>
<path d="M167.952 11.1684C167.401 11.1684 166.883 11.0284 166.398 10.7484C165.922 10.4684 165.535 10.0624 165.236 9.53041C164.947 8.99841 164.802 8.35907 164.802 7.61241C164.802 6.84707 164.947 6.19841 165.236 5.66641C165.535 5.13441 165.922 4.72841 166.398 4.44841C166.883 4.16841 167.401 4.02841 167.952 4.02841C168.512 4.02841 169.03 4.16841 169.506 4.44841C169.982 4.72841 170.365 5.13441 170.654 5.66641C170.953 6.19841 171.102 6.84707 171.102 7.61241C171.102 8.35907 170.953 8.99841 170.654 9.53041C170.365 10.0624 169.982 10.4684 169.506 10.7484C169.03 11.0284 168.512 11.1684 167.952 11.1684ZM167.952 10.2164C168.54 10.2164 169.011 9.97841 169.366 9.50241C169.73 9.01707 169.912 8.38707 169.912 7.61241C169.912 6.82841 169.73 6.19374 169.366 5.70841C169.011 5.22307 168.54 4.98041 167.952 4.98041C167.373 4.98041 166.902 5.22307 166.538 5.70841C166.174 6.19374 165.992 6.82841 165.992 7.61241C165.992 8.38707 166.174 9.01707 166.538 9.50241C166.902 9.97841 167.373 10.2164 167.952 10.2164Z" fill="#141414"/>
<path d="M174.112 11.1684C173.683 11.1684 173.37 11.0377 173.174 10.7764C172.987 10.5057 172.894 10.1231 172.894 9.62841V1.03241H174.042V9.71241C174.042 9.88974 174.075 10.0204 174.14 10.1044C174.205 10.1791 174.28 10.2164 174.364 10.2164C174.401 10.2164 174.434 10.2164 174.462 10.2164C174.499 10.2071 174.551 10.1977 174.616 10.1884L174.77 11.0564C174.695 11.0937 174.607 11.1217 174.504 11.1404C174.401 11.1591 174.271 11.1684 174.112 11.1684Z" fill="#141414"/>
<path d="M179.22 11.1684C178.614 11.1684 178.063 11.0284 177.568 10.7484C177.074 10.4591 176.682 10.0484 176.392 9.51641C176.103 8.98441 175.958 8.34974 175.958 7.61241C175.958 6.86574 176.103 6.22641 176.392 5.69441C176.691 5.16241 177.074 4.75174 177.54 4.46241C178.007 4.17307 178.497 4.02841 179.01 4.02841C179.878 4.02841 180.546 4.31774 181.012 4.89641C181.488 5.47507 181.726 6.24974 181.726 7.22041C181.726 7.34174 181.722 7.46307 181.712 7.58441C181.712 7.69641 181.703 7.79441 181.684 7.87841H177.092C177.139 8.59707 177.363 9.17107 177.764 9.60041C178.175 10.0297 178.707 10.2444 179.36 10.2444C179.687 10.2444 179.986 10.1977 180.256 10.1044C180.536 10.0017 180.802 9.87107 181.054 9.71241L181.46 10.4684C181.171 10.6551 180.84 10.8184 180.466 10.9584C180.102 11.0984 179.687 11.1684 179.22 11.1684ZM177.078 7.05241H180.718C180.718 6.36174 180.569 5.83907 180.27 5.48441C179.981 5.12041 179.57 4.93841 179.038 4.93841C178.562 4.93841 178.133 5.12507 177.75 5.49841C177.377 5.86241 177.153 6.38041 177.078 7.05241Z" fill="#141414"/>
<path d="M185.413 11.1684C184.685 11.1684 184.176 10.9584 183.887 10.5384C183.607 10.1184 183.467 9.57241 183.467 8.90041V5.13441H182.459V4.26641L183.523 4.19641L183.663 2.29241H184.629V4.19641H186.463V5.13441H184.629V8.91441C184.629 9.33441 184.704 9.66107 184.853 9.89441C185.012 10.1184 185.287 10.2304 185.679 10.2304C185.8 10.2304 185.931 10.2117 186.071 10.1744C186.211 10.1277 186.337 10.0857 186.449 10.0484L186.673 10.9164C186.486 10.9817 186.281 11.0377 186.057 11.0844C185.842 11.1404 185.628 11.1684 185.413 11.1684Z" fill="#141414"/>
<path d="M188.001 11.0004V4.19641H188.953L189.051 5.17641H189.093C189.42 4.84974 189.765 4.57907 190.129 4.36441C190.493 4.14041 190.909 4.02841 191.375 4.02841C192.094 4.02841 192.617 4.25707 192.943 4.71441C193.279 5.16241 193.447 5.82041 193.447 6.68841V11.0004H192.299V6.84241C192.299 6.20774 192.197 5.74574 191.991 5.45641C191.786 5.16707 191.459 5.02241 191.011 5.02241C190.666 5.02241 190.353 5.11107 190.073 5.28841C189.803 5.46574 189.495 5.72707 189.149 6.07241V11.0004H188.001Z" fill="#141414"/>
<path d="M195.658 11.0004V4.19641H196.806V11.0004H195.658ZM196.246 2.79641C196.022 2.79641 195.835 2.73107 195.686 2.60041C195.546 2.46041 195.476 2.27374 195.476 2.04041C195.476 1.81641 195.546 1.63441 195.686 1.49441C195.835 1.35441 196.022 1.28441 196.246 1.28441C196.47 1.28441 196.652 1.35441 196.792 1.49441C196.941 1.63441 197.016 1.81641 197.016 2.04041C197.016 2.27374 196.941 2.46041 196.792 2.60041C196.652 2.73107 196.47 2.79641 196.246 2.79641Z" fill="#141414"/>
<path d="M199.103 11.0004V4.19641H200.055L200.153 5.17641H200.195C200.494 4.84974 200.82 4.57907 201.175 4.36441C201.53 4.14041 201.908 4.02841 202.309 4.02841C202.832 4.02841 203.238 4.14507 203.527 4.37841C203.826 4.60241 204.045 4.91974 204.185 5.33041C204.54 4.94774 204.899 4.63507 205.263 4.39241C205.627 4.14974 206.014 4.02841 206.425 4.02841C207.125 4.02841 207.643 4.25707 207.979 4.71441C208.324 5.16241 208.497 5.82041 208.497 6.68841V11.0004H207.349V6.84241C207.349 6.20774 207.246 5.74574 207.041 5.45641C206.836 5.16707 206.518 5.02241 206.089 5.02241C205.585 5.02241 205.016 5.37241 204.381 6.07241V11.0004H203.233V6.84241C203.233 6.20774 203.13 5.74574 202.925 5.45641C202.72 5.16707 202.398 5.02241 201.959 5.02241C201.455 5.02241 200.886 5.37241 200.251 6.07241V11.0004H199.103Z" fill="#141414"/>
<path d="M215.501 11.1684C214.783 11.1684 214.255 10.9444 213.919 10.4964C213.583 10.0391 213.415 9.37641 213.415 8.50841V4.19641H214.577V8.35441C214.577 8.98907 214.675 9.45107 214.871 9.74041C215.077 10.0297 215.403 10.1744 215.851 10.1744C216.206 10.1744 216.519 10.0857 216.789 9.90841C217.069 9.72174 217.368 9.42774 217.685 9.02641V4.19641H218.833V11.0004H217.881L217.783 9.93641H217.741C217.424 10.3097 217.088 10.6084 216.733 10.8324C216.379 11.0564 215.968 11.1684 215.501 11.1684Z" fill="#141414"/>
<path d="M220.414 11.0004V10.3844L223.998 5.13441H220.806V4.19641H225.454V4.81241L221.87 10.0624H225.566V11.0004H220.414ZM223.214 2.79641C222.99 2.79641 222.804 2.73107 222.654 2.60041C222.514 2.46041 222.444 2.27374 222.444 2.04041C222.444 1.81641 222.514 1.63441 222.654 1.49441C222.804 1.35441 222.99 1.28441 223.214 1.28441C223.438 1.28441 223.62 1.35441 223.76 1.49441C223.91 1.63441 223.984 1.81641 223.984 2.04041C223.984 2.27374 223.91 2.46041 223.76 2.60041C223.62 2.73107 223.438 2.79641 223.214 2.79641Z" fill="#141414"/>
<path d="M227.133 13.9264C226.984 13.9264 226.839 13.9124 226.699 13.8844C226.568 13.8564 226.447 13.8237 226.335 13.7864L226.559 12.8764C226.634 12.8951 226.718 12.9137 226.811 12.9324C226.904 12.9604 226.993 12.9744 227.077 12.9744C227.46 12.9744 227.777 12.8344 228.029 12.5544C228.281 12.2837 228.477 11.9384 228.617 11.5184L228.771 11.0144L226.041 4.19641H227.231L228.617 7.96241C228.72 8.25174 228.827 8.56441 228.939 8.90041C229.06 9.23641 229.172 9.56307 229.275 9.88041H229.331C229.434 9.57241 229.532 9.25041 229.625 8.91441C229.718 8.57841 229.812 8.26107 229.905 7.96241L231.123 4.19641H232.243L229.681 11.5604C229.522 12.0084 229.331 12.4097 229.107 12.7644C228.892 13.1191 228.622 13.3991 228.295 13.6044C227.978 13.8191 227.59 13.9264 227.133 13.9264Z" fill="#141414"/>
<path d="M235.698 11.1684C234.97 11.1684 234.461 10.9584 234.172 10.5384C233.892 10.1184 233.752 9.57241 233.752 8.90041V5.13441H232.744V4.26641L233.808 4.19641L233.948 2.29241H234.914V4.19641H236.748V5.13441H234.914V8.91441C234.914 9.33441 234.989 9.66107 235.138 9.89441C235.297 10.1184 235.572 10.2304 235.964 10.2304C236.085 10.2304 236.216 10.2117 236.356 10.1744C236.496 10.1277 236.622 10.0857 236.734 10.0484L236.958 10.9164C236.771 10.9817 236.566 11.0377 236.342 11.0844C236.127 11.1404 235.913 11.1684 235.698 11.1684Z" fill="#141414"/>
<path d="M238.287 11.0004V1.03241H239.421V7.78041H239.463L242.361 4.19641H243.635L241.353 6.92641L243.943 11.0004H242.683L240.695 7.72441L239.421 9.20841V11.0004H238.287Z" fill="#141414"/>
<path d="M247.618 11.1684C247.068 11.1684 246.549 11.0284 246.064 10.7484C245.588 10.4684 245.201 10.0624 244.902 9.53041C244.613 8.99841 244.468 8.35907 244.468 7.61241C244.468 6.84707 244.613 6.19841 244.902 5.66641C245.201 5.13441 245.588 4.72841 246.064 4.44841C246.549 4.16841 247.068 4.02841 247.618 4.02841C248.178 4.02841 248.696 4.16841 249.172 4.44841C249.648 4.72841 250.031 5.13441 250.32 5.66641C250.619 6.19841 250.768 6.84707 250.768 7.61241C250.768 8.35907 250.619 8.99841 250.32 9.53041C250.031 10.0624 249.648 10.4684 249.172 10.7484C248.696 11.0284 248.178 11.1684 247.618 11.1684ZM247.618 10.2164C248.206 10.2164 248.677 9.97841 249.032 9.50241C249.396 9.01707 249.578 8.38707 249.578 7.61241C249.578 6.82841 249.396 6.19374 249.032 5.70841C248.677 5.22307 248.206 4.98041 247.618 4.98041C247.039 4.98041 246.568 5.22307 246.204 5.70841C245.84 6.19374 245.658 6.82841 245.658 7.61241C245.658 8.38707 245.84 9.01707 246.204 9.50241C246.568 9.97841 247.039 10.2164 247.618 10.2164Z" fill="#141414"/>
<path d="M253.583 11.0004L251.693 4.19641H252.869L253.877 8.13041C253.952 8.44774 254.022 8.76507 254.087 9.08241C254.153 9.39041 254.218 9.70307 254.283 10.0204H254.339C254.414 9.70307 254.489 9.39041 254.563 9.08241C254.638 8.76507 254.717 8.44774 254.801 8.13041L255.851 4.19641H256.971L258.035 8.13041C258.119 8.44774 258.199 8.76507 258.273 9.08241C258.357 9.39041 258.437 9.70307 258.511 10.0204H258.567C258.642 9.70307 258.712 9.39041 258.777 9.08241C258.852 8.76507 258.922 8.44774 258.987 8.13041L259.981 4.19641H261.073L259.253 11.0004H257.853L256.873 7.34641C256.789 7.01974 256.71 6.69774 256.635 6.38041C256.57 6.06307 256.495 5.73174 256.411 5.38641H256.355C256.281 5.73174 256.206 6.06774 256.131 6.39441C256.057 6.71174 255.973 7.03374 255.879 7.36041L254.927 11.0004H253.583Z" fill="#141414"/>
<path d="M262.554 11.0004V4.19641H263.506L263.604 5.17641H263.646C263.973 4.84974 264.318 4.57907 264.682 4.36441C265.046 4.14041 265.462 4.02841 265.928 4.02841C266.647 4.02841 267.17 4.25707 267.496 4.71441C267.832 5.16241 268 5.82041 268 6.68841V11.0004H266.852V6.84241C266.852 6.20774 266.75 5.74574 266.544 5.45641C266.339 5.16707 266.012 5.02241 265.564 5.02241C265.219 5.02241 264.906 5.11107 264.626 5.28841C264.356 5.46574 264.048 5.72707 263.702 6.07241V11.0004H262.554Z" fill="#141414"/>
<path d="M270.21 11.0004V4.19641H271.358V11.0004H270.21ZM270.798 2.79641C270.574 2.79641 270.388 2.73107 270.238 2.60041C270.098 2.46041 270.028 2.27374 270.028 2.04041C270.028 1.81641 270.098 1.63441 270.238 1.49441C270.388 1.35441 270.574 1.28441 270.798 1.28441C271.022 1.28441 271.204 1.35441 271.344 1.49441C271.494 1.63441 271.568 1.81641 271.568 2.04041C271.568 2.27374 271.494 2.46041 271.344 2.60041C271.204 2.73107 271.022 2.79641 270.798 2.79641Z" fill="#141414"/>
<path d="M273.656 11.0004V1.03241H274.79V7.78041H274.832L277.73 4.19641H279.004L276.722 6.92641L279.312 11.0004H278.052L276.064 7.72441L274.79 9.20841V11.0004H273.656Z" fill="#141414"/>
<path d="M280.587 11.0004V4.19641H281.735V11.0004H280.587ZM281.175 2.79641C280.951 2.79641 280.765 2.73107 280.615 2.60041C280.475 2.46041 280.405 2.27374 280.405 2.04041C280.405 1.81641 280.475 1.63441 280.615 1.49441C280.765 1.35441 280.951 1.28441 281.175 1.28441C281.399 1.28441 281.581 1.35441 281.721 1.49441C281.871 1.63441 281.945 1.81641 281.945 2.04041C281.945 2.27374 281.871 2.46041 281.721 2.60041C281.581 2.73107 281.399 2.79641 281.175 2.79641Z" fill="#141414"/>
<path d="M286.791 11.1684C286.184 11.1684 285.633 11.0284 285.139 10.7484C284.644 10.4591 284.252 10.0484 283.963 9.51641C283.673 8.98441 283.529 8.34974 283.529 7.61241C283.529 6.86574 283.673 6.22641 283.963 5.69441C284.261 5.16241 284.644 4.75174 285.111 4.46241C285.577 4.17307 286.067 4.02841 286.581 4.02841C287.449 4.02841 288.116 4.31774 288.583 4.89641C289.059 5.47507 289.297 6.24974 289.297 7.22041C289.297 7.34174 289.292 7.46307 289.283 7.58441C289.283 7.69641 289.273 7.79441 289.255 7.87841H284.663C284.709 8.59707 284.933 9.17107 285.335 9.60041C285.745 10.0297 286.277 10.2444 286.931 10.2444C287.257 10.2444 287.556 10.1977 287.827 10.1044C288.107 10.0017 288.373 9.87107 288.625 9.71241L289.031 10.4684C288.741 10.6551 288.41 10.8184 288.037 10.9584C287.673 11.0984 287.257 11.1684 286.791 11.1684ZM284.649 7.05241H288.289C288.289 6.36174 288.139 5.83907 287.841 5.48441C287.551 5.12041 287.141 4.93841 286.609 4.93841C286.133 4.93841 285.703 5.12507 285.321 5.49841C284.947 5.86241 284.723 6.38041 284.649 7.05241Z" fill="#141414"/>
<path d="M290.978 11.0004V4.19641H291.93L292.028 5.17641H292.07C292.369 4.84974 292.695 4.57907 293.05 4.36441C293.405 4.14041 293.783 4.02841 294.184 4.02841C294.707 4.02841 295.113 4.14507 295.402 4.37841C295.701 4.60241 295.92 4.91974 296.06 5.33041C296.415 4.94774 296.774 4.63507 297.138 4.39241C297.502 4.14974 297.889 4.02841 298.3 4.02841C299 4.02841 299.518 4.25707 299.854 4.71441C300.199 5.16241 300.372 5.82041 300.372 6.68841V11.0004H299.224V6.84241C299.224 6.20774 299.121 5.74574 298.916 5.45641C298.711 5.16707 298.393 5.02241 297.964 5.02241C297.46 5.02241 296.891 5.37241 296.256 6.07241V11.0004H295.108V6.84241C295.108 6.20774 295.005 5.74574 294.8 5.45641C294.595 5.16707 294.273 5.02241 293.834 5.02241C293.33 5.02241 292.761 5.37241 292.126 6.07241V11.0004H290.978Z" fill="#141414"/>
<path d="M306.466 11.0004L304.576 4.19641H305.752L306.76 8.13041C306.835 8.44774 306.905 8.76507 306.97 9.08241C307.036 9.39041 307.101 9.70307 307.166 10.0204H307.222C307.297 9.70307 307.371 9.39041 307.446 9.08241C307.521 8.76507 307.6 8.44774 307.684 8.13041L308.734 4.19641H309.854L310.918 8.13041C311.002 8.44774 311.081 8.76507 311.156 9.08241C311.24 9.39041 311.319 9.70307 311.394 10.0204H311.45C311.525 9.70307 311.595 9.39041 311.66 9.08241C311.735 8.76507 311.805 8.44774 311.87 8.13041L312.864 4.19641H313.956L312.136 11.0004H310.736L309.756 7.34641C309.672 7.01974 309.593 6.69774 309.518 6.38041C309.453 6.06307 309.378 5.73174 309.294 5.38641H309.238C309.163 5.73174 309.089 6.06774 309.014 6.39441C308.939 6.71174 308.855 7.03374 308.762 7.36041L307.81 11.0004H306.466Z" fill="#141414"/>
<path d="M315.549 13.9264C315.4 13.9264 315.255 13.9124 315.115 13.8844C314.984 13.8564 314.863 13.8237 314.751 13.7864L314.975 12.8764C315.05 12.8951 315.134 12.9137 315.227 12.9324C315.32 12.9604 315.409 12.9744 315.493 12.9744C315.876 12.9744 316.193 12.8344 316.445 12.5544C316.697 12.2837 316.893 11.9384 317.033 11.5184L317.187 11.0144L314.457 4.19641H315.647L317.033 7.96241C317.136 8.25174 317.243 8.56441 317.355 8.90041C317.476 9.23641 317.588 9.56307 317.691 9.88041H317.747C317.85 9.57241 317.948 9.25041 318.041 8.91441C318.134 8.57841 318.228 8.26107 318.321 7.96241L319.539 4.19641H320.659L318.097 11.5604C317.938 12.0084 317.747 12.4097 317.523 12.7644C317.308 13.1191 317.038 13.3991 316.711 13.6044C316.394 13.8191 316.006 13.9264 315.549 13.9264Z" fill="#141414"/>
<path d="M321.972 11.0004V4.19641H322.924L323.022 5.42841H323.064C323.297 4.99907 323.582 4.65841 323.918 4.40641C324.254 4.15441 324.613 4.02841 324.996 4.02841C325.267 4.02841 325.509 4.07507 325.724 4.16841L325.5 5.17641C325.388 5.13907 325.285 5.11107 325.192 5.09241C325.099 5.07374 324.982 5.06441 324.842 5.06441C324.553 5.06441 324.249 5.18107 323.932 5.41441C323.624 5.64774 323.353 6.05374 323.12 6.63241V11.0004H321.972Z" fill="#141414"/>
<path d="M329.335 11.1684C328.784 11.1684 328.266 11.0284 327.781 10.7484C327.305 10.4684 326.918 10.0624 326.619 9.53041C326.33 8.99841 326.185 8.35907 326.185 7.61241C326.185 6.84707 326.33 6.19841 326.619 5.66641C326.918 5.13441 327.305 4.72841 327.781 4.44841C328.266 4.16841 328.784 4.02841 329.335 4.02841C329.895 4.02841 330.413 4.16841 330.889 4.44841C331.365 4.72841 331.748 5.13441 332.037 5.66641C332.336 6.19841 332.485 6.84707 332.485 7.61241C332.485 8.35907 332.336 8.99841 332.037 9.53041C331.748 10.0624 331.365 10.4684 330.889 10.7484C330.413 11.0284 329.895 11.1684 329.335 11.1684ZM329.335 10.2164C329.923 10.2164 330.394 9.97841 330.749 9.50241C331.113 9.01707 331.295 8.38707 331.295 7.61241C331.295 6.82841 331.113 6.19374 330.749 5.70841C330.394 5.22307 329.923 4.98041 329.335 4.98041C328.756 4.98041 328.285 5.22307 327.921 5.70841C327.557 6.19374 327.375 6.82841 327.375 7.61241C327.375 8.38707 327.557 9.01707 327.921 9.50241C328.285 9.97841 328.756 10.2164 329.335 10.2164Z" fill="#141414"/>
<path d="M337.287 11.1684C336.97 11.1684 336.638 11.0937 336.293 10.9444C335.957 10.7857 335.64 10.5711 335.341 10.3004H335.299L335.201 11.0004H334.277V1.03241H335.425V3.74841L335.397 4.98041C335.705 4.70974 336.041 4.48574 336.405 4.30841C336.778 4.12174 337.152 4.02841 337.525 4.02841C338.411 4.02841 339.083 4.34107 339.541 4.96641C339.998 5.59174 340.227 6.43174 340.227 7.48641C340.227 8.26107 340.087 8.92374 339.807 9.47441C339.536 10.0251 339.177 10.4451 338.729 10.7344C338.29 11.0237 337.81 11.1684 337.287 11.1684ZM337.091 10.2024C337.651 10.2024 338.113 9.96441 338.477 9.48841C338.85 9.00307 339.037 8.34041 339.037 7.50041C339.037 6.75374 338.897 6.15174 338.617 5.69441C338.346 5.22774 337.889 4.99441 337.245 4.99441C336.956 4.99441 336.662 5.07374 336.363 5.23241C336.064 5.39107 335.751 5.61974 335.425 5.91841V9.48841C335.724 9.74974 336.018 9.93641 336.307 10.0484C336.606 10.1511 336.867 10.2024 337.091 10.2024Z" fill="#141414"/>
<path d="M344.661 11.1684C344.11 11.1684 343.592 11.0284 343.107 10.7484C342.631 10.4684 342.244 10.0624 341.945 9.53041C341.656 8.99841 341.511 8.35907 341.511 7.61241C341.511 6.84707 341.656 6.19841 341.945 5.66641C342.244 5.13441 342.631 4.72841 343.107 4.44841C343.592 4.16841 344.11 4.02841 344.661 4.02841C345.221 4.02841 345.739 4.16841 346.215 4.44841C346.691 4.72841 347.074 5.13441 347.363 5.66641C347.662 6.19841 347.811 6.84707 347.811 7.61241C347.811 8.35907 347.662 8.99841 347.363 9.53041C347.074 10.0624 346.691 10.4684 346.215 10.7484C345.739 11.0284 345.221 11.1684 344.661 11.1684ZM344.661 10.2164C345.249 10.2164 345.72 9.97841 346.075 9.50241C346.439 9.01707 346.621 8.38707 346.621 7.61241C346.621 6.82841 346.439 6.19374 346.075 5.70841C345.72 5.22307 345.249 4.98041 344.661 4.98041C344.082 4.98041 343.611 5.22307 343.247 5.70841C342.883 6.19374 342.701 6.82841 342.701 7.61241C342.701 8.38707 342.883 9.01707 343.247 9.50241C343.611 9.97841 344.082 10.2164 344.661 10.2164ZM344.465 2.97841L343.877 2.40441L345.851 0.0664062L346.663 0.836406L344.465 2.97841Z" fill="#141414"/>
<path d="M350.626 11.0004L348.736 4.19641H349.912L350.92 8.13041C350.995 8.44774 351.065 8.76507 351.13 9.08241C351.196 9.39041 351.261 9.70307 351.326 10.0204H351.382C351.457 9.70307 351.532 9.39041 351.606 9.08241C351.681 8.76507 351.76 8.44774 351.844 8.13041L352.894 4.19641H354.014L355.078 8.13041C355.162 8.44774 355.242 8.76507 355.316 9.08241C355.4 9.39041 355.48 9.70307 355.554 10.0204H355.61C355.685 9.70307 355.755 9.39041 355.82 9.08241C355.895 8.76507 355.965 8.44774 356.03 8.13041L357.024 4.19641H358.116L356.296 11.0004H354.896L353.916 7.34641C353.832 7.01974 353.753 6.69774 353.678 6.38041C353.613 6.06307 353.538 5.73174 353.454 5.38641H353.398C353.324 5.73174 353.249 6.06774 353.174 6.39441C353.1 6.71174 353.016 7.03374 352.922 7.36041L351.97 11.0004H350.626Z" fill="#141414"/>
<path d="M3.28994 31.1684C2.56194 31.1684 2.05327 30.9584 1.76394 30.5384C1.48394 30.1184 1.34394 29.5724 1.34394 28.9004V25.1344H0.335938V24.2664L1.39994 24.1964L1.53994 22.2924H2.50594V24.1964H4.33994V25.1344H2.50594V28.9144C2.50594 29.3344 2.5806 29.6611 2.72994 29.8944C2.8886 30.1184 3.16394 30.2304 3.55594 30.2304C3.67727 30.2304 3.80794 30.2117 3.94794 30.1744C4.08794 30.1277 4.21394 30.0857 4.32594 30.0484L4.54994 30.9164C4.36327 30.9817 4.15794 31.0377 3.93394 31.0844C3.71927 31.1404 3.5046 31.1684 3.28994 31.1684Z" fill="#141414"/>
<path d="M5.99041 33.9264C5.84107 33.9264 5.69641 33.9124 5.55641 33.8844C5.42574 33.8564 5.30441 33.8237 5.19241 33.7864L5.41641 32.8764C5.49107 32.8951 5.57507 32.9137 5.66841 32.9324C5.76174 32.9604 5.85041 32.9744 5.93441 32.9744C6.31707 32.9744 6.63441 32.8344 6.88641 32.5544C7.13841 32.2837 7.33441 31.9384 7.47441 31.5184L7.62841 31.0144L4.89841 24.1964H6.08841L7.47441 27.9624C7.57707 28.2517 7.68441 28.5644 7.79641 28.9004C7.91774 29.2364 8.02974 29.5631 8.13241 29.8804H8.18841C8.29107 29.5724 8.38907 29.2504 8.48241 28.9144C8.57574 28.5784 8.66907 28.2611 8.76241 27.9624L9.98041 24.1964H11.1004L8.53841 31.5604C8.37974 32.0084 8.18841 32.4097 7.96441 32.7644C7.74974 33.1191 7.47907 33.3991 7.15241 33.6044C6.83507 33.8191 6.44774 33.9264 5.99041 33.9264Z" fill="#141414"/>
<path d="M14.5556 31.1684C13.8276 31.1684 13.3189 30.9584 13.0296 30.5384C12.7496 30.1184 12.6096 29.5724 12.6096 28.9004V25.1344H11.6016V24.2664L12.6656 24.1964L12.8056 22.2924H13.7716V24.1964H15.6056V25.1344H13.7716V28.9144C13.7716 29.3344 13.8462 29.6611 13.9956 29.8944C14.1542 30.1184 14.4296 30.2304 14.8216 30.2304C14.9429 30.2304 15.0736 30.2117 15.2136 30.1744C15.3536 30.1277 15.4796 30.0857 15.5916 30.0484L15.8156 30.9164C15.6289 30.9817 15.4236 31.0377 15.1996 31.0844C14.9849 31.1404 14.7702 31.1684 14.5556 31.1684Z" fill="#141414"/>
<path d="M19.5986 31.1684C19.048 31.1684 18.53 31.0284 18.0446 30.7484C17.5686 30.4684 17.1813 30.0624 16.8826 29.5304C16.5933 28.9984 16.4486 28.3591 16.4486 27.6124C16.4486 26.8471 16.5933 26.1984 16.8826 25.6664C17.1813 25.1344 17.5686 24.7284 18.0446 24.4484C18.53 24.1684 19.048 24.0284 19.5986 24.0284C20.1586 24.0284 20.6766 24.1684 21.1526 24.4484C21.6286 24.7284 22.0113 25.1344 22.3006 25.6664C22.5993 26.1984 22.7486 26.8471 22.7486 27.6124C22.7486 28.3591 22.5993 28.9984 22.3006 29.5304C22.0113 30.0624 21.6286 30.4684 21.1526 30.7484C20.6766 31.0284 20.1586 31.1684 19.5986 31.1684ZM19.5986 30.2164C20.1866 30.2164 20.658 29.9784 21.0126 29.5024C21.3766 29.0171 21.5586 28.3871 21.5586 27.6124C21.5586 26.8284 21.3766 26.1937 21.0126 25.7084C20.658 25.2231 20.1866 24.9804 19.5986 24.9804C19.02 24.9804 18.5486 25.2231 18.1846 25.7084C17.8206 26.1937 17.6386 26.8284 17.6386 27.6124C17.6386 28.3871 17.8206 29.0171 18.1846 29.5024C18.5486 29.9784 19.02 30.2164 19.5986 30.2164Z" fill="#141414"/>
<path d="M24.5405 31.0004V24.1964H25.4925L25.5905 25.1764H25.6325C25.9592 24.8497 26.3045 24.5791 26.6685 24.3644C27.0325 24.1404 27.4478 24.0284 27.9145 24.0284C28.6332 24.0284 29.1558 24.2571 29.4825 24.7144C29.8185 25.1624 29.9865 25.8204 29.9865 26.6884V31.0004H28.8385V26.8424C28.8385 26.2077 28.7358 25.7457 28.5305 25.4564C28.3252 25.1671 27.9985 25.0224 27.5505 25.0224C27.2052 25.0224 26.8925 25.1111 26.6125 25.2884C26.3418 25.4657 26.0338 25.7271 25.6885 26.0724V31.0004H24.5405Z" fill="#141414"/>
<path d="M32.1968 31.0004V24.1964H33.3448V31.0004H32.1968ZM32.7848 22.7964C32.5608 22.7964 32.3741 22.7311 32.2248 22.6004C32.0848 22.4604 32.0148 22.2737 32.0148 22.0404C32.0148 21.8164 32.0848 21.6344 32.2248 21.4944C32.3741 21.3544 32.5608 21.2844 32.7848 21.2844C33.0088 21.2844 33.1908 21.3544 33.3308 21.4944C33.4801 21.6344 33.5548 21.8164 33.5548 22.0404C33.5548 22.2737 33.4801 22.4604 33.3308 22.6004C33.1908 22.7311 33.0088 22.7964 32.7848 22.7964Z" fill="#141414"/>
<path d="M38.2881 31.1684C37.7374 31.1684 37.2194 31.0284 36.7341 30.7484C36.2581 30.4684 35.8707 30.0624 35.5721 29.5304C35.2827 28.9984 35.1381 28.3591 35.1381 27.6124C35.1381 26.8471 35.2827 26.1984 35.5721 25.6664C35.8707 25.1344 36.2581 24.7284 36.7341 24.4484C37.2194 24.1684 37.7374 24.0284 38.2881 24.0284C38.8481 24.0284 39.3661 24.1684 39.8421 24.4484C40.3181 24.7284 40.7007 25.1344 40.9901 25.6664C41.2887 26.1984 41.4381 26.8471 41.4381 27.6124C41.4381 28.3591 41.2887 28.9984 40.9901 29.5304C40.7007 30.0624 40.3181 30.4684 39.8421 30.7484C39.3661 31.0284 38.8481 31.1684 38.2881 31.1684ZM38.2881 30.2164C38.8761 30.2164 39.3474 29.9784 39.7021 29.5024C40.0661 29.0171 40.2481 28.3871 40.2481 27.6124C40.2481 26.8284 40.0661 26.1937 39.7021 25.7084C39.3474 25.2231 38.8761 24.9804 38.2881 24.9804C37.7094 24.9804 37.2381 25.2231 36.8741 25.7084C36.5101 26.1937 36.3281 26.8284 36.3281 27.6124C36.3281 28.3871 36.5101 29.0171 36.8741 29.5024C37.2381 29.9784 37.7094 30.2164 38.2881 30.2164Z" fill="#141414"/>
<path d="M44.2533 31.0004L42.3633 24.1964H43.5393L44.5473 28.1304C44.6219 28.4477 44.6919 28.7651 44.7573 29.0824C44.8226 29.3904 44.8879 29.7031 44.9533 30.0204H45.0093C45.0839 29.7031 45.1586 29.3904 45.2333 29.0824C45.3079 28.7651 45.3873 28.4477 45.4713 28.1304L46.5213 24.1964H47.6413L48.7053 28.1304C48.7893 28.4477 48.8686 28.7651 48.9433 29.0824C49.0273 29.3904 49.1066 29.7031 49.1813 30.0204H49.2373C49.3119 29.7031 49.382 29.3904 49.4473 29.0824C49.5219 28.7651 49.5919 28.4477 49.6573 28.1304L50.6513 24.1964H51.7433L49.9233 31.0004H48.5233L47.5433 27.3464C47.4593 27.0197 47.3799 26.6977 47.3053 26.3804C47.2399 26.0631 47.1653 25.7317 47.0813 25.3864H47.0253C46.9506 25.7317 46.8759 26.0677 46.8013 26.3944C46.7266 26.7117 46.6426 27.0337 46.5493 27.3604L45.5973 31.0004H44.2533Z" fill="#141414"/>
<path d="M53.3361 33.9264C53.1868 33.9264 53.0421 33.9124 52.9021 33.8844C52.7714 33.8564 52.6501 33.8237 52.5381 33.7864L52.7621 32.8764C52.8368 32.8951 52.9208 32.9137 53.0141 32.9324C53.1074 32.9604 53.1961 32.9744 53.2801 32.9744C53.6628 32.9744 53.9801 32.8344 54.2321 32.5544C54.4841 32.2837 54.6801 31.9384 54.8201 31.5184L54.9741 31.0144L52.2441 24.1964H53.4341L54.8201 27.9624C54.9228 28.2517 55.0301 28.5644 55.1421 28.9004C55.2634 29.2364 55.3754 29.5631 55.4781 29.8804H55.5341C55.6368 29.5724 55.7348 29.2504 55.8281 28.9144C55.9214 28.5784 56.0148 28.2611 56.1081 27.9624L57.3261 24.1964H58.4461L55.8841 31.5604C55.7254 32.0084 55.5341 32.4097 55.3101 32.7644C55.0954 33.1191 54.8248 33.3991 54.4981 33.6044C54.1808 33.8191 53.7934 33.9264 53.3361 33.9264Z" fill="#141414"/>
<path d="M62.3926 31.1684C61.7952 31.1684 61.2539 31.0284 60.7686 30.7484C60.2832 30.4684 59.9006 30.0624 59.6206 29.5304C59.3406 28.9984 59.2006 28.3591 59.2006 27.6124C59.2006 26.8471 59.3499 26.1984 59.6486 25.6664C59.9566 25.1344 60.3579 24.7284 60.8526 24.4484C61.3566 24.1684 61.8979 24.0284 62.4766 24.0284C62.9246 24.0284 63.3072 24.1077 63.6246 24.2664C63.9512 24.4251 64.2312 24.6117 64.4646 24.8264L63.8766 25.5824C63.6806 25.4051 63.4706 25.2604 63.2466 25.1484C63.0319 25.0364 62.7892 24.9804 62.5186 24.9804C62.1079 24.9804 61.7392 25.0924 61.4126 25.3164C61.0952 25.5311 60.8432 25.8391 60.6566 26.2404C60.4792 26.6324 60.3906 27.0897 60.3906 27.6124C60.3906 28.3871 60.5819 29.0171 60.9646 29.5024C61.3566 29.9784 61.8652 30.2164 62.4906 30.2164C62.8079 30.2164 63.1019 30.1511 63.3726 30.0204C63.6432 29.8804 63.8812 29.7171 64.0866 29.5304L64.5906 30.3004C64.2826 30.5711 63.9419 30.7857 63.5686 30.9444C63.1952 31.0937 62.8032 31.1684 62.3926 31.1684Z" fill="#141414"/>
<path d="M66.0893 31.0004V21.0324H67.2373V23.7484L67.1953 25.1484C67.522 24.8404 67.8627 24.5791 68.2173 24.3644C68.5813 24.1404 68.9967 24.0284 69.4633 24.0284C70.182 24.0284 70.7047 24.2571 71.0313 24.7144C71.3673 25.1624 71.5353 25.8204 71.5353 26.6884V31.0004H70.3873V26.8424C70.3873 26.2077 70.2847 25.7457 70.0793 25.4564C69.874 25.1671 69.5473 25.0224 69.0993 25.0224C68.754 25.0224 68.4413 25.1111 68.1613 25.2884C67.8907 25.4657 67.5827 25.7271 67.2373 26.0724V31.0004H66.0893Z" fill="#141414"/>
<path d="M76.5073 31.0004V24.1964H77.6553V31.0004H76.5073ZM77.0953 22.7964C76.8713 22.7964 76.6846 22.7311 76.5353 22.6004C76.3953 22.4604 76.3253 22.2737 76.3253 22.0404C76.3253 21.8164 76.3953 21.6344 76.5353 21.4944C76.6846 21.3544 76.8713 21.2844 77.0953 21.2844C77.3193 21.2844 77.5013 21.3544 77.6413 21.4944C77.7906 21.6344 77.8653 21.8164 77.8653 22.0404C77.8653 22.2737 77.7906 22.4604 77.6413 22.6004C77.5013 22.7311 77.3193 22.7964 77.0953 22.7964Z" fill="#141414"/>
<path d="M78.9446 33.2404L82.6826 21.0604H83.5226L79.7846 33.2404H78.9446Z" fill="#141414"/>
<path d="M86.0652 31.1684C85.6358 31.1684 85.3232 31.0377 85.1272 30.7764C84.9405 30.5057 84.8472 30.1231 84.8472 29.6284V21.0324H85.9952V29.7124C85.9952 29.8897 86.0278 30.0204 86.0932 30.1044C86.1585 30.1791 86.2332 30.2164 86.3172 30.2164C86.3545 30.2164 86.3872 30.2164 86.4152 30.2164C86.4525 30.2071 86.5038 30.1977 86.5692 30.1884L86.7232 31.0564C86.6485 31.0937 86.5598 31.1217 86.4572 31.1404C86.3545 31.1591 86.2238 31.1684 86.0652 31.1684Z" fill="#141414"/>
<path d="M90.4035 31.1684C89.6849 31.1684 89.1575 30.9444 88.8215 30.4964C88.4855 30.0391 88.3175 29.3764 88.3175 28.5084V24.1964H89.4795V28.3544C89.4795 28.9891 89.5775 29.4511 89.7735 29.7404C89.9788 30.0297 90.3055 30.1744 90.7535 30.1744C91.1082 30.1744 91.4209 30.0857 91.6915 29.9084C91.9715 29.7217 92.2702 29.4277 92.5875 29.0264V24.1964H93.7355V31.0004H92.7835L92.6855 29.9364H92.6435C92.3262 30.3097 91.9902 30.6084 91.6355 30.8324C91.2809 31.0564 90.8702 31.1684 90.4035 31.1684Z" fill="#141414"/>
<path d="M99.0407 31.1684C98.7234 31.1684 98.3921 31.0937 98.0468 30.9444C97.7108 30.7857 97.3934 30.5711 97.0947 30.3004H97.0527L96.9548 31.0004H96.0308V21.0324H97.1787V23.7484L97.1507 24.9804C97.4587 24.7097 97.7948 24.4857 98.1588 24.3084C98.5321 24.1217 98.9054 24.0284 99.2788 24.0284C100.165 24.0284 100.837 24.3411 101.295 24.9664C101.752 25.5917 101.981 26.4317 101.981 27.4864C101.981 28.2611 101.841 28.9237 101.561 29.4744C101.29 30.0251 100.931 30.4451 100.483 30.7344C100.044 31.0237 99.5634 31.1684 99.0407 31.1684ZM98.8447 30.2024C99.4047 30.2024 99.8668 29.9644 100.231 29.4884C100.604 29.0031 100.791 28.3404 100.791 27.5004C100.791 26.7537 100.651 26.1517 100.371 25.6944C100.1 25.2277 99.6427 24.9944 98.9987 24.9944C98.7094 24.9944 98.4154 25.0737 98.1168 25.2324C97.8181 25.3911 97.5054 25.6197 97.1787 25.9184V29.4884C97.4774 29.7497 97.7714 29.9364 98.0608 30.0484C98.3594 30.1511 98.6208 30.2024 98.8447 30.2024Z" fill="#141414"/>
<path d="M107.65 31.0004L105.76 24.1964H106.936L107.944 28.1304C108.018 28.4477 108.088 28.7651 108.154 29.0824C108.219 29.3904 108.284 29.7031 108.35 30.0204H108.406C108.48 29.7031 108.555 29.3904 108.63 29.0824C108.704 28.7651 108.784 28.4477 108.868 28.1304L109.918 24.1964H111.038L112.102 28.1304C112.186 28.4477 112.265 28.7651 112.34 29.0824C112.424 29.3904 112.503 29.7031 112.578 30.0204H112.634C112.708 29.7031 112.778 29.3904 112.844 29.0824C112.918 28.7651 112.988 28.4477 113.054 28.1304L114.048 24.1964H115.14L113.32 31.0004H111.92L110.94 27.3464C110.856 27.0197 110.776 26.6977 110.702 26.3804C110.636 26.0631 110.562 25.7317 110.478 25.3864H110.422C110.347 25.7317 110.272 26.0677 110.198 26.3944C110.123 26.7117 110.039 27.0337 109.946 27.3604L108.994 31.0004H107.65Z" fill="#141414"/>
<path d="M116.733 33.9264C116.583 33.9264 116.439 33.9124 116.299 33.8844C116.168 33.8564 116.047 33.8237 115.935 33.7864L116.159 32.8764C116.233 32.8951 116.317 32.9137 116.411 32.9324C116.504 32.9604 116.593 32.9744 116.677 32.9744C117.059 32.9744 117.377 32.8344 117.629 32.5544C117.881 32.2837 118.077 31.9384 118.217 31.5184L118.371 31.0144L115.641 24.1964H116.831L118.217 27.9624C118.319 28.2517 118.427 28.5644 118.539 28.9004C118.66 29.2364 118.772 29.5631 118.875 29.8804H118.931C119.033 29.5724 119.131 29.2504 119.225 28.9144C119.318 28.5784 119.411 28.2611 119.505 27.9624L120.723 24.1964H121.843L119.281 31.5604C119.122 32.0084 118.931 32.4097 118.707 32.7644C118.492 33.1191 118.221 33.3991 117.895 33.6044C117.577 33.8191 117.19 33.9264 116.733 33.9264Z" fill="#141414"/>
<path d="M123.156 31.0004V24.1964H124.108L124.206 25.4284H124.248C124.481 24.9991 124.766 24.6584 125.102 24.4064C125.438 24.1544 125.797 24.0284 126.18 24.0284C126.45 24.0284 126.693 24.0751 126.908 24.1684L126.684 25.1764C126.572 25.1391 126.469 25.1111 126.376 25.0924C126.282 25.0737 126.166 25.0644 126.026 25.0644C125.736 25.0644 125.433 25.1811 125.116 25.4144C124.808 25.6477 124.537 26.0537 124.304 26.6324V31.0004H123.156Z" fill="#141414"/>
<path d="M130.519 31.1684C129.968 31.1684 129.45 31.0284 128.965 30.7484C128.489 30.4684 128.101 30.0624 127.803 29.5304C127.513 28.9984 127.369 28.3591 127.369 27.6124C127.369 26.8471 127.513 26.1984 127.803 25.6664C128.101 25.1344 128.489 24.7284 128.965 24.4484C129.45 24.1684 129.968 24.0284 130.519 24.0284C131.079 24.0284 131.597 24.1684 132.073 24.4484C132.549 24.7284 132.931 25.1344 133.221 25.6664C133.519 26.1984 133.669 26.8471 133.669 27.6124C133.669 28.3591 133.519 28.9984 133.221 29.5304C132.931 30.0624 132.549 30.4684 132.073 30.7484C131.597 31.0284 131.079 31.1684 130.519 31.1684ZM130.519 30.2164C131.107 30.2164 131.578 29.9784 131.933 29.5024C132.297 29.0171 132.479 28.3871 132.479 27.6124C132.479 26.8284 132.297 26.1937 131.933 25.7084C131.578 25.2231 131.107 24.9804 130.519 24.9804C129.94 24.9804 129.469 25.2231 129.105 25.7084C128.741 26.1937 128.559 26.8284 128.559 27.6124C128.559 28.3871 128.741 29.0171 129.105 29.5024C129.469 29.9784 129.94 30.2164 130.519 30.2164Z" fill="#141414"/>
<path d="M138.47 31.1684C138.153 31.1684 137.822 31.0937 137.476 30.9444C137.14 30.7857 136.823 30.5711 136.524 30.3004H136.482L136.384 31.0004H135.46V21.0324H136.608V23.7484L136.58 24.9804C136.888 24.7097 137.224 24.4857 137.588 24.3084C137.962 24.1217 138.335 24.0284 138.708 24.0284C139.595 24.0284 140.267 24.3411 140.724 24.9664C141.182 25.5917 141.41 26.4317 141.41 27.4864C141.41 28.2611 141.27 28.9237 140.99 29.4744C140.72 30.0251 140.36 30.4451 139.912 30.7344C139.474 31.0237 138.993 31.1684 138.47 31.1684ZM138.274 30.2024C138.834 30.2024 139.296 29.9644 139.66 29.4884C140.034 29.0031 140.22 28.3404 140.22 27.5004C140.22 26.7537 140.08 26.1517 139.8 25.6944C139.53 25.2277 139.072 24.9944 138.428 24.9944C138.139 24.9944 137.845 25.0737 137.546 25.2324C137.248 25.3911 136.935 25.6197 136.608 25.9184V29.4884C136.907 29.7497 137.201 29.9364 137.49 30.0484C137.789 30.1511 138.05 30.2024 138.274 30.2024Z" fill="#141414"/>
<path d="M145.845 31.1684C145.294 31.1684 144.776 31.0284 144.291 30.7484C143.815 30.4684 143.427 30.0624 143.129 29.5304C142.839 28.9984 142.695 28.3591 142.695 27.6124C142.695 26.8471 142.839 26.1984 143.129 25.6664C143.427 25.1344 143.815 24.7284 144.291 24.4484C144.776 24.1684 145.294 24.0284 145.845 24.0284C146.405 24.0284 146.923 24.1684 147.399 24.4484C147.875 24.7284 148.257 25.1344 148.547 25.6664C148.845 26.1984 148.995 26.8471 148.995 27.6124C148.995 28.3591 148.845 28.9984 148.547 29.5304C148.257 30.0624 147.875 30.4684 147.399 30.7484C146.923 31.0284 146.405 31.1684 145.845 31.1684ZM145.845 30.2164C146.433 30.2164 146.904 29.9784 147.259 29.5024C147.623 29.0171 147.805 28.3871 147.805 27.6124C147.805 26.8284 147.623 26.1937 147.259 25.7084C146.904 25.2231 146.433 24.9804 145.845 24.9804C145.266 24.9804 144.795 25.2231 144.431 25.7084C144.067 26.1937 143.885 26.8284 143.885 27.6124C143.885 28.3871 144.067 29.0171 144.431 29.5024C144.795 29.9784 145.266 30.2164 145.845 30.2164ZM145.649 22.9784L145.061 22.4044L147.035 20.0664L147.847 20.8364L145.649 22.9784Z" fill="#141414"/>
<path d="M151.81 31.0004L149.92 24.1964H151.096L152.104 28.1304C152.179 28.4477 152.249 28.7651 152.314 29.0824C152.379 29.3904 152.445 29.7031 152.51 30.0204H152.566C152.641 29.7031 152.715 29.3904 152.79 29.0824C152.865 28.7651 152.944 28.4477 153.028 28.1304L154.078 24.1964H155.198L156.262 28.1304C156.346 28.4477 156.425 28.7651 156.5 29.0824C156.584 29.3904 156.663 29.7031 156.738 30.0204H156.794C156.869 29.7031 156.939 29.3904 157.004 29.0824C157.079 28.7651 157.149 28.4477 157.214 28.1304L158.208 24.1964H159.3L157.48 31.0004H156.08L155.1 27.3464C155.016 27.0197 154.937 26.6977 154.862 26.3804C154.797 26.0631 154.722 25.7317 154.638 25.3864H154.582C154.507 25.7317 154.433 26.0677 154.358 26.3944C154.283 26.7117 154.199 27.0337 154.106 27.3604L153.154 31.0004H151.81Z" fill="#141414"/>
<path d="M163.583 33.8704V24.1964H164.535L164.633 24.9804H164.675C164.983 24.7191 165.319 24.4951 165.683 24.3084C166.057 24.1217 166.444 24.0284 166.845 24.0284C167.723 24.0284 168.39 24.3457 168.847 24.9804C169.305 25.6057 169.533 26.4457 169.533 27.5004C169.533 28.2657 169.393 28.9237 169.113 29.4744C168.843 30.0251 168.483 30.4451 168.035 30.7344C167.597 31.0237 167.116 31.1684 166.593 31.1684C166.276 31.1684 165.959 31.0984 165.641 30.9584C165.333 30.8184 165.021 30.6271 164.703 30.3844L164.731 31.5744V33.8704H163.583ZM166.397 30.2024C166.957 30.2024 167.419 29.9644 167.783 29.4884C168.157 29.0031 168.343 28.3404 168.343 27.5004C168.343 26.7537 168.203 26.1517 167.923 25.6944C167.653 25.2277 167.195 24.9944 166.551 24.9944C166.262 24.9944 165.968 25.0737 165.669 25.2324C165.38 25.3911 165.067 25.6197 164.731 25.9184V29.4884C165.039 29.7497 165.338 29.9364 165.627 30.0484C165.917 30.1511 166.173 30.2024 166.397 30.2024Z" fill="#141414"/>
<path d="M173.995 31.1684C173.444 31.1684 172.926 31.0284 172.441 30.7484C171.965 30.4684 171.578 30.0624 171.279 29.5304C170.99 28.9984 170.845 28.3591 170.845 27.6124C170.845 26.8471 170.99 26.1984 171.279 25.6664C171.578 25.1344 171.965 24.7284 172.441 24.4484C172.926 24.1684 173.444 24.0284 173.995 24.0284C174.555 24.0284 175.073 24.1684 175.549 24.4484C176.025 24.7284 176.408 25.1344 176.697 25.6664C176.996 26.1984 177.145 26.8471 177.145 27.6124C177.145 28.3591 176.996 28.9984 176.697 29.5304C176.408 30.0624 176.025 30.4684 175.549 30.7484C175.073 31.0284 174.555 31.1684 173.995 31.1684ZM173.995 30.2164C174.583 30.2164 175.054 29.9784 175.409 29.5024C175.773 29.0171 175.955 28.3871 175.955 27.6124C175.955 26.8284 175.773 26.1937 175.409 25.7084C175.054 25.2231 174.583 24.9804 173.995 24.9804C173.416 24.9804 172.945 25.2231 172.581 25.7084C172.217 26.1937 172.035 26.8284 172.035 27.6124C172.035 28.3871 172.217 29.0171 172.581 29.5024C172.945 29.9784 173.416 30.2164 173.995 30.2164Z" fill="#141414"/>
<path d="M179.96 31.0004L178.07 24.1964H179.246L180.254 28.1304C180.329 28.4477 180.399 28.7651 180.464 29.0824C180.53 29.3904 180.595 29.7031 180.66 30.0204H180.716C180.791 29.7031 180.866 29.3904 180.94 29.0824C181.015 28.7651 181.094 28.4477 181.178 28.1304L182.228 24.1964H183.348L184.412 28.1304C184.496 28.4477 184.576 28.7651 184.65 29.0824C184.734 29.3904 184.814 29.7031 184.888 30.0204H184.944C185.019 29.7031 185.089 29.3904 185.154 29.0824C185.229 28.7651 185.299 28.4477 185.364 28.1304L186.358 24.1964H187.45L185.63 31.0004H184.23L183.25 27.3464C183.166 27.0197 183.087 26.6977 183.012 26.3804C182.947 26.0631 182.872 25.7317 182.788 25.3864H182.732C182.658 25.7317 182.583 26.0677 182.508 26.3944C182.434 26.7117 182.35 27.0337 182.256 27.3604L181.304 31.0004H179.96Z" fill="#141414"/>
<path d="M188.931 31.0004V24.1964H190.079V31.0004H188.931ZM189.519 22.7964C189.295 22.7964 189.108 22.7311 188.959 22.6004C188.819 22.4604 188.749 22.2737 188.749 22.0404C188.749 21.8164 188.819 21.6344 188.959 21.4944C189.108 21.3544 189.295 21.2844 189.519 21.2844C189.743 21.2844 189.925 21.3544 190.065 21.4944C190.214 21.6344 190.289 21.8164 190.289 22.0404C190.289 22.2737 190.214 22.4604 190.065 22.6004C189.925 22.7311 189.743 22.7964 189.519 22.7964Z" fill="#141414"/>
<path d="M196.492 33.8844C196.138 33.8844 195.834 33.7817 195.582 33.5764C195.34 33.3804 195.218 33.0864 195.218 32.6944C195.218 32.3117 195.34 31.9664 195.582 31.6584C195.825 31.3597 196.077 31.1217 196.338 30.9444L196.24 30.1884H196.198C195.881 30.4497 195.531 30.6784 195.148 30.8744C194.775 31.0704 194.374 31.1684 193.944 31.1684C193.375 31.1684 192.899 31.0004 192.516 30.6644C192.143 30.3191 191.956 29.8431 191.956 29.2364C191.956 28.4897 192.288 27.9204 192.95 27.5284C193.622 27.1271 194.682 26.8471 196.128 26.6884C196.128 26.3991 196.086 26.1237 196.002 25.8624C195.928 25.6011 195.788 25.3911 195.582 25.2324C195.386 25.0644 195.102 24.9804 194.728 24.9804C194.336 24.9804 193.968 25.0551 193.622 25.2044C193.277 25.3537 192.969 25.5217 192.698 25.7084L192.25 24.9104C192.568 24.7051 192.955 24.5091 193.412 24.3224C193.879 24.1264 194.383 24.0284 194.924 24.0284C195.755 24.0284 196.357 24.2851 196.73 24.7984C197.104 25.3024 197.29 25.9791 197.29 26.8284V31.0004C196.898 31.1497 196.595 31.3644 196.38 31.6444C196.175 31.9244 196.072 32.1997 196.072 32.4704C196.072 32.6851 196.138 32.8437 196.268 32.9464C196.399 33.0584 196.548 33.1144 196.716 33.1144C196.828 33.1144 196.931 33.0957 197.024 33.0584C197.118 33.0304 197.206 32.9884 197.29 32.9324L197.584 33.5064C197.454 33.6091 197.281 33.6977 197.066 33.7724C196.861 33.8471 196.67 33.8844 196.492 33.8844ZM194.28 30.2444C194.607 30.2444 194.915 30.1651 195.204 30.0064C195.494 29.8477 195.802 29.6237 196.128 29.3344V27.4444C194.999 27.5844 194.206 27.7944 193.748 28.0744C193.3 28.3544 193.076 28.7137 193.076 29.1524C193.076 29.5351 193.193 29.8151 193.426 29.9924C193.66 30.1604 193.944 30.2444 194.28 30.2444Z" fill="#141414"/>
<path d="M198.717 31.0004V30.3844L202.301 25.1344H199.109V24.1964H203.757V24.8124L200.173 30.0624H203.869V31.0004H198.717Z" fill="#141414"/>
<path d="M206.618 31.1684C206.049 31.1684 205.573 31.0004 205.19 30.6644C204.817 30.3191 204.63 29.8431 204.63 29.2364C204.63 28.4897 204.962 27.9204 205.624 27.5284C206.296 27.1271 207.356 26.8471 208.802 26.6884C208.802 26.3991 208.76 26.1237 208.676 25.8624C208.602 25.6011 208.462 25.3911 208.256 25.2324C208.06 25.0644 207.776 24.9804 207.402 24.9804C207.01 24.9804 206.642 25.0551 206.296 25.2044C205.951 25.3537 205.643 25.5217 205.372 25.7084L204.924 24.9104C205.242 24.7051 205.629 24.5091 206.086 24.3224C206.553 24.1264 207.057 24.0284 207.598 24.0284C208.429 24.0284 209.031 24.2851 209.404 24.7984C209.778 25.3024 209.964 25.9791 209.964 26.8284V31.0004H209.012L208.914 30.1884H208.872C208.555 30.4497 208.205 30.6784 207.822 30.8744C207.449 31.0704 207.048 31.1684 206.618 31.1684ZM206.954 30.2444C207.281 30.2444 207.589 30.1651 207.878 30.0064C208.168 29.8477 208.476 29.6237 208.802 29.3344V27.4444C207.673 27.5844 206.88 27.7944 206.422 28.0744C205.974 28.3544 205.75 28.7137 205.75 29.1524C205.75 29.5351 205.867 29.8151 206.1 29.9924C206.334 30.1604 206.618 30.2444 206.954 30.2444Z" fill="#141414"/>
<path d="M212.105 31.0004V24.1964H213.057L213.155 25.1764H213.197C213.524 24.8497 213.869 24.5791 214.233 24.3644C214.597 24.1404 215.012 24.0284 215.479 24.0284C216.198 24.0284 216.72 24.2571 217.047 24.7144C217.383 25.1624 217.551 25.8204 217.551 26.6884V31.0004H216.403V26.8424C216.403 26.2077 216.3 25.7457 216.095 25.4564C215.89 25.1671 215.563 25.0224 215.115 25.0224C214.77 25.0224 214.457 25.1111 214.177 25.2884C213.906 25.4657 213.598 25.7271 213.253 26.0724V31.0004H212.105Z" fill="#141414"/>
<path d="M219.873 33.9264C219.724 33.9264 219.579 33.9124 219.439 33.8844C219.309 33.8564 219.187 33.8237 219.075 33.7864L219.299 32.8764C219.374 32.8951 219.458 32.9137 219.551 32.9324C219.645 32.9604 219.733 32.9744 219.817 32.9744C220.2 32.9744 220.517 32.8344 220.769 32.5544C221.021 32.2837 221.217 31.9384 221.357 31.5184L221.511 31.0144L218.781 24.1964H219.971L221.357 27.9624C221.46 28.2517 221.567 28.5644 221.679 28.9004C221.801 29.2364 221.913 29.5631 222.015 29.8804H222.071C222.174 29.5724 222.272 29.2504 222.365 28.9144C222.459 28.5784 222.552 28.2611 222.645 27.9624L223.863 24.1964H224.983L222.421 31.5604C222.263 32.0084 222.071 32.4097 221.847 32.7644C221.633 33.1191 221.362 33.3991 221.035 33.6044C220.718 33.8191 220.331 33.9264 219.873 33.9264Z" fill="#141414"/>
<path d="M228.93 31.1684C228.332 31.1684 227.791 31.0284 227.306 30.7484C226.82 30.4684 226.438 30.0624 226.158 29.5304C225.878 28.9984 225.738 28.3591 225.738 27.6124C225.738 26.8471 225.887 26.1984 226.186 25.6664C226.494 25.1344 226.895 24.7284 227.39 24.4484C227.894 24.1684 228.435 24.0284 229.014 24.0284C229.462 24.0284 229.844 24.1077 230.162 24.2664C230.488 24.4251 230.768 24.6117 231.002 24.8264L230.414 25.5824C230.218 25.4051 230.008 25.2604 229.784 25.1484C229.569 25.0364 229.326 24.9804 229.056 24.9804C228.645 24.9804 228.276 25.0924 227.95 25.3164C227.632 25.5311 227.38 25.8391 227.194 26.2404C227.016 26.6324 226.928 27.0897 226.928 27.6124C226.928 28.3871 227.119 29.0171 227.502 29.5024C227.894 29.9784 228.402 30.2164 229.028 30.2164C229.345 30.2164 229.639 30.1511 229.91 30.0204C230.18 29.8804 230.418 29.7171 230.624 29.5304L231.128 30.3004C230.82 30.5711 230.479 30.7857 230.106 30.9444C229.732 31.0937 229.34 31.1684 228.93 31.1684Z" fill="#141414"/>
<path d="M232.626 31.0004V21.0324H233.774V23.7484L233.732 25.1484C234.059 24.8404 234.4 24.5791 234.754 24.3644C235.118 24.1404 235.534 24.0284 236 24.0284C236.719 24.0284 237.242 24.2571 237.568 24.7144C237.904 25.1624 238.072 25.8204 238.072 26.6884V31.0004H236.924V26.8424C236.924 26.2077 236.822 25.7457 236.616 25.4564C236.411 25.1671 236.084 25.0224 235.636 25.0224C235.291 25.0224 234.978 25.1111 234.698 25.2884C234.428 25.4657 234.12 25.7271 233.774 26.0724V31.0004H232.626Z" fill="#141414"/>
<path d="M240.844 31.1684C240.61 31.1684 240.41 31.0891 240.242 30.9304C240.083 30.7624 240.004 30.5524 240.004 30.3004C240.004 30.0297 240.083 29.8151 240.242 29.6564C240.41 29.4884 240.61 29.4044 240.844 29.4044C241.068 29.4044 241.259 29.4884 241.418 29.6564C241.586 29.8151 241.67 30.0297 241.67 30.3004C241.67 30.5524 241.586 30.7624 241.418 30.9304C241.259 31.0891 241.068 31.1684 240.844 31.1684Z" fill="#141414"/>
<path d="M242.584 25.1204L242.024 24.7144L242.822 23.3984L241.464 22.8384L241.674 22.1944L243.102 22.5444L243.228 21.0324H243.914L244.04 22.5304L245.482 22.1944L245.692 22.8384L244.334 23.3984L245.118 24.7144L244.572 25.1204L243.578 23.9164L242.584 25.1204Z" fill="#141414"/>
</svg>
