<svg width="89" height="40" viewBox="0 0 89 40" fill="none" xmlns="http://www.w3.org/2000/svg">
<g clip-path="url(#clip0_1_667)">
<path d="M34.0495 17.8859V35.3152H38.3172V20.483C36.6353 20.0387 35.1582 19.1235 34.0495 17.8859Z" fill="white"/>
<path d="M84.7326 17.0008V22.7382C83.5933 21.6585 82.1912 21.1187 80.5196 21.1187C78.4899 21.1187 76.8046 21.81 75.4675 23.1924C74.1302 24.5749 73.4616 26.3195 73.4616 28.4229C73.4616 30.5657 74.1302 32.3268 75.4675 33.7093C76.8046 35.0918 78.5172 35.7831 80.6049 35.7831C82.4266 35.7831 83.8764 35.1412 84.9577 33.8608V35.3157H89.0001V17.0008H84.7326ZM83.9377 30.9542C83.2556 31.6289 82.3822 31.9647 81.3179 31.9647C80.274 31.9647 79.4143 31.6323 78.7423 30.9674C78.0703 30.3025 77.7326 29.4532 77.7326 28.4196C77.7326 27.4058 78.0738 26.5697 78.756 25.9146C79.4382 25.2596 80.3116 24.9338 81.3724 24.9338C82.3959 24.9338 83.2521 25.2662 83.9343 25.9311C84.6166 26.596 84.9577 27.4156 84.9577 28.3933C84.9611 29.4269 84.62 30.2827 83.9377 30.9542Z" fill="white"/>
<path d="M24.7179 31.9643C23.732 31.9643 22.9201 31.6417 22.2857 30.9966C21.6511 30.3514 21.3304 29.5186 21.3304 28.5048C21.3304 27.4712 21.6477 26.6187 22.2857 25.9438C22.9201 25.269 23.732 24.9334 24.7179 24.9334C26.2155 24.9334 27.2491 25.5818 27.8188 26.882H32.117C31.7555 25.1604 30.8753 23.7713 29.4699 22.7082C28.0644 21.6482 26.4338 21.115 24.5747 21.115C22.4698 21.115 20.6891 21.8194 19.2393 23.2283C17.7894 24.6371 17.0629 26.3685 17.0629 28.4192C17.0629 30.4699 17.8031 32.2079 19.2837 33.6365C20.7641 35.0651 22.5654 35.7794 24.6906 35.7794C26.4747 35.7794 28.0576 35.2527 29.4426 34.1993C30.8276 33.146 31.7282 31.7767 32.1443 30.0947H27.8461C27.0308 31.3422 25.9869 31.9643 24.7179 31.9643Z" fill="white"/>
<path d="M67.0025 29.2656C67.0025 31.0661 66.1975 31.9649 64.5839 31.9649C63.0658 31.9649 62.3051 31.0661 62.3051 29.2656V21.5861H58.0375V29.7956C58.0375 30.8028 58.1024 31.5632 58.2354 32.0734C58.406 32.7877 58.7675 33.4461 59.3168 34.0517C60.3607 35.2038 61.7456 35.7831 63.4718 35.7831C65.3105 35.7831 66.5659 35.1412 67.2276 33.8608V35.3157H71.27V21.5861H67.0025V29.2656Z" fill="white"/>
<path d="M48.194 21.1187C45.9733 21.1187 44.138 21.8199 42.6882 23.2188C41.2383 24.6178 40.5118 26.3887 40.5118 28.5316C40.5118 30.6185 41.2418 32.3499 42.7018 33.7226C44.1619 35.0951 46.004 35.7831 48.2213 35.7831C50.4216 35.7831 52.2467 35.0886 53.7 33.6962C55.1497 32.3038 55.8764 30.5559 55.8764 28.4526C55.8764 26.3459 55.1462 24.598 53.6863 23.209C52.2263 21.8133 50.3943 21.1187 48.194 21.1187ZM50.6434 30.9542C49.9986 31.6291 49.1901 31.9649 48.2247 31.9649C47.2389 31.9649 46.4167 31.6291 45.7617 30.9542C45.1068 30.2794 44.7793 29.4367 44.7793 28.4229C44.7793 27.4453 45.1102 26.6191 45.7755 25.9476C46.4406 25.2729 47.2559 24.9371 48.2247 24.9371C49.1731 24.9371 49.9747 25.2794 50.6297 25.9607C51.2847 26.6422 51.6121 27.4749 51.6121 28.4526C51.6088 29.4467 51.2881 30.2827 50.6434 30.9542Z" fill="white"/>
<path d="M7.15973 40V36.8532H18.9662V40H7.15973Z" fill="white"/>
<path d="M11.694 4.6077H15.7262V18.4031H11.694V16.9119C11.0253 18.2187 9.54833 18.8705 7.26265 18.8705C5.10674 18.8705 3.36015 18.1891 2.01608 16.8297C0.672024 15.4701 0 13.6959 0 11.507C0 9.33449 0.685667 7.56031 2.06043 6.18111C3.43519 4.8019 5.19543 4.11066 7.35136 4.11066C9.46635 4.11066 10.9162 4.76569 11.6975 6.0692V4.6077H11.694ZM7.83578 8.00472C6.82607 8.00472 5.98004 8.34048 5.3046 9.0152C4.62915 9.69004 4.29144 10.5261 4.29144 11.5235C4.29144 12.5208 4.63256 13.357 5.32166 14.0317C6.00732 14.7065 6.85678 15.0423 7.8665 15.0423C8.91377 15.0423 9.77347 14.7099 10.4386 14.0449C11.1072 13.38 11.4382 12.5308 11.4382 11.4972C11.4382 10.4998 11.1005 9.66693 10.425 9.00537C9.74619 8.33716 8.88306 8.00472 7.83578 8.00472Z" fill="white"/>
<path d="M23.2531 18.407H18.9651V0H23.2565V18.407H23.2531Z" fill="white"/>
<path d="M26.5176 0H30.809V4.60832H32.8694V7.72557H30.809V18.4037H26.5176V7.72889H24.4297V4.61162H26.5176V0Z" fill="white"/>
<path d="M43.9634 14.2959L44.1612 14.1018H48.5073C47.842 15.5928 46.8903 16.7614 45.6622 17.6074C44.4308 18.4533 43.0628 18.8779 41.5584 18.8779C39.4604 18.8779 37.6831 18.1669 36.2266 16.7383C34.7664 15.313 34.0364 13.5784 34.0364 11.5375C34.0364 9.47698 34.763 7.72908 36.2094 6.29392C37.6558 4.85875 39.4127 4.14116 41.4731 4.14116C43.6086 4.14116 45.3996 4.86203 46.8493 6.30708C48.2992 7.75207 49.0223 9.53944 49.0223 11.6725C49.0223 12.005 48.9849 12.3802 48.9098 12.8048H38.1847C38.2801 13.5784 38.6178 14.1972 39.2012 14.6679C39.7811 15.1354 40.4941 15.3723 41.3298 15.3723C42.2816 15.3723 43.1618 15.0135 43.9634 14.2959ZM38.3005 10.0465H44.7343C44.5808 9.32883 44.2091 8.74952 43.6188 8.3084C43.0287 7.86727 42.3225 7.64678 41.5038 7.64678C39.73 7.64678 38.6622 8.44671 38.3005 10.0465Z" fill="white"/>
<path d="M55.4767 18.4067H51.1852V4.60808H55.2447V6.06957C56.0088 4.78252 57.1618 4.13736 58.7038 4.13736H58.8198V8.30463C57.6087 8.3243 56.7491 8.5252 56.2408 8.91026C55.7291 9.29544 55.4767 9.92738 55.4767 10.8096V18.4067Z" fill="white"/>
</g>
<defs>
<clipPath id="clip0_1_667">
<rect width="89" height="40" fill="white"/>
</clipPath>
</defs>
</svg>
