<svg width="92" height="40" viewBox="0 0 92 40" fill="none" xmlns="http://www.w3.org/2000/svg">
<path fill-rule="evenodd" clip-rule="evenodd" d="M6.70178 40H18.4021V36.836H6.70178V40ZM30.6872 24.9075L25.1239 32.4845H30.6872V35.6204H20.1283V32.7621L26.0888 24.8795H20.1283V21.7434H30.6872V24.9075ZM66.1445 35.6204H61.8864V21.7434H65.9168V23.2145C66.8435 21.9196 68.1402 21.2718 69.8052 21.2718C71.3564 21.2718 72.6246 21.7434 73.6081 22.6871C74.1572 23.224 74.5311 23.7835 74.7301 24.3662C74.928 24.949 75.0284 25.8051 75.0284 26.9337V35.6204H70.77V28.0235C70.77 26.0947 70.0329 25.1294 68.557 25.1294C66.9474 25.1294 66.1445 26.0391 66.1445 27.8568V35.6204ZM81.3573 27.2113H87.7432C87.5912 26.4895 87.2225 25.9067 86.6361 25.4626C86.0496 25.0187 85.3495 24.7967 84.5355 24.7967C82.7763 24.7967 81.716 25.6012 81.3573 27.2113ZM86.9773 31.4853L87.1755 31.291H91.4891C90.8273 32.7897 89.886 33.9651 88.6661 34.8154C87.4451 35.6664 86.0868 36.0923 84.5921 36.0923C82.5114 36.0923 80.7474 35.3755 79.3 33.9413C77.8513 32.508 77.1276 30.7635 77.1276 28.71C77.1276 26.6379 77.8477 24.8795 79.2852 23.4363C80.7226 21.9933 82.4646 21.2718 84.5082 21.2718C86.6261 21.2718 88.4052 21.9981 89.8438 23.4503C91.2814 24.9031 92 26.7025 92 28.8486C92 29.182 91.9632 29.5612 91.8876 29.9862H81.2435C81.3374 30.7635 81.674 31.3876 82.2516 31.8601C82.8283 32.3318 83.5334 32.5678 84.3661 32.5678C85.311 32.5678 86.1819 32.2065 86.9773 31.4853ZM52.1172 21.2869C56.2788 21.2869 59.6837 24.6165 59.6837 28.6859C59.6837 32.7551 56.2788 36.0846 52.1172 36.0846H40.531C36.3694 36.0846 32.9643 32.7551 32.9643 28.6859C32.9643 24.6165 36.3694 21.2869 40.531 21.2869H52.1172ZM52.0258 24.7772H40.934C38.8558 24.7772 37.1556 26.4398 37.1556 28.4717C37.1556 30.5037 38.8558 32.1663 40.934 32.1663H52.0258C54.1038 32.1663 55.8042 30.5037 55.8042 28.4718C55.8042 26.4398 54.1038 24.7772 52.0258 24.7772ZM40.9553 26.1517C42.264 26.1517 43.3251 27.1896 43.3251 28.4692C43.3251 29.7488 42.264 30.7865 40.9553 30.7865C39.6465 30.7865 38.5857 29.7488 38.5857 28.4692C38.5857 27.1896 39.6465 26.1517 40.9553 26.1517ZM7.77773 8.04877C6.77444 8.04877 5.9369 8.38796 5.26534 9.06551C4.59337 9.74407 4.25832 10.5843 4.25832 11.5877C4.25832 12.591 4.59834 13.4313 5.28006 14.1095C5.96032 14.7874 6.80283 15.1262 7.80632 15.1262C8.84672 15.1262 9.69772 14.7916 10.3595 14.1232C11.0228 13.4544 11.3529 12.6002 11.3529 11.5599C11.3529 10.5564 11.0178 9.72057 10.3461 9.05214C9.67431 8.3833 8.81812 8.04877 7.77773 8.04877ZM11.609 4.6349H15.6112V18.5121H11.609V17.0132C10.9461 18.3275 9.47995 18.9837 7.20999 18.9837C5.07098 18.9837 3.33542 18.2998 2.00183 16.9303C0.668035 15.561 0 13.7756 0 11.5737C0 9.3903 0.681711 7.60484 2.04389 6.21713C3.40711 4.82981 5.15636 4.13545 7.29535 4.13545C9.39457 4.13545 10.8334 4.79293 11.609 6.1061V4.6349ZM18.4206 18.5121H22.6787V4.03116e-05H18.4206V18.5121ZM25.9137 0H30.1718V4.63486H32.2155V7.77115H30.1718V18.5121H25.9137V7.77115H23.8429V4.63486H25.9137V0ZM37.409 10.1028H43.7949C43.6426 9.38111 43.2742 8.79817 42.6878 8.35424C42.1015 7.91031 41.4011 7.68824 40.5872 7.68824C38.8279 7.68824 37.7677 8.49263 37.409 10.1028ZM43.0292 14.3766L43.2271 14.1825H47.5408C46.8792 15.6812 45.9377 16.8567 44.7178 17.7071C43.4967 18.558 42.1385 18.9839 40.644 18.9839C38.5631 18.9839 36.7991 18.267 35.3517 16.8329C33.903 15.3995 33.1793 13.6551 33.1793 11.6016C33.1793 9.52941 33.8993 7.77111 35.3369 6.32787C36.7743 4.88485 38.5161 4.16312 40.56 4.16312C42.6779 4.16312 44.4568 4.88971 45.8955 6.34186C47.333 7.79461 48.0518 9.59405 48.0518 11.7402C48.0518 12.0735 48.0147 12.4525 47.9392 12.8779H37.2953C37.3891 13.6551 37.7256 14.2793 38.3033 14.7517C38.88 15.2233 39.5851 15.4594 40.4177 15.4594C41.3627 15.4594 42.2336 15.0983 43.0292 14.3766ZM54.4946 18.512H50.2365V4.63501H54.2669V6.10601C55.0242 4.81088 56.1684 4.16312 57.7013 4.16312H57.8149V8.35424C56.6139 8.37289 55.7603 8.5755 55.2542 8.96331C54.747 9.35092 54.4946 9.98733 54.4946 10.8728V18.512Z" fill="white"/>
</svg>
