<svg width="64" height="64" viewBox="0 0 64 64" fill="none" xmlns="http://www.w3.org/2000/svg">
<path d="M63.4389 11.0235C63.2836 10.4967 62.8529 10.0968 62.3161 9.98122L55.5154 8.51547L54.0496 1.71484C53.9339 1.17797 53.5341 0.747216 53.0073 0.592091C52.4803 0.436841 51.9109 0.581966 51.5226 0.970216L42.7277 9.76509C38.5567 7.49634 33.8651 6.30147 29.084 6.30147C21.449 6.30147 14.2709 9.27472 8.87225 14.6735C3.47325 20.0722 0.5 27.2502 0.5 34.8852C0.5 42.5202 3.47325 49.6983 8.87212 55.097C14.2708 60.4957 21.4489 63.4691 29.0839 63.4691C36.7189 63.4691 43.8969 60.4958 49.2956 55.097C54.6944 49.6983 57.6678 42.5202 57.6678 34.8852C57.6678 30.1373 56.4877 25.4733 54.2471 21.3217L63.0606 12.5081C63.449 12.1197 63.5941 11.5502 63.4389 11.0235ZM35.3086 34.8852C35.3086 38.3175 32.5163 41.1098 29.0839 41.1098C25.6516 41.1098 22.8592 38.3175 22.8592 34.8852C22.8592 31.453 25.6516 28.6606 29.0839 28.6606C30.2598 28.6606 31.3602 28.9885 32.2994 29.5573L28.0243 33.8235C27.438 34.4087 27.4369 35.3583 28.022 35.9448C28.315 36.2385 28.6994 36.3852 29.0837 36.3852C29.467 36.3852 29.8505 36.2391 30.1434 35.947L34.4183 31.6811C34.983 32.6177 35.3086 33.7141 35.3086 34.8852ZM34.463 27.3983C32.9475 26.3065 31.0903 25.6606 29.0839 25.6606C23.9975 25.6606 19.8592 29.7987 19.8592 34.8852C19.8592 39.9716 23.9974 44.1098 29.0839 44.1098C34.1704 44.1098 38.3086 39.9717 38.3086 34.8852C38.3086 32.8858 37.6671 31.0345 36.5821 29.5218L41.3462 24.7677C43.6204 27.519 44.9883 31.0453 44.9883 34.8852C44.9883 43.6548 37.8536 50.7895 29.084 50.7895C20.3145 50.7895 13.1799 43.6548 13.1799 34.8852C13.1799 26.1156 20.3145 18.981 29.084 18.981C32.9357 18.981 36.472 20.3577 39.2269 22.6445L34.463 27.3983ZM29.0839 60.4691C14.9769 60.4691 3.5 48.9922 3.5 34.8852C3.5 20.7782 14.9769 9.30147 29.0839 9.30147C33.2952 9.30147 37.4284 10.3361 41.115 12.3031C41.1175 12.3163 41.1181 12.3297 41.121 12.3428L42.613 19.2653L41.3569 20.5188C38.0519 17.6913 33.7641 15.981 29.0839 15.981C18.66 15.981 10.1798 24.4613 10.1798 34.8852C10.1798 45.3091 18.6601 53.7895 29.0839 53.7895C39.5076 53.7895 47.9881 45.309 47.9881 34.8852C47.9881 30.2192 46.2879 25.9435 43.4757 22.6426L44.714 21.4068L51.6879 22.9098C51.6905 22.9103 51.6931 22.9106 51.6956 22.9111C53.6431 26.5841 54.6675 30.698 54.6675 34.8852C54.6678 48.9922 43.1908 60.4691 29.0839 60.4691ZM51.5213 19.805L47.2433 18.883L50.8131 15.3206C51.3994 14.7353 51.4005 13.7857 50.8154 13.1993C50.2301 12.6128 49.2805 12.6118 48.694 13.1971L45.1386 16.745L44.2259 12.5096L51.6971 5.03834L52.7868 10.0938C52.9109 10.67 53.361 11.12 53.937 11.2441L58.9925 12.3337L51.5213 19.805Z" fill="#D94D2C"/>
</svg>
