<svg width="60" height="60" viewBox="0 0 60 60" fill="none" xmlns="http://www.w3.org/2000/svg">
<path d="M35.433 36.2156C34.9523 35.7351 34.1732 35.7351 33.6923 36.2156L23.2489 46.6592C22.7683 47.1398 22.7683 47.9191 23.2489 48.3998C23.7296 48.8805 24.5088 48.8803 24.9894 48.3998L35.4329 37.9563C35.9136 37.4755 35.9136 36.6962 35.433 36.2156Z" fill="#D94D2C"/>
<path d="M27.6004 40.5671C29.0399 39.1275 29.0399 36.7851 27.6004 35.3453C26.1574 33.9024 23.8218 33.9022 22.3786 35.3453C20.9391 36.785 20.9391 39.1274 22.3786 40.5671C23.8218 42.0103 26.1572 42.0102 27.6004 40.5671ZM24.1193 37.086C24.6002 36.6051 25.3788 36.605 25.8598 37.086C26.3397 37.5658 26.3397 38.3467 25.8598 38.8266C25.3796 39.3067 24.6012 39.3085 24.1193 38.8266C23.6394 38.3467 23.6394 37.5659 24.1193 37.086Z" fill="#D94D2C"/>
<path d="M31.0813 44.0484C29.6418 45.488 29.6418 47.8304 31.0813 49.27C32.5244 50.7131 34.86 50.7132 36.3032 49.27C37.7428 47.8305 37.7428 45.488 36.3032 44.0483C34.8605 42.6056 32.5244 42.6051 31.0813 44.0484ZM34.5626 47.5294C34.0824 48.0095 33.3039 48.0113 32.8219 47.5294C32.342 47.0496 32.3421 46.2687 32.8219 45.7888C33.3028 45.308 34.0813 45.3078 34.5626 45.7887C35.0424 46.2687 35.0426 47.0495 34.5626 47.5294Z" fill="#D94D2C"/>
<path d="M58.3077 37.3846C58.9873 37.3846 59.5385 36.8335 59.5385 36.1539V26.3077C59.5385 25.6985 59.0953 25.194 58.5142 25.0955L57.6368 21.0203C57.4937 20.3558 56.8387 19.9329 56.1745 20.0762C53.8367 20.579 51.5275 19.0873 51.0245 16.7508C50.5201 14.409 52.0074 12.1051 54.3499 11.6009C55.014 11.4579 55.4371 10.8031 55.2942 10.1387L53.4199 1.43336C53.2769 0.769362 52.622 0.345732 51.9577 0.489239C50.7033 0.75927 3.24432 10.9766 1.90192 11.2657C1.23779 11.4087 0.814779 12.0635 0.957794 12.7279L2.83201 21.4332C2.9749 22.0972 3.62967 22.5205 4.29429 22.3774C6.44912 21.913 8.52727 23.1334 9.26007 25.0769H1.69232C1.01256 25.0769 0.461548 25.6279 0.461548 26.3077V36.1539C0.461548 36.8335 1.01256 37.3846 1.69232 37.3846C4.4069 37.3846 6.61539 39.5931 6.61539 42.3077C6.61539 45.0223 4.4069 47.2308 1.69232 47.2308C1.01256 47.2308 0.461548 47.7819 0.461548 48.4615V58.3077C0.461548 58.9873 1.01256 59.5385 1.69232 59.5385H58.3077C58.9873 59.5385 59.5385 58.9873 59.5385 58.3077V48.4615C59.5385 47.7819 58.9873 47.2308 58.3077 47.2308C55.5931 47.2308 53.3846 45.0223 53.3846 42.3077C53.3846 39.5931 55.5931 37.3846 58.3077 37.3846ZM52.6519 9.56161C49.7161 10.7751 47.9079 13.97 48.6181 17.2691C49.3134 20.4982 52.2286 22.7321 55.466 22.6326L55.9921 25.0769H20.0064L17.1111 10.5092L51.2726 3.15459L52.6519 9.56161ZM5.00259 19.8199L3.62315 13.4129L14.7045 11.0273L17.4967 25.0769H11.8245C11.0644 21.8003 8.10081 19.7179 5.00259 19.8199ZM57.0769 49.5898V57.0769H16.4615V46C16.4615 45.3204 15.9105 44.7692 15.2308 44.7692C14.551 44.7692 14 45.3204 14 46V57.0769H2.92309V49.5898C6.41121 49.0021 9.07693 45.9604 9.07693 42.3077C9.07693 38.655 6.41121 35.6133 2.92309 35.0256V27.5385H43.5385V38.6154C43.5385 39.295 44.0896 39.8462 44.7692 39.8462C45.4489 39.8462 46 39.295 46 38.6154V27.5385H57.0769V35.0256C53.5888 35.6133 50.9231 38.655 50.9231 42.3077C50.9231 45.9604 53.5888 49.0021 57.0769 49.5898Z" fill="#D94D2C"/>
<path d="M7.84612 7.84616C9.88205 7.84616 11.5384 6.18979 11.5384 4.15386C11.5384 2.11792 9.88205 0.461548 7.84612 0.461548C5.81018 0.461548 4.15381 2.11792 4.15381 4.15386C4.15381 6.18979 5.81018 7.84616 7.84612 7.84616ZM7.84612 2.92309C8.52476 2.92309 9.07689 3.47521 9.07689 4.15386C9.07689 4.8325 8.52476 5.38462 7.84612 5.38462C7.16747 5.38462 6.61535 4.8325 6.61535 4.15386C6.61535 3.47521 7.16747 2.92309 7.84612 2.92309Z" fill="#D94D2C"/>
<path d="M26.6614 15.1788L38.969 11.4865C39.6201 11.2912 39.9896 10.605 39.7942 9.95392C39.5989 9.30284 38.9123 8.93324 38.2618 9.12869L25.9541 12.821C25.303 13.0163 24.9336 13.7025 25.1289 14.3536C25.3246 15.0061 26.012 15.3739 26.6614 15.1788Z" fill="#D94D2C"/>
<path d="M23.9095 20.543C24.1245 21.1879 24.8213 21.5363 25.4663 21.3214L43.9278 15.1676C44.5726 14.9526 44.9212 14.2556 44.7063 13.6108C44.4912 12.9659 43.7944 12.6173 43.1495 12.8323L24.6879 18.9862C24.043 19.2012 23.6945 19.8982 23.9095 20.543Z" fill="#D94D2C"/>
<path d="M14 39.8462H16.4615V42.3077H14V39.8462Z" fill="#D94D2C"/>
<path d="M14 34.9231H16.4615V37.3846H14V34.9231Z" fill="#D94D2C"/>
<path d="M14 30H16.4615V32.4615H14V30Z" fill="#D94D2C"/>
<path d="M43.5385 42.3077H46V44.7693H43.5385V42.3077Z" fill="#D94D2C"/>
<path d="M43.5385 47.2308H46V49.6924H43.5385V47.2308Z" fill="#D94D2C"/>
<path d="M43.5385 52.1538H46V54.6153H43.5385V52.1538Z" fill="#D94D2C"/>
</svg>
