<svg width="48" height="48" viewBox="0 0 48 48" fill="none" xmlns="http://www.w3.org/2000/svg">
<g clip-path="url(#clip0_1_620)">
<path d="M29.015 18.9756C28.9096 18.9756 28.8034 18.9576 28.7008 18.9214L24.0001 17.2496L19.299 18.9214C19.0079 19.025 18.6842 18.9781 18.434 18.7965C18.1839 18.6145 18.0393 18.3211 18.0477 18.0121L18.185 13.0246L15.1425 9.07024C14.9539 8.82561 14.8983 8.50298 14.9938 8.20891C15.0894 7.91484 15.3238 7.68706 15.6204 7.59953L20.4061 6.18888L23.2267 2.07302C23.4017 1.81813 23.691 1.66579 24.0001 1.66579C24.3092 1.66579 24.5985 1.81813 24.7735 2.07302L27.5941 6.18888L32.3798 7.59953C32.6764 7.68706 32.9108 7.91484 33.0064 8.20891C33.102 8.50298 33.0463 8.82525 32.8577 9.07024L29.8152 13.025L29.9525 18.0121C29.961 18.3211 29.8163 18.6148 29.5662 18.7965C29.4039 18.9144 29.2102 18.9756 29.015 18.9756ZM17.4628 9.01128L19.8744 12.1457C20.0058 12.3164 20.0743 12.5273 20.0684 12.743L19.9597 16.6963L23.6859 15.3713C23.8891 15.2992 24.1111 15.2992 24.3143 15.3713L28.0402 16.6963L27.9318 12.743C27.9255 12.5273 27.9944 12.3164 28.1259 12.1457L30.5374 9.01128L26.7441 7.89287C26.5372 7.83208 26.3578 7.70171 26.2358 7.52373L24.0001 4.2615L21.7644 7.52373C21.6424 7.70171 21.463 7.83208 21.2561 7.89287L17.4628 9.01128Z" fill="#D94D2C"/>
<path d="M37.6657 10.3436C37.4706 10.3436 37.2768 10.2824 37.1146 10.1645C36.8645 9.98283 36.7198 9.68949 36.7286 9.38041L36.7861 7.27908L35.5044 5.61281C35.3158 5.36782 35.2605 5.04555 35.3557 4.75148C35.4513 4.45741 35.6856 4.22963 35.9823 4.1421L37.9986 3.54774L39.187 1.81372C39.362 1.55847 39.6513 1.40613 39.9604 1.40613C40.2695 1.40613 40.5588 1.55847 40.7339 1.81372L41.9222 3.54774L43.9382 4.1421C44.2349 4.22963 44.4692 4.45741 44.5652 4.75148C44.6604 5.04555 44.6051 5.36782 44.4165 5.61281L43.1344 7.27908L43.1923 9.38041C43.201 9.68949 43.0564 9.98283 42.8063 10.1645C42.5561 10.3461 42.2324 10.3926 41.9413 10.2894L39.9604 9.58512L37.98 10.2894C37.8774 10.3256 37.7712 10.3436 37.6657 10.3436ZM39.9604 7.65262C40.0666 7.65262 40.1728 7.67056 40.2743 7.70682L41.2803 8.06424L41.251 6.9971C41.2447 6.7814 41.3136 6.57046 41.4451 6.39981L42.0958 5.55349L41.0719 5.25173C40.8653 5.19094 40.6855 5.06057 40.5636 4.88259L39.9601 4.00184L39.3565 4.88259C39.2346 5.06057 39.0552 5.19057 38.8482 5.25173L37.8243 5.55349L38.4754 6.39981C38.6065 6.57046 38.6754 6.7814 38.6692 6.9971L38.6399 8.06424L39.6459 7.70682C39.748 7.67056 39.8539 7.65262 39.9604 7.65262Z" fill="#D94D2C"/>
<path d="M10.3345 10.3436C10.2291 10.3436 10.1229 10.3256 10.0203 10.2894L8.03985 9.58512L6.05937 10.2894C5.76786 10.393 5.4445 10.3461 5.19401 10.1645C4.94388 9.98283 4.7996 9.68949 4.80802 9.38041L4.86588 7.27908L3.58377 5.61281C3.39517 5.36782 3.33987 5.04555 3.43545 4.75148C3.53103 4.45705 3.76541 4.22926 4.06204 4.14174L6.07804 3.54737L7.26641 1.81336C7.44145 1.55847 7.73076 1.40613 8.03985 1.40613C8.34893 1.40613 8.63824 1.55847 8.81329 1.81336L10.0016 3.54737L12.0176 4.1421C12.3143 4.22926 12.5487 4.45741 12.6442 4.75148C12.7398 5.04555 12.6842 5.36782 12.4959 5.61281L11.2138 7.27872L11.2717 9.38004C11.2801 9.68913 11.1358 9.98283 10.8857 10.1645C10.7235 10.2824 10.5301 10.3436 10.3345 10.3436ZM8.03985 7.65262C8.14605 7.65262 8.25262 7.67056 8.35406 7.70682L9.36004 8.06424L9.33075 6.9971C9.32452 6.7814 9.39337 6.57046 9.52447 6.39981L10.1756 5.55349L9.15167 5.25173C8.94476 5.19094 8.76531 5.06057 8.64337 4.88259L8.03985 4.00184L7.43633 4.88259C7.31438 5.06057 7.13493 5.19057 6.92802 5.25173L5.90409 5.55349L6.55522 6.39981C6.68669 6.57046 6.75517 6.7814 6.74931 6.9971L6.72002 8.06424L7.726 7.70682C7.82744 7.67056 7.93364 7.65262 8.03985 7.65262Z" fill="#D94D2C"/>
<path d="M24.0001 40.1723C23.9393 40.1723 23.8774 40.1657 23.8174 40.1537C23.7573 40.1423 23.6984 40.1236 23.642 40.1002C23.5848 40.0767 23.5303 40.0474 23.4797 40.0138C23.4281 39.9801 23.3805 39.9409 23.3373 39.8977C23.2941 39.8545 23.2549 39.8068 23.2212 39.7552C23.1871 39.7047 23.1582 39.6501 23.1348 39.593C23.1113 39.5366 23.0927 39.4776 23.0813 39.4176C23.0692 39.3575 23.0626 39.2956 23.0626 39.2348C23.0626 39.174 23.0692 39.1121 23.0813 39.0521C23.0927 38.992 23.1113 38.9331 23.1348 38.8759C23.1582 38.8195 23.1871 38.765 23.2212 38.7144C23.2549 38.6628 23.2941 38.6152 23.3373 38.572C23.3805 38.5288 23.4281 38.4896 23.4797 38.4559C23.5303 38.4218 23.5848 38.3929 23.642 38.3695C23.6984 38.346 23.7573 38.3281 23.8174 38.316C23.9382 38.2918 24.062 38.2918 24.1829 38.316C24.2429 38.3281 24.3019 38.346 24.3583 38.3695C24.4154 38.3929 24.4696 38.4218 24.5201 38.4559C24.5718 38.4896 24.6198 38.5288 24.663 38.572C24.7062 38.6152 24.7454 38.6628 24.7791 38.7144C24.8128 38.765 24.8421 38.8195 24.8655 38.8759C24.8889 38.9331 24.9076 38.992 24.9186 39.0521C24.931 39.1121 24.9376 39.174 24.9376 39.2348C24.9376 39.2956 24.931 39.3579 24.9186 39.4176C24.9065 39.4776 24.8889 39.5366 24.8655 39.593C24.8421 39.6501 24.8128 39.7047 24.7791 39.7552C24.7454 39.8068 24.7062 39.8545 24.663 39.8977C24.6198 39.9409 24.5718 39.9801 24.5201 40.0138C24.4696 40.0474 24.4154 40.0767 24.3583 40.1002C24.3019 40.1236 24.2429 40.1423 24.1829 40.1537C24.1228 40.1657 24.0609 40.1723 24.0001 40.1723Z" fill="#D94D2C"/>
<path d="M24.0001 37.0786C23.4823 37.0786 23.0626 36.6589 23.0626 36.1411V20.6719C23.0626 20.1544 23.4823 19.7344 24.0001 19.7344C24.518 19.7344 24.9376 20.1544 24.9376 20.6719V36.1411C24.9376 36.6585 24.518 37.0786 24.0001 37.0786Z" fill="#D94D2C"/>
<path d="M39.9139 31.1045C39.8648 31.1045 39.8161 31.1009 39.7671 31.0928C39.4616 31.0445 39.1998 30.8489 39.0669 30.5695L37.3819 27.0249L33.8377 25.34C33.5583 25.2074 33.3624 24.9456 33.314 24.6401C33.2657 24.3347 33.3712 24.0249 33.5956 23.8125L36.4459 21.115L36.9531 17.2232C36.993 16.9167 37.1816 16.6494 37.457 16.5091C37.7327 16.3685 38.0594 16.3733 38.3311 16.5212L41.7776 18.3981L45.6353 17.6781C45.9392 17.6209 46.2516 17.718 46.4702 17.9366C46.6888 18.1553 46.7855 18.4676 46.7291 18.7716L46.0088 22.6293L47.886 26.0757C48.0336 26.3474 48.0383 26.6745 47.8977 26.9499C47.7575 27.2252 47.4901 27.4138 47.1836 27.4538L43.2922 27.961L40.5943 30.8112C40.416 31.0002 40.1692 31.1045 39.9139 31.1045ZM35.8779 24.234L38.4882 25.4747C38.6827 25.5674 38.8398 25.7241 38.9325 25.919L40.1732 28.529L42.1595 26.4302C42.3078 26.2735 42.5056 26.1727 42.7195 26.1449L45.5851 25.7714L44.2026 23.2335C44.0997 23.0442 44.0649 22.8252 44.1045 22.6132L44.6348 19.7721L41.794 20.3027C41.582 20.3419 41.363 20.3075 41.1737 20.2042L38.6355 18.8221L38.2623 21.6877C38.2345 21.9016 38.1337 22.0994 37.977 22.2473L35.8779 24.234Z" fill="#D94D2C"/>
<path d="M25.6547 46.722C25.6221 46.722 25.5899 46.7206 25.5569 46.7173C25.042 46.6638 24.6677 46.2031 24.7208 45.6882C25.3353 39.7439 28.1973 35.2281 30.4902 32.4866C32.9661 29.5254 35.3077 27.9518 35.4058 27.8863C35.8369 27.5995 36.4188 27.716 36.7059 28.1474C36.9926 28.578 36.8758 29.1603 36.4448 29.4471C36.3558 29.5064 34.2325 30.9339 31.9283 33.6893C29.8035 36.2304 27.1514 40.4082 26.586 45.8812C26.5362 46.3632 26.1289 46.722 25.6547 46.722Z" fill="#D94D2C"/>
<path d="M8.08636 31.1045C7.83111 31.1045 7.58428 31.0002 7.40557 30.8116L4.70804 27.9613L0.8163 27.4541C0.50978 27.4142 0.242445 27.2256 0.102185 26.9498C-0.0380741 26.6745 -0.0336795 26.3474 0.11427 26.0761L1.99111 22.6296L1.27114 18.7716C1.21401 18.4676 1.31105 18.1552 1.52968 17.9366C1.74831 17.718 2.06069 17.6209 2.36465 17.6781L6.22233 18.3984L9.66876 16.5212C9.94049 16.3733 10.2675 16.3689 10.5429 16.5091C10.8183 16.6494 11.0069 16.9167 11.0468 17.2232L11.554 21.115L14.4046 23.8125C14.6291 24.0253 14.7342 24.3347 14.6859 24.6401C14.6375 24.9456 14.4416 25.2074 14.1626 25.3403L10.618 27.0253L8.93341 30.5695C8.80047 30.8486 8.53863 31.0445 8.23321 31.0928C8.18414 31.1009 8.13506 31.1045 8.08636 31.1045ZM2.41519 25.7714L5.2808 26.1449C5.49467 26.1727 5.69242 26.2735 5.84037 26.4302L7.82708 28.529L9.06781 25.919C9.16046 25.7241 9.3172 25.5674 9.51202 25.4747L12.122 24.234L10.0233 22.2473C9.86652 22.0994 9.76581 21.9016 9.73798 21.6877L9.36444 18.8221L6.82658 20.2046C6.63725 20.3075 6.41789 20.3423 6.20622 20.3027L3.36514 19.7724L3.89542 22.6132C3.93533 22.8252 3.90054 23.0446 3.79727 23.2335L2.41519 25.7714Z" fill="#D94D2C"/>
<path d="M22.3456 46.722C21.871 46.722 21.4641 46.3632 21.4143 45.8809C20.8485 40.4078 18.1967 36.2304 16.072 33.6893C13.7689 30.9353 11.6445 29.5064 11.5551 29.4471C11.1241 29.1599 11.0073 28.5777 11.2944 28.147C11.5815 27.716 12.1634 27.5991 12.5944 27.8863C12.6929 27.9518 15.0356 29.5273 17.5101 32.4866C19.803 35.2281 22.6649 39.7439 23.2794 45.6882C23.3325 46.2031 22.9582 46.6638 22.443 46.7169C22.4104 46.7206 22.3778 46.722 22.3456 46.722Z" fill="#D94D2C"/>
<path d="M31.365 46.5474C31.2343 46.5474 31.1013 46.5199 30.9746 46.462C30.504 46.246 30.2975 45.6897 30.5136 45.2187C31.9447 42.0982 34.3302 40.1727 36.0793 39.1067C37.9327 37.9769 39.4385 37.5576 39.6041 37.5133C40.1047 37.38 40.6181 37.6773 40.7514 38.1776C40.8847 38.6778 40.5873 39.1916 40.0871 39.3249C40.0736 39.3286 38.7109 39.6985 37.0549 40.7077C35.5292 41.6375 33.4513 43.3108 32.2176 46.0006C32.0601 46.3445 31.7202 46.5474 31.365 46.5474Z" fill="#D94D2C"/>
<path d="M17.524 46.5474C17.1688 46.5474 16.8289 46.3445 16.6711 46.0006C15.4377 43.3108 13.3598 41.6375 11.8338 40.7077C10.1781 39.6985 8.81508 39.3286 8.80153 39.3249C8.30128 39.1912 8.00392 38.6778 8.13759 38.1776C8.27089 37.6773 8.78469 37.38 9.28493 37.5133C9.45083 37.5576 10.9571 37.9776 12.8097 39.1067C14.5588 40.1727 16.9443 42.0982 18.3754 45.2187C18.5915 45.6897 18.385 46.246 17.914 46.462C17.7873 46.5199 17.6547 46.5474 17.524 46.5474Z" fill="#D94D2C"/>
<path d="M43.6731 34.6396C43.1556 34.6396 42.7356 34.2199 42.7356 33.7021V32.9217C42.7356 32.4039 43.1556 31.9842 43.6731 31.9842C44.1909 31.9842 44.6106 32.4039 44.6106 32.9217V33.7021C44.6106 34.2199 44.1909 34.6396 43.6731 34.6396Z" fill="#D94D2C"/>
<path d="M43.6731 38.8726C43.1556 38.8726 42.7356 38.4526 42.7356 37.9351V37.1544C42.7356 36.6369 43.1556 36.2169 43.6731 36.2169C44.1909 36.2169 44.6106 36.6369 44.6106 37.1544V37.9351C44.6106 38.4526 44.1909 38.8726 43.6731 38.8726Z" fill="#D94D2C"/>
<path d="M46.1798 36.3659H45.3994C44.882 36.3659 44.4619 35.9459 44.4619 35.4284C44.4619 34.9106 44.882 34.4909 45.3994 34.4909H46.1798C46.6976 34.4909 47.1173 34.9106 47.1173 35.4284C47.1173 35.9459 46.6976 36.3659 46.1798 36.3659Z" fill="#D94D2C"/>
<path d="M41.9471 36.3659H41.1667C40.6489 36.3659 40.2292 35.9459 40.2292 35.4284C40.2292 34.9106 40.6489 34.4909 41.1667 34.4909H41.9471C42.4649 34.4909 42.8846 34.9106 42.8846 35.4284C42.8846 35.9459 42.4649 36.3659 41.9471 36.3659Z" fill="#D94D2C"/>
<path d="M4.32679 34.6396C3.80896 34.6396 3.38928 34.2199 3.38928 33.7021V32.9217C3.38928 32.4039 3.80896 31.9842 4.32679 31.9842C4.84461 31.9842 5.26429 32.4039 5.26429 32.9217V33.7021C5.26429 34.2199 4.84461 34.6396 4.32679 34.6396Z" fill="#D94D2C"/>
<path d="M4.32679 38.8726C3.80896 38.8726 3.38928 38.4526 3.38928 37.9351V37.1544C3.38928 36.6369 3.80896 36.2169 4.32679 36.2169C4.84461 36.2169 5.26429 36.6369 5.26429 37.1544V37.9351C5.26429 38.4526 4.84461 38.8726 4.32679 38.8726Z" fill="#D94D2C"/>
<path d="M6.8335 36.3659H6.05311C5.53528 36.3659 5.1156 35.9459 5.1156 35.4284C5.1156 34.9106 5.53528 34.4909 6.05311 34.4909H6.8335C7.35133 34.4909 7.77101 34.9106 7.77101 35.4284C7.77101 35.9459 7.35133 36.3659 6.8335 36.3659Z" fill="#D94D2C"/>
<path d="M2.60084 36.3659H1.82007C1.30261 36.3659 0.882568 35.9459 0.882568 35.4284C0.882568 34.9106 1.30261 34.4909 1.82007 34.4909H2.60084C3.11866 34.4909 3.53834 34.9106 3.53834 35.4284C3.53834 35.9459 3.11866 36.3659 2.60084 36.3659Z" fill="#D94D2C"/>
</g>
<defs>
<clipPath id="clip0_1_620">
<rect width="48" height="48" fill="white"/>
</clipPath>
</defs>
</svg>
