<svg width="48" height="48" viewBox="0 0 48 48" fill="none" xmlns="http://www.w3.org/2000/svg">
<path d="M28.0747 28.6617C27.7141 28.3014 27.1298 28.3014 26.7692 28.6617L18.9366 36.4944C18.5761 36.8549 18.5761 37.4394 18.9366 37.7999C19.2972 38.1604 19.8816 38.1603 20.242 37.7999L28.0746 29.9672C28.4352 29.6067 28.4352 29.0222 28.0747 28.6617Z" fill="#D94D2C"/>
<path d="M22.2002 31.9254C23.2799 30.8456 23.2799 29.0888 22.2002 28.009C21.118 26.9268 19.3663 26.9267 18.2839 28.009C17.2043 29.0887 17.2043 30.8455 18.2839 31.9254C19.3663 33.0078 21.1178 33.0077 22.2002 31.9254ZM19.5894 29.3145C19.9502 28.9539 20.5341 28.9538 20.8948 29.3145C21.2547 29.6743 21.2547 30.26 20.8948 30.6199C20.5346 30.98 19.9509 30.9814 19.5894 30.6199C19.2295 30.26 19.2295 29.6744 19.5894 29.3145Z" fill="#D94D2C"/>
<path d="M24.811 34.5363C23.7314 35.616 23.7314 37.3728 24.811 38.4525C25.8933 39.5348 27.645 39.5349 28.7274 38.4525C29.8071 37.3729 29.8071 35.616 28.7274 34.5362C27.6454 33.4542 25.8933 33.4538 24.811 34.5363ZM27.4219 37.147C27.0618 37.5071 26.4779 37.5085 26.1164 37.147C25.7565 36.7872 25.7566 36.2015 26.1164 35.8416C26.4771 35.481 27.061 35.4809 27.4219 35.8415C27.7818 36.2015 27.7819 36.7871 27.4219 37.147Z" fill="#D94D2C"/>
<path d="M45.2307 29.5385C45.7405 29.5385 46.1538 29.1251 46.1538 28.6154V21.2308C46.1538 20.7739 45.8214 20.3955 45.3856 20.3216L44.7276 17.2652C44.6202 16.7669 44.129 16.4497 43.6309 16.5571C41.8775 16.9342 40.1456 15.8155 39.7683 14.0631C39.3901 12.3067 40.5055 10.5788 42.2624 10.2007C42.7605 10.0934 43.0778 9.60231 42.9706 9.10404L41.5649 2.57502C41.4577 2.07702 40.9665 1.7593 40.4682 1.86693C39.5274 2.06945 3.93321 9.73247 2.92641 9.9493C2.42831 10.0566 2.11105 10.5476 2.21831 11.0459L3.62398 17.5749C3.73115 18.0729 4.22222 18.3904 4.72068 18.283C6.33681 17.9347 7.89542 18.8501 8.44502 20.3077H2.76921C2.25939 20.3077 1.84613 20.721 1.84613 21.2308V28.6154C1.84613 29.1251 2.25939 29.5385 2.76921 29.5385C4.80515 29.5385 6.46151 31.1948 6.46151 33.2308C6.46151 35.2667 4.80515 36.9231 2.76921 36.9231C2.25939 36.9231 1.84613 37.3364 1.84613 37.8462V45.2308C1.84613 45.7405 2.25939 46.1539 2.76921 46.1539H45.2307C45.7405 46.1539 46.1538 45.7405 46.1538 45.2308V37.8462C46.1538 37.3364 45.7405 36.9231 45.2307 36.9231C43.1948 36.9231 41.5384 35.2667 41.5384 33.2308C41.5384 31.1948 43.1948 29.5385 45.2307 29.5385ZM40.9889 8.67121C38.787 9.58136 37.4309 11.9775 37.9635 14.4518C38.485 16.8737 40.6714 18.5491 43.0995 18.4745L43.4941 20.3077H16.5048L14.3333 9.38188L39.9544 3.86594L40.9889 8.67121ZM5.25191 16.365L4.21733 11.5597L12.5283 9.7705L14.6225 20.3077H10.3683C9.79825 17.8502 7.57558 16.2884 5.25191 16.365ZM44.3077 38.6923V44.3077H13.8461V36C13.8461 35.4903 13.4329 35.0769 12.9231 35.0769C12.4132 35.0769 12 35.4903 12 36V44.3077H3.69228V38.6923C6.30838 38.2516 8.30767 35.9703 8.30767 33.2308C8.30767 30.4913 6.30838 28.21 3.69228 27.7692V22.1539H34.1538V30.4615C34.1538 30.9713 34.5672 31.3846 35.0769 31.3846C35.5866 31.3846 36 30.9713 36 30.4615V22.1539H44.3077V27.7692C41.6916 28.21 39.6923 30.4913 39.6923 33.2308C39.6923 35.9703 41.6916 38.2516 44.3077 38.6923Z" fill="#D94D2C"/>
<path d="M7.38459 7.38462C8.91154 7.38462 10.1538 6.14235 10.1538 4.61539C10.1538 3.08844 8.91154 1.84616 7.38459 1.84616C5.85763 1.84616 4.61536 3.08844 4.61536 4.61539C4.61536 6.14235 5.85763 7.38462 7.38459 7.38462ZM7.38459 3.69231C7.89357 3.69231 8.30766 4.10641 8.30766 4.61539C8.30766 5.12438 7.89357 5.53847 7.38459 5.53847C6.8756 5.53847 6.46151 5.12438 6.46151 4.61539C6.46151 4.10641 6.8756 3.69231 7.38459 3.69231Z" fill="#D94D2C"/>
<path d="M21.496 12.8841L30.7267 10.1149C31.215 9.96839 31.4921 9.45378 31.3456 8.96547C31.1991 8.47716 30.6841 8.19996 30.1963 8.34655L20.9655 11.1158C20.4772 11.2623 20.2001 11.7769 20.3466 12.2652C20.4934 12.7546 21.0089 13.0304 21.496 12.8841Z" fill="#D94D2C"/>
<path d="M19.432 16.9073C19.5933 17.3909 20.1159 17.6523 20.5996 17.4911L34.4458 12.8757C34.9294 12.7145 35.1908 12.1917 35.0296 11.7081C34.8684 11.2244 34.3457 10.963 33.862 11.1243L20.0159 15.7397C19.5322 15.9009 19.2708 16.4237 19.432 16.9073Z" fill="#D94D2C"/>
<path d="M12 31.3846H13.8462V33.2308H12V31.3846Z" fill="#D94D2C"/>
<path d="M12 27.6923H13.8462V29.5385H12V27.6923Z" fill="#D94D2C"/>
<path d="M12 24H13.8462V25.8462H12V24Z" fill="#D94D2C"/>
<path d="M34.1538 33.2308H36V35.0769H34.1538V33.2308Z" fill="#D94D2C"/>
<path d="M34.1538 36.9231H36V38.7692H34.1538V36.9231Z" fill="#D94D2C"/>
<path d="M34.1538 40.6154H36V42.4615H34.1538V40.6154Z" fill="#D94D2C"/>
</svg>
